<?xml version="1.0" encoding="utf-8"?>
<!-- Generator: Adobe Illustrator 27.2.0, SVG Export Plug-In . SVG Version: 6.00 Build 0)  -->
<svg version="1.1" id="Layer_1" xmlns="http://www.w3.org/2000/svg" xmlns:xlink="http://www.w3.org/1999/xlink" x="0px" y="0px"
	 viewBox="0 0 1920 1080" style="enable-background:new 0 0 1920 1080;" xml:space="preserve">
<style type="text/css">
	.st0{fill:#E5AA1A;}
	.st1{fill:#018B84;}
	.st2{fill:#231F20;}
</style>
<g>
	<g>
		<path class="st0" d="M959.95,351.71c-6.88-0.02-12.34-5.5-12.24-12.5c0.08-6.06,4.83-12.08,12.26-12.08
			c8.04,0,12.43,6.6,12.32,12.42C972.17,346.38,966.81,351.72,959.95,351.71z"/>
		<path class="st1" d="M1084.31,498.9c0.05-6.24,4.96-11.01,11.26-10.94c6.05,0.07,10.92,5.08,10.87,11.16
			c-0.06,6.17-5.06,11-11.31,10.93C1089.03,509.99,1084.26,505.08,1084.31,498.9z"/>
		<path class="st1" d="M1106.25,457.88c-0.14,6.1-5.08,10.9-11.17,10.77c-6.19-0.13-11.02-5.32-10.76-11.4
			c0.26-6.07,5.16-10.82,11.28-10.65C1101.54,446.76,1106.53,451.76,1106.25,457.88z"/>
		<path class="st1" d="M1074.09,418.12c-0.27-5.26,4.3-10.62,10.51-10.61c5.86,0.01,10.63,4.68,10.69,10.51
			c0.06,5.93-4.75,10.74-10.7,10.71C1078.67,428.71,1074.09,424.08,1074.09,418.12z"/>
		<path class="st1" d="M1045.09,390.29c0-5.47,4.4-9.88,9.87-9.88c5.41,0,10.03,4.5,9.89,9.91c-0.17,6.44-5.18,9.88-9.92,9.88
			C1049.45,400.21,1045.09,395.79,1045.09,390.29z"/>
		<path class="st1" d="M1035.57,367.72c0.01,4.82-3.85,8.88-8.64,8.84c-5.36-0.04-8.86-4.05-8.94-8.79
			c-0.09-4.9,3.93-8.81,8.89-8.79C1031.72,359,1035.56,362.87,1035.57,367.72z"/>
		<path class="st1" d="M1006.01,351.66c0.01,4.82-3.85,8.88-8.64,8.84c-5.36-0.04-8.86-4.05-8.94-8.79
			c-0.08-4.9,3.93-8.81,8.89-8.79C1002.16,342.94,1006,346.8,1006.01,351.66z"/>
		<path class="st0" d="M960.1,304.67c4.34,0.01,7.47,3.22,7.42,7.62c-0.04,4.36-3.24,7.5-7.6,7.45c-4.29-0.05-7.5-3.33-7.47-7.64
			C952.47,307.81,955.73,304.65,960.1,304.67z"/>
		<g>
			<g>
				<path class="st1" d="M835.69,498.9c-0.05-6.24-4.96-11.01-11.26-10.94c-6.05,0.07-10.92,5.08-10.87,11.16
					c0.06,6.17,5.06,11,11.31,10.93C830.97,509.99,835.74,505.08,835.69,498.9z"/>
				<path class="st1" d="M813.75,457.88c0.14,6.1,5.08,10.9,11.17,10.77c6.19-0.13,11.02-5.32,10.76-11.4
					c-0.26-6.07-5.16-10.82-11.28-10.65C818.46,446.76,813.47,451.76,813.75,457.88z"/>
				<path class="st1" d="M845.91,418.12c0.27-5.26-4.3-10.62-10.51-10.61c-5.86,0.01-10.63,4.68-10.69,10.51
					c-0.06,5.93,4.75,10.74,10.7,10.71C841.33,428.71,845.91,424.08,845.91,418.12z"/>
				<path class="st1" d="M874.91,390.29c0-5.47-4.4-9.88-9.87-9.88c-5.41,0-10.03,4.5-9.89,9.91c0.17,6.44,5.18,9.88,9.92,9.88
					C870.55,400.21,874.91,395.79,874.91,390.29z"/>
				<path class="st1" d="M884.43,367.72c-0.01,4.82,3.85,8.88,8.64,8.84c5.36-0.04,8.86-4.05,8.94-8.79
					c0.09-4.9-3.93-8.81-8.89-8.79C888.28,359,884.44,362.87,884.43,367.72z"/>
				<path class="st1" d="M913.99,351.66c-0.01,4.82,3.85,8.88,8.64,8.84c5.36-0.04,8.86-4.05,8.94-8.79
					c0.08-4.9-3.93-8.81-8.89-8.79C917.84,342.94,914,346.8,913.99,351.66z"/>
			</g>
		</g>
		<g>
			<g>
				<path class="st1" d="M1042.21,605.24c-0.09,1.35-1.05,2.41-2.34,2.81c-1.86,0.58-2.71-0.58-3.69-1.5l-24.77-24.77
					c-0.33-0.33-0.69-0.67-1-1.04c-0.07-0.06-0.13-0.13-0.17-0.2c-0.98-1.28-0.8-2.71,0.17-3.5c0.39-0.35,0.91-0.56,1.54-0.65
					c0.75-0.09,10.91-0.05,12.2-0.11c0-0.63,0-90.33-0.02-128.78c0-11.25-2.61-21.88-8.29-31.61
					c-10.01-17.19-24.75-27.98-44.4-31.59c-13.76-2.52-27.14-0.46-38.69,5.04c-10.12,4.78-18.87,12.18-25.27,21.43
					c-4.8,6.9-8.32,14.85-10.12,23.47c-0.87,4.17-1.28,8.38-1.28,12.66c0.02,38.69,0.02,87.6,0.02,126.28v3.16
					c6.27,0.04,11.53-0.06,12.31,0.1c1.8,0.37,2.61,2.24,1.63,3.78c-0.3,0.48-0.74,0.89-1.15,1.28
					c-8.31,8.32-16.63,16.63-24.92,24.97c-1.22,1.22-2.43,2.3-4.26,1.54c-1.5-0.63-1.78-1.91-1.8-3.26
					c-0.02-0.24-0.02-0.46-0.02-0.69v-3.17c0-47.76-0.13-105.72,0.04-153.49c0.02-6.19,0.63-12.11,1.82-17.8
					c2.65-12.59,8.14-23.95,16.41-34.02c2.84-3.45,6.01-6.75,9.53-9.9c12.03-10.79,26.2-17.39,42.23-19.69
					c43.46-6.21,81.17,21.32,91.51,59.96c1.82,6.8,2.78,13.74,2.78,20.8v156.92C1042.21,604.19,1042.24,604.72,1042.21,605.24z"/>
				<path class="st1" d="M1056.05,471.32c0-2.91-0.14-5.82-0.54-8.7c-1.77-12.63-7.13-23.96-14.94-33.02
					c-7.38-8.58-16.93-15.11-27.72-18.82c-6.4-9.25-15.15-16.65-25.27-21.43c5.43-0.28,10.98-0.04,16.65,0.76
					c7.01,1,13.66,2.82,19.93,5.47c8.05,3.39,15.5,8.14,22.27,14.22c18.32,16.41,27.68,37.12,27.77,61.7
					c0.14,38.16,0.1,82.72,0.07,99.09c0,2.39-2.89,3.57-4.58,1.88l-11.97-11.97c-1.06-1.06-1.66-2.5-1.66-4.01L1056.05,471.32z"/>
				<path class="st1" d="M1010.41,577.05v3.69c-0.07-0.06-0.13-0.13-0.17-0.2C1009.26,579.27,1009.43,577.83,1010.41,577.05z"/>
				<path class="st0" d="M987.86,536.49c0-1.18-0.02-52.32-0.02-71.51c0-6.61,0.03-13.23-0.01-19.84
					c-0.03-4.45-0.76-8.76-2.69-12.83c-5.33-11.26-16.78-17.05-27.98-15.78c-12.34,1.4-21.77,10.12-24.18,22.02
					c-0.35,1.75-0.53,3.56-0.53,5.34c-0.03,26.45-0.03,63.11-0.02,89.56c0,0.88,0,1.98,0.06,3.09c1.01,0,1.79-0.01,2.57-0.01
					c2.78,0.03,5.55-0.01,8.33,0.03c0.72,0.01,1.48,0.07,2.14,0.31c1.31,0.47,1.87,2.06,1.1,3.24c-0.34,0.51-0.81,0.94-1.25,1.38
					c-8.43,8.43-16.85,16.86-25.28,25.29c-0.35,0.35-0.7,0.72-1.09,1.04c-1.54,1.27-3.95,0.52-4.34-1.44
					c-0.13-0.67-0.1-1.37-0.1-2.06c-0.01-4.49,0-8.98,0-13.47c0-31.84-0.01-73.88,0.01-105.72c0-9.27,2.16-17.98,7.34-25.76
					c7.87-11.81,18.81-18.9,32.99-20.44c16.53-1.8,30.13,4.01,40.68,16.76c5.2,6.29,8.39,13.59,9.4,21.74
					c0.33,2.66,0.5,5.37,0.5,8.05c0.03,36.09,0.02,82.37,0.02,118.46c0,0.72,0.03,1.45-0.04,2.16c-0.19,1.95-2.32,3.17-3.96,2.11
					c-0.56-0.36-1.02-0.88-1.5-1.36c-8.43-8.43-16.86-16.86-25.29-25.29c-0.34-0.34-0.7-0.67-1-1.04c-1.43-1.8-0.65-3.56,1.62-3.89
					C975.98,536.53,987.38,536.53,987.86,536.49z"/>
				<path class="st1" d="M864.28,471.32c0-2.91,0.14-5.82,0.54-8.7c1.77-12.63,7.13-23.96,14.94-33.02
					c7.38-8.58,16.93-15.11,27.72-18.82c6.4-9.25,15.15-16.65,25.27-21.43c-5.43-0.28-10.98-0.04-16.65,0.76
					c-7.01,1-13.66,2.82-19.93,5.47c-8.05,3.39-15.5,8.14-22.27,14.22c-18.32,16.41-27.68,37.12-27.77,61.7
					c-0.14,38.16-0.1,82.72-0.07,99.09c0,2.39,2.89,3.57,4.58,1.88l11.97-11.97c1.06-1.06,1.66-2.5,1.66-4.01L864.28,471.32z"/>
			</g>
			<path class="st0" d="M959.95,351.71c-6.88-0.02-12.34-5.5-12.24-12.5c0.08-6.06,4.83-12.08,12.26-12.08
				c8.04,0,12.43,6.6,12.32,12.42C972.17,346.38,966.81,351.72,959.95,351.71z"/>
			<path class="st1" d="M1084.31,498.9c0.05-6.24,4.96-11.01,11.26-10.94c6.05,0.07,10.92,5.08,10.87,11.16
				c-0.06,6.17-5.06,11-11.31,10.93C1089.03,509.99,1084.26,505.08,1084.31,498.9z"/>
			<path class="st1" d="M1106.25,457.88c-0.14,6.1-5.08,10.9-11.17,10.77c-6.19-0.13-11.02-5.32-10.76-11.4
				c0.26-6.07,5.16-10.82,11.28-10.65C1101.54,446.76,1106.53,451.76,1106.25,457.88z"/>
			<path class="st1" d="M1074.09,418.12c-0.27-5.26,4.3-10.62,10.51-10.61c5.86,0.01,10.63,4.68,10.69,10.51
				c0.06,5.93-4.75,10.74-10.7,10.71C1078.67,428.71,1074.09,424.08,1074.09,418.12z"/>
			<path class="st1" d="M1045.09,390.29c0-5.47,4.4-9.88,9.87-9.88c5.41,0,10.03,4.5,9.89,9.91c-0.17,6.44-5.18,9.88-9.92,9.88
				C1049.45,400.21,1045.09,395.79,1045.09,390.29z"/>
			<path class="st1" d="M1035.57,367.72c0.01,4.82-3.85,8.88-8.64,8.84c-5.36-0.04-8.86-4.05-8.94-8.79
				c-0.09-4.9,3.93-8.81,8.89-8.79C1031.72,359,1035.56,362.87,1035.57,367.72z"/>
			<path class="st1" d="M1006.01,351.66c0.01,4.82-3.85,8.88-8.64,8.84c-5.36-0.04-8.86-4.05-8.94-8.79
				c-0.08-4.9,3.93-8.81,8.89-8.79C1002.16,342.94,1006,346.8,1006.01,351.66z"/>
			<g>
				<g>
					<path class="st1" d="M835.69,498.9c-0.05-6.24-4.96-11.01-11.26-10.94c-6.05,0.07-10.92,5.08-10.87,11.16
						c0.06,6.17,5.06,11,11.31,10.93C830.97,509.99,835.74,505.08,835.69,498.9z"/>
					<path class="st1" d="M813.75,457.88c0.14,6.1,5.08,10.9,11.17,10.77c6.19-0.13,11.02-5.32,10.76-11.4
						c-0.26-6.07-5.16-10.82-11.28-10.65C818.46,446.76,813.47,451.76,813.75,457.88z"/>
					<path class="st1" d="M845.91,418.12c0.27-5.26-4.3-10.62-10.51-10.61c-5.86,0.01-10.63,4.68-10.69,10.51
						c-0.06,5.93,4.75,10.74,10.7,10.71C841.33,428.71,845.91,424.08,845.91,418.12z"/>
					<path class="st1" d="M874.91,390.29c0-5.47-4.4-9.88-9.87-9.88c-5.41,0-10.03,4.5-9.89,9.91c0.17,6.44,5.18,9.88,9.92,9.88
						C870.55,400.21,874.91,395.79,874.91,390.29z"/>
					<path class="st1" d="M884.43,367.72c-0.01,4.82,3.85,8.88,8.64,8.84c5.36-0.04,8.86-4.05,8.94-8.79
						c0.09-4.9-3.93-8.81-8.89-8.79C888.28,359,884.44,362.87,884.43,367.72z"/>
					<path class="st1" d="M913.99,351.66c-0.01,4.82,3.85,8.88,8.64,8.84c5.36-0.04,8.86-4.05,8.94-8.79
						c0.08-4.9-3.93-8.81-8.89-8.79C917.84,342.94,914,346.8,913.99,351.66z"/>
				</g>
			</g>
		</g>
	</g>
	<g>
		<g>
			<g>
				<path class="st2" d="M548.57,739.55v6.54h-11.13v28.49h-7.46v-28.49h-11.19v-6.54H548.57z"/>
				<path class="st2" d="M576.84,739.55h7.46v35.03h-7.46v-14.54h-16.27v14.54h-7.46v-35.03h7.46v14h16.27V739.55z"/>
				<path class="st2" d="M599.49,768.31h16.22v6.27h-23.68v-35.03h23.41v6.22h-15.95v7.89h13.78l-0.88,6.16h-12.91V768.31z"/>
				<path class="st2" d="M660.74,739.55v6.54h-11.13v28.49h-7.46v-28.49h-11.19v-6.54H660.74z"/>
				<path class="st2" d="M672.74,768.31h16.22v6.27h-23.68v-35.03h23.41v6.22h-15.95v7.89h13.78l-0.88,6.16h-12.91V768.31z"/>
				<path class="st2" d="M726.26,739.55v35.03h-8.32l-11.01-16.33c-0.94-1.44-1.74-2.69-2.39-3.76c-0.65-1.06-1.28-2.26-1.9-3.59
					v23.68h-7.46v-35.03h8.22l11.99,17.95c0.14,0.22,0.47,0.71,0.98,1.49c0.51,0.77,0.97,1.51,1.38,2.19c0.41,0.69,0.77,1.35,1.06,2
					v-23.62H726.26z"/>
				<path class="st2" d="M760.59,739.55v6.54h-11.13v28.49h-7.46v-28.49H730.8v-6.54H760.59z"/>
				<g>
					<path class="st2" d="M780.95,773.01c-2.61-1.55-4.59-3.7-5.92-6.46c-1.33-2.76-2-5.95-2-9.59c0-4.04,0.81-7.41,2.43-10.14
						c1.62-2.72,3.77-4.74,6.46-6.05c2.68-1.31,5.67-1.97,8.95-1.97c3.75,0,6.93,0.78,9.54,2.32c2.61,1.55,4.58,3.7,5.89,6.46
						c1.32,2.76,1.97,5.96,1.97,9.6c0,4.04-0.8,7.42-2.41,10.14c-1.6,2.72-3.75,4.74-6.43,6.05c-2.69,1.31-5.67,1.97-8.95,1.97
						C786.74,775.33,783.56,774.56,780.95,773.01z M795.92,767.63c1.49-0.95,2.61-2.32,3.35-4.11c0.74-1.78,1.11-3.88,1.11-6.3
						c0-3.82-0.81-6.8-2.43-8.95c-1.62-2.14-3.98-3.22-7.08-3.22c-3.24,0-5.71,1.05-7.41,3.16c-1.69,2.11-2.54,5-2.54,8.68
						c0,3.82,0.81,6.8,2.43,8.95c1.62,2.15,4,3.22,7.13,3.22C792.62,769.06,794.43,768.59,795.92,767.63z"/>
					<path class="st2" d="M836.17,745.77h-15.95v8.76h13.78l-0.88,6.16h-12.91v13.89h-7.46v-35.03h23.41V745.77z"/>
				</g>
				<path class="st2" d="M872.5,739.55l12.6,34.6v0.43h-8.16l-2.81-8.38h-12.97l-2.76,8.38h-8.05v-0.43l12.6-34.6H872.5z
					 M863.2,760.04h8.87l-4.49-13.35L863.2,760.04z"/>
				<path class="st2" d="M897.09,767.98h16.11v6.59h-23.57v-35.03h7.46V767.98z"/>
				<path class="st2" d="M919.52,771.12l3.46-5.35c3.35,2.13,6.63,3.19,9.84,3.19c2.05,0,3.67-0.32,4.84-0.97
					c1.17-0.65,1.76-1.62,1.76-2.92c0-0.79-0.19-1.45-0.57-1.97c-0.38-0.52-1.04-1.03-2-1.51c-0.96-0.49-2.39-1.11-4.3-1.86
					l-1.24-0.49c-2.31-0.9-4.16-1.77-5.57-2.59c-1.41-0.83-2.52-1.89-3.35-3.19c-0.83-1.3-1.24-2.94-1.24-4.92
					c0-2.2,0.63-4.03,1.89-5.49s2.88-2.53,4.87-3.22s4.09-1.03,6.32-1.03c2.02,0,4.1,0.33,6.24,1c2.14,0.67,4.19,1.65,6.14,2.95
					l-3.49,5.3c-1.72-1.04-3.24-1.8-4.57-2.27c-1.32-0.47-2.76-0.7-4.3-0.7c-1.72,0-3.02,0.29-3.9,0.87
					c-0.88,0.58-1.32,1.35-1.32,2.32c0,0.61,0.18,1.16,0.54,1.65c0.36,0.49,1,0.97,1.93,1.46c0.93,0.49,2.28,1.05,4.03,1.7
					l1.18,0.43c2.29,0.87,4.15,1.68,5.56,2.43c1.41,0.76,2.61,1.84,3.57,3.24c0.97,1.41,1.45,3.23,1.45,5.46
					c0,2.34-0.61,4.31-1.84,5.92c-1.23,1.6-2.89,2.8-5,3.6c-2.11,0.79-4.5,1.19-7.16,1.19C927.9,775.33,923.31,773.93,919.52,771.12
					z"/>
				<path class="st2" d="M971.1,739.55l12.6,34.6v0.43h-8.16l-2.81-8.38h-12.97l-2.76,8.38h-8.05v-0.43l12.6-34.6H971.1z
					 M961.8,760.04h8.87l-4.49-13.35L961.8,760.04z"/>
				<path class="st2" d="M984.18,771.28l3.78-5.08c0.99,0.79,1.95,1.37,2.88,1.73c0.93,0.36,1.97,0.54,3.1,0.54
					c1.72,0,3.02-0.49,3.92-1.46c0.9-0.97,1.34-2.34,1.34-4.11v-23.73h7.46v23.89c0,2.99-0.61,5.37-1.84,7.13s-2.74,3-4.54,3.7
					c-1.8,0.7-3.68,1.05-5.62,1.05C990.48,774.96,986.99,773.73,984.18,771.28z"/>
				<path class="st2" d="M1008.56,771.28l3.78-5.08c0.99,0.79,1.95,1.37,2.88,1.73c0.93,0.36,1.97,0.54,3.1,0.54
					c1.72,0,3.02-0.49,3.92-1.46c0.9-0.97,1.34-2.34,1.34-4.11v-23.73h7.46v23.89c0,2.99-0.61,5.37-1.84,7.13
					c-1.22,1.77-2.74,3-4.54,3.7c-1.8,0.7-3.68,1.05-5.62,1.05C1014.86,774.96,1011.37,773.73,1008.56,771.28z"/>
				<path class="st2" d="M1055.97,739.55l12.6,34.6v0.43h-8.16l-2.81-8.38h-12.97l-2.76,8.38h-8.05v-0.43l12.6-34.6H1055.97z
					 M1046.67,760.04h8.87l-4.49-13.35L1046.67,760.04z"/>
				<path class="st2" d="M1098.89,743.52c3.35,2.65,5.03,7.16,5.03,13.54c0,3.89-0.88,7.15-2.65,9.78
					c-1.77,2.63-4.12,4.58-7.06,5.84c-2.94,1.26-6.17,1.89-9.7,1.89h-11.41v-35.03h11.68
					C1090.83,739.55,1095.54,740.87,1098.89,743.52z M1090.43,767.09c1.84-0.6,3.24-1.68,4.18-3.27c0.94-1.59,1.41-3.84,1.41-6.76
					c0-2.7-0.42-4.85-1.27-6.43c-0.85-1.58-2.1-2.73-3.75-3.43c-1.66-0.7-3.74-1.05-6.26-1.05h-4.18v21.84h2.48
					C1086.13,767.98,1088.59,767.69,1090.43,767.09z"/>
				<g>
					<path class="st2" d="M1138.17,745.77h-15.95v8.76h13.78l-0.88,6.16h-12.91v13.89h-7.46v-35.03h23.41V745.77z"/>
					<path class="st2" d="M1149.49,773.01c-2.61-1.55-4.59-3.7-5.92-6.46s-2-5.95-2-9.59c0-4.04,0.81-7.41,2.43-10.14
						c1.62-2.72,3.77-4.74,6.46-6.05c2.68-1.31,5.67-1.97,8.95-1.97c3.75,0,6.93,0.77,9.54,2.32c2.61,1.55,4.58,3.7,5.89,6.46
						s1.97,5.96,1.97,9.6c0,4.04-0.8,7.41-2.41,10.13c-1.6,2.72-3.75,4.74-6.43,6.05c-2.69,1.31-5.67,1.97-8.95,1.97
						C1155.28,775.33,1152.11,774.56,1149.49,773.01z M1164.47,767.63c1.49-0.95,2.61-2.32,3.35-4.11c0.74-1.78,1.11-3.88,1.11-6.3
						c0-3.82-0.81-6.8-2.43-8.95c-1.62-2.14-3.98-3.22-7.08-3.22c-3.24,0-5.71,1.05-7.41,3.16c-1.69,2.11-2.54,5-2.54,8.68
						c0,3.82,0.81,6.8,2.43,8.95c1.62,2.15,4,3.22,7.13,3.22C1161.16,769.06,1162.97,768.59,1164.47,767.63z"/>
				</g>
				<path class="st2" d="M1213.58,774.15v0.43H1205l-8.8-12.76h-2.95v12.76h-7.46v-35.03h11.73c3.1,0,5.68,0.48,7.76,1.43
					c2.07,0.96,3.61,2.25,4.62,3.89c1.01,1.64,1.51,3.5,1.51,5.59c0,2.45-0.61,4.57-1.84,6.35c-1.23,1.78-3.03,3.11-5.41,3.97
					L1213.58,774.15z M1193.25,756.04h3.37c2.21,0,3.91-0.41,5.11-1.24c1.2-0.83,1.8-2.2,1.8-4.11c0-1.66-0.53-2.9-1.6-3.73
					c-1.07-0.83-2.56-1.24-4.47-1.24h-4.2V756.04z"/>
				<path class="st2" d="M1260.34,739.55v0.43l-12.97,20v14.59h-7.46V760.2l-12.65-20.22v-0.43h8.65l7.89,13.51l8.22-13.51H1260.34z
					"/>
				<path class="st2" d="M1268.47,773.01c-2.61-1.55-4.59-3.7-5.92-6.46s-2-5.95-2-9.59c0-4.04,0.81-7.41,2.43-10.14
					c1.62-2.72,3.77-4.74,6.46-6.05c2.68-1.31,5.67-1.97,8.95-1.97c3.75,0,6.93,0.77,9.54,2.32c2.61,1.55,4.58,3.7,5.89,6.46
					c1.32,2.76,1.97,5.96,1.97,9.6c0,4.04-0.8,7.41-2.41,10.13c-1.6,2.72-3.75,4.74-6.43,6.05c-2.69,1.31-5.67,1.97-8.95,1.97
					C1274.27,775.33,1271.09,774.56,1268.47,773.01z M1283.45,767.63c1.49-0.95,2.61-2.32,3.35-4.11c0.74-1.78,1.11-3.88,1.11-6.3
					c0-3.82-0.81-6.8-2.43-8.95c-1.62-2.14-3.98-3.22-7.08-3.22c-3.24,0-5.71,1.05-7.41,3.16c-1.69,2.11-2.54,5-2.54,8.68
					c0,3.82,0.81,6.8,2.43,8.95c1.62,2.15,4,3.22,7.13,3.22C1280.14,769.06,1281.95,768.59,1283.45,767.63z"/>
				<path class="st2" d="M1307.37,772.98c-2.27-1.31-3.92-3.1-4.95-5.35c-1.03-2.25-1.54-4.82-1.54-7.7v-20.76h7.46v19.84
					c0,3.03,0.61,5.38,1.83,7.06c1.22,1.68,3.35,2.51,6.39,2.51c2.89,0,4.93-0.84,6.11-2.51s1.78-3.85,1.78-6.51v-20.38h7.46v20.6
					c0,3.57-0.69,6.48-2.05,8.73c-1.37,2.25-3.23,3.89-5.59,4.92c-2.36,1.03-5.09,1.54-8.19,1.54
					C1312.54,774.96,1309.64,774.3,1307.37,772.98z"/>
				<path class="st2" d="M1365.48,739.55v6.54h-11.13v28.49h-7.46v-28.49h-11.19v-6.54H1365.48z"/>
				<path class="st2" d="M1393.75,739.55h7.46v35.03h-7.46v-14.54h-16.27v14.54h-7.46v-35.03h7.46v14h16.27V739.55z"/>
			</g>
		</g>
		<g>
			<path class="st2" d="M843,652.24c1.18,0,2.76,0.39,3.64,1.38c0.88,0.89,1.47,2.26,1.47,3.64s-0.59,2.76-1.47,3.64
				c-0.88,0.98-2.46,1.67-3.64,1.67c-2.66,0-5.12-2.66-5.12-5.31C837.88,654.51,840.25,652.24,843,652.24z M863.47,701.25
				c-1.48-1.18-4.53-4.82-4.53-6.89c-0.89,1.58-1.87,2.95-2.85,3.74c-2.36,1.28-4.43,1.67-7.09,1.67c-1.57,0-3.15-0.1-4.82-0.79
				c-1.38-1.08-2.66-2.26-3.94-4.13c-0.79-1.38-1.38-3.74-1.58-6c0.1-2.26,0.59-4.04,0.89-5.51c0.59-1.28,1.97-2.76,2.95-4.33
				c0.98-1.48,2.85-2.36,4.72-3.45c1.48-0.69,3.74-1.87,6.3-1.97c1.58-0.39,3.05-0.69,4.62-0.98v-6.99h9.25l-0.3,18.21l0.1,3.35
				c0,2.17,1.18,2.85,2.95,3.74v10.33H863.47z M858.36,687.18c0-0.98-0.1-1.87-0.1-2.26v-2.85c-2.07-0.1-3.94,0.1-5.41,0.2
				c-0.59,0.1-1.08,0.1-1.58,0.2c-1.28,0.2-2.26,0.49-3.64,0.98c-1.08,0.98-1.28,1.87-1.48,2.56c1.08,0.79,2.17,1.08,3.45,1.48
				c1.08,0.29,2.56,0.89,4.82,0.49C855.7,687.77,856.88,687.48,858.36,687.18z M855.21,652.24c1.18,0,2.76,0.39,3.64,1.38
				c0.89,0.89,1.48,2.26,1.48,3.64s-0.59,2.76-1.48,3.64c-0.88,0.98-2.46,1.67-3.64,1.67c-2.66,0-5.12-2.66-5.12-5.31
				C850.09,654.51,852.45,652.24,855.21,652.24z"/>
			<path class="st2" d="M863.47,690.92h6.69c2.17,1.08,10.83,1.87,13.38,1.87c3.74,0,7.48-0.89,11.12-1.77h7.87v7.18
				c-6,4.13-13.97,6.89-21.35,6.89c-5.51,0-13.19-0.79-17.72-3.84V690.92z"/>
			<path class="st2" d="M892.21,709.91c1.18,0,2.76,0.39,3.64,1.38c0.89,0.88,1.48,2.26,1.48,3.64c0,1.38-0.59,2.76-1.48,3.64
				c-0.88,0.98-2.46,1.67-3.64,1.67c-2.66,0-5.12-2.66-5.12-5.31C887.1,712.18,889.46,709.91,892.21,709.91z M907.27,674.19
				l1.48,9.55c0.1,2.07,0,4.04-0.3,5.81c0,4.13-2.75,6.5-5.9,8.66h-7.87v-7.18c1.87-0.49,3.35-0.98,4.43-1.28
				c0-1.77-0.2-2.26-0.39-4.92l-0.89-9.55L907.27,674.19z M904.42,709.91c1.18,0,2.75,0.39,3.64,1.38c0.89,0.88,1.48,2.26,1.48,3.64
				c0,1.38-0.59,2.76-1.48,3.64c-0.89,0.98-2.46,1.67-3.64,1.67c-2.66,0-5.12-2.66-5.12-5.31
				C899.3,712.18,901.66,709.91,904.42,709.91z"/>
			<path class="st2" d="M925.97,670.75l2.95-5.22c1.77,1.28,3.64,2.26,4.82,3.54c1.38,1.18,2.95,2.95,3.64,3.84
				c2.36,2.76,3.64,6,4.53,9.55c0.49,1.87,0.79,3.74,0.49,5.61c-0.2,2.56-0.49,4.23-1.28,6.1c-0.59,1.77-1.77,3.25-2.66,4.92
				c-1.48,0.79-2.66,2.07-4.33,2.76c-2.75,1.67-6.3,2.07-9.45,2.26c-1.87,0-3.74-0.29-5.51-0.79c-2.46-0.98-5.41-2.36-6.3-5.02
				l2.16-8.27c3.25,0.29,6.5,0.69,9.74,0.98c3.05,0,6.2-0.69,8.17-1.08c0.59-0.2,1.08-0.29,1.38-0.39c0.1-0.59,0-1.18-0.29-1.77
				c-0.98-2.26-4.43-5.91-6.3-7.38c-1.38-1.38-2.85-2.75-4.53-3.94C924.1,674.49,924.89,672.62,925.97,670.75z"/>
			<path class="st2" d="M953.73,701.25c-2.76-1.97-4.13-3.74-4.63-5.61c-0.69-2.46-1.38-4.13-1.38-6.79v-5.41l0.49-5.61l-0.2-4.82
				v-5.31l0.1-5.61l-0.29-4.82v-5.22h9.55v5.61l0.1,5.12l-0.2,5.81l0.2,5.81l-0.2,5.31l0.2,5.81c0,1.48,0.1,4.04,2.95,5.41v10.33
				H953.73z"/>
			<path class="st2" d="M960.42,690.92c3.35,1.77,16.24,3.05,20.17,3.05c9.15,0,15.35-0.29,24.01-2.95h7.87v7.18
				c-8.76,6.1-22.73,8.07-33.17,8.07c-7.28,0-19.88-0.89-25.59-5.02v-10.33H960.42z"/>
			<path class="st2" d="M1001.07,686.89l-4.92-5.91c0.78-1.67,2.26-3.84,2.95-5.12c1.58-1.58,2.86-2.66,4.13-3.54
				c1.67-0.69,3.15-1.28,5.61-1.38c1.77-0.3,7.97,1.48,9.74,2.36c0.39,0.2,0.79,0.49,1.28,0.69c3.05,1.67,6.2,2.46,9.55,3.35
				c2.36,0.79,4.62,0.69,6.89,0.89l2.95,0.2l0.1,10.04h-5.51c-0.69,0-1.48-0.1-2.16-0.2c-0.1,0-0.2,0-0.2,0
				c0.2,0.39,0.49,0.69,0.79,0.98c0.59,0.79,1.57,1.18,3.94,1.67c1.47,0.2,4.33,0.2,7.18,0.29v12.01l-2.95,0.79
				c-2.26,0-4.82-0.29-6.4-1.18c-3.94-0.98-5.51-2.85-7.68-6.1c-0.98-2.07-1.67-4.63-1.97-6.89c-1.57,0.89-2.66,2.46-4.13,3.64
				c-2.26,1.77-5.02,3.15-7.78,4.72h-7.87v-7.18c5.31-1.28,10.04-2.95,14.66-5.71c-0.69-0.2-1.38-0.49-2.07-0.69
				c-1.38-0.49-2.95-0.89-4.53-1.48c-0.98-0.29-1.87-0.49-2.66-0.59c-0.79-0.1-1.48-0.1-2.26,0L1001.07,686.89z M1021.54,709.91
				c3.15,0,5.71,2.36,5.71,5.61c0,2.95-2.66,5.9-5.71,5.9c-2.95,0-5.71-3.05-5.71-5.9C1015.83,712.57,1018.59,709.91,1021.54,709.91
				z"/>
			<path class="st2" d="M1095.55,678.62l-0.29,5.22l0.1,3.35c0,1.18,0.2,2.07,0.88,2.76c0.89,0.79,2.76,1.18,6.6,1.28v11.81
				l-2.95,0.98c-1.67,0-3.54,0-4.92-0.29c-1.77-0.59-3.25-1.18-4.23-1.87c-1.08-1.08-1.87-1.97-2.46-2.85
				c-1.18,1.77-1.87,2.95-3.05,3.84c-1.37,1.08-2.75,0.98-4.33,1.18c-1.57,0.29-3.25-0.69-4.82-1.87c-0.79-0.49-1.48-1.08-2.07-1.77
				c-0.79,0.88-1.67,1.77-2.56,2.66c-1.57,0.69-3.35,1.28-5.51,1.18c-4.72-0.98-8.66-3.05-12.2-6.2c-1.08,1.48-3.15,3.54-4.63,4.33
				c-2.07,1.08-6.3,1.67-8.66,1.67v-9.74l2.95-3.05c2.46,0,3.44-0.29,4.82-0.59c0.98-2.16,1.28-3.35,2.26-5.41
				c0.39-0.89,0.98-2.07,1.77-3.54l2.85,1.38l5.51,2.36c-0.59,1.58-1.18,3.05-1.77,4.33c0.98,0.39,2.26,0.79,3.54,1.08
				c1.08,0.3,2.26,0.39,3.45,0.3c1.38,0.1,2.07-0.2,2.76-0.2c0.29-0.59,0.69-1.57,1.18-2.85c0.49-1.38,1.08-3.25,1.97-5.71
				l2.76,1.08l5.81,1.67c-0.49,1.77-0.98,3.44-1.48,4.92c1.38,0.69,3.45,1.08,4.92,1.28c0.49-0.1,2.16-0.29,2.46-0.29
				c0.2-0.89,0.1-2.26,0.2-3.25v-2.85l-0.1-6.3H1095.55z"/>
			<path class="st2" d="M1099.88,694.36l2.95-3.15c2.36-0.1,4.23-0.1,5.02-1.18v-5.31l0.3-5.61l-0.2-5.31l0.1-5.22v-5.61l0.1-5.41
				l-0.3-5.61h9.55l-0.1,5.91l0.1,6.2v6l0.1,5.61c-0.2,2.16-0.49,4.33-0.49,6.5c0,2.36,0.49,4.33,0,6.2
				c-0.59,2.26-1.08,3.64-1.48,5.22c-1.48,4.82-5.51,8.56-10.33,9.94c-1.38,0.39-3.64,0.29-5.31,0.49V694.36z"/>
			<path class="st2" d="M1125.18,704.21l-0.49-5.61l0.49-10.04l-0.2-5.51l0.1-5.32c-0.1-1.67-0.39-3.44-0.39-5.12
				c0-1.67,0.2-3.35,0.29-4.92v-5.31l0.2-5.32l-0.39-5.31h9.74l0.1,5.12c0.1,1.77,0.29,3.64,0.29,5.41c0,1.77-0.29,3.54-0.39,5.31
				l0.1,5.02l0.29,5.02l-0.29,5.41v5.51l-0.2,4.72l0.49,5.22l-0.2,5.51L1125.18,704.21z"/>
			<g>
				<path class="st2" d="M993.46,658.2l0.35,1.98v2.92l0.12,1.17v0.47c0,0.7-0.12,1.4-0.23,1.98c-0.23,0.58-0.47,1.28-0.82,1.75
					l-0.35,0.35c-0.23,0.47-0.58,0.82-0.94,1.17c-0.23,0.11-0.47,0.35-0.7,0.47c-0.23,0.23-0.47,0.35-0.82,0.58
					c-0.35,0.23-0.82,0.35-1.17,0.58c-0.23,0-0.35,0.11-0.47,0.11c-0.58,0.12-1.17,0.23-1.75,0.23c-0.82,0-1.52-0.12-2.1-0.47
					c-0.58-0.23-1.17-0.7-1.52-1.17l-0.23-0.23c-0.35-0.47-0.58-0.93-0.82-1.52c-0.23,0.47-0.47,0.7-0.82,0.94
					c-0.23,0.11-0.35,0.35-0.58,0.47c-0.47,0.47-1.4,1.05-2.1,1.28l-0.23,0.12c-0.58,0.23-1.28,0.47-1.87,0.58h-0.47
					c-0.7,0-1.52,0-2.1-0.35c-0.35-0.12-0.58-0.35-0.82-0.47c-0.23-0.23-0.58-0.47-0.82-0.7l-0.23-0.35
					c-0.23-0.47-0.47-1.05-0.7-1.63c-0.11-0.47-0.11-1.05-0.11-1.63c0-0.23,0.11-0.58,0.11-0.94v-1.17c0.12-0.7,0.12-1.52,0.35-2.34
					l0.93-3.03h1.63c-0.23,1.05-0.23,1.98-0.23,2.92c0,0.7,0.23,1.52,0.47,2.1l0.12,0.12c0.12,0.58,0.7,1.4,1.4,1.4
					c0.35,0.12,0.82,0.23,1.28,0.23s0.93-0.12,1.29-0.35c0.47-0.12,0.82-0.35,1.17-0.58c0.47-0.35,0.93-0.58,1.28-0.94
					c0.12-0.11,0.35-0.23,0.47-0.47c0.23-0.35,0.47-0.7,0.7-1.17c0.12-0.35,0.23-0.7,0.47-1.05l0.23-0.58
					c0.23-0.58,0.35-1.17,0.58-1.63h1.75v2.33c0,0.47,0.12,0.93,0.12,1.4c0.12,0.23,0.23,0.47,0.23,0.7
					c0.11,0.23,0.23,0.47,0.23,0.7c0.23,0.35,0.47,0.7,0.82,0.93l0.35,0.23c0.35,0.23,0.7,0.47,1.17,0.47
					c0.12,0.12,0.35,0.12,0.47,0.12h1.05l1.29,0.12l-0.82-2.1l-0.35-1.52l-1.17-2.69L993.46,658.2z"/>
			</g>
		</g>
		<g>
			<g>
				<path class="st2" d="M529.11,655.05c1.18,0,2.76,0.39,3.64,1.38c0.88,0.89,1.47,2.26,1.47,3.64c0,1.38-0.59,2.76-1.47,3.64
					c-0.89,0.98-2.46,1.67-3.64,1.67c-2.66,0-5.12-2.66-5.12-5.32C523.99,657.31,526.35,655.05,529.11,655.05z M553.91,669.32
					l-0.39,6.5l0.2,5.9l0.1,6.4c-0.2,2.76,0.49,4.13,1.87,4.92c1.08,0.59,2.95,0.89,5.41,0.98v12.01l-2.95,0.79
					c-1.87,0-3.35,0-5.12-0.49c-1.18-0.59-2.85-1.48-3.94-2.26c-1.08-1.38-2.36-2.85-2.85-4.53c-0.39-0.88-0.79-1.77-0.98-2.66
					c-0.98,1.57-1.97,3.15-3.05,4.03c-2.36,1.28-4.43,1.67-7.09,1.67c-1.57,0-3.15-0.1-4.82-0.79c-1.38-1.08-2.66-2.26-3.94-4.13
					c-0.79-1.38-1.38-3.74-1.58-6c0.1-2.26,0.59-4.04,0.89-5.51c0.59-1.28,1.97-2.76,2.95-4.33c0.98-1.48,2.86-2.36,4.72-3.45
					c1.47-0.69,3.74-1.87,6.3-1.97c1.67-0.39,3.35-0.79,5.22-0.98v-0.29l-0.1-5.71L553.91,669.32z M544.56,689.89v-5.02
					c-2.07-0.1-4.13,0.1-5.61,0.2c-0.59,0.1-1.08,0.1-1.58,0.2c-1.28,0.2-2.26,0.49-3.64,0.98c-1.08,0.98-1.28,1.87-1.48,2.56
					c1.08,0.79,2.17,1.08,3.45,1.47c1.08,0.3,2.56,0.89,4.82,0.49C541.81,690.58,543.09,690.28,544.56,689.89z M541.31,655.05
					c1.18,0,2.76,0.39,3.64,1.38c0.88,0.89,1.47,2.26,1.47,3.64c0,1.38-0.59,2.76-1.47,3.64c-0.88,0.98-2.46,1.67-3.64,1.67
					c-2.66,0-5.12-2.66-5.12-5.32C536.19,657.31,538.56,655.05,541.31,655.05z"/>
				<path class="st2" d="M567,693.33l-0.1-3.54c0-0.88-0.1-1.67-0.1-2.07l-0.1-6.3h9.25l-0.29,5.22l0.1,3.35
					c0,2.17,1.18,2.86,2.95,3.74v10.33h-6.69c-1.38-0.98-2.46-2.36-3.25-3.74c0,0.1-0.1,0.29-0.1,0.39
					c-0.59,1.67-1.38,3.15-2.46,4.72c-1.18,0.59-5.12,1.28-8.07,1.38v-10.83l2.95-1.97C563.65,694.02,565.53,693.92,567,693.33z
					 M569.26,665.97c-0.59,0-1.28,0.1-1.57,0.49c-0.2,0.2-0.2,0.59-0.2,0.88c0,0.59,0.59,1.08,1.28,1.38
					c0.59,0.29,0.98,0.39,2.17,0.39c1.57,0,3.74-0.2,6.69-0.79v7.19l-4.13,1.08l-4.43,0.29l-5.32,0.79l-0.69-2.66l2.76-1.48
					c-0.1-0.2-0.2-0.39-0.29-0.59c-0.49-0.98-1.08-2.17-1.08-3.64c0-3.84,2.95-10.23,7.28-10.23c2.66,0,3.64,2.56,4.04,4.82
					l-2.07,3.54C572.91,666.66,570.45,665.97,569.26,665.97z"/>
				<path class="st2" d="M572.02,693.73h6.69c3.64,1.77,16.43,3.54,20.67,3.74c2.07,0.1,4.13,0.1,6.3,0.1c2.56,0,5.21,0,7.87-0.2
					c5.02-0.2,9.94-1.18,14.37-1.67c6.2-0.69,11.42-0.98,14.66-1.87h7.87v7.19c-4.13,2.85-10.92,4.53-18.99,6.2
					c-5.02,1.08-10.53,2.36-16.14,2.85c-3.94,0.29-7.97,0.49-11.91,0.49c-8.37,0-25.19-1.97-31.4-6.5V693.73z"/>
				<path class="st2" d="M685.2,681.23l5.71-1.08c0.98,2.26,0.98,5.02,1.47,7.48c0.2,1.18,0.59,2.46,0.49,3.44
					c0,0.98-0.1,1.87-0.29,2.76c-0.2,1.18-0.59,2.36-0.98,3.45c-0.59,1.87-1.48,3.54-2.66,5.02c-0.39,0.69-1.08,1.28-1.77,1.77
					c-0.79,0.49-1.67,0.89-2.46,1.38c-0.79,0.59-1.87,0.98-3.05,1.18c-0.69,0.2-1.38,0.29-2.07,0.29c-0.88,0-1.97-0.1-3.05-0.39
					c-2.26-0.79-3.64-1.67-5.31-3.35c-0.79,0.98-1.57,1.77-2.46,2.66c-1.58,0.69-3.35,1.28-5.51,1.18c-5.02-1.08-8.56-3.05-12.4-6.3
					c-0.1,0.1-0.2,0.2-0.39,0.29h-7.87v-7.19c1.48-0.39,2.17-0.69,3.25-1.38c0.98-2.17,1.28-3.35,2.26-5.41
					c0.39-0.88,0.98-2.07,1.77-3.54l2.85,1.38l5.51,2.36c-0.79,1.97-1.47,3.74-2.26,5.22c1.08,0.49,2.36,0.88,3.74,1.18
					c1.08,0.29,2.26,0.39,3.45,0.29c1.38,0.1,2.07-0.2,2.75-0.2c0.29-0.59,0.69-1.57,1.18-2.85c0.49-1.38,1.08-3.25,1.97-5.71
					l2.76,1.08l5.81,1.67c-0.49,1.87-1.08,3.64-1.57,5.12c0.49,0.2,0.88,0.29,1.28,0.39c1.28,0.29,2.36,0.39,3.54,0.29
					c0.59,0,1.18-0.1,1.77-0.1c0-0.59,0.2-1.38,0.2-2.07c0.1-0.79,0.1-1.77,0-2.75c-0.1-0.3-0.1-0.69-0.2-0.98
					c-0.29-1.87-0.59-3.64-1.18-5.61L685.2,681.23z M662.77,666.96c1.18,0,2.76,0.39,3.64,1.38c0.88,0.89,1.47,2.26,1.47,3.64
					c0,1.38-0.59,2.76-1.47,3.64c-0.89,0.98-2.46,1.67-3.64,1.67c-2.66,0-5.12-2.66-5.12-5.31
					C657.65,669.22,660.01,666.96,662.77,666.96z M668.77,654.75c1.18,0,2.76,0.39,3.64,1.38c0.89,0.88,1.48,2.26,1.48,3.64
					c0,1.38-0.59,2.76-1.48,3.64c-0.88,0.98-2.46,1.67-3.64,1.67c-2.66,0-5.12-2.66-5.12-5.31
					C663.65,657.02,666.01,654.75,668.77,654.75z M674.97,666.96c1.18,0,2.76,0.39,3.64,1.38c0.88,0.89,1.48,2.26,1.48,3.64
					c0,1.38-0.59,2.76-1.48,3.64c-0.88,0.98-2.46,1.67-3.64,1.67c-2.66,0-5.12-2.66-5.12-5.31
					C669.85,669.22,672.21,666.96,674.97,666.96z"/>
				<path class="st2" d="M705.09,704.06c-2.76-1.97-4.13-3.74-4.63-5.61c-0.69-2.46-1.38-4.13-1.38-6.79v-5.41l0.49-5.61l-0.2-4.82
					v-5.31l0.1-5.61l-0.29-4.82v-5.21h9.55v5.61l0.1,5.12l-0.2,5.81l0.2,5.81l-0.2,5.32l0.2,5.81c0,1.47,0.1,4.03,2.95,5.41v10.33
					H705.09z"/>
				<path class="st2" d="M711.78,693.73c3.35,1.77,16.24,3.05,20.18,3.05c9.15,0,15.35-0.29,24.01-2.95h7.87v7.19
					c-8.76,6.1-22.73,8.07-33.16,8.07c-7.28,0-19.88-0.89-25.59-5.02v-10.33H711.78z"/>
				<path class="st2" d="M765.62,690.77v-0.98c0-0.88-0.1-1.67-0.1-2.07l-0.1-6.3h9.25l-0.29,5.22l0.1,3.35
					c0,1.18,0.2,2.07,0.88,2.76c0.89,0.79,2.76,1.18,6.6,1.28v11.81l-2.95,0.98c-1.67,0-3.54,0-4.92-0.29
					c-1.77-0.59-3.25-1.18-4.23-1.87c-2.75-2.76-3.84-4.33-4.03-7.38c-0.39,1.67-0.98,3.05-1.97,3.74h-7.87v-7.19
					C759.12,692.94,762.47,691.95,765.62,690.77z M770.34,664.5c3.15,0,5.71,2.36,5.71,5.61c0,2.95-2.66,5.91-5.71,5.91
					c-2.95,0-5.71-3.05-5.71-5.91C764.63,667.16,767.39,664.5,770.34,664.5z"/>
				<path class="st2" d="M787.76,693.33c-0.1-0.59-0.1-1.08-0.1-1.67v-5.41l0.49-5.61l-0.2-4.82v-5.31l0.1-5.61l-0.29-4.82v-5.21
					h9.55v5.61l0.1,5.12l-0.2,5.81l0.2,5.81l-0.2,5.32l0.2,5.81c0,4.53,3.45,5.71,7.38,5.71v11.81l-3.05,0.98
					c-3.15,0-6.79-1.08-9.45-2.76c-0.88-1.08-2.07-2.36-2.66-3.94c0,0.2-0.1,0.39-0.1,0.59c-0.59,1.67-1.38,3.15-2.46,4.72
					c-1.18,0.59-5.12,1.28-8.07,1.38v-10.83l2.95-1.97C784.42,694.02,786.29,693.92,787.76,693.33z"/>
				<path class="st2" d="M801.84,697.17l2.95-3.15c2.36-0.1,4.23-0.1,5.02-1.18v-5.32l0.3-5.61l-0.2-5.31l0.1-5.22v-5.61l0.1-5.41
					l-0.3-5.61h9.55l-0.1,5.91l0.1,6.2v6l0.1,5.61c-0.2,2.17-0.49,4.33-0.49,6.5c0,2.36,0.49,4.33,0,6.2
					c-0.59,2.26-1.08,3.64-1.48,5.22c-1.48,4.82-5.51,8.56-10.33,9.94c-1.38,0.39-3.64,0.29-5.31,0.49V697.17z"/>
			</g>
			<g>
				<path class="st2" d="M755.36,653.06c-7.35,3.43-15.96,6.76-25.76,9.39c-3.8,1.02-7.48,1.85-11,2.52
					c0.06-1.85,0.12-3.71,0.18-5.56c2.76-0.51,5.61-1.12,8.53-1.84c10.8-2.67,20.23-6.33,28.24-10.19
					C755.49,649.27,755.42,651.16,755.36,653.06z"/>
			</g>
			<g>
				<path class="st2" d="M750.27,665.4l0.35,1.98v2.92l0.12,1.17v0.47c0,0.7-0.12,1.4-0.23,1.98c-0.23,0.58-0.47,1.28-0.82,1.75
					l-0.35,0.35c-0.23,0.47-0.58,0.82-0.94,1.17c-0.23,0.11-0.47,0.35-0.7,0.47c-0.23,0.23-0.47,0.35-0.82,0.58
					c-0.35,0.23-0.82,0.35-1.17,0.58c-0.23,0-0.35,0.11-0.47,0.11c-0.58,0.12-1.17,0.23-1.75,0.23c-0.82,0-1.52-0.12-2.1-0.47
					c-0.58-0.23-1.17-0.7-1.52-1.17l-0.23-0.23c-0.35-0.47-0.58-0.93-0.82-1.52c-0.23,0.47-0.47,0.7-0.82,0.94
					c-0.23,0.11-0.35,0.35-0.58,0.47c-0.47,0.47-1.4,1.05-2.1,1.28l-0.23,0.12c-0.58,0.23-1.28,0.47-1.87,0.58h-0.47
					c-0.7,0-1.52,0-2.1-0.35c-0.35-0.12-0.58-0.35-0.82-0.47c-0.23-0.23-0.58-0.47-0.82-0.7l-0.23-0.35
					c-0.23-0.47-0.47-1.05-0.7-1.63c-0.11-0.47-0.11-1.05-0.11-1.63c0-0.23,0.11-0.58,0.11-0.94v-1.17c0.12-0.7,0.12-1.52,0.35-2.34
					l0.93-3.03H731c-0.23,1.05-0.23,1.98-0.23,2.92c0,0.7,0.23,1.52,0.47,2.1l0.12,0.12c0.12,0.58,0.7,1.4,1.4,1.4
					c0.35,0.12,0.82,0.23,1.28,0.23c0.47,0,0.93-0.12,1.29-0.35c0.47-0.12,0.82-0.35,1.17-0.58c0.47-0.35,0.93-0.58,1.28-0.94
					c0.12-0.11,0.35-0.23,0.47-0.47c0.23-0.35,0.47-0.7,0.7-1.17c0.12-0.35,0.23-0.7,0.47-1.05l0.23-0.58
					c0.23-0.58,0.35-1.17,0.58-1.63h1.75v2.33c0,0.47,0.12,0.93,0.12,1.4c0.12,0.23,0.23,0.47,0.23,0.7
					c0.11,0.23,0.23,0.47,0.23,0.7c0.23,0.35,0.47,0.7,0.82,0.93l0.35,0.23c0.35,0.23,0.7,0.47,1.17,0.47
					c0.12,0.12,0.35,0.12,0.47,0.12h1.05l1.29,0.12l-0.82-2.1l-0.35-1.52l-1.17-2.69L750.27,665.4z"/>
			</g>
		</g>
		<g>
			<g>
				<path class="st2" d="M1157.03,648.47c1.18,0,2.76,0.39,3.64,1.38c0.88,0.88,1.47,2.26,1.47,3.64c0,1.38-0.59,2.76-1.47,3.64
					c-0.89,0.98-2.46,1.67-3.64,1.67c-2.66,0-5.12-2.66-5.12-5.31C1151.91,650.73,1154.27,648.47,1157.03,648.47z M1181.83,662.74
					l-0.39,6.5l0.2,5.9l0.1,6.4c-0.2,2.75,0.49,4.13,1.87,4.92c1.08,0.59,2.95,0.89,5.41,0.98v12.01l-2.95,0.79
					c-1.87,0-3.35,0-5.12-0.49c-1.18-0.59-2.85-1.48-3.94-2.26c-1.08-1.38-2.36-2.86-2.85-4.53c-0.39-0.89-0.79-1.77-0.98-2.66
					c-0.98,1.58-1.97,3.15-3.05,4.04c-2.36,1.28-4.43,1.67-7.09,1.67c-1.57,0-3.15-0.1-4.82-0.79c-1.38-1.08-2.66-2.26-3.94-4.13
					c-0.79-1.38-1.38-3.74-1.57-6c0.1-2.26,0.59-4.04,0.88-5.51c0.59-1.28,1.97-2.76,2.95-4.33c0.98-1.48,2.86-2.36,4.72-3.45
					c1.48-0.69,3.74-1.87,6.3-1.97c1.67-0.39,3.35-0.79,5.22-0.98v-0.29l-0.1-5.71L1181.83,662.74z M1172.48,683.31v-5.02
					c-2.07-0.1-4.13,0.1-5.61,0.2c-0.59,0.1-1.08,0.1-1.57,0.2c-1.28,0.2-2.26,0.49-3.64,0.98c-1.08,0.98-1.28,1.87-1.47,2.56
					c1.08,0.79,2.16,1.08,3.44,1.48c1.08,0.29,2.56,0.89,4.82,0.49C1169.73,684,1171.01,683.7,1172.48,683.31z M1169.23,648.47
					c1.18,0,2.76,0.39,3.64,1.38c0.89,0.88,1.48,2.26,1.48,3.64c0,1.38-0.59,2.76-1.48,3.64c-0.88,0.98-2.46,1.67-3.64,1.67
					c-2.66,0-5.12-2.66-5.12-5.31C1164.11,650.73,1166.48,648.47,1169.23,648.47z"/>
				<path class="st2" d="M1192.95,687.24c0-0.2,0-0.29,0-0.49c-0.1-1.77,0-3.84,0.59-5.21c0.69-1.87,1.28-3.64,2.46-4.92
					c1.08-1.38,2.85-2.36,4.04-3.45c1.38-1.28,2.56-1.97,4.72-2.85c1.77-0.49,3.35-1.08,5.71-0.79l3.15,0.1
					c1.28,3.94,1.87,7.09,3.05,9.55c0.98,2.07,1.97,3.94,2.95,5.22c0.98,1.38,2.36,2.16,3.55,2.76v10.33h-6.69
					c-0.59-0.39-1.28-0.98-1.67-1.57c-0.29-0.39-0.59-0.79-0.88-1.28l-3.45,7.78l-8.95-3.15c-2.17-0.79-3.64-2.17-4.63-3.05
					c-0.79-0.79-1.48-1.48-2.07-2.17c-0.59,1.77-1.48,3.35-2.66,4.63c-1.18,0.79-3.84,1.57-6.1,1.57v-10.83l2.95-1.97
					C1190.49,687.44,1191.77,687.34,1192.95,687.24z M1202.11,680.26c-0.89,1.48-1.67,3.15-1.67,4.33c0.2,0.59,0.69,1.28,1.87,1.77
					l6.49,3.15l2.86,1.18c-0.79-1.48-1.38-2.95-2.07-4.43c-0.89-1.87-1.38-3.74-2.46-6.1
					C1205.75,680.06,1203.58,680.06,1202.11,680.26z"/>
				<path class="st2" d="M1216.48,687.15h6.69c2.95,1.38,6.69,1.67,11.02,2.46c5.9,0.98,12.79,2.16,19.98,2.16
					c7.38,0,15.06-0.39,22.05-1.08c4.13-0.39,8.17-0.69,11.71-1.28c3.45-0.59,6.4-1.48,8.96-2.17h7.87v7.19
					c-3.15,2.16-8.07,4.33-13.98,5.9c-4.13,1.08-8.76,1.67-13.78,2.46c-7.58,1.08-15.75,1.67-23.72,1.77
					c-8.07,0-30.31-2.46-36.81-7.09V687.15z"/>
				<path class="st2" d="M1315.59,674.84l-0.29,5.22l0.1,3.35c0,1.18,0.2,2.07,0.89,2.76c0.88,0.79,2.76,1.18,6.59,1.28v11.81
					l-2.95,0.98c-1.67,0-3.54,0-4.92-0.29c-1.77-0.59-3.25-1.18-4.23-1.87c-2.76-2.76-3.84-4.33-4.04-7.38
					c-0.39,1.67-0.98,3.05-1.97,3.74h-7.87v-7.19c3.15-0.88,6.5-1.87,9.64-3.05v-0.98c0-0.88-0.1-1.67-0.1-2.07l-0.1-6.3H1315.59z
					 M1302.79,706.14c1.18,0,2.76,0.39,3.64,1.38c0.88,0.88,1.47,2.26,1.47,3.64c0,1.38-0.59,2.76-1.47,3.64
					c-0.89,0.98-2.46,1.67-3.64,1.67c-2.66,0-5.12-2.66-5.12-5.31C1297.68,708.4,1300.04,706.14,1302.79,706.14z M1315,706.14
					c1.18,0,2.76,0.39,3.64,1.38c0.89,0.88,1.48,2.26,1.48,3.64c0,1.38-0.59,2.76-1.48,3.64c-0.88,0.98-2.46,1.67-3.64,1.67
					c-2.66,0-5.12-2.66-5.12-5.31C1309.88,708.4,1312.24,706.14,1315,706.14z"/>
				<path class="st2" d="M1326.81,683.11l-4.92-5.91c0.79-1.67,2.26-3.84,2.95-5.12c1.58-1.57,2.86-2.66,4.13-3.54
					c1.67-0.69,3.15-1.28,5.61-1.38c1.77-0.3,7.97,1.47,9.74,2.36c0.39,0.2,0.79,0.49,1.28,0.69c3.05,1.67,6.2,2.46,9.55,3.35
					c2.36,0.79,4.62,0.69,6.89,0.88l2.95,0.2l0.1,10.04h-5.51c-0.1,0-0.1,0-0.2,0c-0.69,0-1.38,0-1.97,0.1
					c0.1,0.3,0.29,0.49,0.59,0.69c0.59,0.79,1.57,1.18,3.94,1.67c1.47,0.2,4.33,0.2,7.18,0.29v12.01l-2.95,0.79
					c-2.26,0-4.82-0.29-6.4-1.18c-3.94-0.98-5.51-2.85-7.68-6.1c-0.39-0.79-1.87-5.22-1.87-6.1c-1.67,0.69-3.64,1.87-5.12,2.85
					c-1.58,1.08-3.54,1.77-4.43,2.36c-1.87,1.18-3.25,2.36-4.62,3.35c-1.18,0.88-2.95,1.87-4.43,2.56c-1.97,0.98-4.13,0.88-6.2,1.57
					c-1.58,0.49-3.54,0.69-5.51,0.69V690.2l2.95-2.76c1.38,0,2.95-0.2,4.53-0.39c0.49,0,1.08-0.1,1.58-0.1
					c3.64-0.98,7.28-1.87,10.73-3.54c1.87-0.79,3.35-1.18,4.92-1.97c-0.59-0.2-1.08-0.39-1.67-0.59c-1.38-0.49-2.95-0.89-4.53-1.48
					c-0.98-0.29-1.87-0.49-2.66-0.59c-0.79-0.1-1.48-0.1-2.26,0L1326.81,683.11z M1334.29,650.34c3.15,0,5.71,2.36,5.71,5.61
					c0,2.95-2.66,5.9-5.71,5.9c-2.95,0-5.71-3.05-5.71-5.9C1328.58,652.99,1331.33,650.34,1334.29,650.34z"/>
				<path class="st2" d="M1366.18,690.59l2.95-3.15c2.36-0.1,4.23-0.1,5.02-1.18v-5.31l0.3-5.61l-0.2-5.31l0.1-5.22v-5.61l0.1-5.41
					l-0.3-5.61h9.55l-0.1,5.91l0.1,6.2v6l0.1,5.61c-0.2,2.17-0.49,4.33-0.49,6.5c0,2.36,0.49,4.33,0,6.2
					c-0.59,2.26-1.08,3.64-1.48,5.21c-1.48,4.82-5.51,8.56-10.33,9.94c-1.38,0.39-3.64,0.29-5.31,0.49V690.59z"/>
				<path class="st2" d="M1391.47,700.43l-0.49-5.61l0.49-10.04l-0.2-5.51l0.1-5.32c-0.1-1.67-0.39-3.44-0.39-5.12
					c0-1.67,0.2-3.35,0.29-4.92v-5.31l0.2-5.32l-0.39-5.31h9.74l0.1,5.12c0.1,1.77,0.29,3.64,0.29,5.41s-0.29,3.54-0.39,5.31
					l0.1,5.02l0.29,5.02l-0.29,5.41v5.51l-0.2,4.72l0.49,5.22l-0.2,5.51L1391.47,700.43z"/>
			</g>
			<g>
				<path class="st2" d="M1307.1,654.1c-16.74,6.42-35.28,11.91-55.44,15.47c-7.16,1.26-14.11,2.21-20.86,2.89
					c0.28-1.83,0.55-3.67,0.83-5.5c6.38-0.78,12.92-1.77,19.6-3c20.37-3.74,39.32-9.15,56.72-15.49
					C1307.67,650.34,1307.38,652.22,1307.1,654.1z"/>
			</g>
		</g>
	</g>
</g>
</svg>
