<?xml version="1.0" encoding="utf-8"?>
<!-- Generator: Adobe Illustrator 27.2.0, SVG Export Plug-In . SVG Version: 6.00 Build 0)  -->
<svg version="1.1" id="Layer_1" xmlns="http://www.w3.org/2000/svg" xmlns:xlink="http://www.w3.org/1999/xlink" x="0px" y="0px"
	 viewBox="0 0 1920 1080" style="enable-background:new 0 0 1920 1080;" xml:space="preserve">
<style type="text/css">
	.st0{fill:#FFFFFF;}
	.st1{fill:#E3AA24;}
	.st2{fill:#008A83;}
	.st3{fill:#221F1F;}
</style>
<g>
	<g>
		<g>
			<path class="st0" d="M779.03,465.13c0.1,11.24,9.04,20.04,20.34,20.04l0.24,0c2.3-0.03,4.51-0.46,6.56-1.21
				c-0.01,17.43,0.01,32.7,0.02,40.82c0.01,7.29,5.96,13.22,13.25,13.22c0,0,0,0,0,0c3.53,0,6.85-1.38,9.36-3.89l3.99-3.99
				c0,6.83,0.01,13.51,0.01,19.96v2.65c0,0.25,0,0.64,0.03,1.13c0.22,5.64,3.27,10.23,8.26,12.33c1.69,0.7,3.44,1.06,5.21,1.06
				c5.63,0,9.19-3.55,10.37-4.74c6.89-6.93,13.8-13.83,20.71-20.74c0.62-0.58,1.65-1.6,2.58-3.06c1.13-1.79,1.8-3.79,1.99-5.83
				c1.15-0.49,2.23-1.14,3.21-1.94c0.69-0.57,1.22-1.1,1.57-1.45l21.38-21.38c0.51-0.5,1.47-1.44,2.36-2.8
				c1.05-1.61,1.71-3.39,1.96-5.23c0.35,2.26,1.3,4.46,2.84,6.39c0.63,0.79,1.22,1.37,1.57,1.71l21.38,21.38
				c0.52,0.53,1.49,1.52,2.9,2.44c0.59,0.38,1.21,0.71,1.85,1c0.01,0.07,0.02,0.14,0.03,0.21c0.02,0.19,0.04,0.39,0.07,0.58
				c0.04,0.21,0.09,0.42,0.13,0.63c0.04,0.19,0.08,0.39,0.13,0.58c0.06,0.21,0.13,0.41,0.2,0.62c0.06,0.19,0.11,0.38,0.18,0.57
				c0.08,0.21,0.17,0.41,0.26,0.61c0.08,0.19,0.15,0.37,0.24,0.56c0.1,0.21,0.22,0.41,0.33,0.61c0.09,0.17,0.18,0.35,0.28,0.52
				c0.15,0.26,0.33,0.5,0.5,0.75c0.08,0.11,0.15,0.23,0.23,0.34c0.24,0.32,0.5,0.63,0.77,0.94c0.03,0.03,0.06,0.07,0.09,0.11
				c0.44,0.5,0.83,0.88,1.11,1.16l20.82,20.82c0.05,0.05,0.32,0.31,0.32,0.31c1.07,1.06,4.34,4.29,9.75,4.29
				c1.35,0,2.71-0.21,4.03-0.62c5.51-1.7,9.32-6.47,9.69-12.13c0.05-0.76,0.04-1.4,0.03-1.82l0-22.7l4.18,4.18
				c2.51,2.51,5.83,3.89,9.36,3.89c7.3,0,13.24-5.93,13.25-13.22c0.01-8.1,0.03-23.32,0.02-40.71c1.98,0.68,4.09,1.08,6.29,1.1
				l0.24,0c11.3,0,20.24-8.8,20.34-20.04c0.07-7.41-3.88-13.92-9.79-17.51c5.63-3.43,9.43-9.55,9.63-16.69
				c0.21-5.32-1.68-10.4-5.33-14.33c-2.52-2.71-5.75-4.64-9.26-5.66c3.54-3.75,5.48-8.63,5.43-13.81
				c-0.11-10.83-9.04-19.66-19.95-19.68c-2.07,0-4.09,0.32-6.01,0.93c0.3-1.29,0.48-2.63,0.51-4.01c0.13-5.11-1.79-9.98-5.41-13.69
				c-3.63-3.73-8.68-5.87-13.85-5.87c-1.79,0-3.55,0.26-5.23,0.73c0-0.12,0.02-0.23,0.02-0.34c-0.01-10.05-8.18-18.25-18.29-18.29
				c-2.36,0-4.65,0.45-6.77,1.28c-1.68-8.34-9.06-14.67-17.93-14.7c-3.81,0-7.42,1.13-10.47,3.22c-0.86-3.69-2.68-7.14-5.32-9.91
				c1.19-2.33,1.89-4.97,1.91-7.8c0.05-4.74-1.7-9.15-4.92-12.42c-3.2-3.25-7.55-5.04-12.31-5.06c-9.68,0-17.31,7.53-17.37,17.15
				c-0.02,2.95,0.68,5.71,1.91,8.13c-2.59,2.7-4.46,6.08-5.32,9.9c-3.04-2.08-6.66-3.2-10.52-3.2c-8.81,0.04-16.18,6.37-17.85,14.71
				c-2.14-0.83-4.44-1.28-6.85-1.28c-10.03,0.04-18.21,8.24-18.22,18.29c0,0.12,0.01,0.23,0.02,0.34c-1.68-0.47-3.43-0.73-5.23-0.73
				c-5.17,0-10.21,2.14-13.85,5.87c-3.62,3.72-5.55,8.58-5.41,13.69c0.04,1.38,0.22,2.72,0.52,4.01c-1.92-0.61-3.95-0.93-6.04-0.93
				c-10.87,0.02-19.81,8.85-19.91,19.68c-0.05,5.18,1.88,10.06,5.43,13.81c-3.51,1.02-6.74,2.95-9.26,5.66
				c-3.65,3.93-5.54,9.01-5.33,14.33c0.2,7.15,4,13.26,9.63,16.69C782.91,451.21,778.96,457.72,779.03,465.13z M923.64,485.48
				c-4.85,0.71-8.77,3.71-10.49,8.03c-0.37,0.94-0.63,1.91-0.76,2.89c-0.11-0.73-0.29-1.46-0.53-2.17c-1.25-3.74-4.1-6.66-7.81-8
				c-1.35-0.49-2.62-0.71-3.69-0.82c0-21.04-0.01-47.08,0.02-66.53c0-0.78,0.08-1.58,0.22-2.3c1.08-5.33,5.17-9.04,10.67-9.66
				c0.43-0.05,0.88-0.07,1.32-0.07c4.66,0,8.83,2.7,10.89,7.04c0.8,1.68,1.17,3.61,1.19,6.08c0.02,3.88,0.02,7.76,0.01,11.65l0,4.87
				c0,11.07,0.01,34.88,0.01,48.88C924.23,485.4,923.97,485.43,923.64,485.48z"/>
			<path class="st0" d="M1170.74,668.08c-4.9-3.87-11.35-5.84-19.14-5.84h-10.2c-2.89,0-5.51,1.12-7.48,2.95
				c-1.99-1.85-4.65-2.95-7.49-2.95h-8.36c-2.39,0-4.65,0.78-6.49,2.13c-1.89-1.53-4.3-2.46-6.92-2.46h-6.52
				c-2.85,0-5.44,1.09-7.39,2.87c-1.94-1.76-4.5-2.85-7.32-2.86c0.32-0.1,0.65-0.21,0.97-0.33c1.74,0.69,3.62,1.08,5.57,1.08
				c4.12,0,8.41-1.89,11.28-4.94c2.78-2.88,4.37-6.84,4.37-10.89c0-0.2-0.03-0.4-0.03-0.6c1.25-0.28,2.71-0.71,4.26-1.46
				c1.1-0.52,3.6-1.77,5.75-3.36c0.49-0.35,0.98-0.73,1.49-1.12c0.08-0.06,0.16-0.12,0.24-0.18c2.17,2.46,5.05,4.72,9.47,6.06
				c2.67,1.15,5.92,1.73,9.68,1.73c0.05,0,0.11-0.01,0.16-0.01c0.37,0,0.75-0.02,1.13-0.06c0.33-0.04,0.71-0.05,1.09-0.06
				c1.54-0.07,3.45-0.16,5.48-0.73c2.36-0.68,4.58-1.7,6.61-3.01c2.03,2.48,5.1,4.06,8.52,4.06c0.08,0,8.9-0.18,8.9-0.18
				c5.83-0.12,10.56-4.77,10.77-10.6l0.18-5.01c0.02-0.48,0-0.95-0.04-1.43l-0.38-4l0.15-3.54c0.01-0.15,0.01-0.31,0.01-0.46v-4.71
				l0.25-4.62c0.02-0.41,0.02-0.83,0-1.24l-0.25-4.35l-0.08-3.88c0.03-0.36,0.07-0.73,0.1-1.09c0.11-1.1,0.25-2.47,0.25-3.99
				c0-1.47-0.1-2.87-0.19-4.09c-0.03-0.42-0.06-0.83-0.08-1.24l-0.08-4.44c-0.11-5.99-5-10.79-11-10.79h-8.85
				c-1.25,0-2.47,0.22-3.62,0.63c-0.99-0.29-2.03-0.45-3.08-0.45h-8.67c-3.02,0-5.9,1.24-7.98,3.43c-2.08,2.19-3.16,5.14-3,8.15
				l0.25,4.71l-0.08,4.53c0,0.04,0,1.64,0,3.05c-0.38-0.03-0.75-0.05-1.13-0.07c-0.66-0.04-1.57-0.08-1.83-0.16
				c-0.22-0.07-0.44-0.14-0.66-0.2l-0.46-0.12c-2.27-0.6-4.09-1.08-5.51-1.81c0.25-1.11,0.38-2.27,0.38-3.45
				c0-9.03-7.11-16.1-16.19-16.1c-5.38,0-10.24,2.78-13.2,6.94c-0.52-2.38-1.82-4.56-3.77-6.15c-2-1.63-4.46-2.48-6.96-2.48
				c-1.26,0-2.54,0.22-3.76,0.66c-16.4,5.97-33.14,10.54-49.75,13.59c-5.69,1.04-11.46,1.93-17.16,2.63
				c-3.32,0.41-6.18,2.28-7.9,4.97c-1.86-1.58-4.22-2.53-6.77-2.61l-2.45-0.08c-0.63-0.06-1.26-0.09-1.88-0.09
				c-2.88,0-5.07,0.63-6.53,1.05l-0.48,0.14c-0.42,0.12-0.83,0.26-1.23,0.42c-2.02,0.83-3.83,1.72-5.67,3.1
				c-0.05-2.74-1.11-5.38-3.02-7.38c-1.1-1.16-2.42-2.04-3.87-2.63c-0.4-3.41-1.9-6.64-4.27-9.09c-2.79-2.97-6.88-4.66-11.27-4.66
				c-1.92,0-3.77,0.35-5.47,0.98c-1.75-0.64-3.66-0.98-5.62-0.98c-5.15,0-9.71,2.5-12.56,6.32c-2-2.06-4.79-3.34-7.88-3.34h-8.85
				c-1.25,0-2.47,0.22-3.62,0.63c-0.99-0.29-2.03-0.45-3.08-0.45h-8.68c-3.02,0-5.9,1.24-7.98,3.43c-2.08,2.19-3.16,5.14-3,8.15
				l0.25,4.71l-0.08,4.53c0,0.04,0,1.94,0,3.43c-0.12,0-0.24-0.02-0.36-0.02h-8.4c-2.95,0-5.77,1.18-7.84,3.28
				c-0.33,0.33-0.63,0.69-0.92,1.06l-0.46-0.18c-1.29-0.51-2.66-0.76-4.02-0.76c-1.55,0-3.1,0.33-4.54,0.98
				c-1.09,0.49-2.07,1.15-2.93,1.95l-3.07-1.32l-2.37-1.14c-1.54-0.74-3.17-1.1-4.78-1.1c-1.26,0-2.5,0.24-3.68,0.66
				c-1.85-2.04-4.46-3.38-7.4-3.58l-2.58-0.17c-0.6-0.05-1.19-0.08-1.79-0.12c-0.66-0.04-1.56-0.08-1.82-0.15
				c-0.22-0.07-0.44-0.14-0.67-0.2l-0.45-0.12c-2.4-0.63-4.29-1.13-5.75-1.93c-0.18-0.1-0.36-0.19-0.55-0.28
				c-0.33-0.19-0.65-0.37-0.98-0.54c-2.33-1.17-8.96-3.34-13.34-3.34c-0.46,0-0.9,0.02-1.33,0.06c-0.64,0.04-1.23,0.1-1.8,0.18
				c-0.03-0.3-0.07-0.6-0.12-0.89l-0.32-1.8c-0.57-3.23-2.55-6.04-5.4-7.66c-1.68-0.95-3.55-1.43-5.43-1.43
				c-1.32,0-2.65,0.24-3.91,0.72l-1.46,0.55c-0.7-0.14-1.42-0.21-2.16-0.21h-1.59c-1.46,0-2.88,0.29-4.19,0.83
				c-1.31-0.54-2.73-0.83-4.19-0.83h-1.49c-1.21,0-2.39,0.2-3.49,0.57c-1.54-4.21-5.57-7.22-10.32-7.22h-8.67c-6.08,0-11,4.92-11,11
				v3.15c-1.83-1.24-3.98-1.9-6.17-1.9c-0.79,0-1.57,0.08-2.35,0.25c-3.06,0.67-5.68,2.61-7.22,5.33l-2.66,4.7
				c-0.06,0.11-0.12,0.22-0.18,0.33c-1.96-1.72-4.51-2.74-7.25-2.74c-0.42,0-0.84,0.02-1.26,0.07l-8.58,0.98
				c-5.94,0.68-10.25,5.99-9.7,11.95l0.34,3.69c-0.83,0.12-1.63,0.21-2.36,0.21c-0.75,0-2.3-0.12-3.88-0.29l0.22-13.21
				c0.05-2.95-1.09-5.79-3.16-7.89c-1.01-1.02-2.19-1.83-3.48-2.39c-0.51-3.15-1.97-6.11-4.18-8.4c-2.8-2.97-6.88-4.66-11.27-4.66
				c-1.92,0-3.76,0.35-5.47,0.98c-1.75-0.64-3.66-0.98-5.62-0.98c-8.63,0-15.65,6.98-15.65,15.56c0,5.22,2.65,9.94,6.63,12.84
				c-0.2,0.26-0.39,0.53-0.58,0.81c-0.06,0.09-0.12,0.18-0.18,0.27c-0.13,0.21-0.45,0.64-0.71,0.98c-0.82,1.09-1.83,2.44-2.63,4.17
				c-0.36,0.79-0.63,1.61-0.8,2.46c-0.04,0.22-0.1,0.45-0.15,0.69c-0.3,1.36-0.75,3.42-0.86,6c-0.02,0.48-0.01,0.96,0.03,1.43
				c0.19,2.2,0.82,6.42,2.84,9.96c0.15,0.25,0.3,0.5,0.47,0.75c2.09,3.05,4.23,4.91,5.86,6.19c0.79,0.62,1.67,1.13,2.6,1.52
				c3.32,1.37,6.33,1.55,8.58,1.55c2.41,0,4.56-0.26,6.62-0.81c0.09,0.06,0.18,0.12,0.27,0.18c0.04,0.03,0.07,0.06,0.11,0.09
				c0.07,0.04,0.13,0.08,0.2,0.13c0.09,0.06,0.18,0.11,0.27,0.17c4.8,3.07,10.86,4.37,16.26,4.84c0.5,4.15,2.65,7.86,5.75,10.42
				c-0.76-0.17-1.55-0.27-2.37-0.27h-6.52c-0.68,0-1.34,0.07-1.98,0.19c-0.64-0.12-1.3-0.19-1.98-0.19h-26.02c-6.08,0-11,4.92-11,11
				v5.71c0,5.66,4.28,10.32,9.77,10.93v13.95c0,6.08,4.92,11,11,11h6.52c2.59,0,4.97-0.9,6.85-2.4c1.88,1.5,4.26,2.4,6.85,2.4h6.52
				c2.71,0,5.19-0.98,7.11-2.6c1.92,1.62,4.4,2.6,7.11,2.6h6.52c1.18,0,2.31-0.19,3.38-0.53c1.06,0.34,2.2,0.53,3.38,0.53h20.68
				c6.08,0,11-4.92,11-11v-5.48c0-2.81-1.06-5.38-2.79-7.33l0.31-2.19c1.1,0.54,2.3,0.9,3.57,1.04v13.95c0,6.08,4.92,11,11,11h6.52
				c2.59,0,4.97-0.9,6.85-2.4c1.88,1.5,4.26,2.4,6.85,2.4h20.68c0.94,0,1.84-0.13,2.71-0.35c0.87,0.22,1.78,0.35,2.71,0.35h6.52
				c2.51,0,4.83-0.84,6.68-2.26c1.89,1.45,4.23,2.26,6.68,2.26h7.27c2.6,0,4.99-0.91,6.87-2.42c1.88,1.51,4.27,2.42,6.87,2.42h6.52
				c6.08,0,11-4.92,11-11v-5.89c0.4,1.27,0.87,2.49,1.44,3.67c2.12,4.38,5.3,7.85,9.46,10.31c3.99,2.37,8.69,3.57,13.95,3.57
				c4.54,0,8.8-0.96,12.65-2.85c0.05-0.02,0.09-0.05,0.14-0.07c1.85,1.41,4.15,2.26,6.66,2.26h6.52c6.08,0,11-4.92,11-11v-1.13h0.27
				c1.46,0,2.86-0.3,4.15-0.82c-0.08,0.52-0.12,1.05-0.12,1.58v0.38c0,6.08,4.92,11,11,11h7.04c3.15,0,6.06-1.34,8.1-3.55
				c2.04,2.22,4.95,3.55,8.1,3.55h7.13c0.68,0,1.34-0.07,1.98-0.19c0.64,0.12,1.3,0.19,1.98,0.19h20.59c2.03,0,3.93-0.56,5.57-1.53
				c3.66,1.45,7.66,2.19,11.99,2.19c3.37,0,6.52-0.52,9.41-1.51c1.31,0.55,2.74,0.85,4.24,0.85h7.04c3.15,0,6.06-1.34,8.1-3.55
				c2.04,2.22,4.95,3.55,8.1,3.55h7.13c1.08,0,2.13-0.16,3.12-0.46c2.06,0.51,4.22,0.79,6.47,0.79c3.06,0,6.06-0.56,8.91-1.67
				c0.51-0.2,1.01-0.42,1.5-0.67c3.29,1.54,6.97,2.34,10.89,2.34c2.8,0,5.53-0.49,8.15-1.42c1.44,0.69,3.04,1.09,4.74,1.09h7.04
				c3.15,0,6.06-1.34,8.1-3.55c2.04,2.22,4.95,3.55,8.1,3.55h7.13c0.68,0,1.34-0.07,1.98-0.19c0.64,0.12,1.3,0.19,1.98,0.19h9.96
				c4.57,0,8.88-0.86,12.82-2.55c4.53-1.95,8.22-5,10.95-9.08c2.77-4.13,4.18-9.07,4.18-14.67
				C1179.32,677.23,1174.66,671.17,1170.74,668.08z M1071.12,614.36c-0.15,0.04-0.3,0.09-0.45,0.13c0,0,0,0,0,0l-1.27,0.35
				c-1.87,0.51-3.8,1.05-5.81,1.39c-2.14,0.36-4.73,0.59-7.48,0.84c-0.79,0.07-1.6,0.14-2.44,0.22c-3.19,0.31-6.48,0.55-9.77,0.7
				c9.27-1.98,18.53-4.46,27.72-7.42c-0.34,1.1-0.52,2.26-0.5,3.44L1071.12,614.36z M1091.97,601.05c0.13,0.44,0.27,0.87,0.44,1.29
				c-0.2,0.18-0.4,0.39-0.6,0.58c-0.42-0.05-0.85-0.08-1.28-0.08h-0.01C1091.06,602.3,1091.54,601.7,1091.97,601.05z M937.04,607.86
				l-0.01-0.35c0.01-0.17,0.03-0.35,0.05-0.52c0.12,0.1,0.25,0.2,0.37,0.29C937.31,607.47,937.17,607.66,937.04,607.86z
				 M755.2,662.24c-2.56,0-4.91,0.88-6.78,2.35c-1.87-1.47-4.22-2.35-6.78-2.35H727.1c0.4-0.34,0.78-0.71,1.14-1.09
				c2.55-2.65,4.08-6.19,4.32-9.89c0.95,0.1,1.89,0.16,2.82,0.16c0.23,0,0.46-0.01,0.68-0.02c3.99-0.25,8.61-0.83,12.92-3.23
				c1.7-0.81,2.96-1.73,3.83-2.38c0.14-0.11,0.28-0.21,0.43-0.31c0.09-0.05,0.17-0.11,0.25-0.16c0.56,0.47,1.15,0.94,1.78,1.39
				c0.01,0.01,0.03,0.02,0.04,0.03c0.01,0.01,0.01,0.01,0.02,0.01c0.01,0.01,0.02,0.02,0.03,0.03c0.23,0.17,0.47,0.32,0.72,0.47
				c7.66,5.05,19.87,6.14,28.92,6.14c4.46,0,13.26-0.38,22.19-2.88c0,0.1-0.01,0.19-0.01,0.29c0,4.35,1.89,8.44,4.85,11.44h-0.74
				c-0.98,0-1.93,0.14-2.83,0.38c-0.91-0.24-1.85-0.38-2.83-0.38h-20.45c-0.68,0-1.34,0.07-1.98,0.19c-0.64-0.12-1.3-0.19-1.98-0.19
				H755.2z M1043.95,662.24c-3.25,0-6.25,1.43-8.3,3.79c-2.17-1.3-4.45-2.34-6.83-3.08c-2.92-0.91-5.86-1.37-8.72-1.37
				c-3.16,0-6.23,0.5-9.11,1.5c-3.58,1.24-6.6,3.26-8.99,6.01c-1.5,1.74-2.61,3.72-3.34,5.88v-1.73c0-6.08-4.92-11-11-11h-6.52
				c-2.89,0-5.51,1.12-7.48,2.95c-1.99-1.85-4.65-2.95-7.49-2.95h-8.36c-4.62,0-8.75,2.89-10.34,7.24l-2.04,5.6v-1.83
				c0-6.08-4.92-11-11-11H914c-2.45,0-4.71,0.81-6.54,2.17c-3.69-1.88-7.91-2.83-12.59-2.83c-4.54,0-8.8,0.96-12.66,2.85
				c-1.64,0.8-3.15,1.77-4.53,2.89c-1.96-3.05-5.37-5.08-9.26-5.08h-26.02c-0.68,0-1.34,0.07-1.98,0.19
				c-0.64-0.12-1.31-0.19-1.98-0.19h-3.64c2.8-2.86,4.61-6.71,4.74-10.92c0.33,0.01,0.66,0.01,0.99,0.01c0,0,0,0,0,0c0,0,0,0,0,0
				c2.82,0,8.67-0.57,12.91-2.75c2.51,1.21,5.17,2.1,8,2.69c0.58,0.12,1.16,0.19,1.75,0.22c0.31,0.01,0.61,0.02,0.92,0.02
				c2.84,0,5.23-0.59,7.08-1.24c1.62,0.65,3.48,1.1,5.57,1.1c0.68,0,1.36-0.05,2.03-0.15c0.1-0.01,0.2-0.02,0.3-0.03
				c1.21-0.11,3.32-0.3,5.68-1.35c0.62,0.24,1.22,0.45,1.8,0.64c0.39,0.13,0.79,0.24,1.2,0.33c2.39,0.51,4.82,0.51,6.77,0.51
				c0.39,0,0.77-0.03,1.15-0.07c0.05,0,0.09,0,0.14-0.01c0.33-0.04,0.71-0.04,1.08-0.06c1.54-0.07,3.46-0.16,5.47-0.73
				c2.36-0.67,4.58-1.7,6.61-3.01c2.03,2.48,5.1,4.06,8.51,4.06c0.08,0,8.9-0.18,8.9-0.18c5.83-0.12,10.55-4.77,10.77-10.6l0.1-2.89
				c1.26,1.37,2.45,2.37,3.46,3.16c0.79,0.62,1.66,1.13,2.59,1.51c3.32,1.37,6.33,1.55,8.58,1.55c2.28,0,4.33-0.23,6.28-0.72
				c1.28,0.92,2.94,1.89,5.07,2.96c0.63,0.32,1.29,0.57,1.98,0.76c3.05,0.85,5.57,0.85,7.59,0.85c0,0,0,0,0,0c0,0,0,0,0,0
				c3.1,0,6.48-0.74,9.24-1.97c0.34,0.14,0.69,0.28,1.04,0.41c0.04,0.01,8.24,2.9,8.24,2.9c1.2,0.42,2.43,0.62,3.65,0.62
				c2.66,0,5.23-0.98,7.22-2.71c12.91,4.18,31.45,4.68,31.68,4.68c0.04,0,0.09,0,0.13,0c7.82-0.09,15.76-0.69,22.97-1.72
				c0.05-0.01,0.1-0.01,0.15-0.02c0.86-0.14,1.71-0.26,2.55-0.39c1.26-0.19,2.49-0.38,3.72-0.58c0.93,6.19,5.56,11.33,11.46,12.97
				c-5.14,0.93-9.04,5.41-9.04,10.82v5.4l-3.22-8.84c-1.58-4.34-5.71-7.24-10.34-7.24H1043.95z"/>
		</g>
	</g>
</g>
<g>
	<g>
		<path class="st1" d="M912.37,341.82c-5.75-0.01-10.31-4.59-10.23-10.45c0.07-5.07,4.03-10.1,10.24-10.1
			c6.72,0,10.39,5.52,10.3,10.38C922.58,337.37,918.11,341.83,912.37,341.82z"/>
		<path class="st2" d="M1016.31,464.84c0.04-5.21,4.15-9.2,9.41-9.14c5.06,0.06,9.13,4.24,9.08,9.33c-0.05,5.15-4.23,9.2-9.46,9.14
			C1020.25,474.11,1016.27,470,1016.31,464.84z"/>
		<path class="st2" d="M1034.65,430.56c-0.11,5.1-4.25,9.11-9.33,9c-5.17-0.11-9.21-4.44-8.99-9.53c0.21-5.07,4.32-9.04,9.43-8.9
			C1030.71,421.26,1034.88,425.44,1034.65,430.56z"/>
		<path class="st2" d="M1007.77,397.32c-0.23-4.4,3.6-8.88,8.78-8.87c4.9,0.01,8.88,3.91,8.93,8.79c0.05,4.95-3.97,8.98-8.94,8.95
			C1011.59,406.17,1007.77,402.3,1007.77,397.32z"/>
		<path class="st2" d="M983.53,374.07c0-4.57,3.68-8.26,8.25-8.26c4.52,0,8.38,3.76,8.27,8.28c-0.14,5.38-4.33,8.25-8.29,8.26
			C987.18,382.35,983.53,378.66,983.53,374.07z"/>
		<path class="st2" d="M975.57,355.2c0,4.03-3.22,7.42-7.22,7.39c-4.48-0.04-7.4-3.38-7.47-7.35c-0.07-4.1,3.28-7.36,7.43-7.34
			C972.35,347.91,975.57,351.14,975.57,355.2z"/>
		<path class="st2" d="M950.87,341.78c0,4.03-3.22,7.42-7.22,7.39c-4.48-0.04-7.4-3.38-7.47-7.35c-0.07-4.1,3.28-7.36,7.43-7.34
			C947.65,334.49,950.86,337.72,950.87,341.78z"/>
		<path class="st1" d="M912.5,302.5c3.63,0.01,6.24,2.7,6.2,6.37c-0.04,3.65-2.71,6.27-6.35,6.23c-3.58-0.04-6.27-2.78-6.25-6.38
			C906.12,305.13,908.84,302.49,912.5,302.5z"/>
		<g>
			<g>
				<path class="st2" d="M808.52,464.84c-0.04-5.21-4.15-9.2-9.41-9.14c-5.06,0.06-9.13,4.24-9.08,9.33
					c0.05,5.15,4.23,9.2,9.46,9.14C804.58,474.11,808.56,470,808.52,464.84z"/>
				<path class="st2" d="M790.18,430.56c0.11,5.1,4.25,9.11,9.33,9c5.17-0.11,9.21-4.44,8.99-9.53c-0.21-5.07-4.32-9.04-9.43-8.9
					C794.12,421.26,789.95,425.44,790.18,430.56z"/>
				<path class="st2" d="M817.06,397.32c0.23-4.4-3.6-8.88-8.78-8.87c-4.9,0.01-8.88,3.91-8.93,8.79c-0.05,4.95,3.97,8.98,8.94,8.95
					C813.24,406.17,817.06,402.3,817.06,397.32z"/>
				<path class="st2" d="M841.3,374.07c0-4.57-3.68-8.26-8.25-8.26c-4.52,0-8.38,3.76-8.27,8.28c0.14,5.38,4.33,8.25,8.29,8.26
					C837.65,382.35,841.3,378.66,841.3,374.07z"/>
				<path class="st2" d="M849.26,355.2c0,4.03,3.22,7.42,7.22,7.39c4.48-0.04,7.4-3.38,7.47-7.35c0.07-4.1-3.28-7.36-7.43-7.34
					C852.47,347.91,849.26,351.14,849.26,355.2z"/>
				<path class="st2" d="M873.96,341.78c0,4.03,3.22,7.42,7.22,7.39c4.48-0.04,7.4-3.38,7.47-7.35c0.07-4.1-3.28-7.36-7.43-7.34
					C877.18,334.49,873.97,337.72,873.96,341.78z"/>
			</g>
		</g>
		<g>
			<g>
				<path class="st2" d="M981.12,553.72c-0.07,1.13-0.88,2.02-1.96,2.35c-1.56,0.48-2.27-0.49-3.08-1.26l-20.7-20.7
					c-0.27-0.27-0.58-0.56-0.83-0.87c-0.05-0.05-0.11-0.11-0.14-0.16c-0.82-1.07-0.67-2.27,0.14-2.92c0.33-0.29,0.76-0.47,1.29-0.54
					c0.62-0.07,9.12-0.04,10.2-0.09c0-0.53,0-75.5-0.02-107.63c0-9.4-2.18-18.29-6.93-26.42c-8.36-14.37-20.68-23.39-37.11-26.4
					c-11.5-2.1-22.68-0.38-32.33,4.21c-8.46,3.99-15.77,10.18-21.12,17.91c-4.01,5.77-6.95,12.41-8.46,19.61
					c-0.73,3.48-1.07,7-1.07,10.58c0.02,32.33,0.02,73.21,0.02,105.54v2.64c5.24,0.04,9.64-0.05,10.29,0.08
					c1.51,0.31,2.18,1.87,1.36,3.16c-0.25,0.4-0.62,0.74-0.96,1.07c-6.95,6.95-13.9,13.9-20.83,20.87
					c-1.02,1.02-2.03,1.92-3.56,1.29c-1.25-0.53-1.49-1.6-1.51-2.72c-0.02-0.2-0.02-0.38-0.02-0.58v-2.65
					c0-39.92-0.11-88.36,0.04-128.28c0.02-5.17,0.53-10.12,1.52-14.88c2.21-10.52,6.8-20.01,13.72-28.43
					c2.38-2.89,5.03-5.64,7.97-8.27c10.05-9.02,21.9-14.53,35.29-16.46c36.33-5.19,67.84,17.82,76.48,50.11
					c1.52,5.68,2.32,11.49,2.32,17.38V552.4C981.13,552.84,981.15,553.28,981.12,553.72z"/>
				<path class="st2" d="M992.69,441.79c0-2.43-0.11-4.87-0.45-7.27c-1.48-10.55-5.96-20.02-12.49-27.6
					c-6.17-7.17-14.15-12.63-23.17-15.73c-5.35-7.73-12.66-13.92-21.12-17.91c4.54-0.24,9.18-0.04,13.92,0.64
					c5.86,0.83,11.41,2.36,16.66,4.57c6.73,2.83,12.96,6.8,18.62,11.88c15.31,13.72,23.13,31.03,23.21,51.57
					c0.12,31.89,0.08,69.13,0.06,82.82c0,2-2.42,2.99-3.83,1.57l-10.01-10.01c-0.89-0.89-1.39-2.09-1.39-3.35L992.69,441.79z"/>
				<path class="st2" d="M954.55,530.15v3.08c-0.05-0.05-0.11-0.11-0.14-0.16C953.58,532,953.73,530.81,954.55,530.15z"/>
				<path class="st1" d="M935.7,496.26c0-0.98-0.01-43.73-0.01-59.77c0-5.53,0.02-11.05-0.01-16.58c-0.02-3.72-0.63-7.32-2.25-10.73
					c-4.46-9.41-14.02-14.25-23.39-13.19c-10.31,1.17-18.19,8.46-20.21,18.41c-0.3,1.46-0.44,2.98-0.44,4.47
					c-0.03,22.11-0.02,52.74-0.02,74.85c0,0.74,0,1.66,0.05,2.59c0.85,0,1.49-0.01,2.15-0.01c2.32,0.02,4.64-0.01,6.96,0.02
					c0.6,0.01,1.23,0.05,1.79,0.26c1.1,0.4,1.56,1.73,0.92,2.7c-0.28,0.43-0.67,0.78-1.04,1.15c-7.04,7.05-14.09,14.09-21.13,21.13
					c-0.3,0.3-0.59,0.6-0.91,0.87c-1.29,1.06-3.3,0.44-3.63-1.2c-0.11-0.56-0.08-1.15-0.09-1.72c-0.01-3.75,0-7.51,0-11.26
					c0-26.61-0.01-61.75,0.01-88.36c0-7.75,1.8-15.03,6.14-21.53c6.58-9.87,15.72-15.8,27.57-17.08c13.81-1.5,25.18,3.35,34,14.01
					c4.35,5.25,7.01,11.36,7.85,18.17c0.27,2.23,0.42,4.48,0.42,6.73c0.03,30.16,0.02,68.85,0.02,99.01c0,0.6,0.02,1.21-0.03,1.81
					c-0.16,1.63-1.94,2.65-3.31,1.76c-0.47-0.3-0.85-0.74-1.25-1.14c-7.05-7.04-14.09-14.09-21.13-21.13
					c-0.29-0.29-0.59-0.56-0.84-0.87c-1.19-1.5-0.55-2.97,1.35-3.25C925.77,496.29,935.3,496.28,935.7,496.26z"/>
				<path class="st2" d="M832.42,441.79c0-2.43,0.11-4.87,0.45-7.27c1.48-10.55,5.96-20.02,12.49-27.6
					c6.17-7.17,14.15-12.63,23.17-15.73c5.35-7.73,12.66-13.92,21.12-17.91c-4.54-0.24-9.18-0.04-13.92,0.64
					c-5.86,0.83-11.41,2.36-16.66,4.57c-6.73,2.83-12.96,6.8-18.62,11.88c-15.31,13.72-23.13,31.03-23.21,51.57
					c-0.12,31.89-0.08,69.13-0.06,82.82c0,2,2.42,2.99,3.83,1.57l10.01-10.01c0.89-0.89,1.39-2.09,1.39-3.35L832.42,441.79z"/>
			</g>
			<path class="st1" d="M912.37,341.82c-5.75-0.01-10.31-4.59-10.23-10.45c0.07-5.07,4.03-10.1,10.24-10.1
				c6.72,0,10.39,5.52,10.3,10.38C922.58,337.37,918.11,341.83,912.37,341.82z"/>
			<path class="st2" d="M1016.31,464.84c0.04-5.21,4.15-9.2,9.41-9.14c5.06,0.06,9.13,4.24,9.08,9.33c-0.05,5.15-4.23,9.2-9.46,9.14
				C1020.25,474.11,1016.27,470,1016.31,464.84z"/>
			<path class="st2" d="M1034.65,430.56c-0.11,5.1-4.25,9.11-9.33,9c-5.17-0.11-9.21-4.44-8.99-9.53c0.21-5.07,4.32-9.04,9.43-8.9
				C1030.71,421.26,1034.88,425.44,1034.65,430.56z"/>
			<path class="st2" d="M1007.77,397.32c-0.23-4.4,3.6-8.88,8.78-8.87c4.9,0.01,8.88,3.91,8.93,8.79c0.05,4.95-3.97,8.98-8.94,8.95
				C1011.59,406.17,1007.77,402.3,1007.77,397.32z"/>
			<path class="st2" d="M983.53,374.07c0-4.57,3.68-8.26,8.25-8.26c4.52,0,8.38,3.76,8.27,8.28c-0.14,5.38-4.33,8.25-8.29,8.26
				C987.18,382.35,983.53,378.66,983.53,374.07z"/>
			<path class="st2" d="M975.57,355.2c0,4.03-3.22,7.42-7.22,7.39c-4.48-0.04-7.4-3.38-7.47-7.35c-0.07-4.1,3.28-7.36,7.43-7.34
				C972.35,347.91,975.57,351.14,975.57,355.2z"/>
			<path class="st2" d="M950.87,341.78c0,4.03-3.22,7.42-7.22,7.39c-4.48-0.04-7.4-3.38-7.47-7.35c-0.07-4.1,3.28-7.36,7.43-7.34
				C947.65,334.49,950.86,337.72,950.87,341.78z"/>
			<g>
				<g>
					<path class="st2" d="M808.52,464.84c-0.04-5.21-4.15-9.2-9.41-9.14c-5.06,0.06-9.13,4.24-9.08,9.33
						c0.05,5.15,4.23,9.2,9.46,9.14C804.58,474.11,808.56,470,808.52,464.84z"/>
					<path class="st2" d="M790.18,430.56c0.11,5.1,4.25,9.11,9.33,9c5.17-0.11,9.21-4.44,8.99-9.53c-0.21-5.07-4.32-9.04-9.43-8.9
						C794.12,421.26,789.95,425.44,790.18,430.56z"/>
					<path class="st2" d="M817.06,397.32c0.23-4.4-3.6-8.88-8.78-8.87c-4.9,0.01-8.88,3.91-8.93,8.79
						c-0.05,4.95,3.97,8.98,8.94,8.95C813.24,406.17,817.06,402.3,817.06,397.32z"/>
					<path class="st2" d="M841.3,374.07c0-4.57-3.68-8.26-8.25-8.26c-4.52,0-8.38,3.76-8.27,8.28c0.14,5.38,4.33,8.25,8.29,8.26
						C837.65,382.35,841.3,378.66,841.3,374.07z"/>
					<path class="st2" d="M849.26,355.2c0,4.03,3.22,7.42,7.22,7.39c4.48-0.04,7.4-3.38,7.47-7.35c0.07-4.1-3.28-7.36-7.43-7.34
						C852.47,347.91,849.26,351.14,849.26,355.2z"/>
					<path class="st2" d="M873.96,341.78c0,4.03,3.22,7.42,7.22,7.39c4.48-0.04,7.4-3.38,7.47-7.35c0.07-4.1-3.28-7.36-7.43-7.34
						C877.18,334.49,873.97,337.72,873.96,341.78z"/>
				</g>
			</g>
		</g>
	</g>
	<g>
		<g>
			<g>
				<path class="st3" d="M683.24,673.24v5.71h-9.73v24.88H667v-24.88h-9.77v-5.71H683.24z"/>
				<path class="st3" d="M707.94,673.24h6.52v30.6h-6.52v-12.7h-14.21v12.7h-6.52v-30.6h6.52v12.23h14.21V673.24z"/>
				<path class="st3" d="M727.72,698.36h14.17v5.48h-20.68v-30.6h20.45v5.43h-13.93v6.89h12.04l-0.77,5.38h-11.27V698.36z"/>
				<path class="st3" d="M781.22,673.24v5.71h-9.73v24.88h-6.52v-24.88h-9.77v-5.71H781.22z"/>
				<path class="st3" d="M791.7,698.36h14.17v5.48h-20.68v-30.6h20.45v5.43H791.7v6.89h12.04l-0.77,5.38H791.7V698.36z"/>
				<path class="st3" d="M838.45,673.24v30.6h-7.27l-9.62-14.26c-0.82-1.26-1.52-2.35-2.08-3.28c-0.57-0.93-1.12-1.97-1.66-3.14
					v20.68h-6.52v-30.6h7.18l10.47,15.68c0.13,0.19,0.41,0.62,0.85,1.3s0.85,1.31,1.21,1.91c0.36,0.6,0.67,1.18,0.92,1.75v-20.63
					H838.45z"/>
				<path class="st3" d="M868.43,673.24v5.71h-9.73v24.88h-6.52v-24.88h-9.77v-5.71H868.43z"/>
				<g>
					<path class="st3" d="M886.22,702.47c-2.28-1.35-4.01-3.23-5.17-5.64c-1.16-2.41-1.75-5.2-1.75-8.38c0-3.52,0.71-6.48,2.12-8.85
						c1.42-2.38,3.3-4.14,5.64-5.29c2.34-1.15,4.95-1.72,7.81-1.72c3.27,0,6.05,0.68,8.33,2.03c2.28,1.35,4,3.24,5.15,5.64
						c1.15,2.41,1.72,5.2,1.72,8.38c0,3.53-0.7,6.48-2.1,8.85c-1.4,2.38-3.27,4.14-5.62,5.29c-2.35,1.15-4.95,1.72-7.81,1.72
						C891.28,704.5,888.5,703.82,886.22,702.47z M899.3,697.77c1.31-0.83,2.28-2.03,2.93-3.59c0.64-1.56,0.97-3.39,0.97-5.5
						c0-3.34-0.71-5.94-2.12-7.81c-1.42-1.87-3.48-2.81-6.19-2.81c-2.83,0-4.99,0.92-6.47,2.76c-1.48,1.84-2.22,4.37-2.22,7.58
						c0,3.34,0.71,5.94,2.13,7.81c1.42,1.87,3.49,2.81,6.23,2.81C896.41,699.02,897.99,698.61,899.3,697.77z"/>
					<path class="st3" d="M934.45,678.67h-13.93v7.65h12.04l-0.77,5.38h-11.27v12.13H914v-30.6h20.45V678.67z"/>
				</g>
				<path class="st3" d="M966.18,673.24l11,30.22v0.38h-7.13l-2.46-7.32h-11.33l-2.41,7.32h-7.03v-0.38l11-30.22H966.18z
					 M958.06,691.14h7.74l-3.92-11.66L958.06,691.14z"/>
				<path class="st3" d="M987.66,698.08h14.07v5.76h-20.59v-30.6h6.52V698.08z"/>
				<path class="st3" d="M1007.26,700.82l3.02-4.67c2.93,1.86,5.79,2.78,8.59,2.78c1.79,0,3.2-0.28,4.23-0.85
					c1.02-0.57,1.53-1.42,1.53-2.55c0-0.69-0.16-1.27-0.5-1.72c-0.33-0.46-0.91-0.9-1.75-1.32c-0.83-0.42-2.09-0.97-3.75-1.63
					l-1.09-0.42c-2.02-0.79-3.64-1.54-4.86-2.27c-1.23-0.72-2.2-1.65-2.93-2.79c-0.73-1.13-1.09-2.57-1.09-4.3
					c0-1.92,0.55-3.52,1.65-4.79c1.1-1.27,2.52-2.21,4.25-2.81c1.73-0.6,3.57-0.9,5.52-0.9c1.76,0,3.58,0.29,5.45,0.87
					c1.87,0.58,3.66,1.44,5.36,2.57l-3.05,4.63c-1.5-0.91-2.83-1.57-3.99-1.98c-1.16-0.41-2.41-0.61-3.75-0.61
					c-1.5,0-2.64,0.25-3.4,0.76s-1.15,1.18-1.15,2.03c0,0.53,0.16,1.01,0.47,1.44c0.31,0.42,0.88,0.85,1.69,1.28
					c0.81,0.42,1.99,0.92,3.52,1.49l1.03,0.38c2,0.76,3.62,1.46,4.86,2.13c1.24,0.66,2.28,1.6,3.12,2.83
					c0.85,1.23,1.27,2.82,1.27,4.77c0,2.05-0.54,3.77-1.61,5.17c-1.07,1.4-2.53,2.45-4.37,3.14c-1.84,0.69-3.93,1.04-6.26,1.04
					C1014.58,704.5,1010.56,703.27,1007.26,700.82z"/>
				<path class="st3" d="M1052.3,673.24l11,30.22v0.38h-7.13l-2.46-7.32h-11.33l-2.41,7.32h-7.03v-0.38l11-30.22H1052.3z
					 M1044.18,691.14h7.74l-3.92-11.66L1044.18,691.14z"/>
				<path class="st3" d="M1063.73,700.96l3.3-4.44c0.86,0.69,1.7,1.2,2.52,1.51c0.81,0.31,1.72,0.47,2.71,0.47
					c1.5,0,2.64-0.43,3.42-1.27c0.78-0.85,1.17-2.05,1.17-3.59v-20.73h6.52v20.87c0,2.61-0.54,4.69-1.61,6.23
					c-1.07,1.54-2.39,2.62-3.97,3.23c-1.57,0.61-3.21,0.92-4.91,0.92C1069.24,704.17,1066.19,703.1,1063.73,700.96z"/>
				<path class="st3" d="M1085.03,700.96l3.3-4.44c0.86,0.69,1.7,1.2,2.52,1.51c0.81,0.31,1.72,0.47,2.71,0.47
					c1.5,0,2.64-0.43,3.42-1.27c0.78-0.85,1.17-2.05,1.17-3.59v-20.73h6.52v20.87c0,2.61-0.54,4.69-1.61,6.23
					c-1.07,1.54-2.39,2.62-3.97,3.23c-1.57,0.61-3.21,0.92-4.91,0.92C1090.53,704.17,1087.48,703.1,1085.03,700.96z"/>
				<path class="st3" d="M1126.43,673.24l11,30.22v0.38h-7.13l-2.46-7.32h-11.33l-2.41,7.32h-7.03v-0.38l11-30.22H1126.43z
					 M1118.31,691.14h7.74l-3.92-11.66L1118.31,691.14z"/>
				<path class="st3" d="M1163.93,676.71c2.93,2.31,4.39,6.26,4.39,11.83c0,3.4-0.77,6.25-2.31,8.55c-1.54,2.3-3.6,4-6.16,5.1
					c-2.57,1.1-5.39,1.65-8.48,1.65h-9.96v-30.6h10.2C1156.89,673.24,1161,674.4,1163.93,676.71z M1156.54,697.3
					c1.61-0.52,2.83-1.47,3.65-2.86c0.82-1.38,1.23-3.35,1.23-5.9c0-2.36-0.37-4.23-1.11-5.62c-0.74-1.38-1.83-2.38-3.28-3
					c-1.45-0.61-3.27-0.92-5.47-0.92h-3.65v19.08h2.17C1152.78,698.08,1154.93,697.82,1156.54,697.3z"/>
			</g>
		</g>
		<g>
			<path class="st3" d="M661.16,593.31c1.07,0,2.51,0.36,3.31,1.25c0.8,0.8,1.34,2.06,1.34,3.31c0,1.25-0.54,2.5-1.34,3.31
				c-0.8,0.89-2.24,1.52-3.31,1.52c-2.41,0-4.65-2.41-4.65-4.83C656.51,595.36,658.66,593.31,661.16,593.31z M679.76,637.84
				c-1.34-1.07-4.11-4.38-4.11-6.26c-0.81,1.43-1.7,2.68-2.59,3.4c-2.15,1.16-4.02,1.52-6.44,1.52c-1.43,0-2.86-0.09-4.38-0.72
				c-1.25-0.98-2.41-2.06-3.58-3.76c-0.72-1.25-1.25-3.4-1.43-5.45c0.09-2.06,0.54-3.67,0.81-5.01c0.54-1.16,1.79-2.5,2.68-3.93
				c0.89-1.34,2.59-2.15,4.29-3.13c1.34-0.63,3.4-1.7,5.72-1.79c1.43-0.36,2.77-0.63,4.2-0.89v-6.35h8.41l-0.27,16.54l0.09,3.04
				c0,1.97,1.07,2.59,2.68,3.4v9.39H679.76z M675.11,625.05c0-0.89-0.09-1.7-0.09-2.06v-2.59c-1.88-0.09-3.58,0.09-4.92,0.18
				c-0.54,0.09-0.98,0.09-1.43,0.18c-1.16,0.18-2.06,0.45-3.31,0.89c-0.98,0.89-1.16,1.7-1.34,2.32c0.98,0.72,1.97,0.98,3.13,1.34
				c0.98,0.27,2.32,0.8,4.38,0.45C672.7,625.59,673.77,625.32,675.11,625.05z M672.25,593.31c1.07,0,2.5,0.36,3.31,1.25
				c0.81,0.8,1.34,2.06,1.34,3.31c0,1.25-0.54,2.5-1.34,3.31c-0.8,0.89-2.23,1.52-3.31,1.52c-2.41,0-4.65-2.41-4.65-4.83
				C667.6,595.36,669.75,593.31,672.25,593.31z"/>
			<path class="st3" d="M679.76,628.45h6.08c1.97,0.98,9.84,1.7,12.16,1.7c3.4,0,6.8-0.8,10.11-1.61h7.15v6.53
				c-5.45,3.75-12.69,6.26-19.4,6.26c-5.01,0-11.98-0.72-16.1-3.49V628.45z"/>
			<path class="st3" d="M705.87,645.7c1.07,0,2.5,0.36,3.31,1.25c0.81,0.8,1.34,2.06,1.34,3.31c0,1.25-0.54,2.5-1.34,3.31
				c-0.8,0.89-2.23,1.52-3.31,1.52c-2.41,0-4.65-2.41-4.65-4.83C701.22,647.76,703.37,645.7,705.87,645.7z M719.55,613.25l1.34,8.67
				c0.09,1.88,0,3.67-0.27,5.28c0,3.76-2.5,5.9-5.36,7.87h-7.15v-6.53c1.7-0.45,3.04-0.89,4.02-1.16c0-1.61-0.18-2.06-0.36-4.47
				l-0.81-8.67L719.55,613.25z M716.96,645.7c1.07,0,2.5,0.36,3.31,1.25c0.81,0.8,1.34,2.06,1.34,3.31c0,1.25-0.54,2.5-1.34,3.31
				c-0.81,0.89-2.24,1.52-3.31,1.52c-2.42,0-4.65-2.41-4.65-4.83C712.31,647.76,714.45,645.7,716.96,645.7z"/>
			<path class="st3" d="M736.54,610.12l2.68-4.74c1.61,1.16,3.31,2.06,4.38,3.22c1.25,1.07,2.68,2.68,3.31,3.49
				c2.15,2.5,3.31,5.45,4.11,8.67c0.45,1.7,0.72,3.4,0.45,5.1c-0.18,2.33-0.45,3.85-1.16,5.54c-0.54,1.61-1.61,2.95-2.41,4.47
				c-1.34,0.72-2.42,1.88-3.94,2.5c-2.5,1.52-5.72,1.88-8.58,2.06c-1.7,0-3.4-0.27-5.01-0.72c-2.24-0.89-4.92-2.15-5.72-4.56
				l1.97-7.51c2.95,0.27,5.9,0.63,8.85,0.89c2.77,0,5.63-0.63,7.42-0.98c0.54-0.18,0.98-0.27,1.25-0.36c0.09-0.54,0-1.07-0.27-1.61
				c-0.89-2.06-4.02-5.36-5.72-6.71c-1.25-1.25-2.59-2.5-4.11-3.58C734.84,613.52,735.56,611.82,736.54,610.12z"/>
			<path class="st3" d="M761.76,637.84c-2.5-1.79-3.75-3.4-4.2-5.1c-0.62-2.24-1.25-3.76-1.25-6.17v-4.92l0.45-5.1l-0.18-4.38v-4.83
				l0.09-5.1l-0.27-4.38v-4.74h8.68v5.1l0.09,4.65l-0.18,5.28l0.18,5.28l-0.18,4.83l0.18,5.28c0,1.34,0.09,3.67,2.68,4.92v9.39
				H761.76z"/>
			<path class="st3" d="M767.84,628.45c3.04,1.61,14.75,2.77,18.33,2.77c8.32,0,13.95-0.27,21.82-2.68h7.15v6.53
				c-7.96,5.54-20.65,7.33-30.13,7.33c-6.61,0-18.06-0.81-23.25-4.56v-9.39H767.84z"/>
			<path class="st3" d="M804.77,624.78l-4.47-5.36c0.71-1.52,2.06-3.49,2.68-4.65c1.43-1.43,2.59-2.42,3.76-3.22
				c1.52-0.63,2.86-1.16,5.1-1.25c1.61-0.27,7.24,1.34,8.85,2.15c0.36,0.18,0.72,0.45,1.16,0.63c2.77,1.52,5.63,2.23,8.68,3.04
				c2.15,0.72,4.2,0.63,6.26,0.8l2.68,0.18l0.09,9.12h-5.01c-0.63,0-1.34-0.09-1.97-0.18c-0.09,0-0.18,0-0.18,0
				c0.18,0.36,0.45,0.63,0.72,0.89c0.54,0.72,1.43,1.07,3.58,1.52c1.34,0.18,3.93,0.18,6.53,0.27v10.91l-2.68,0.72
				c-2.06,0-4.38-0.27-5.81-1.07c-3.58-0.89-5.01-2.59-6.98-5.54c-0.89-1.88-1.52-4.2-1.79-6.26c-1.43,0.8-2.41,2.23-3.75,3.31
				c-2.06,1.61-4.56,2.86-7.06,4.29h-7.15v-6.53c4.83-1.16,9.12-2.68,13.32-5.19c-0.63-0.18-1.25-0.45-1.88-0.63
				c-1.25-0.45-2.68-0.8-4.11-1.34c-0.89-0.27-1.7-0.45-2.41-0.54c-0.72-0.09-1.34-0.09-2.06,0L804.77,624.78z M823.37,645.7
				c2.86,0,5.19,2.15,5.19,5.1c0,2.68-2.41,5.36-5.19,5.36c-2.68,0-5.18-2.77-5.18-5.36C818.18,648.12,820.69,645.7,823.37,645.7z"
				/>
			<path class="st3" d="M890.61,617.27l-0.27,4.74l0.09,3.04c0,1.07,0.18,1.88,0.8,2.5c0.81,0.72,2.51,1.07,5.99,1.16v10.73
				l-2.68,0.89c-1.52,0-3.22,0-4.47-0.27c-1.61-0.54-2.95-1.07-3.85-1.7c-0.98-0.98-1.7-1.79-2.23-2.59
				c-1.07,1.61-1.7,2.68-2.77,3.49c-1.25,0.98-2.5,0.89-3.93,1.07c-1.43,0.27-2.95-0.63-4.38-1.7c-0.72-0.45-1.34-0.98-1.88-1.61
				c-0.72,0.8-1.52,1.61-2.32,2.41c-1.43,0.63-3.04,1.16-5.01,1.07c-4.29-0.89-7.87-2.77-11.09-5.63c-0.98,1.34-2.86,3.22-4.2,3.93
				c-1.88,0.98-5.72,1.52-7.87,1.52v-8.85l2.68-2.77c2.23,0,3.13-0.27,4.38-0.54c0.89-1.97,1.16-3.04,2.06-4.92
				c0.36-0.8,0.89-1.88,1.61-3.22l2.59,1.25l5.01,2.15c-0.54,1.43-1.07,2.77-1.61,3.93c0.89,0.36,2.06,0.72,3.22,0.98
				c0.98,0.27,2.06,0.36,3.13,0.27c1.25,0.09,1.88-0.18,2.5-0.18c0.27-0.54,0.63-1.43,1.07-2.59c0.45-1.25,0.98-2.95,1.79-5.19
				l2.5,0.98l5.28,1.52c-0.45,1.61-0.89,3.13-1.34,4.47c1.25,0.63,3.13,0.98,4.47,1.16c0.45-0.09,1.97-0.27,2.23-0.27
				c0.18-0.8,0.09-2.06,0.18-2.95v-2.59l-0.09-5.72H890.61z"/>
			<path class="st3" d="M894.55,631.58l2.68-2.86c2.15-0.09,3.85-0.09,4.56-1.07v-4.83l0.27-5.1l-0.18-4.83l0.09-4.74v-5.1
				l0.09-4.92l-0.27-5.1h8.68l-0.09,5.36l0.09,5.63v5.45l0.09,5.1c-0.18,1.97-0.45,3.93-0.45,5.9c0,2.15,0.45,3.93,0,5.63
				c-0.54,2.06-0.98,3.31-1.34,4.74c-1.34,4.38-5.01,7.78-9.39,9.03c-1.25,0.36-3.31,0.27-4.83,0.45V631.58z"/>
			<path class="st3" d="M917.53,640.52l-0.45-5.1l0.45-9.12l-0.18-5.01l0.09-4.83c-0.09-1.52-0.36-3.13-0.36-4.65
				c0-1.52,0.18-3.04,0.27-4.47v-4.83l0.18-4.83l-0.36-4.83h8.85l0.09,4.65c0.09,1.61,0.27,3.31,0.27,4.92
				c0,1.61-0.27,3.22-0.36,4.83l0.09,4.56l0.27,4.56l-0.27,4.92v5.01l-0.18,4.29l0.45,4.74l-0.18,5.01L917.53,640.52z"/>
			<g>
				<path class="st3" d="M797.86,598.72l0.32,1.8v2.65l0.11,1.06v0.43c0,0.63-0.11,1.27-0.21,1.8c-0.21,0.53-0.42,1.17-0.74,1.59
					l-0.32,0.32c-0.21,0.42-0.53,0.74-0.85,1.06c-0.21,0.1-0.42,0.32-0.63,0.42c-0.21,0.21-0.42,0.32-0.74,0.53
					c-0.32,0.21-0.74,0.32-1.06,0.53c-0.21,0-0.32,0.1-0.42,0.1c-0.53,0.11-1.06,0.21-1.59,0.21c-0.74,0-1.38-0.11-1.91-0.42
					c-0.53-0.21-1.06-0.64-1.38-1.06l-0.21-0.21c-0.32-0.42-0.53-0.85-0.74-1.38c-0.21,0.42-0.42,0.64-0.74,0.85
					c-0.21,0.1-0.32,0.32-0.53,0.42c-0.42,0.42-1.27,0.95-1.91,1.17l-0.21,0.11c-0.53,0.21-1.17,0.42-1.7,0.53h-0.42
					c-0.64,0-1.38,0-1.91-0.32c-0.32-0.11-0.53-0.32-0.74-0.42c-0.21-0.21-0.53-0.43-0.74-0.64l-0.21-0.32
					c-0.21-0.42-0.42-0.95-0.64-1.48c-0.1-0.43-0.1-0.95-0.1-1.48c0-0.21,0.1-0.53,0.1-0.85v-1.06c0.11-0.64,0.11-1.38,0.32-2.12
					l0.85-2.76h1.48c-0.21,0.95-0.21,1.8-0.21,2.65c0,0.64,0.21,1.38,0.42,1.91l0.11,0.11c0.11,0.53,0.64,1.27,1.27,1.27
					c0.32,0.11,0.74,0.21,1.17,0.21c0.42,0,0.85-0.11,1.17-0.32c0.42-0.11,0.74-0.32,1.06-0.53c0.42-0.32,0.85-0.53,1.17-0.85
					c0.11-0.1,0.32-0.21,0.42-0.42c0.21-0.32,0.42-0.63,0.64-1.06c0.11-0.32,0.21-0.63,0.42-0.95l0.21-0.53
					c0.21-0.53,0.32-1.06,0.53-1.48h1.59v2.12c0,0.42,0.11,0.85,0.11,1.27c0.11,0.21,0.21,0.42,0.21,0.63
					c0.1,0.21,0.21,0.42,0.21,0.64c0.21,0.32,0.42,0.64,0.74,0.85l0.32,0.21c0.32,0.21,0.64,0.42,1.06,0.42
					c0.11,0.11,0.32,0.11,0.42,0.11h0.95l1.17,0.11l-0.74-1.91l-0.32-1.38l-1.06-2.44L797.86,598.72z"/>
			</g>
		</g>
		<g>
			<g>
				<path class="st3" d="M946.47,589.88c1.07,0,2.5,0.36,3.31,1.25c0.8,0.8,1.34,2.06,1.34,3.31c0,1.25-0.54,2.5-1.34,3.31
					c-0.81,0.89-2.24,1.52-3.31,1.52c-2.41,0-4.65-2.41-4.65-4.83C941.82,591.93,943.96,589.88,946.47,589.88z M969,602.84
					l-0.36,5.9l0.18,5.36l0.09,5.81c-0.18,2.5,0.45,3.75,1.7,4.47c0.98,0.54,2.68,0.81,4.92,0.89v10.91l-2.68,0.72
					c-1.7,0-3.04,0-4.65-0.45c-1.07-0.54-2.59-1.34-3.58-2.06c-0.98-1.25-2.15-2.59-2.59-4.11c-0.36-0.81-0.72-1.61-0.89-2.42
					c-0.89,1.43-1.79,2.86-2.77,3.67c-2.15,1.16-4.02,1.52-6.44,1.52c-1.43,0-2.86-0.09-4.38-0.72c-1.25-0.98-2.42-2.06-3.58-3.76
					c-0.72-1.25-1.25-3.4-1.43-5.45c0.09-2.06,0.54-3.67,0.8-5.01c0.54-1.16,1.79-2.5,2.68-3.93c0.89-1.34,2.59-2.15,4.29-3.13
					c1.34-0.63,3.4-1.7,5.72-1.79c1.52-0.36,3.04-0.72,4.74-0.89v-0.27l-0.09-5.19L969,602.84z M960.5,621.53v-4.56
					c-1.88-0.09-3.75,0.09-5.1,0.18c-0.54,0.09-0.98,0.09-1.43,0.18c-1.16,0.18-2.06,0.45-3.31,0.89c-0.98,0.89-1.16,1.7-1.34,2.32
					c0.98,0.72,1.97,0.98,3.13,1.34c0.98,0.27,2.32,0.81,4.38,0.45C958,622.16,959.16,621.89,960.5,621.53z M957.56,589.88
					c1.07,0,2.5,0.36,3.31,1.25c0.81,0.8,1.34,2.06,1.34,3.31c0,1.25-0.54,2.5-1.34,3.31c-0.8,0.89-2.24,1.52-3.31,1.52
					c-2.42,0-4.65-2.41-4.65-4.83C952.9,591.93,955.05,589.88,957.56,589.88z"/>
				<path class="st3" d="M979.11,625.11c0-0.18,0-0.27,0-0.45c-0.09-1.61,0-3.49,0.54-4.74c0.63-1.7,1.16-3.31,2.24-4.47
					c0.98-1.25,2.59-2.15,3.67-3.13c1.25-1.16,2.32-1.79,4.29-2.59c1.61-0.45,3.04-0.98,5.19-0.72l2.86,0.09
					c1.16,3.58,1.7,6.44,2.77,8.67c0.89,1.88,1.79,3.58,2.68,4.74c0.89,1.25,2.15,1.97,3.22,2.5v9.39h-6.08
					c-0.54-0.36-1.16-0.89-1.52-1.43c-0.27-0.36-0.54-0.72-0.8-1.16l-3.13,7.06l-8.14-2.86c-1.97-0.72-3.31-1.97-4.2-2.77
					c-0.72-0.72-1.34-1.34-1.88-1.97c-0.54,1.61-1.34,3.04-2.42,4.2c-1.07,0.72-3.49,1.43-5.54,1.43v-9.84l2.68-1.79
					C976.87,625.29,978.03,625.2,979.11,625.11z M987.42,618.76c-0.81,1.34-1.52,2.86-1.52,3.94c0.18,0.54,0.63,1.16,1.7,1.61
					l5.9,2.86l2.59,1.07c-0.72-1.34-1.25-2.68-1.88-4.02c-0.81-1.7-1.25-3.4-2.24-5.54C990.73,618.58,988.76,618.58,987.42,618.76z"
					/>
				<path class="st3" d="M1000.48,625.02h6.08c2.68,1.25,6.08,1.52,10.01,2.24c5.36,0.89,11.62,1.97,18.15,1.97
					c6.71,0,13.68-0.36,20.03-0.98c3.75-0.36,7.42-0.63,10.64-1.16c3.13-0.54,5.81-1.34,8.14-1.97h7.15v6.53
					c-2.86,1.97-7.33,3.93-12.7,5.36c-3.75,0.98-7.96,1.52-12.52,2.24c-6.88,0.98-14.31,1.52-21.55,1.61
					c-7.33,0-27.54-2.24-33.44-6.44V625.02z"/>
				<path class="st3" d="M1090.52,613.84l-0.27,4.74l0.09,3.04c0,1.07,0.18,1.88,0.81,2.5c0.8,0.72,2.5,1.07,5.99,1.16v10.73
					l-2.68,0.89c-1.52,0-3.22,0-4.47-0.27c-1.61-0.54-2.95-1.07-3.85-1.7c-2.5-2.5-3.49-3.93-3.67-6.71
					c-0.36,1.52-0.89,2.77-1.79,3.4h-7.15v-6.53c2.86-0.8,5.9-1.7,8.76-2.77v-0.89c0-0.8-0.09-1.52-0.09-1.88l-0.09-5.72H1090.52z
					 M1078.9,642.27c1.07,0,2.5,0.36,3.31,1.25c0.8,0.8,1.34,2.06,1.34,3.31c0,1.25-0.54,2.5-1.34,3.31
					c-0.81,0.89-2.24,1.52-3.31,1.52c-2.41,0-4.65-2.41-4.65-4.83C1074.25,644.33,1076.39,642.27,1078.9,642.27z M1089.99,642.27
					c1.07,0,2.5,0.36,3.31,1.25c0.81,0.8,1.34,2.06,1.34,3.31c0,1.25-0.54,2.5-1.34,3.31c-0.8,0.89-2.24,1.52-3.31,1.52
					c-2.42,0-4.65-2.41-4.65-4.83C1085.34,644.33,1087.48,642.27,1089.99,642.27z"/>
				<path class="st3" d="M1100.72,621.35l-4.47-5.37c0.72-1.52,2.06-3.49,2.68-4.65c1.43-1.43,2.59-2.42,3.76-3.22
					c1.52-0.63,2.86-1.16,5.1-1.25c1.61-0.27,7.24,1.34,8.85,2.15c0.36,0.18,0.72,0.45,1.16,0.63c2.77,1.52,5.63,2.23,8.67,3.04
					c2.15,0.72,4.2,0.63,6.26,0.8l2.68,0.18l0.09,9.12h-5.01c-0.09,0-0.09,0-0.18,0c-0.62,0-1.25,0-1.79,0.09
					c0.09,0.27,0.27,0.45,0.54,0.63c0.54,0.72,1.43,1.07,3.58,1.52c1.34,0.18,3.93,0.18,6.53,0.27v10.91l-2.68,0.72
					c-2.06,0-4.38-0.27-5.81-1.07c-3.58-0.89-5.01-2.59-6.98-5.54c-0.36-0.72-1.7-4.74-1.7-5.54c-1.52,0.62-3.31,1.7-4.65,2.59
					c-1.43,0.98-3.22,1.61-4.02,2.15c-1.7,1.07-2.95,2.15-4.2,3.04c-1.07,0.8-2.68,1.7-4.02,2.32c-1.79,0.89-3.75,0.8-5.63,1.43
					c-1.43,0.45-3.22,0.63-5.01,0.63v-9.12l2.68-2.5c1.25,0,2.68-0.18,4.11-0.36c0.45,0,0.98-0.09,1.43-0.09
					c3.31-0.89,6.62-1.7,9.74-3.22c1.7-0.72,3.04-1.07,4.47-1.79c-0.54-0.18-0.98-0.36-1.52-0.54c-1.25-0.45-2.68-0.81-4.11-1.34
					c-0.89-0.27-1.7-0.45-2.41-0.54c-0.72-0.09-1.34-0.09-2.06,0L1100.72,621.35z M1107.51,591.58c2.86,0,5.18,2.15,5.18,5.1
					c0,2.68-2.41,5.36-5.18,5.36c-2.68,0-5.19-2.77-5.19-5.36C1102.33,593.99,1104.83,591.58,1107.51,591.58z"/>
				<path class="st3" d="M1136.49,628.15l2.68-2.86c2.15-0.09,3.85-0.09,4.56-1.07v-4.83l0.27-5.1l-0.18-4.83l0.09-4.74v-5.1
					l0.09-4.92l-0.27-5.1h8.67l-0.09,5.37l0.09,5.63v5.45l0.09,5.1c-0.18,1.97-0.45,3.93-0.45,5.9c0,2.15,0.45,3.93,0,5.63
					c-0.54,2.06-0.98,3.31-1.34,4.74c-1.34,4.38-5.01,7.78-9.39,9.03c-1.25,0.36-3.31,0.27-4.83,0.45V628.15z"/>
				<path class="st3" d="M1159.47,637.09l-0.45-5.1l0.45-9.12l-0.18-5.01l0.09-4.83c-0.09-1.52-0.36-3.13-0.36-4.65
					c0-1.52,0.18-3.04,0.27-4.47v-4.83l0.18-4.83l-0.36-4.83h8.85l0.09,4.65c0.09,1.61,0.27,3.31,0.27,4.92s-0.27,3.22-0.36,4.83
					l0.09,4.56l0.27,4.56l-0.27,4.92v5.01l-0.18,4.29l0.45,4.74l-0.18,5.01L1159.47,637.09z"/>
			</g>
			<g>
				<path class="st3" d="M1082.81,594.99c-15.21,5.83-32.06,10.82-50.37,14.05c-6.5,1.15-12.82,2.01-18.95,2.62
					c0.25-1.67,0.5-3.33,0.75-5c5.8-0.71,11.74-1.61,17.81-2.72c18.5-3.39,35.72-8.32,51.53-14.07
					C1083.33,591.58,1083.07,593.29,1082.81,594.99z"/>
			</g>
		</g>
	</g>
</g>
</svg>
