<svg version="1.1" id="Layer_1" xmlns="http://www.w3.org/2000/svg" xmlns:xlink="http://www.w3.org/1999/xlink" x="0px" y="0px"
	 viewBox="0 0 586.5 154.3" style="enable-background:new 0 0 586.5 154.3;" xml:space="preserve">
<style type="text/css">
	.st0{fill:#FFFFFF;}
	.st1{fill:#FFFFFF;}
	.st2{fill:#FFFFFF;}
	.st3{fill:#FFFFFF;}
	.st4{fill:#FFFFFF;}
	.st5{fill:#FFFFFF;}
	.st6{fill:#FFFFFF;}
	.st7{fill:#FFFFFF;stroke:#020200;stroke-width:0.5;stroke-miterlimit:10;}
	.st8{fill:#FFFFFF;}
	.st9{fill:#FFFFFF;}
	.st10{fill:#FFFFFF;stroke:#FFFFFF;stroke-width:2.500000e-04;stroke-miterlimit:10;stroke-dasharray:0.109;}
	.st11{fill:#FFFFFF;stroke:#FFFFFF;stroke-width:2.500000e-04;stroke-miterlimit:10;stroke-dasharray:0.5;}
	.st12{fill:#FFFFFF;stroke:#FFFFFF;stroke-width:2.500000e-04;stroke-miterlimit:10;stroke-dasharray:0.3;}
</style>
<g id="_x23_ffffffff">
	<path class="st0" d="M445.8,38.3c0.4,0.1-0.1,0.6-0.3,0.7C445.1,38.8,445.4,38.3,445.8,38.3z"/>
	<path class="st0" d="M511.2,49.1c1.3,1.4,2.4,3.3,2.3,5.3c0,1.9-0.9,3.7-2.3,4.9C511.2,55.9,511.2,52.5,511.2,49.1z"/>
	<path class="st0" d="M437,56.9c-0.3-0.4-0.1-0.7,0.3-0.9C437.4,56.4,437.3,56.7,437,56.9z"/>
	<path class="st0" d="M436.1,60.1c-0.2,0-0.2-0.4,0-0.4C436.4,59.6,436.3,60,436.1,60.1z"/>
	<path class="st0" d="M582.7,90.6c0.4,0.2,0.3,0.8-0.2,0.8C582.5,91.1,582.6,90.8,582.7,90.6z"/>
	<path class="st0" d="M434.9,93c-0.5,0-0.6-0.6-0.2-0.8C434.9,92.4,434.9,92.7,434.9,93z"/>
	<path class="st0" d="M440.7,111.2c0,0,0.1,0,0.2,0c0.3,0.6,0.6,1.2,0.9,1.8C441.2,112.6,440.4,112,440.7,111.2z"/>
</g>
<g id="_x23_060808ff">
	<path class="st1" d="M498.1,0.1C499,0,500,0,500.9,0c0.5,4.8,0.9,9.5,1.4,14.3c-0.9,0.1-1.9,0.2-2.8,0.3
		C499,9.7,498.6,4.9,498.1,0.1z"/>
	<path class="st1" d="M490.6,1.3c0.9-0.2,1.8-0.4,2.7-0.6c1,4.7,2,9.5,2.9,14.2c-2.1,0.5-4.3,0.8-6.4,1.5c-2.6,0.8-5.2,1.7-7.7,2.7
		c-2.3,1-4.6,2.2-6.8,3.5c-2.4-4.2-4.7-8.4-7.1-12.7c0.8-0.4,1.6-0.9,2.4-1.4c2,3.6,4.1,7.3,6.1,10.9c1.5-0.9,3.1-1.7,4.8-2.2
		c-0.5-0.3-0.9-0.5-1.4-0.8c-0.6-1.6-1.2-3.3-1.9-4.9c1.9-0.7,3.8-1.5,5.7-2.2c0.8-0.3,1.9-0.2,2.4,0.6s0.7,1.8,1.1,2.7
		c-0.9,0.3-1.7,0.7-2.6,1c-0.3-0.6-0.4-1.5-1-1.9c-0.8-0.3-1.6,0.3-2.3,0.5c0.4,1,0.8,2.1,1.2,3.1c0.6,0.3,1.1,0.5,1.7,0.8
		c2.8-1.2,5.6-2.3,8.6-2.9C492.3,9.4,491.5,5.4,490.6,1.3z"/>
	<path class="st1" d="M510.7,2.4c1,0.1,2.1,0.2,3.1,0.3c-0.1,0.6-0.1,1.2-0.2,1.9c-1-0.1-2.1-0.2-3.1-0.3
		C510.6,3.6,510.6,3,510.7,2.4z"/>
	<path class="st1" d="M515,2.8c1,0.1,2.1,0.2,3.1,0.3C518,3.7,518,4.3,517.9,5c-1-0.1-2.1-0.2-3.1-0.3C514.9,4,514.9,3.4,515,2.8z"
		/>
	<path class="st1" d="M522,5.7c0.2-0.6,0.3-1.2,0.5-1.8c1,0.3,2,0.5,3,0.8c-0.1,0.6-0.3,1.2-0.5,1.8C524,6.3,523,6,522,5.7z"/>
	<path class="st1" d="M534.8,4.7c0.9,0.4,1.7,0.7,2.6,1c-1.6,3.9-3.1,7.7-4.7,11.6c1.2,0.4,2.3,0.9,3.3,1.6c1.1-1.9,2.2-3.8,3.3-5.6
		c1.8,1,3.5,2.1,5.3,3.1c0.5,0.3,1,0.7,1.2,1.2c0.2,0.4,0,0.9-0.2,1.3c-0.7,1.3-1.5,2.5-2.2,3.8c-0.2,0.2,0,0.5,0.2,0.7
		c-0.3,0.5-0.6,1-0.9,1.6c-1.6-0.9-3.2-1.9-4.8-2.8c-1.1-0.6-2.2-1.4-3.4-1.9c-1.7-0.8-3.3-1.5-5.1-2.2
		C531.2,13.7,533,9.2,534.8,4.7 M538.9,19.7c-0.2,0.3-0.2,0.8,0.2,1.1c0.6,0.4,1.3,0.7,1.9,1.2c0-0.2-0.1-0.5,0-0.8
		c0.6-0.9,1.1-1.9,1.7-2.8c0.2-0.3,0.2-0.7,0-0.9c-0.5-0.5-1.2-0.8-1.8-1.2C540.2,17.4,539.5,18.6,538.9,19.7z"/>
	<path class="st1" d="M509.4,7.7c0.2-1.2,1.4-1.9,2.5-1.8c1.9,0.2,3.8,0.4,5.7,0.5c-0.2,2.1-0.4,4.3-0.6,6.4c2.4,0.3,4.7,1,7,1.7
		c0.6-2.1,1.1-4.2,1.7-6.3c0.9,0.2,1.8,0.5,2.7,0.7c-0.7,2.7-1.4,5.4-2.2,8.1c-3.1-0.8-6.1-1.7-9.2-2.3c-2.7-0.3-5.5-0.5-8.2-0.8
		C509,11.9,509.1,9.8,509.4,7.7 M512.1,8.9c-0.1,1.2-0.2,2.4-0.3,3.6c0.8,0.1,1.6,0.1,2.5,0.2c0.2-1.6,0.3-3.1,0.4-4.7
		c-0.6,0-1.3-0.2-1.9,0C512.3,8.1,512.1,8.5,512.1,8.9z"/>
	<path class="st1" d="M557.3,17c0.4-0.4,0.7-0.8,1.1-1.2c0.5,0.5,1.1,0.9,1.6,1.5c0.3,0.4-0.2,0.8-0.5,1.1c-0.2-0.2-0.4-0.4-0.6-0.6
		c0.1-0.2,0.3-0.3,0.4-0.4c-0.2-0.2-0.4-0.4-0.6-0.6c-0.2,0.3-0.5,0.5-0.7,0.8c0.4,0.4,0.9,0.8,1.3,1.2c-0.1,0.1-0.3,0.3-0.4,0.4
		c-0.8-0.7-1.6-1.4-2.4-2.1c0.1-0.1,0.3-0.3,0.4-0.4C557,16.7,557.1,16.8,557.3,17z"/>
	<path class="st1" d="M549.2,25.6c2.5-2.7,4.9-5.4,7.3-8.1c0.7,0.6,1.4,1.2,2.1,1.9c-2.5,2.8-5,5.6-7.6,8.4c-0.4,0.4-1,0.7-1.5,0.5
		c0.8,0.7,1.6,1.4,2.4,2.2c2.8-3.1,5.7-6.2,8.5-9.4c0.7,0.6,1.4,1.2,2.1,1.9c-3.2,3.6-6.5,7.2-9.7,10.8c-2.5-2.2-4.9-4.5-7.4-6.7
		c0.4-0.5,0.8-0.9,1.2-1.4c0.4,0.3,0.7,0.8,1.3,0.9C548.4,26.5,548.8,26,549.2,25.6z"/>
	<path class="st1" d="M465.1,19.3c0.5-0.4,1.2-0.9,1.9-0.8c0.5,0,0.8,0.4,1.1,0.7c0.9,1.2,1.8,2.3,2.7,3.5c0.2,0.2,0.5,0.1,0.7,0
		c0.4,0.5,0.7,1,1.1,1.4c-2.4,1.8-4.8,3.7-7.2,5.5c-0.8,0.6-1.6,1.3-2.3,2.1c-1.9,2.1-3.8,4.3-5.7,6.4c-1.5-1.3-3-2.7-4.5-4
		c-1.1-0.8-1-2.5-0.1-3.5c1.2-1.4,2.5-2.8,3.7-4.2c1.6,1.4,3.3,2.9,4.9,4.3c0.9-1.1,1.9-2.2,3.1-2.9c-1.3-1.7-2.7-3.4-4-5.2
		C462,21.7,463.6,20.5,465.1,19.3 M465.3,21.5c-0.5,0.3-1,0.8-1.5,1.1c0.8,1,1.6,2.1,2.4,3.1c0.2,0.3,0.8,0.4,1.1,0.1
		c0.6-0.4,1.2-0.9,1.7-1.3c-0.2-0.1-0.5,0-0.6-0.2c-0.7-0.9-1.4-1.9-2.2-2.8C466,21.2,465.6,21.3,465.3,21.5 M456,30
		c-0.4,0.4-0.8,0.8-1.1,1.4c-0.2,0.4,0,0.9,0.3,1.2c0.9,0.8,1.8,1.6,2.7,2.4c0.5-0.6,1.1-1.2,1.6-1.9C458.3,32.1,457.1,31.1,456,30z
		"/>
	<path class="st1" d="M452,26.7c0.7-0.8,1.4-1.5,2.1-2.3c0.5,0.4,0.9,0.8,1.4,1.2c-0.7,0.8-1.4,1.5-2.1,2.3
		C452.9,27.5,452.5,27.1,452,26.7z"/>
	<path class="st1" d="M554.7,36.2c3.7-3.1,7.5-6.1,11.3-9.1c0.6,0.7,1.2,1.4,1.8,2.2c-3.7,3.1-7.5,6.1-11.3,9.1
		C555.9,37.6,555.3,36.9,554.7,36.2z"/>
	<path class="st1" d="M451.2,27.5c0.5,0.4,0.9,0.8,1.4,1.2c-0.7,0.8-1.4,1.5-2.1,2.3c-0.5-0.4-0.9-0.8-1.4-1.2
		C449.8,29.1,450.5,28.3,451.2,27.5z"/>
	<path class="st1" d="M570.3,33.3c0.3,0.1,0.7,0.2,1,0.2c0,0.4,0,0.7,0.1,1c-0.3-0.1-0.6-0.1-0.9-0.2
		C570.3,34,570.4,33.6,570.3,33.3z"/>
	<path class="st1" d="M567.2,34.5c0.6-0.3,1.3-0.5,1.9-0.4c-0.5,0.3-1.3,0.2-1.5,0.9c0,0.6,0.4,1.2,0.9,1.6c0.2,0.2,0.4,0.4,0.7,0.3
		c0.3-0.4,0.5-0.8,0.7-1.2c0.4,0,0.8-0.1,1.2-0.1c-0.1,0.3-0.4,0.7-0.1,1c0.3,0.5,1,0.4,1.4,0.2c-0.3,0.5-0.8,0.9-1.1,1.4
		c0.2,0.5,0.6,1,0.9,1.4c0.4,0.2,0.8,0.2,1.1,0.5c-0.3,0-0.6,0-0.8,0.1c0.2,0.3,0.3,0.7,0.6,1c0.3,0.1,0.8-0.1,1,0.3
		c-0.2,0.1-0.5,0.1-0.7,0.2c0,0.3,0.2,0.5,0.3,0.7c0.2,0,0.4-0.1,0.6-0.1c0.2,0.1,0.4,0.2,0.6,0.3c-0.2,0.1-0.5,0.2-0.7,0.4
		s0.1,0.5,0.2,0.7c0.5,0.7,0.6,1.6,1.4,2c-0.1-0.6-0.4-1.2-0.8-1.7c0.4-0.1,0.9-0.3,1.3,0c0.4,0.3,0.5,0.9,0.5,1.4
		c0,0.7,0.3,1.3,0.6,1.9c-0.3,0-0.6,0-0.9,0c-0.2-0.4-0.4-0.8-0.7-1c0.3,0.9,0.8,1.7,1.2,2.5c0.5-0.4,1.2-0.7,1.5-1.4
		c0.3-0.2,0.8,0,1.2,0c-0.4,0.4-0.4,0.9-0.4,1.4c-0.4,0-0.9-0.2-1.3,0.2c-0.6,0.4-1.2,0.7-2,0.7c-0.2-0.1-0.3-0.4-0.4-0.6
		c-0.3-0.8-0.8-1.4-1-2.2c-0.1-0.5,0.5-0.7,0.8-0.9c-0.4-0.1-0.9-0.1-1.3-0.3c-0.4-0.2-0.5-0.8-0.7-1.1c-0.2-0.5-0.7-0.9-0.6-1.4
		c-0.6-0.1-0.7-0.8-0.8-1.2c-0.5-0.4-0.8-1-1-1.6c-0.4-0.4-0.8-0.9-1-1.4c0-0.6,0.5-1,0.8-1.4c-0.4,0.1-0.8-0.1-1.2-0.3
		c-0.5,0.3-1.1,0.6-1.7,0.3c-0.7-0.3-1.3-0.9-1.5-1.6C566.4,35.3,566.8,34.7,567.2,34.5z"/>
	<path class="st1" d="M463.8,36.3c0-0.2,0.3-0.3,0.4-0.1c0.1,0.5,0.2,1.1,0.5,1.6s0,1.2-0.3,1.6c1.6,0.8,3.1,1.8,4.3,3.2
		c0.7,0.9,1.2,2,1,3.2c-0.1,0.8-0.7,1.5-1.1,2.2c0,3.5,0,7,0,10.6c3.6,0.5,7.1,1.3,10.6,2.4c0.3,0,0.4,0.3,0.2,0.5
		c-1.3,1.2-2.5,2.3-3.8,3.5c0,3.3,0.1,6.6,0.1,9.9c0,0.2,0,0.4-0.2,0.6c-1.2,1-2.4,2-3.5,3c-1.4,0-2.9,0-4.4,0c-2.4,0-4.8,0-7.2,0
		c-1.4,0-2.9,0-4.3-0.1c-1-0.8-2-1.7-3.1-2.6c-0.2-0.2-0.5-0.3-0.5-0.6c0-3.4,0-6.8,0-10.2c-1.1-1.2-2.4-2.3-3.7-3.4
		c-0.2-0.1-0.3-0.4-0.1-0.5c3.5-1.4,7.2-2,11-2.4c0-3.5,0-7,0-10.6c-0.5-0.6-1-1.3-1.2-2.1c-0.3-1,0.1-2.2,0.8-3
		c1.2-1.4,2.8-2.5,4.4-3.5c-0.4-0.5-0.6-1.2-0.2-1.7C463.6,37.2,463.7,36.8,463.8,36.3 M463.9,39.1c0.2-0.3,0.4-0.6,0.4-0.9
		c-0.1-0.3-0.2-0.5-0.4-0.7C463.6,37.9,463.4,38.6,463.9,39.1 M459.8,42.9c-0.6,0.6-1.1,1.3-1,2.2c0,0.9,0.5,1.7,1.1,2.4
		c2.7-0.4,5.5-0.4,8.3-0.1c0.6-0.7,1-1.5,1-2.4c0-1-0.6-1.8-1.2-2.5c-1.1-1.2-2.6-2.1-4-2.9C462.4,40.7,461,41.6,459.8,42.9 M460,48
		c0,3.5,0,7,0,10.5c2.6-0.3,5.3-0.3,7.9-0.1c0-3.5,0-7,0-10.4C465.3,47.7,462.7,47.7,460,48 M460.1,59c-3.7,0.3-7.4,0.9-10.9,2.2
		c1.2,1.1,2.4,2.1,3.5,3.2c3.8-0.7,7.7-1.1,11.6-1.1c3.6,0,7.2,0.5,10.8,1.1c1.2-1.1,2.3-2.2,3.5-3.2c-1.9-0.6-3.7-1.1-5.7-1.5
		c-2.1-0.4-4.2-0.9-6.3-0.9C464.4,58.7,462.3,58.9,460.1,59 M452.9,64.9c0,3.3,0,6.6,0,9.9c3.6-0.7,7.3-1.1,11.1-1.2
		c3.7,0,7.4,0.4,11,1.1c0-3.3-0.1-6.5-0.1-9.8c-3.7-0.6-7.4-1-11.2-1C460,64,456.4,64.4,452.9,64.9 M453.2,75.3c1,0.8,2,1.7,2.9,2.5
		c5.2,0,10.3,0,15.4,0.1c1-0.9,2.1-1.8,3.1-2.7c-3.8-0.7-7.7-1.1-11.6-1C459.7,74.3,456.4,74.7,453.2,75.3z"/>
	<path class="st1" d="M553.1,36.3c0-0.2,0.4-0.4,0.4-0.1c0.1,0.5,0.2,1.1,0.5,1.5c0.4,0.5,0,1.2-0.3,1.7c1.4,0.8,2.8,1.7,3.9,2.9
		c0.7,0.8,1.3,1.7,1.4,2.7c0,1.1-0.5,2.1-1.2,2.9c0,3.5,0,7.1,0,10.6c3.6,0.5,7.2,1.3,10.7,2.4c0.3,0,0.2,0.4,0.1,0.5
		c-1.3,1.1-2.5,2.3-3.8,3.5c0,3.3,0.1,6.7,0.1,10c0,0.2-0.1,0.4-0.3,0.5c-1.1,1-2.2,1.9-3.3,2.9c-0.4,0.1-0.9,0.1-1.4,0.1
		c-1,0-2.1,0-3.1,0c-2.4,0-4.7,0-7.1,0c-1.5,0-2.9,0-4.4,0c-1.1-1-2.2-1.9-3.3-2.9c-0.2-0.2-0.2-0.4-0.2-0.7c0-3.3,0-6.6,0-9.9
		c-1.2-1.1-2.3-2.2-3.5-3.2c-0.2-0.2-0.4-0.3-0.3-0.6c0.4-0.3,0.9-0.4,1.3-0.5c3.1-1.1,6.4-1.6,9.7-1.9c0-3.5,0-7.1,0-10.6
		c-0.9-0.9-1.6-2.2-1.2-3.5c0.3-1,1.1-1.9,1.9-2.6c1-0.9,2.2-1.7,3.4-2.4c-0.4-0.5-0.6-1.1-0.3-1.7C552.9,37.3,553,36.8,553.1,36.3
		 M553.3,37.5c-0.4,0.5-0.5,1.2,0,1.7c0.1-0.3,0.4-0.6,0.3-0.9C553.6,37.9,553.4,37.7,553.3,37.5 M550.2,41.9
		c-0.8,0.7-1.6,1.4-2,2.4c-0.4,1.2,0.2,2.4,1,3.2c2.7-0.4,5.5-0.4,8.3-0.1c1-1,1.4-2.5,0.7-3.7c-1.1-1.9-3-3-4.8-4
		C552.2,40.4,551.2,41.1,550.2,41.9 M549.4,48c0,3.5,0,7,0,10.5c2.6-0.3,5.3-0.3,7.9-0.1c0-3.5,0-7,0-10.4
		C554.7,47.7,552,47.7,549.4,48 M547.5,59.2c-3.1,0.4-6.1,0.9-9,2c1.2,1.1,2.4,2.1,3.5,3.2c5-0.8,10-1.3,15-0.9
		c2.5,0.2,4.9,0.5,7.3,1c1.2-1.1,2.4-2.2,3.5-3.3c-2-0.6-4.1-1.2-6.2-1.6c-1.8-0.4-3.6-0.7-5.4-0.8
		C553.4,58.7,550.5,58.9,547.5,59.2 M542.2,64.9c0,3.3,0,6.6,0,9.9c2.5-0.5,5-0.8,7.5-1c4.9-0.4,9.8,0.1,14.7,0.9
		c0-3.3-0.1-6.5-0.1-9.8c-1.9-0.3-3.7-0.6-5.6-0.8C553.2,63.6,547.6,64.1,542.2,64.9 M542.6,75.3c0.9,0.8,1.8,1.6,2.7,2.3
		c0.1,0.2,0.4,0.2,0.6,0.2c5,0,10.1,0,15.1,0.1c1-0.9,2.1-1.8,3.1-2.7c-1.9-0.3-3.8-0.6-5.7-0.8C553.1,73.9,547.7,74.4,542.6,75.3z"
		/>
	<path class="st1" d="M444.9,37.5c0.7-0.2,1.4,0.1,2,0.6c0.5,0.4,1,1,1,1.8c0,0.4-0.3,0.7-0.5,1c-0.3,0.4-0.6,0.7-1,1
		c0.6-1,0.9-2.3,0.3-3.5c0.2,0.6-0.2,1.4-0.8,1.4c-0.8-0.2-1.2-1.1-1.2-1.8C444.6,37.8,444.7,37.6,444.9,37.5 M445.8,38.3
		c-0.3,0-0.7,0.6-0.3,0.7C445.7,38.9,446.1,38.3,445.8,38.3z"/>
	<path class="st1" d="M568.1,38.1c0.3,0.1,0.6,0.1,0.9,0.2c0,0.3,0,0.5,0.1,0.8c0.2,0,0.4,0.1,0.6,0.2c0,0.3,0.1,0.6,0.1,1
		c-0.3-0.1-0.6-0.1-0.8-0.2c0-0.3-0.1-0.6-0.1-0.8c-0.2,0-0.4-0.1-0.6-0.2C568.1,38.7,568.1,38.4,568.1,38.1z"/>
	<path class="st1" d="M442.7,42.5c1.2-0.1,1.4-1.4,2-2.2c0.3,0.4,0.6,0.8,0.9,1.3c-0.7,1.3-1.5,2.6-2.2,3.9c-0.2,0.4-0.6,0.4-1,0.4
		c0.2,0.2,0.3,0.5,0.5,0.7c-0.2,0.3-0.4,0.7-0.6,1.1c0.8,0.6,0.6,1.8,0.3,2.6c-0.2,0.6-0.6,1.3-1.3,1.6c-0.4,0.2-0.9-0.1-1.2-0.4
		c-0.5-0.5-0.8-1.2-0.8-1.9c0.4,0.5,0.6,1.2,1.2,1.4c1-0.3,1.4-1.6,1.4-2.6c-0.5,0.2-0.7,0.7-0.9,1.1c-0.3-0.3-0.5-0.7-0.6-1.1
		c0.4-0.9,0.8-1.8,1.3-2.6c-0.7-0.3-1.4-0.6-2-0.8c-0.2-0.3-0.3-0.7-0.5-1c0.9,0.3,1.8,0.7,2.7,1c0.5-0.2,0.6-0.9,0.9-1.3
		c-0.5-0.2-0.6-0.7-0.6-1.2c-0.1-0.5,0-1.2,0.4-1.6c0.4-0.3,0.9-0.4,1.4-0.3C443.3,40.9,442.8,41.7,442.7,42.5z"/>
	<path class="st1" d="M510.3,49.1c0,4.5,0,9,0,13.5c0.2,0.1,0.9,0.4,1,0.5c0-0.4,0-0.8,0-1.3c0.7,0.5,1.4,1,2.3,1.2
		c1.9,0.6,4,0,5.9,0.7c0.9,0.3,0.7,1.5,1.5,1.9c1,0.8,2.3,0.6,3.4,1c1.2,0.7,1.9,2,2.6,3.2c0.1,0.3,0.6,0.2,0.6-0.1
		c0-1.3,0-2.7,0.4-3.9c0.8-2.3,1.7-4.6,2.6-6.8c0.2-0.5,0.1-1,0-1.5c-0.1-0.6-0.4-1.3-1.1-1.5c-1.7-0.6-3.5-0.4-5.2-1
		c-0.7-0.3-1.3-0.9-1.7-1.6c-0.4-0.8-0.7-1.7-1.5-2c-2.5-1-5.3-0.2-7.8-1.3c-0.7-0.3-1.4-0.6-2-1.1c0.2-0.3,0.4-0.7,0.2-1
		c-0.2-0.3-0.4-0.7-0.6-1.1c-0.1-0.3-0.7-0.3-0.8,0c-0.1,0.4-0.3,0.9-0.4,1.3C509.8,48.6,510.1,48.9,510.3,49.1z M515.3,51.2
		c1.6,0.2,3.3,0.1,4.9,0.5c0.5,0.1,1.1,0.3,1.4,0.8c0.4,0.7,0.7,1.5,1.2,2.1c0.7,0.8,1.7,1.1,2.7,1.3c1.2,0.3,2.5,0.3,3.7,0.6
		c0.5,0.1,0.7,0.6,0.8,1s0.2,0.9,0,1.4c-0.7,1.8-1.4,3.5-2.1,5.4c-0.5,1.4-0.9,2.9-0.9,4.3c-0.6-0.9-1.2-1.7-2-2.3
		c-1-0.6-2.3-0.3-3.3-1c-0.8-0.4-0.7-1.6-1.5-2c-1.7-0.8-3.7-0.4-5.5-0.6c-1.2-0.2-2.4-0.8-3.3-1.7c1.8-1.3,2.8-3.6,2.9-5.8
		c0-1.8-0.8-3.5-1.9-4.9C513.2,50.7,514.3,51.1,515.3,51.2z M511.2,50c1.3,1.4,2.4,3.3,2.3,5.3c0,1.9-0.9,3.7-2.3,4.9
		C511.2,56.8,511.2,53.4,511.2,50z M510.7,47.6c0.2,0.2,0.6,0.5,0.3,0.9c-0.2,0.3-0.4,0-0.5-0.2C510.5,48.1,510.6,47.9,510.7,47.6z"
		/>
	<path class="st1" d="M509,58c0.2-0.2,0.4-0.4,0.4-0.6c0.1-0.4-0.2-0.6-0.4-0.9c0.2-0.3,0.3-0.6,0.3-1s-0.4-0.8-0.6-1.1
		c0-0.3-0.1-0.5-0.4-0.7c-0.2,0.2-0.4,0.4-0.4,0.7c-0.3,0.3-0.6,0.7-0.6,1.1c0,0.4,0.2,0.7,0.3,1c-0.2,0.2-0.4,0.4-0.4,0.7
		s0.3,0.6,0.4,0.8c-0.5,0.6-0.9,1.3-1,2.1c0,0.7,0.4,1.3,0.7,1.9c0.1-0.1,0.2-0.1,0.4-0.2c0.1-0.1,0.3-0.1,0.4-0.2l0.2-0.1l0,0l0,0
		c0,0,0.6,0.3,0.9,0.5c0.4-0.6,0.7-1.2,0.7-1.8C509.9,59.3,509.5,58.6,509,58z"/>
	<path class="st1" d="M576.8,51.7c0.9-0.6,1.9-1.1,2.8-1.7c0.5,0,0.9,0.1,1.4,0.1c-0.9,0.6-1.8,1.2-2.8,1.6
		C577.8,51.9,577.3,51.8,576.8,51.7z"/>
	<path class="st1" d="M434.7,53.1c0.1-0.2,0.1-0.5,0.3-0.7c0,0.3,0,0.6,0,0.9c-0.1,0-0.3,0.1-0.4,0.2c-0.1-0.1-0.2-0.2-0.3-0.2
		C434.5,53.3,434.6,53.2,434.7,53.1z"/>
	<path class="st1" d="M434.4,53.2c-0.2-0.1-0.1-0.7,0.2-0.5C434.7,52.9,434.6,53.1,434.4,53.2z"/>
	<path class="st1" d="M435.3,52.8c1.1,0.1,2.2,0.3,3.2,0.7c0.5,0.2,0.7,0.6,1,1c-0.9-0.2-1.8-0.4-2.7-0.5
		C436,53.9,435.6,53.2,435.3,52.8z"/>
	<path class="st1" d="M576.8,55.2c0-0.6,0.6-1,1.1-0.9c0.6,0,1.3,0.1,1.7,0.5c-0.5,0.1-1.2-0.3-1.5,0.3c-0.2,0.9,0.3,1.8,1,2.4
		c0.4-0.3,0.6-0.7,0.9-1.2c0.4,0.1,0.8,0.2,1.3,0.3c-0.2,0.4-0.5,0.8-0.6,1.2c0.1,0.8,0.4,1.7,0.6,2.5c0.3-0.2,0.5-0.5,0.7-0.7
		c0.3,0.1,0.6,0.2,1,0.4c-0.4,0.6-1,1.2-1.7,1.2c-0.4,0-1.2,0.2-1.3-0.3c-0.2-0.9-0.5-1.9-0.7-2.8c-0.4,0-0.9,0.1-1.3-0.2
		C577.2,57,576.8,56.1,576.8,55.2z"/>
	<path class="st1" d="M581.1,54.3c0.3,0.2,0.6,0.3,0.9,0.5c-0.1,0.3-0.2,0.7-0.3,1c-0.3-0.2-0.5-0.3-0.8-0.5
		C580.9,54.9,581,54.6,581.1,54.3z"/>
	<path class="st1" d="M436.5,55.4c0.8-0.2,1.7,0.2,2.4,0.6c0.5,0.4,0.9,1,0.7,1.7c-0.2,0.6-0.5,1.2-0.9,1.7c0.3-1.1,0.3-2.5-0.7-3.4
		c0.4,0.5,0.3,1.4-0.3,1.6c-0.9,0-1.6-0.8-1.8-1.6C435.9,55.6,436.3,55.5,436.5,55.4 M437,56.9c0.3-0.2,0.4-0.6,0.3-0.9
		C436.9,56.2,436.7,56.6,437,56.9z"/>
	<path class="st1" d="M433.4,58.3c0.5,0.1,0.8-0.3,1.1-0.5c0.2,0.3,0.4,0.5,0.5,0.8c0.3,0.2,0.5,0.4,0.8,0.6
		c0.6-0.1,1.3,0.1,1.9,0.3c-0.2,0.9-0.5,1.8-0.7,2.7c-0.4-0.2-0.8-0.4-1.2-0.7c0.1-0.6,0-1.2-0.2-1.7c-0.3,0.2-0.6,0.5-0.9,0.8
		c0,0,0.1,0.1,0.1,0.2c-0.3,0.4-0.6,0.9-0.9,1.2c-0.5,0.1-0.9-0.2-1.3-0.4c0.7-1,1.5-1.9,2.6-2.4c-0.4-0.2-0.9-0.3-1.3-0.2
		C433.7,58.9,433.6,58.6,433.4,58.3 M436.1,60.1c0.2,0,0.2-0.4,0-0.4C435.9,59.6,435.9,60.1,436.1,60.1z"/>
	<path class="st1" d="M578.5,59.6c0.3,0.2,0.6,0.4,0.8,0.5c-0.1,0.3-0.2,0.7-0.3,1c-0.3-0.2-0.5-0.4-0.8-0.6
		C578.3,60.3,578.4,59.9,578.5,59.6z"/>
	<path class="st1" d="M433.1,64.3c0.3-0.7,1.1-1.2,1.9-1.1c0.6,0.1,1.2,0.3,1.7,0.6c-0.2,0.8-0.2,1.6-0.5,2.3
		c-0.4,0.2-0.9-0.1-1.4-0.1c0.2-0.7,0.3-1.4,0.4-2.1c-0.6,0.1-1.2,0.6-1.3,1.3C433.6,64.9,433,64.7,433.1,64.3z"/>
	<path class="st1" d="M580,63.6c0.6-0.3,1.3-0.1,1.9,0.2c0.3,0.2,0.7,0.4,0.8,0.8c-0.5-0.2-1-0.6-1.6-0.5c-0.3,0.1-0.4,0.4-0.4,0.7
		c-0.1,0.8,0.2,1.5,0.6,2.2c0.2-0.4,0.2-1,0.1-1.4c0.4,0.1,0.8,0.2,1.1,0.5c0.2,0.9,0.4,1.9,0.4,2.8c0.7-0.1,1.4-0.3,2.2-0.5
		c0.3,0.2,0.6,0.4,1,0.6c-0.8,0.2-1.6,0.4-2.3,0.6c-0.2,0.1-0.4,0.1-0.6,0.2c0,0.5,0.1,1,0.1,1.5c0.7-0.1,1.2,0.6,1.5,1.1
		c0.5,0.7,0,1.8-0.7,2.1c0.3-0.8,0.3-1.6-0.1-2.4c-0.9,0.8-0.4,2-0.4,2.9c-0.5-0.2-0.9-0.3-1.4-0.5c-0.2-1.5-0.3-3-0.5-4.4
		c-0.1-0.4,0.2-0.7,0.6-0.9c-0.3-0.1-0.5-0.2-0.8-0.3c0-0.4-0.1-0.8-0.1-1.1c-1-0.1-1.6-1.2-1.8-2.1C579.5,64.8,579.4,64,580,63.6z"
		/>
	<path class="st1" d="M578.9,64.3c0.2,0.2,0.4,0.4,0.6,0.6c-0.1,0.2-0.1,0.5-0.2,0.7c0.1,0.1,0.2,0.3,0.4,0.4
		c-0.1,0.3-0.1,0.6-0.2,0.9c-0.2-0.2-0.3-0.4-0.5-0.5c0-0.3,0-0.5,0.1-0.8C578.7,65.3,578.8,64.8,578.9,64.3z"/>
	<path class="st1" d="M462.7,66.1c0.8-0.5,1.9-0.4,2.6,0.3c0.4,0.4,0.7,1,0.7,1.6c0,1.3,0,2.6,0,3.9c-1.4-0.2-2.9-0.2-4.3,0
		c0-1.5,0-3,0-4.5C461.8,66.9,462.2,66.4,462.7,66.1z"/>
	<path class="st1" d="M551,67.5c0.2-1,1.2-1.9,2.2-1.8c1,0,1.9,1,2.1,1.9c0,1.4,0,2.8,0,4.3c-1.4-0.2-2.9-0.2-4.3,0
		C551,70.5,551,69,551,67.5z"/>
	<path class="st1" d="M455.7,68.6c0.1-1,0.8-2.2,1.9-2.2c1-0.1,1.9,0.9,1.9,1.9c0,1.4,0.1,2.7,0.1,4.1c-1.3,0.2-2.6,0.3-3.9,0.5
		C455.7,71.4,455.7,70,455.7,68.6z"/>
	<path class="st1" d="M468.9,66.8c0.6-0.6,1.8-0.6,2.4,0.1c0.5,0.5,0.8,1.2,0.8,1.9c0,1.4,0,2.7,0,4.1c-1.3-0.2-2.6-0.3-3.9-0.5
		c0-1.4,0.1-2.7,0.1-4.1C468.3,67.7,468.5,67.2,468.9,66.8z"/>
	<path class="st1" d="M545.1,68.6c0.1-1.1,0.8-2.3,2-2.2c1,0,1.8,1,1.8,1.9c0,1.4,0.1,2.7,0.1,4.1c-1.3,0.2-2.6,0.3-3.9,0.5
		C545.1,71.4,545.1,70,545.1,68.6z"/>
	<path class="st1" d="M557.6,68.3c0-1,0.9-2,1.9-1.9c1.1,0,1.9,1.2,1.9,2.2c0,1.4,0,2.8,0,4.3c-1.3-0.2-2.6-0.3-3.9-0.5
		C557.5,71,557.6,69.6,557.6,68.3z"/>
	<path class="st1" d="M431.3,68.5c1.1-0.1,2.1-0.1,3.2,0c0.5,0.1,0.9,0.4,1.2,0.8c-1.1,0-2.2,0.1-3.3,0
		C432,69.1,431.7,68.8,431.3,68.5z"/>
	<path class="st1" d="M432.1,70.3c0.4,0.2,0.7,0.6,1.1,0.5c0.7-0.1,1.5,0,2.1,0.4c0,1-0.1,2-0.2,2.9c-0.1,0.6-0.8,0.6-1.2,0.5
		c0.3,0.3,0.7,0.6,1,0.9c0.2,0.4,0,0.8,0,1.3c-0.1,0.5,0.1,1.1-0.2,1.6c0.4,0.4,0.2,1,0.1,1.5c0.2,0.6,0.2,1.3,0,1.9
		c0.2,0.5,0.2,1.2,0.1,1.7c-0.3,0.4-0.9,0.5-1.4,0.7c0.4,0.2,0.7,0.5,0.8,0.9c0.6,0,1.3,0.1,1.7,0.6c0.5,0.6,0.7,1.5,0.5,2.3
		c-0.1,0.6-0.8,0.8-1.4,0.8c-0.6-0.1-1.3-0.2-1.7-0.7c0.5,0.1,1,0.4,1.5,0.2c0.3-0.2,0.4-0.6,0.4-0.9c0-0.6-0.1-1.2-0.5-1.7
		c-0.5,0.2-0.9,0.5-1.3,0.7c-0.4-0.2-0.7-0.4-1-0.5c0.3-0.2,0.7-0.4,0.6-0.8c0-0.6-0.7-0.8-1.1-1c0.5-0.2,1.1-0.3,1.6-0.6
		c0.2-0.5,0.1-1.1,0-1.7c-0.2-0.3-0.6-0.6-0.7-1c0.2,0.1,0.5,0.3,0.7,0.4c0-0.4,0.1-0.9,0-1.2c-0.3-0.2-0.6-0.4-0.8-0.7
		c0.3,0,0.5,0.1,0.8,0.2c0.1-0.3,0.1-0.5,0-0.8c-0.5,0-0.8-0.4-0.9-0.8c0.2,0,0.5,0.1,0.8,0.1c0.3-0.1,0.2-0.5,0.2-0.7
		c0.1,0,0.4,0,0.6,0c-0.2,0-0.4,0-0.6,0c0-0.8,0.3-1.7-0.1-2.4c-0.4,0.5-0.3,1.2-0.2,1.8c-0.4-0.1-1-0.2-1.2-0.7s0.1-1,0.3-1.5
		c0.3-0.6,0.4-1.3,0.4-1.9c0.3,0.2,0.6,0.3,0.8,0.5c0,0.4-0.1,0.8,0.2,1.2c0.2-0.9,0.2-1.8,0.2-2.7c-0.5,0.1-0.9,0.1-1.4,0.2
		c-0.3,0-0.5,0.3-0.8,0.3c-0.3-0.2-0.6-0.4-0.9-0.7C431.6,71.2,431.8,70.7,432.1,70.3z"/>
	<path class="st1" d="M581.4,77.3c0.4-0.4,0.9-0.3,1.4-0.1c0.6,0.3,1.1,0.8,1.4,1.4c-0.5-0.3-0.9-0.7-1.4-0.8
		c-0.4-0.1-0.6,0.3-0.7,0.6c-0.2,0.8-0.2,1.6,0.1,2.4c0.4-0.4,0.4-0.9,0.4-1.4c0.4,0.2,0.8,0.4,1,0.8c0,1,0,1.9-0.1,2.9
		c0.7,0,1.4-0.1,2.2,0c0.3,0.2,0.6,0.5,0.9,0.7c-0.9,0-1.9,0.1-2.8,0.1c-0.3,0-0.3,0.3-0.3,0.5c0,0.4,0,0.7-0.1,1.1
		c0.7,0,1,0.8,1.2,1.3c0.4,0.8-0.2,1.8-1.1,1.9c0.5-0.7,0.7-1.6,0.4-2.3c-0.3,0.3-0.7,0.7-0.7,1.1c-0.1,0.6-0.1,1.1-0.2,1.7
		c-0.4-0.3-0.9-0.5-1.3-0.8c0.1-1.5,0.3-3,0.4-4.5c0-0.4,0.4-0.6,0.8-0.7c-0.2-0.1-0.5-0.3-0.7-0.4c0-0.4,0-0.8,0.1-1.2
		c-0.9-0.3-1.3-1.3-1.3-2.2C580.9,78.5,580.9,77.8,581.4,77.3z"/>
	<path class="st1" d="M436.1,82.8c0.2,0.2,0.4,0.4,0.6,0.6c-0.1,0.2-0.2,0.5-0.3,0.8c0.1,0.1,0.3,0.3,0.4,0.4
		c-0.1,0.3-0.2,0.6-0.3,0.9c-0.2-0.2-0.5-0.4-0.7-0.6c0.1-0.3,0.2-0.5,0.3-0.8c-0.2-0.2-0.3-0.3-0.5-0.4
		C435.9,83.4,436,83.1,436.1,82.8z"/>
	<path class="st1" d="M431.9,86.8c0.2,0.2,0.4,0.4,0.7,0.7c-0.1,0.3-0.2,0.7-0.4,1c-0.2-0.2-0.5-0.5-0.7-0.7
		C431.6,87.4,431.7,87.1,431.9,86.8z"/>
	<path class="st1" d="M580.1,90.2c0.1-0.6,0.3-1.3,0.6-1.8c-0.2,1.2,0.1,2.5,1.1,3.2c-0.3-0.4-0.4-1,0-1.4c0.2-0.3,0.6-0.2,0.9-0.1
		c0.6,0.2,1.1,0.7,1.3,1.3c0,0.4-0.4,0.6-0.7,0.7c-0.8,0.2-1.8,0-2.5-0.5C580.3,91.3,579.9,90.8,580.1,90.2 M582.7,90.6
		c-0.2,0.2-0.2,0.5-0.2,0.8C583,91.4,583.1,90.8,582.7,90.6z"/>
	<path class="st1" d="M433.7,92c0.6-0.7,1.7-0.8,2.5-0.6c0.6,0.1,1.3,0.5,1.4,1.1s0.2,1.3,0,1.9c-0.2-1.2-1-2.3-2.2-2.7
		c0.5,0.3,0.9,1,0.5,1.5c-0.7,0.5-1.8,0.1-2.3-0.5C433.3,92.5,433.5,92.2,433.7,92 M434.9,93c0-0.3,0-0.6-0.2-0.8
		C434.4,92.4,434.4,93,434.9,93z"/>
	<path class="st1" d="M579.4,94.6c0.3-0.5,1.1-0.5,1.6-0.3c0.6,0.3,1.1,0.6,1.4,1.2c-0.5-0.3-0.9-0.8-1.5-0.6
		c-0.5,0.3-0.6,0.9-0.7,1.4c0,0.3-0.1,0.8,0.2,1c0.5,0,0.9-0.1,1.4-0.2c0.3,0.3,0.5,0.6,0.8,0.8c-0.3,0.1-0.8,0.1-0.8,0.5
		c-0.3,0.6,0.4,1,0.7,1.3c-0.6,0-1.2-0.1-1.8,0.1c-0.2,0.4-0.3,0.8-0.4,1.2c-0.2,0.6,0.4,1,0.3,1.5c-0.2-0.2-0.4-0.4-0.6-0.6
		c-0.2,0.4-0.3,0.7-0.4,1.1c0.1,0.4,0.5,0.6,0.5,1c-0.2-0.1-0.4-0.3-0.7-0.4c-0.2,0.2-0.2,0.5-0.3,0.7c0.4,0.2,0.6,0.6,0.6,1
		c-0.3-0.1-0.5-0.3-0.8-0.3c-0.2,0.1-0.3,0.4-0.4,0.6c-0.2,0.8-0.8,1.5-0.6,2.4c0.4-0.4,0.7-1,0.8-1.7c0.4,0.2,0.9,0.6,0.9,1.1
		c0,0.6-0.6,1-0.9,1.4c-0.4,0.4-0.7,1-0.9,1.5c-0.2-0.2-0.4-0.5-0.6-0.7c0.2-0.4,0.3-0.8,0.3-1.2c-0.6,0.8-0.8,1.7-1.2,2.5
		c0.7,0.1,1.4,0.5,2.1,0.3c0.4,0.2,0.5,0.6,0.7,0.9c-0.6-0.1-1,0.3-1.4,0.6c-0.3-0.4-0.5-0.8-1-0.9c-0.7-0.1-1.3-0.5-1.7-1
		c-0.1-0.2,0.1-0.4,0.2-0.6c0.4-0.7,0.6-1.5,1-2.2c0.3-0.4,0.9-0.1,1.3,0c-0.3-0.6-1-1.2-0.5-1.9c0.4-0.6,0.4-1.6,1-2
		c-0.3-0.5,0.2-1,0.4-1.4c0-0.6,0.2-1.3,0.6-1.8c0-0.6,0.2-1.2,0.4-1.7c0.5-0.3,1-0.2,1.6-0.3c-0.3-0.3-0.5-0.7-0.5-1.1
		c-0.6-0.2-1.2-0.5-1.4-1.1C578.9,96.1,579,95.3,579.4,94.6z"/>
	<path class="st1" d="M435.2,94.4c0.5,0.2,1.1,0.1,1.5,0.4c0.4,1.4,0.7,2.9,1.1,4.3c0.1,0.4-0.2,0.7-0.5,1c0.3,0,0.6,0.1,0.8,0.2
		c0.1,0.4,0.2,0.8,0.3,1.2c1,0,1.7,0.8,2,1.7c0.2,0.6,0.5,1.4,0.2,2c-0.2,0.5-0.9,0.6-1.4,0.5c-0.6-0.1-1.2-0.3-1.6-0.8
		c0.6,0.1,1.2,0.4,1.8,0.2c0.3-0.3,0.2-0.8,0.2-1.2c-0.2-0.6-0.4-1.3-0.9-1.7c-0.1,0.5,0,1,0.2,1.4c-0.4,0-0.8-0.1-1.2-0.4
		c-0.3-0.9-0.6-1.9-0.9-2.8c-0.7,0.3-1.4,0.6-2.1,0.8c-0.3-0.1-0.7-0.3-1-0.4c0.7-0.3,1.5-0.6,2.2-0.9c0.2-0.1,0.4-0.1,0.6-0.3
		c0-0.5-0.3-1-0.4-1.5c-0.7,0.2-1.3-0.4-1.7-0.9c-0.6-0.6-0.3-1.8,0.4-2.1c-0.2,0.8-0.1,1.7,0.4,2.3C436,96.5,435.4,95.4,435.2,94.4
		z"/>
	<path class="st1" d="M583,96.6c0.2-0.3,0.4-0.5,0.7-0.7c0.2,0.3,0.3,0.6,0.5,0.9c-0.3,0.2-0.5,0.5-0.8,0.7
		C583.3,97.2,583.2,96.9,583,96.6z"/>
	<path class="st1" d="M578,97.9c0.2-0.2,0.4-0.5,0.7-0.7c0.1,0.2,0.3,0.5,0.4,0.7c-0.2,0.2-0.4,0.4-0.6,0.6c0.1,0.2,0.2,0.4,0.3,0.6
		c-0.2,0.2-0.5,0.4-0.7,0.7c-0.1-0.3-0.3-0.5-0.4-0.8c0.2-0.2,0.4-0.4,0.6-0.6C578.2,98.3,578.1,98.1,578,97.9z"/>
	<path class="st1" d="M439.7,108.3c0.5-0.2,1-0.1,1.4,0c-0.8,0.5-1.6,1-2.4,1.5c-0.5,0.4-1.2,0.1-1.8,0.1
		C437.8,109.4,438.7,108.8,439.7,108.3z"/>
	<path class="st1" d="M436.5,109.9c0.3,0.2,0.6,0.4,0.8,0.7c-0.2,0-0.3,0.1-0.4,0.4c-0.3,0-1-0.3-0.5-0.6c0.1,0.1,0.3,0.4,0.4,0.5
		C436.8,110.5,436.6,110.2,436.5,109.9z"/>
	<path class="st1" d="M439.5,111c0.1-0.3,0.3-0.8,0.7-0.7c0.6,0.1,1.4,0,2,0.4c0.4,0.6,0.7,1.4,1.1,2c0.2,0.4,0.6,0.9,0.4,1.4
		c0.2,0.1,0.4,0.2,0.5,0.4c0.4,0.6,0.8,1.2,1.1,1.8c0.2,0.5-0.4,0.8-0.7,1.1c0.6,0.1,1.3-0.1,1.7,0.5c0.5,0.8,1.1,1.7,1.7,2.5
		c-0.9,0.7-1.8,1.5-2.7,2.2c-0.4,0-0.8-0.1-1.2-0.1c0.8-0.6,1.6-1.2,2.4-1.9c-0.4-0.6-0.8-1.1-1.2-1.8c-0.2-0.4-0.6-0.8-1-0.9
		c0.1,0.6,0.5,1.2,0.9,1.7c-0.4,0.1-0.9,0.3-1.3,0.1c-0.5-0.3-0.6-0.8-0.6-1.3c-0.1-0.7-0.4-1.3-0.8-1.9c0.3,0,0.6-0.1,0.9-0.1
		c0.2,0.4,0.5,0.7,0.8,1c-0.3-0.9-1-1.7-1.5-2.6c-0.1,0-0.4,0.1-0.5,0.2c-0.2-0.1-0.5-0.2-0.8-0.3c0.3-0.2,1.1-0.2,0.9-0.7
		c-0.7-0.6-1.6-1-2.3-1.6C439.6,111.9,439.3,111.4,439.5,111 M440.7,111.2c-0.3,0.8,0.6,1.4,1.1,1.9c-0.3-0.6-0.6-1.2-0.9-1.8
		C440.8,111.2,440.7,111.2,440.7,111.2z"/>
	<path class="st1" d="M573.9,112.6c1,0.3,2,0.7,3,1c0.4,0.3,0.6,0.8,0.8,1.2c-1-0.3-2-0.6-3-1.1
		C574.4,113.6,574.1,113.1,573.9,112.6z"/>
	<path class="st1" d="M571.5,114.9c0.3-0.2,0.8-0.2,1.1,0c0.7,0.5,1,1.4,1,2.3c-0.4-0.4-0.4-1.2-1.1-1.4c-0.4,0-0.8,0.4-1,0.7
		c-0.4,0.5-0.6,1.1-0.8,1.7c0.5-0.2,0.8-0.6,1.1-1c0.2,0.4,0.5,0.8,0.5,1.2c-0.5,0.8-1,1.6-1.6,2.4c0.6,0.4,1.3,0.7,1.9,1.1
		c0.1,0.4,0.2,0.7,0.3,1.1c-0.9-0.4-1.7-1-2.6-1.4c-0.5,0.2-0.7,0.8-1.1,1.2c0.5,0.3,0.5,0.9,0.4,1.3c0,0.5-0.2,1.1-0.6,1.4
		c-0.4,0.3-1,0.4-1.4,0.2c0.8-0.3,1.4-1,1.5-1.8c-1.2,0-1.6,1.2-2.2,1.9c-0.2-0.4-0.5-0.9-0.7-1.4c0.9-1.2,1.8-2.4,2.7-3.7
		c0.2-0.4,0.7-0.3,1-0.2c-0.1-0.2-0.3-0.5-0.4-0.7c0.2-0.3,0.5-0.7,0.7-1c-0.6-0.7-0.4-1.7-0.1-2.5
		C570.6,115.8,571,115.2,571.5,114.9z"/>
	<path class="st1" d="M448.2,122c0.2-0.1,0.6-0.3,0.7,0c0.7,0.8,1.3,1.7,2,2.6c0.3,0.4,0.6,0.9,0.3,1.3c-0.4,0.7-1.3,1-2.1,1
		c0.2-0.4,0.7-0.3,0.9-0.7c0.2-0.4-0.2-0.7-0.3-1c-0.6-0.8-1.2-1.5-1.8-2.3c-0.2,0.3-0.3,0.6-0.4,1c-0.4,0-0.7,0-1,0
		c0.1-0.4,0.2-0.8,0.4-1.2C447.2,122.3,447.8,122.2,448.2,122z"/>
	<path class="st1" d="M450.3,122.4c0.3,0.1,0.6,0.1,0.9,0.2c0.1,0.3,0.1,0.7,0.1,1c-0.3-0.1-0.7-0.1-1-0.2
		C450.4,123.1,450.4,122.7,450.3,122.4z"/>
	<path class="st1" d="M563,125.7c0.6,0.3,1.1,0.7,1.6,1.1c0.4,0.3,0.7,0.8,0.5,1.2c-0.1,0.2-0.2,0.5-0.3,0.7
		c0.4-0.1,0.6-0.5,0.7-0.9c0.3,0.4,0.7,1.1,0.2,1.6c-0.6,0.4-1.4,0.2-2.1,0.4c-0.2-0.3-0.4-0.7-0.6-1c0.5-0.4,1.1-0.9,1.1-1.6
		C563.6,126.9,562.9,126.4,563,125.7z"/>
	<path class="st1" d="M452.2,128.1c0.4-0.4,0.9-0.4,1.4-0.4c-0.6,0.7-1.2,1.5-1.8,2.2c-0.4,0.6-1.1,0.5-1.7,0.6
		C450.7,129.6,451.4,128.8,452.2,128.1z"/>
	<path class="st1" d="M560.2,130.8c0.5-0.8,1.1-1.5,1.8-2.1c-0.3,1-0.9,1.9-0.9,3c0.5,0.3,1.1,0.4,1.7,0.3l-0.1-0.3
		c0.4-0.1,0.8-0.2,1.2-0.3c0.5,0,0.8,0.6,1,1c-1.2,0.5-2.9,0.8-3.8-0.4c0.1,0.5,0.2,1.1,0.5,1.5c0.2,0.3,0.4,0.5,0.6,0.8
		c0,0.3,0,0.6,0,1c-0.8-0.7-1.5-1.4-2.4-1.9c-0.4,0.3-0.8,0.6-1.2,1c-0.1,0.4-0.1,0.8-0.3,1.2c-0.1-0.3-0.1-0.5-0.2-0.8
		c-0.3,0.2-0.7,0.4-0.9,0.8c0,0.4,0.1,0.7-0.1,1.1c-0.1-0.2-0.2-0.5-0.4-0.7c-0.2,0.1-0.3,0.2-0.5,0.3c-0.2,0.2,0,0.5,0.1,0.7
		c-0.1,0.2-0.2,0.5-0.2,0.7c-0.2-0.2-0.3-0.7-0.6-0.7c-0.6,0.3-1,0.7-1.5,1.1c0.6,0.4,1,1.1,1.7,1.3c0.2,0.4,0.1,0.8,0.1,1.1
		c-0.4-0.4-1-0.2-1.5-0.2c-0.1-0.4,0-0.9-0.4-1.2c-0.5-0.5-1-1.2-1-1.9c0.3-0.4,0.7-0.6,1.1-0.9c0.4-0.2,0.7-0.6,1.2-0.6
		c0-0.6,0.6-0.8,1.1-1c0.3-0.6,0.8-1,1.4-1.2c0.3-0.5,0.8-1,1.3-1.3c0.6-0.1,1,0.5,1.5,0.8C560.3,132.4,559.8,131.6,560.2,130.8z"/>
	<path class="st1" d="M452.8,130.8c0.5-0.7,1.1-1.5,2-1.6c0.6,0.5,1.2,1.1,1.8,1.7c0.2,0.2,0.4,0.4,0.5,0.7c0,0.4-0.3,0.7-0.6,1
		c0.5,0,1-0.2,1.4-0.2c0.5,0.2,0.8,0.7,1.1,1c0.3,0.3,0.8,0.5,0.8,1c0.5,0,0.8,0.3,1,0.7c0.1,0.3,0.5,0.4,0.7,0.5
		c0.4,0.2,0.7,0.6,0.9,0.9c0.5,0.2,1,0.5,1.4,0.9c0.2,0.5-0.2,1.1-0.3,1.6c0.4-0.2,0.8-0.2,1.2-0.1c0.4-0.5,0.9-1,1.6-0.9
		c0.8,0.1,1.5,0.5,2,1.1c0.3,0.5,0.1,1.1-0.3,1.5c-0.4,0.5-1,0.9-1.7,0.9c0.4-0.4,1.1-0.6,1.1-1.2c-0.2-0.7-0.9-1.1-1.5-1.3
		c-0.2-0.1-0.5-0.2-0.6,0.1c-0.1,0.4-0.2,0.9-0.3,1.3c-0.4,0.2-0.7,0.3-1.1,0.5c0-0.3,0.2-0.8-0.2-1c-0.4-0.4-1,0-1.4,0.2
		c0.1-0.6,0.6-1.1,0.5-1.7c-0.4-0.4-0.8-0.6-1.2-0.9c-0.4-0.1-0.8,0.1-1.2-0.2c0.2-0.1,0.5-0.2,0.7-0.3c-0.3-0.3-0.6-0.7-1-0.8
		c-0.3,0.1-0.6,0.2-1,0.2c0.1-0.2,0.3-0.4,0.6-0.5c-0.2-0.2-0.4-0.7-0.8-0.4c-0.3,0.2-0.7,0.1-1,0.1c0.2-0.2,0.4-0.4,0.5-0.6
		c0-0.3-0.3-0.5-0.5-0.7c-0.6-0.5-1.1-1.3-2-1.4c0.3,0.6,0.7,1,1.3,1.3c-0.4,0.3-0.8,0.6-1.2,0.5c-0.5-0.1-0.8-0.6-0.9-1.1
		c-0.3-0.7-0.7-1.2-1.3-1.7c0.3-0.1,0.6-0.2,0.9-0.3c0.3,0.3,0.6,0.6,1,0.7c-0.6-0.7-1.3-1.3-1.9-2c-0.4,0.6-1,1.2-1,1.9
		c-0.3,0.2-0.7,0.2-1.1,0.3c0.3-0.5,0.1-1-0.1-1.5C452.2,130.9,452.5,130.8,452.8,130.8 M458.5,134C458.2,134.5,459,134,458.5,134z"
		/>
	<path class="st1" d="M464.1,136c0.3,0,0.6-0.1,0.8-0.1c0.2,0.2,0.3,0.5,0.4,0.8c0.2,0,0.4,0,0.6-0.1c0.2,0.3,0.3,0.6,0.4,0.9
		c-0.3,0-0.6,0.1-0.9,0.1c-0.1-0.3-0.2-0.5-0.3-0.8c-0.2,0-0.4,0-0.6,0.1C464.4,136.6,464.2,136.3,464.1,136z"/>
	<path class="st1" d="M551.5,138.3c0.8,0.8,1.5,1.5,2.2,2.3c0.2,0.4,0.1,1,0.2,1.4c-0.8-0.7-1.6-1.5-2.2-2.4
		C551.4,139.3,551.4,138.8,551.5,138.3z"/>
	<path class="st1" d="M464.4,141.8c0.3,0,0.6-0.1,1-0.1c0.2,0.3,0.3,0.6,0.4,0.9c-0.3,0-0.7,0.1-1,0.1
		C464.7,142.5,464.5,142.2,464.4,141.8z"/>
</g>
<g id="_x23_f5ff12ff">
	<path class="st2" d="M463.9,39.1c-0.5-0.5-0.4-1.2,0-1.7c0.1,0.2,0.3,0.5,0.4,0.7C464.4,38.5,464.1,38.8,463.9,39.1z"/>
	<path class="st2" d="M553.3,37.5c0.1,0.2,0.3,0.5,0.4,0.8c0,0.3-0.2,0.6-0.3,0.9C552.8,38.7,553,37.9,553.3,37.5z"/>
	<path class="st3" d="M459.8,42.9c1.2-1.3,2.7-2.3,4.2-3.2c1.5,0.8,2.9,1.7,4,2.9c0.6,0.7,1.2,1.5,1.2,2.5c0,0.9-0.5,1.7-1,2.4
		c-2.8-0.3-5.6-0.3-8.3,0.1c-0.6-0.7-1.1-1.5-1.1-2.4C458.7,44.3,459.2,43.5,459.8,42.9z"/>
	<path class="st3" d="M550.2,41.9c1-0.8,2-1.6,3.1-2.2c1.8,1,3.7,2.2,4.8,4c0.7,1.2,0.3,2.8-0.7,3.7c-2.7-0.3-5.5-0.3-8.3,0.1
		c-0.8-0.8-1.4-2-1-3.2C548.6,43.4,549.4,42.6,550.2,41.9z"/>
	<path class="st3" d="M460,48c2.6-0.3,5.3-0.3,7.9,0c0,3.5,0,7,0,10.4c-2.6-0.2-5.3-0.2-7.9,0.1C460,55,460,51.5,460,48z"/>
	<path class="st3" d="M549.4,48c2.6-0.3,5.3-0.3,7.9,0c0,3.5,0,7,0,10.4c-2.6-0.2-5.3-0.2-7.9,0.1C549.4,55,549.4,51.5,549.4,48z"/>
	<path class="st3" d="M460.1,59c2.1-0.2,4.3-0.3,6.5-0.2c2.1,0,4.2,0.5,6.3,0.9c1.9,0.4,3.8,0.9,5.7,1.5c-1.2,1.1-2.4,2.1-3.5,3.2
		c-3.6-0.7-7.2-1.1-10.8-1.1c-3.9,0-7.7,0.4-11.6,1.1c-1.1-1.1-2.3-2.2-3.5-3.2C452.7,59.9,456.4,59.4,460.1,59z"/>
	<path class="st3" d="M547.5,59.2c2.9-0.3,5.9-0.6,8.8-0.3c1.8,0.1,3.6,0.4,5.4,0.8c2.1,0.4,4.1,1,6.2,1.6c-1.2,1.1-2.4,2.2-3.5,3.3
		c-2.4-0.5-4.8-0.8-7.3-1c-5-0.4-10.1,0.1-15,0.9c-1.1-1.1-2.3-2.2-3.5-3.2C541.4,60.2,544.5,59.6,547.5,59.2z"/>
	<path class="st3" d="M452.9,64.9c3.6-0.6,7.2-0.9,10.8-1c3.8,0,7.5,0.4,11.2,1c0.1,3.3,0.1,6.5,0.1,9.8c-3.6-0.6-7.3-1-11-1.1
		c-3.7,0-7.4,0.4-11.1,1.2C452.8,71.5,452.9,68.2,452.9,64.9 M462.7,66.1c-0.5,0.3-0.9,0.8-1,1.4c0,1.5,0,3,0,4.5
		c1.4-0.2,2.9-0.2,4.3,0c0-1.3,0-2.6,0-3.9c0-0.6-0.3-1.2-0.7-1.6C464.6,65.6,463.4,65.5,462.7,66.1 M455.7,68.6c0,1.4,0,2.8,0,4.3
		c1.3-0.2,2.6-0.3,3.9-0.5c0-1.4-0.1-2.7-0.1-4.1c0-1-0.9-2-1.9-1.9C456.5,66.4,455.7,67.5,455.7,68.6 M468.9,66.8
		c-0.4,0.4-0.7,0.9-0.7,1.5c0,1.4-0.1,2.7-0.1,4.1c1.3,0.2,2.6,0.3,3.9,0.5c0-1.4,0-2.7,0-4.1c0-0.7-0.3-1.4-0.8-1.9
		C470.7,66.2,469.6,66.2,468.9,66.8z"/>
	<path class="st3" d="M542.2,64.9c5.4-0.9,10.9-1.3,16.4-0.7c1.9,0.2,3.7,0.4,5.6,0.8c0,3.3,0.1,6.5,0.1,9.8
		c-4.8-0.8-9.8-1.3-14.7-0.9c-2.5,0.2-5,0.5-7.5,1C542.2,71.5,542.2,68.2,542.2,64.9 M551,67.5c0,1.5,0,2.9,0,4.4
		c1.4-0.2,2.9-0.2,4.3,0c0-1.4,0-2.8,0-4.3c-0.2-1-1-1.9-2.1-1.9C552.2,65.7,551.2,66.5,551,67.5 M545.1,68.6c0,1.4,0,2.9,0,4.3
		c1.3-0.2,2.6-0.3,3.9-0.5c0-1.4-0.1-2.7-0.1-4.1c0-1-0.8-2-1.8-1.9C545.9,66.3,545.1,67.5,545.1,68.6 M557.6,68.3
		c0,1.4-0.1,2.7-0.1,4.1c1.3,0.2,2.6,0.3,3.9,0.5c0-1.4,0-2.8,0-4.3c0-1-0.8-2.2-1.9-2.2C558.5,66.2,557.7,67.3,557.6,68.3z"/>
	<path class="st3" d="M453.2,75.3c3.3-0.6,6.5-1,9.8-1.1c3.9-0.1,7.8,0.3,11.6,1c-1,0.9-2.1,1.8-3.1,2.7c-5.2,0-10.3,0-15.4-0.1
		C455.1,77,454.1,76.1,453.2,75.3z"/>
	<path class="st3" d="M542.6,75.3c5.2-0.9,10.5-1.4,15.8-0.8c1.9,0.2,3.8,0.4,5.7,0.8c-1,0.9-2.1,1.8-3.1,2.7c-5,0-10.1,0-15.1-0.1
		c-0.2,0-0.4,0-0.6-0.2C544.4,76.9,543.4,76.1,542.6,75.3z"/>
</g>
<g id="_x23_ff0207ff">
	<path class="st4" d="M510.7,47.6c0.2,0.2,0.6,0.5,0.3,0.9c-0.2,0.3-0.4,0-0.5-0.2C510.5,48.1,510.6,47.9,510.7,47.6z"/>
	<path class="st4" d="M455.8,78.2h0.1c1.4,0.1,2.9,0,4.3,0.1c0,4.2,0,8.4,0,12.6c1.2,1.2,2.4,2.4,3.6,3.6c1.2-1.2,2.4-2.4,3.6-3.7
		c0-4.2,0-8.4,0-12.6c1.4,0,2.9,0,4.4,0c0,4.4,0,8.8,0,13.2c0,0.2,0.1,0.5-0.1,0.6c-1.7,1.7-3.4,3.5-5.1,5.2
		c1.7,1.8,3.5,3.5,5.2,5.3c0,6.1,0,12.3,0,18.4c4,0,8.1,0,12.1,0c0-2.6,0-5.1,0-7.7c1.4,0,2.9,0,4.3,0c0,2.6,0,5.1,0,7.7
		c0.9,0,1.9,0,2.8,0c0-2.6,0-5.1,0-7.7c1.5,0,3,0,4.4,0c0,2.6,0,5.1,0,7.7c1.2,0,2.4,0,3.5,0c0-2.6,0-5.1,0-7.7c1.5,0,3,0,4.4,0
		c0,2.6,0,5.2,0,7.7c3.1,0,6.3,0,9.4,0c0-2.6,0-5.1,0-7.7c1.4,0,2.9,0,4.3,0c0,2.5,0,5.1,0,7.6c1,0,2.1,0,3.1,0c0-2.5,0-5.1,0-7.6
		c1.4,0,2.9,0,4.3,0c0,2.6,0,5.2,0,7.7c1.1,0,2.2,0,3.2,0c0-2.6,0-5.2,0-7.7c1.5,0,3,0,4.5,0c0,2.5,0,5.1,0,7.6c8.1,0,16.3,0,24.4,0
		c0-1.1,0-2.2,0-3.4c-3.8,0-7.7,0-11.5,0c0-5,0-9.9,0-14.9c1.7-1.7,3.4-3.4,5.1-5.1v-0.1c-1.7-1.7-3.4-3.4-5.1-5.1
		c-0.2-0.2-0.1-0.4-0.1-0.6c0-4.5,0-9.1,0-13.6c1.5,0,2.9,0,4.4,0c0,4.1,0,8.1,0,12.2c0,0.2,0,0.4,0.2,0.6c1.1,1.1,2.3,2.3,3.4,3.4
		c1.2-1.2,2.3-2.3,3.5-3.5c0-4.2,0-8.4,0-12.6c1,0,2.1,0,3.1,0c0.5,0,0.9,0,1.4-0.1c0,4.6,0,9.2,0.1,13.8c-1.7,1.8-3.5,3.5-5.2,5.3
		c1.7,1.7,3.5,3.5,5.2,5.3c0,2.5,0,4.9,0,7.4c-1.4,0-2.9,0-4.4,0c0-2.1,0-4.1,0-6.1c-1.2-1.3-2.4-2.5-3.6-3.7
		c-1.2,1.2-2.5,2.3-3.7,3.5c0,3.2,0,6.4,0,9.6c3.9,0,7.8,0,11.7,0c0,4.1,0,8.1,0,12.2c-35.1,0-70.3,0-105.4,0c0-4,0-8,0-12
		c3.9,0,7.7,0,11.6,0c0-3.2,0-6.4,0-9.5c0-0.2-0.2-0.3-0.3-0.5c-1.1-1.1-2.2-2.2-3.3-3.3c-1.2,1.2-2.5,2.5-3.7,3.7
		c0,2.1,0,4.1,0.1,6.2c-1.4,0-2.9,0.1-4.3,0.1c0-2.5,0-5,0-7.5c1.7-1.8,3.5-3.5,5.2-5.3c-1.7-1.7-3.5-3.4-5.2-5.1
		C455.7,87.5,455.7,82.9,455.8,78.2 M469.1,105.4c-1,0.3-1.3,1.7-0.6,2.4c0.7,0.8,2.2,0.4,2.4-0.6
		C471.3,106.1,470.1,105,469.1,105.4 M469.1,109.1c-1,0.3-1.3,1.7-0.5,2.4c0.7,0.8,2.2,0.4,2.4-0.6
		C471.3,109.8,470.1,108.6,469.1,109.1 M491.8,113.9c0,0.8,0.8,1.6,1.6,1.6c0.9,0,1.6-0.7,1.6-1.6
		C493.9,113.9,492.8,113.9,491.8,113.9 M460.1,117.7c0,1.1,0,2.3,0,3.4c2.4,0,4.8,0,7.2,0c0-1.1,0-2.3,0-3.4
		C465,117.7,462.5,117.7,460.1,117.7 M481.9,125.1c1.1,0,2.2,0,3.2,0c0-0.8-0.7-1.6-1.6-1.6C482.7,123.5,482,124.2,481.9,125.1
		 M486.3,125.1c1.1,0,2.2,0,3.2,0c-0.1-0.8-0.7-1.5-1.5-1.6C487.1,123.4,486.4,124.2,486.3,125.1 M497.4,125.1c1.1,0,2.2,0,3.2,0
		c-0.1-0.8-0.7-1.5-1.5-1.6C498.2,123.4,497.5,124.2,497.4,125.1 M501.8,125.1c1.1,0,2.2,0,3.2,0c0-0.8-0.8-1.6-1.7-1.6
		C502.6,123.5,501.9,124.3,501.8,125.1z"/>
</g>
<g id="_x23_f8ff54ff">
	<path class="st5" d="M499.5,105"/>
</g>
<g id="_x23_272929ff">
	<path class="st6" d="M458.5,134C459,134,458.2,134.5,458.5,134z"/>
</g>
<path class="st7" d="M507.5,62.1c-3.2,1.7-6.8,3.8-9.6,5.8c-5.4,3.8-10.2,7.9-13.5,11.6c-1.4,1.6-2.6,3.3-3.6,4.9
	c-0.7,1.2-1.5,2.9-2,4.5c-0.1,0.2-0.1,0.3-0.1,0.4c0,0-0.1,0.2-0.1,0.3c0,0.1-0.1,0.4-0.2,0.7c-0.7,2.2-1,4.1-1.1,6.1
	c0,0.8,0,2.7,0,3.4c0.1,1.1,0.3,2.2,0.5,3.1c0.1,0.6,0.3,1.2,0.4,1.2v0.1v0.1c0,0,0,0.1,0.1,0.2s0.1,0.4,0.2,0.6
	c0.8,2,2,3.9,3.5,5.7c0.4,0.4,1.4,1.4,1.8,1.8l0.3,0.2h5c6.5,0,31.5,0,38,0h5.1l0.3-0.3c0.2-0.2,0.6-0.5,0.9-0.9
	c2.9-2.9,4.7-5.9,5.6-9.3c0.2-1,0.4-1.9,0.5-3c0.1-0.8,0.1-2.8,0-3.6c-0.2-1.8-0.5-3.4-1-5.1c-0.1-0.3-0.2-0.6-0.2-0.6v-0.1
	c0,0,0,0,0-0.1s0-0.1,0-0.1s-0.1-0.2-0.1-0.3c0-0.2-0.1-0.4-0.1-0.4v-0.1c0-0.1-0.8-2.1-1.2-2.9c-1-2.2-2.7-4.6-5-7.2
	c-0.7-0.8-2.6-2.7-3.5-3.5c-2.8-2.6-5.9-5-9.3-7.4c-2.1-1.4-4.8-3.1-7.3-4.5c-0.3-0.2-0.4-0.2-0.5-0.2c-0.2-0.1-0.1-0.1-0.4-0.3
	c-0.1-0.1-0.4-0.2-0.5-0.3c-0.2-0.1-1.9-1-1.9-1C508.3,61.6,508,61.8,507.5,62.1z"/>
<path class="st4" d="M512.3,50.3c1,0.4,1.9,0.7,3,0.8c1.6,0.2,3.3,0.1,4.9,0.5c0.5,0.1,1.1,0.3,1.4,0.8c0.4,0.7,0.7,1.5,1.2,2.2
	c0.7,0.8,1.7,1.1,2.7,1.3c1.2,0.3,2.5,0.3,3.7,0.6c0.5,0.1,0.7,0.6,0.8,1s0.2,0.9,0,1.4c-0.7,1.8-1.4,3.6-2.1,5.4
	c-0.5,1.4-1,2.8-1,4.3c-0.6-0.9-1.1-1.7-2-2.3c-1-0.6-2.3-0.3-3.4-1c-0.8-0.4-0.7-1.6-1.5-2c-1.7-0.8-3.7-0.4-5.5-0.6
	c-1.2-0.2-2.5-0.8-3.3-1.7c1.8-1.4,2.9-3.6,2.9-5.8C514.2,53.2,513.4,51.6,512.3,50.3z"/>
<path class="st8" d="M539.1,132.2c0.7-0.3,1.4-0.7,2.1-1c2.7,4.4,5.3,8.8,7.8,13.3c-0.6,0.8-1.7,0.9-2.5,1.4
	C543.9,141.4,541.5,136.8,539.1,132.2z"/>
<g>
	<path class="st8" d="M535.1,134c0.3-0.1,0.6-0.2,0.8-0.3c0.3-0.1,0.7,0,0.9,0.3c2,4,3.9,8.1,5.9,12.2c0,0,0,0,0,0.1
		c0.1,0.4,0.6,1,0.2,1.4c-12.3,5.3-25.9,7.5-39.3,6.4c-0.4,0-0.6-0.3-0.6-0.7c0-0.1,0-0.2,0-0.4c0-0.4,0.3-0.7,0.7-0.7
		c1,0,2,0.1,3,0.1c0.4,0,0.7-0.3,0.7-0.7c0-1.4,0.1-2.7,0.1-4.1c0-0.3-0.2-0.5-0.4-0.6c-0.5-0.2-1.1-0.2-1.7-0.2
		c-0.4,0-0.7-0.3-0.7-0.7l0,0c0-0.4,0.3-0.6,0.7-0.7c1.6,0,3.4-0.3,4.6,0.7c0.1,0.1,0.2,0.2,0.2,0.4c0.4,1.8,0.1,3.6,0.2,5.4
		c0,0.4,0.3,0.7,0.7,0.7c1.1,0,2.3,0,3.4-0.1c0.5,0,0.8-0.6,0.6-1c-0.7-1.4-0.6-3.2-0.5-4.8c0.1-0.9,1-1.4,1.9-1.4
		c1.8-0.2,3.6-0.5,5.4-0.6c0.4,0,0.7,0.2,0.8,0.6c0.3,1.9,0.6,3.7,1,5.6c0.1,0.4,0.4,0.6,0.8,0.5c0.7-0.1,1.4-0.3,2.1-0.4
		c0.4-0.1,0.6-0.4,0.5-0.8c-0.3-1.9-1-3.7-1.2-5.7c0-0.4,0.2-0.7,0.6-0.8c1.8-0.3,3.6-1,5.4-1.4c0.7-0.2,1.6-0.2,2,0.6
		c0.7,1.6,1.2,3.3,1.9,4.9c0.1,0.3,0.5,0.5,0.8,0.4c1-0.2,1.9-0.6,2.8-1c0.4-0.1,0.5-0.5,0.4-0.9c-1.5-3.9-3.3-7.6-4.8-11.4
		C534.6,134.6,534.8,134.2,535.1,134z M528.8,145.5c0.2,1.4,0.6,2.7,1.1,3.9c0.1,0.3,0.4,0.5,0.7,0.4c0.6,0,1.2-0.2,1.9-0.3
		c0.4-0.1,0.6-0.5,0.5-0.9c-0.4-1.2-0.8-2.5-1.2-3.7c0,0,0-0.1-0.1-0.1c-0.5-0.8-1.5-0.3-2.3-0.1C529,144.8,528.8,145.1,528.8,145.5
		z M517.3,147.6c-0.2,1,0,2,0.1,2.9c0,0.1,0,0.1,0.1,0.2c0.2,1.1,1.7,1.7,2.7,1.3c0.4-0.2,0.7-0.4,0.7-0.8c-0.1-1.3-0.3-2.7-0.6-3.9
		c-0.1-0.3-0.4-0.6-0.7-0.6c-0.6,0-1.3,0-1.9,0.4C517.4,147.2,517.3,147.3,517.3,147.6z"/>
</g>
<path class="st8" d="M478.6,134.2c1,0.3,1.9,0.7,2.8,1.3c-0.4,0.5-0.4,1.4-1,1.6c-0.9-0.4-1.7-0.8-2.6-1.2
	C478,135.3,478.3,134.7,478.6,134.2z"/>
<path class="st8" d="M484.8,139.1c-0.9-0.4-1.8-0.7-2.7-1c-0.1-0.7,0.3-1.4,0.7-1.9c0.9,0.4,1.8,0.7,2.6,1.2
	C485.3,137.9,485.1,138.5,484.8,139.1"/>
<g>
	<path class="st8" d="M475.2,139c0.6-1,2.1-1.6,3.1-1c1.7,0.8,3.5,1.5,5.3,2.4c-0.9,2.2-2,4.3-2.7,6.5c1.5,0.5,3,1.2,4.5,1.6
		l0.4-0.2c0.9-2,1.4-4.1,2.3-6.1c0.8-0.3,1.9,0.1,2.4,0.7c-0.6,2.2-1.5,4.3-1.9,6.6c1,0.3,2,0.5,2.9,0.8c0.6-2.2,1.3-4.4,1.8-6.7
		c0.8-0.1,1.6,0.2,2.5,0.3c-0.1,2.4-1.2,4.7-1.2,7.1c0.9,0,2,0.6,2.7,0.1c0.4-2.1,0.8-4.3,1.2-6.5c0.9,0,1.7,0.1,2.6,0.2
		c-0.4,2.9-0.8,5.9-1.2,8.8c-9.7-1.2-19.2-4.3-27.9-9C472.9,142.7,474,140.8,475.2,139z M477.6,140.4c-0.9,1.3-1.6,2.7-2.2,4.1
		c0.8,0.4,1.7,0.8,2.6,1.2c1-1.5,1.7-3.2,2.4-4.8C479.5,140.5,478.5,139.9,477.6,140.4z"/>
</g>
<path class="st8" d="M518.8,141.2c0.9-0.1,1.9-0.2,2.8-0.4c0.1,0.6,0.3,1.2,0.4,1.9c-1,0.3-2,0.5-3.1,0.5
	C518.9,142.5,518.9,141.9,518.8,141.2z"/>
<path class="st8" d="M514.3,141.7c1,0,2-0.1,3-0.2c0,0.7,0,1.3,0,2c-1,0.1-2,0.1-3,0.1C514.3,143,514.3,142.4,514.3,141.7z"/>
<g>
	<path class="st1" d="M505.1,68.2c1.4-0.8,2.6-2.3,2.8-3.9c0.9,0.1,1.8,0.3,2.4,1c0.5,0.5,0.6,1.3,0.7,1.9c0.3-0.1,0.7-0.3,1.1-0.2
		c1,0.1,1.7,1.3,1.3,2.2c-0.1,0.3-0.4,0.5-0.6,0.8c1.4,1.3,2.9,2.7,3.5,4.6c0.4-0.5,0.9-1,1.7-1s1.5,0.6,2.2,0.9
		c0.5,0.2,0.9-0.1,1.4-0.2c0.2,0.1,0.1,0.3,0.2,0.4c0.1,0.7,0,1.4-0.2,2c-0.6,1-1.8,1.3-2.8,1.2c0,0.8-0.2,1.6-0.8,2.1
		s-1.4,0.6-2.1,0.5c-0.1,0.5-0.3,1-0.6,1.5c0.7,0.8,1.7,1.3,2.6,1.8c0.9,0.5,1.5,1.4,1.8,2.3c0.1,0.6,0,1.2-0.4,1.7
		c-0.5,0.5-1.4,0.5-2,0.2c-0.8-0.5-0.8-1.9,0.1-2.4c0.2-0.1,0.5-0.1,0.8-0.2c-0.2-0.4-0.5-0.9-1-1.2c-1-0.5-2.2-0.6-3.4-0.7
		c-1.5,1.5-3.8,1.8-5.8,1.3c-0.2,0.4-0.3,0.9-0.7,1.2c-0.7,0.6-1.8,0.5-2.4-0.2c-0.4-0.4-0.4-0.9-0.5-1.4c0.2-0.4,0.4-0.8,0.7-1.2
		c-0.6-0.8-1.2-1.7-1.6-2.7c-0.4-1.2-0.7-2.5-1.1-3.8c-0.2-0.6-0.3-1.3-0.7-1.9c-0.2-0.4-0.6-0.6-1-0.9c0.8-0.5,1.7-0.9,2.6-0.8
		c0.8,0.2,1.4,0.9,1.8,1.6c0.5-0.4,1.1-0.8,1.7-1.1c-0.3-0.6-0.5-1.2-0.1-1.8c0.5-0.8,1.8-0.9,2.4-0.2c0.4,0.4,0.4,1,0.3,1.6
		c1.6,0.2,2.8,1.4,3.4,2.8c0.4,0.9,0.4,2,0.6,3c0.1,0.7,0.3,1.4,0.5,2.1c1-1.7,1.6-3.7,1.1-5.7c-0.5-1.7-1.6-3.1-3-4.1
		c-0.8-0.6-1.7-1-2.6-1.1c-1.5-0.3-3.1-0.2-4.6,0c-1.6,0.3-3.1,1-4.4,1.9c-1.1,0.7-1.9,1.6-2.6,2.7c0.4,0.2,0.8,0.3,1,0.8
		c0.2,0.4,0.1,0.8,0,1.2v0.1c0.5,0.2,1.1,0.4,1.4,0.8c0.4,0.6,0.6,1.4,0.7,2.2c-0.6-0.1-1.3,0-1.8,0.5c-1,1-1.2,2.5-2.1,3.6
		c-0.2,0.3-0.5,0.4-0.8,0.6c-0.6,0.2-1.4,0.2-2,0c0.3,1.2,0.6,2.5,1.4,3.5c0.6,0.8,1.4,1.4,2.3,1.9c0.2-0.3,0.4-0.5,0.6-0.8
		c0,0.7,0,1.3,0,2c0,1.1,0,2.1,0,3.2c0,1.9,0,3.8,0,5.7c0,1.2,0,2.4,0,3.5c0,0.6,0.2,1.3,0.8,1.5c0.4,0.1,0.7,0.4,0.9,0.8
		c0.2-0.4,0.6-0.7,1-0.8c0.6-0.2,0.8-0.9,0.8-1.4c0-1.2,0-2.4,0-3.6c0-1.1,0-2.3,0-3.4c-0.2-0.8-1-1.3-1.8-1.4
		c0.2-0.3,0.3-0.5,0.5-0.8c0.7-0.7,1.6-1.2,2.6-1.2c0-0.6,0.1-1.3,0.6-1.8c0.5-0.4,1-0.8,1.2-1.4c0,0.4,0,0.8,0,1.2
		c0,2.1,0,4.1,0,6.1c0,1.4,0,2.8,0,4.2c1.7,0,3.4,0,5.2,0c0.4-0.8,1-1.5,1.7-2c-0.4-0.4-0.8-0.9-1.3-1.1c-0.8-0.4-1.6-0.4-2.5-0.4
		c0-0.2,0-0.4,0-0.6c0-0.5,0.1-1.1,0.5-1.5c0.4-0.5,1-0.7,1.6-0.9c-0.3-0.8-0.5-1.6-0.1-2.4c0.3-0.6,1-0.8,1.7-1.2
		c0.9-0.5,1.8-1.1,2.5-1.9c0.7,0.9,1.7,1.5,2.7,2c0.6,0.3,1.2,0.5,1.5,1.1c0.4,0.7,0.1,1.6-0.2,2.3c0.6,0.2,1.2,0.4,1.6,0.9
		c0.3,0.4,0.4,0.9,0.5,1.3c0,0.3,0,0.5,0,0.8c-0.8,0-1.6,0-2.4,0.4c-0.6,0.2-1,0.7-1.4,1.2c0.7,0.6,1.2,1.2,1.7,2c1.6,0,3.3,0,4.9,0
		c0-1.4,0-2.9,0-4.3c0-2,0-3.9,0-5.9c0-1.7,0-3.4,0-5.1c0-1.1,0-2.3,0-3.4c0-0.8-0.2-1.7-0.7-2.3c-0.3-0.4-0.8-0.6-1.2-0.8
		c0.4-0.6,0.8-1.3,1.5-1.6c0.5-0.3,1-0.3,1.6-0.4c0-0.3,0-0.6,0-0.9c0.1-0.4,0.3-0.7,0.6-0.9c0.5-0.5,0.9-1,1.4-1.5
		c0,0.8,0,1.7,0,2.5c0,1.5,0,3.1,0,4.6c0,1.3,0,2.6,0,3.9c0,3,0,6,0,9c0,1,0,1.9,0,2.9c0,1.8,0,3.7,0,5.5c0,0.8-0.1,1.7,0.5,2.3
		c0.5,0.3,1,0.4,1.3,1c0.2-0.6,0.8-0.7,1.3-1c0.6-0.6,0.5-1.5,0.5-2.2c0-1.8,0-3.6,0-5.4c0-1,0-2,0-2.9c0-3.1,0-6.1,0-9.2
		c0-1.3,0-2.6,0-3.9c0-0.6,0-1.2,0-1.9c0.5,0.8,1.2,1.3,1.8,2.1c0.1,0.4,0.1,0.9,0.1,1.3c1.3-0.1,2.5,0.8,3,2
		c-0.2,0.1-0.4,0.2-0.6,0.3c-1.1,0.6-1.4,2-1.3,3.2c1.9,1.5,3.4,3.7,3.7,6.2c0.3,1.9,0.1,3.8-0.4,5.6c-0.4,1.2-0.9,2.3-1.7,3.3
		c-0.1,0.2-0.5,0.2-0.6,0c0-0.4,0.2-0.8,0.4-1.2c0.4-0.7,0.6-1.5,0.8-2.3c-0.3,0-0.7,0-1-0.2c-0.5-0.5-0.5-1.2-0.4-1.9
		c0.2-1.9,0.9-3.7,0.8-5.6c-0.1-1.1-0.6-2.1-1.4-2.9c0,0-0.1-0.1-0.1-0.2c0,5,0,10.1,0,15.1c0,0.4-0.1,0.8-0.2,1.1
		c-0.2,1-0.6,1.9-1.3,2.6c-0.5,0.4-1.2,0.6-1.9,0.7c-0.8,0.2-1.2,0.9-1.5,1.6c-0.3-0.8-0.8-1.5-1.7-1.7c-0.8-0.1-1.6-0.4-2-1.1
		c-0.7-0.8-0.9-2-1.1-3c-0.3-0.1-0.3,0.3-0.4,0.5c-0.7,2-2.1,3.7-4,4.8c-2.1,1.2-4.7,1.5-7,0.8c-2.9-0.8-5.3-3.3-6-6.2
		c-0.2,0-0.3,0-0.5,0c-0.2,1.3-0.5,2.8-1.7,3.7c-0.7,0.5-1.7,0.4-2.3,0.9c-0.4,0.3-0.6,0.8-0.8,1.3c-0.3-0.8-0.8-1.5-1.7-1.7
		c-0.7-0.1-1.5-0.4-2-0.9c-0.7-0.9-1-2.1-1.2-3.2c-1,0-2,0-3,0c-0.4,1.4-1.3,2.6-2.5,3.3c-1.2,0.8-2.8,1-4.2,0.8
		c-1.7-0.3-3.2-1.5-4-3c-0.2-0.3-0.3-0.7-0.4-1c-0.1,0-0.3,0-0.4,0c0.5-2.3-0.2-4.7,0.3-7c0.4-1.2,1.2-2.2,2.2-2.9
		c1.2-1,2.7-1.5,3.7-2.7c0.7-0.9,0.4-2.1,0.5-3.1c0-1.2,0-2.4,0-3.6c0-1,0.1-2-0.4-2.9c-0.3-0.5-0.7-0.9-1.3-1.1
		c-0.1,0-0.2-0.1-0.2-0.1c0.4-0.6,0.8-1.3,1.5-1.7c0.5-0.3,1-0.3,1.5-0.3c0-0.4-0.1-0.9,0.1-1.3s0.5-0.6,0.8-0.9
		c0.4-0.4,0.7-0.8,1.1-1.2c0,0.4,0,0.7,0,1.1c0,1.5,0,3,0,4.6c0,1.3,0,2.6,0,3.8c0,3.1,0,6.1,0,9.2c0,2.4,0,4.7,0,7.1
		c0.6,0,1.2,0,1.8,0c0.1-0.6-0.2-1.3,0.3-1.7c0.1,0.6,0.1,1.2,0,1.7c0.9,0,1.9,0,2.8,0c0-1.3,0-2.5,0-3.8c0-0.8-0.2-1.6-0.7-2.2
		c-0.3-0.4-0.8-0.6-1.2-0.8c0-0.1,0.1-0.2,0.2-0.3c0.6-1,1.7-1.8,2.9-1.7c0-0.5,0-1.1,0.2-1.6c-1.8-1.4-3.1-3.5-3.7-5.8
		c-0.3-1.3-0.3-2.7-0.1-4.1c0.2-1.4,0.7-2.8,1.4-4.1c0.7-1.5,1.7-2.9,2.9-4C499.5,70.9,502.5,69.7,505.1,68.2z M507.2,66.8
		c-1.1,1.6-3,2.3-4.6,3.2c-2.5,1.3-5.3,2.7-6.9,5.2s-2.7,5.4-2.6,8.4c0.1,2.7,1.6,5.4,3.7,7.1c0.2-0.2,0.4-0.3,0.6-0.5
		c-0.4-0.3-0.9-0.6-1.2-0.9c-1.6-1.4-2.2-3.6-2.5-5.7c-0.1-0.9,0.2-2.1,1.1-2.3c0.9-0.3,1.8,0.8,1.3,1.6c-0.2,0.5-1.1,0.8-1.3,0.2
		c0.2,0,0.5,0,0.7-0.1c0.4-0.2,0.5-0.8,0.1-1.1c-0.4-0.4-1-0.1-1.3,0.3c-0.3,0.6-0.3,1.3-0.2,2c0.8,0.5,2,0.4,2.6-0.4
		c0.7-0.9,1-2.1,1.6-3c0.5-0.7,1.3-1.2,2.1-1.2c-0.2-0.7-0.3-1.5-1-1.9c-0.4-0.3-0.9-0.3-1.4-0.4c0.3-0.3,0.6-0.6,0.5-1.1
		c0-0.6-0.8-0.8-1.2-0.9c0.9-1.9,2.6-3.2,4.4-4.1c1.6-0.8,3.4-1.2,5.2-1.3c1.9,0,3.9,0.2,5.4,1.3c1.5,1.1,2.7,2.7,3.1,4.5
		c0.4,2.1-0.1,4.4-1.4,6.1c-0.1,0-0.2,0-0.2,0.1c-0.6-1.3-0.7-2.8-0.8-4.2c-0.1-1.3-0.9-2.4-1.9-3.3c-0.6-0.5-1.3-0.6-2.1-0.7
		c0.2-0.5,0.4-1.2-0.1-1.6c-0.6-0.7-1.8-0.4-2,0.5c-0.2,0.6,0.2,1,0.5,1.4c-0.9,0.3-1.7,0.8-2.3,1.5c-0.5-0.6-0.8-1.4-1.6-1.7
		c-0.7-0.2-1.5,0.1-2.1,0.4c0.6,0.5,1,1.2,1.2,2c0.4,1.4,0.7,2.9,1.2,4.3c0.3,1,0.9,1.9,1.6,2.8c0.1,0,0.4-0.1,0.5-0.2
		c-0.6-0.8-1.1-1.7-1.3-2.6c0.1-1.1,0.1-2.1,0.3-3.2c0.4-0.9,1-1.7,1.7-2.3c1-0.8,2.4-0.8,3.6-0.4c0.8,0.2,1.5,0.8,1.6,1.6
		c0.1,0.8-0.7,1.8-1.6,1.5c-0.6,0-1.1-1-0.5-1.3c0.2,0.3,0.2,0.7,0.5,0.9c0.7,0.2,1.4-0.7,1-1.3c-0.2-0.6-1-0.8-1.5-0.5
		c-0.8,0.3-1.1,1.2-1,2c0,1.1-0.2,2.5-1.3,3.1c0.6,0.3,1.2,0.7,1.9,0.5c1-0.2,1.6-1.1,2-1.9c0.1,0.2,0.2,0.4,0.2,0.6
		c0.1,0.8,0.1,1.7,0.6,2.4c0.2,0.4,0.6,0.8,1,1.1c-1.4,1.2-3.5,1.6-5.3,1.1c0,0.1,0.1,0.4,0.1,0.5c1.9,0.5,4.2,0.2,5.6-1.3
		c1,0,2.1,0.1,3.1,0.5c0.5,0.3,1,0.4,1.3,0.8c0.4,0.5,0.8,1.3,0.4,1.9c-0.4,0-0.1-0.6-0.5-0.6c-1-0.1-1.2,1.6-0.3,1.9
		c0.5,0.2,1.3,0.2,1.6-0.3c0.4-0.7,0.2-1.6-0.3-2.3c-0.5-0.7-1.2-1.2-2-1.5c-0.8-0.4-1.5-0.9-2-1.7c0.4-0.5,0.6-1.2,0.7-1.9
		c0.8,0.2,1.7,0.2,2.3-0.4c0.6-0.5,0.7-1.4,0.6-2.2c0.9,0.1,1.9,0.1,2.5-0.5c0.7-0.5,0.6-1.5,0.6-2.2c-0.4,0.1-0.8,0.2-1.2,0.1
		c-0.7-0.2-1.2-0.9-2-1c-0.6-0.1-1.2,0.3-1.6,0.8c-0.4,0.4,0,1,0.3,1.3c0.4,0.4,1.1,0.1,1.2-0.4c0-0.4-0.7-0.5-0.4-0.9
		c0.4,0,0.8,0.5,0.8,0.9c0,0.8-1,1.3-1.7,0.8c-0.7-0.4-0.7-1.3-0.9-2c-0.6-1.9-2.2-3.3-3.7-4.5c0.3-0.2,0.8-0.4,0.9-0.7
		c0.4-0.8-0.2-1.8-1.1-1.9c-0.5,0-0.8,0.3-1.2,0.5c-0.1-0.7-0.1-1.5-0.6-2.1s-1.3-0.9-2-1C508,65.4,507.7,66.1,507.2,66.8z
		 M505.2,77c-0.2,0.7-0.2,1.5-0.3,2.3c-0.3,1.4,0.6,2.6,1.4,3.6c0.7,0.1,1.1,0.8,1.8,0.8c1.5,0.4,3.1,0,4.3-0.8
		c-0.2-0.4-0.6-0.7-0.8-1.1c-0.3-0.6-0.4-1.4-0.5-2.1c-0.7,0.9-1.8,1.6-3,1.2c-0.5-0.2-1.1-0.5-1.4-1c0.5-0.1,0.9-0.3,1.2-0.7
		c0.4-0.8,0.4-1.7,0.4-2.5c0-1,0.8-2,1.9-1.9c-0.7-0.4-1.5-0.4-2.3-0.3C506.6,74.7,505.7,75.9,505.2,77z M534.2,91.1
		c0.6,2.4-0.7,4.8-0.6,7.2c0,0.4,0.2,0.9,0.6,1c0.7,0.1,1.1-1,0.8-1.5c-0.3-0.3-0.6,0.1-0.9,0.2c-0.3-0.1-0.1-0.4,0.1-0.5
		c0.5-0.4,1.3-0.1,1.4,0.5c0.2,0.8-0.5,1.4-0.6,2.1c-0.2,1.1-0.8,2-1.1,3c2.1-2.5,2.6-6,2.1-9.2c-0.3-1.6-1.1-3-2.2-4.2
		C533.8,90.2,534.1,90.6,534.2,91.1z M512.5,96.1c0.1,0.8,0.8,1.3,1.5,1.6c0.6-0.3,1.4-0.8,1.4-1.6c0.1-1-0.7-1.8-1.4-2.3
		C513.2,94.4,512.4,95.2,512.5,96.1z M484.6,97.7c-0.6,1-0.6,2.3-0.6,3.4c1.1,0,2.2,0,3.3,0c0-1.8,0-3.7,0-5.5
		C486.3,96,485.2,96.6,484.6,97.7z M511.9,104.4c-1.9,0-3.7,0-5.5,0c0.6,1.3,1.6,2.4,2.8,3.2c0-0.6,0.1-1.3,0.7-1.5
		c1-0.3,2.2,0.1,3.2-0.1c0.5-0.1,1-0.3,1.5-0.6c0.4,0.6,0.8,1.3,0.6,2.1c0.4-0.1,1-0.1,1.3,0.2c0.3,0.2,0.3,0.6,0.4,0.9
		c2-0.8,3.7-2.3,4.7-4.2c-1.8,0-3.7,0-5.5,0c-0.4-0.8-0.8-1.6-1.3-2.3c-0.2-0.3-0.5-0.5-0.8-0.6
		C512.9,102.1,512.2,103.2,511.9,104.4z M481.5,104.3c0.5,1.4,1.5,2.7,2.9,3.3c1.7,0.8,3.8,0.7,5.4-0.4c1-0.7,1.8-1.8,2.2-2.9
		l-0.1,0.1c-0.7,1.3-1.9,2.4-3.4,2.7c0-0.4,0.2-0.9,0-1.3c-0.2-0.5-0.7-0.8-1.2-0.9c-0.5,1.5-2.4,2.1-3.8,1.5
		C482.6,106,482.1,105.2,481.5,104.3C481.6,104.4,481.5,104.4,481.5,104.3z M482,104.4c0.3,0.4,0.6,0.8,0.9,1.2c1.1,1.3,3.7,0.7,4-1
		c1.1,0.1,2.1,1,2,2.1c1-0.5,2-1.3,2.5-2.3C488.3,104.4,485.1,104.4,482,104.4z M505.8,104.2c0.8,3.2,3.6,5.7,6.8,6.2
		c2.3,0.4,4.8-0.2,6.7-1.7c1.4-1.1,2.6-2.7,3-4.5c-0.2,0.1-0.3,0.3-0.4,0.4c-1.1,2-3,3.7-5.3,4.3c-0.1-0.4,0-0.9-0.5-1.1
		c-0.5-0.3-1.1,0-1.6,0.2c0.1-0.4,0.3-0.8,0.3-1.2c0-0.4-0.2-0.8-0.4-1.1c-0.4,0.2-0.7,0.4-1.1,0.4c-1.1,0.2-2.2-0.1-3.3,0.1
		c-0.6,0.1-0.8,1-0.3,1.4c0.4,0.3,1.1,0.4,1.4-0.1c0.3-0.4-0.6-0.6-0.4-1c0.7-0.1,1.1,0.9,0.6,1.4s-1.4,0.4-1.9,0.1
		c-1.3-0.8-2.4-2-3.2-3.3C506.1,104.6,506,104.3,505.8,104.2z"/>
</g>
<path class="st1" d="M483.1,83.5c0.6-0.7,1.8-0.8,2.5-0.2c0.5,0.4,0.7,1.1,0.6,1.8c-0.2,0.7-0.9,1.3-1.7,1.3
	c-0.8,0.1-1.5-0.6-1.8-1.3C482.6,84.5,482.7,83.9,483.1,83.5z"/>
<path class="st1" d="M500,84.8c0-1,0.7-1.9,1.7-1.9c0.8,0,1.5,0.6,1.8,1.3c0,0.5,0,1.1-0.4,1.5c-0.6,0.7-1.7,0.8-2.4,0.3
	C500.4,85.8,500.2,85.3,500,84.8z"/>
<path class="st1" d="M482.7,88.6c0.1-0.8,0.8-1.6,1.7-1.7c0.9-0.1,1.7,0.7,1.9,1.6c0.1,1-0.7,1.9-1.7,1.9
	C483.5,90.5,482.6,89.6,482.7,88.6z"/>
<path class="st1" d="M491.1,108c0.2-0.6,0.8-1.2,1.5-1.3c0.8-0.2,1.6,0.4,1.9,1.1c0.4,1-0.4,2.3-1.5,2.4
	C491.8,110.4,490.8,109.2,491.1,108z"/>
<path class="st9" d="M507.2,66.8c0.5-0.6,0.8-1.4,1-2.1c0.7,0.2,1.5,0.4,2,1c0.4,0.6,0.4,1.4,0.6,2.1c0.4-0.2,0.7-0.5,1.2-0.5
	c0.8,0,1.5,1.1,1.1,1.9c-0.2,0.4-0.6,0.5-0.9,0.7c1.5,1.3,3.1,2.6,3.7,4.5c0.2,0.7,0.2,1.6,0.9,2c0.6,0.4,1.6,0,1.7-0.8
	c0-0.4-0.4-0.9-0.8-0.9c-0.3,0.4,0.4,0.5,0.4,0.9c-0.1,0.5-0.8,0.8-1.2,0.4c-0.3-0.4-0.6-0.9-0.3-1.3c0.3-0.5,0.9-0.9,1.6-0.8
	c0.8,0.1,1.3,0.8,2,1c0.4,0.1,0.8,0,1.2-0.1c0,0.8,0.1,1.7-0.6,2.2c-0.7,0.6-1.7,0.6-2.5,0.5c0.1,0.8,0.1,1.7-0.6,2.2
	c-0.6,0.6-1.5,0.6-2.3,0.4c-0.1,0.7-0.3,1.3-0.7,1.9c0.5,0.7,1.3,1.2,2,1.7c0.8,0.3,1.5,0.7,2,1.5c0.5,0.6,0.8,1.5,0.3,2.3
	c-0.3,0.5-1.1,0.6-1.6,0.3c-0.9-0.3-0.6-2,0.3-1.9c0.4,0,0.1,0.6,0.5,0.6c0.4-0.6,0-1.4-0.4-1.9c-0.3-0.5-0.9-0.6-1.3-0.8
	c-1-0.3-2-0.4-3.1-0.5c-1.4,1.5-3.7,1.8-5.6,1.3c0-0.1-0.1-0.4-0.1-0.5c1.8,0.5,3.9,0.1,5.3-1.1c-0.4-0.4-0.7-0.7-1-1.2
	c-0.4-0.7-0.5-1.6-0.6-2.4c0-0.2-0.1-0.4-0.2-0.6c-0.4,0.8-1,1.7-2,1.9c-0.7,0.2-1.3-0.1-1.9-0.5c1.1-0.6,1.4-1.9,1.3-3.1
	c-0.1-0.8,0.2-1.7,1-2c0.5-0.2,1.3-0.1,1.5,0.5c0.3,0.6-0.3,1.5-1,1.3c-0.3-0.2-0.3-0.6-0.5-0.9c-0.6,0.3-0.1,1.3,0.5,1.3
	c0.9,0.2,1.7-0.7,1.6-1.5s-0.8-1.4-1.6-1.6c-1.2-0.4-2.6-0.4-3.6,0.4c-0.7,0.6-1.3,1.4-1.7,2.3c-0.1,1.1-0.2,2.1-0.3,3.2
	c0.2,1,0.7,1.8,1.3,2.6c-0.1,0-0.4,0.1-0.5,0.2c-0.6-0.8-1.3-1.7-1.6-2.8c-0.5-1.4-0.8-2.9-1.2-4.3c-0.2-0.8-0.5-1.5-1.2-2
	c0.6-0.3,1.4-0.6,2.1-0.4c0.8,0.3,1.1,1.1,1.6,1.7c0.7-0.6,1.4-1.2,2.3-1.5c-0.3-0.4-0.7-0.9-0.5-1.4c0.2-0.9,1.4-1.2,2-0.5
	c0.4,0.4,0.3,1.1,0.1,1.6c0.7,0.1,1.5,0.2,2.1,0.7c1,0.8,1.8,2,1.9,3.3c0.1,1.4,0.3,2.9,0.8,4.2c0.1,0,0.2,0,0.2-0.1
	c1.2-1.7,1.8-4,1.4-6.1c-0.4-1.8-1.7-3.4-3.1-4.5c-1.5-1.2-3.5-1.4-5.4-1.3c-1.8,0-3.6,0.4-5.2,1.3c-1.8,0.9-3.6,2.2-4.4,4.1
	c0.5,0.2,1.2,0.3,1.2,0.9c0.1,0.4-0.2,0.8-0.5,1.1c0.4,0.2,1,0.1,1.4,0.4c0.6,0.4,0.8,1.2,1,1.9c-0.9,0-1.7,0.5-2.1,1.2
	c-0.6,1-0.9,2.1-1.6,3c-0.6,0.7-1.8,0.8-2.6,0.4c-0.1-0.6-0.1-1.4,0.2-2c0.2-0.4,0.9-0.7,1.3-0.3c0.3,0.3,0.2,0.9-0.1,1.1
	c-0.2,0.1-0.5,0.1-0.7,0.1c0.2,0.7,1.1,0.3,1.3-0.2c0.5-0.8-0.4-1.9-1.3-1.6c-1,0.2-1.2,1.4-1.1,2.3c0.2,2.1,0.8,4.3,2.5,5.7
	c0.4,0.4,0.8,0.6,1.2,0.9c-0.2,0.2-0.4,0.3-0.6,0.5c-2.1-1.7-3.5-4.3-3.7-7.1c-0.2-3,0.9-5.9,2.6-8.4c1.6-2.5,4.3-3.8,6.9-5.2
	C504.2,69.1,506.1,68.3,507.2,66.8z"/>
<path class="st9" d="M505.8,104.2c0.2,0.1,0.3,0.3,0.4,0.5c0.7,1.4,1.9,2.5,3.2,3.3c0.6,0.3,1.4,0.4,1.9-0.1s0.1-1.5-0.6-1.4
	c-0.2,0.4,0.7,0.6,0.4,1c-0.3,0.4-1,0.3-1.4,0.1c-0.5-0.3-0.3-1.3,0.3-1.4c1.1-0.2,2.2,0.2,3.3-0.1c0.4-0.1,0.7-0.3,1.1-0.4
	c0.2,0.3,0.4,0.7,0.4,1.1s-0.2,0.8-0.3,1.2c0.5-0.2,1-0.5,1.6-0.2c0.4,0.2,0.4,0.7,0.5,1.1c2.2-0.6,4.1-2.3,5.3-4.3
	c0.1-0.2,0.2-0.3,0.4-0.4c-0.4,1.8-1.6,3.3-3,4.5c-1.9,1.4-4.3,2.1-6.7,1.7C509.3,109.9,506.6,107.4,505.8,104.2z"/>
<path class="st9" d="M481.5,104.3l0.1,0.1c0.5,0.8,1,1.6,1.9,2c1.4,0.6,3.3,0,3.8-1.5c0.5,0.2,1,0.4,1.2,0.9c0.2,0.4,0.1,0.9,0,1.3
	c1.4-0.4,2.6-1.5,3.4-2.7c0,0,0.1,0,0.1-0.1c-0.4,1.2-1.2,2.3-2.2,2.9c-1.6,1.1-3.7,1.2-5.4,0.4C483,107,482,105.8,481.5,104.3z"/>
<path class="st9" d="M534.2,91.1c-0.1-0.5-0.4-1-0.6-1.4c1,1.2,1.9,2.6,2.2,4.2c0.6,3.1,0,6.7-2.1,9.2c0.4-1,0.9-2,1.1-3
	c0.1-0.7,0.8-1.3,0.6-2.1c-0.1-0.6-0.9-0.9-1.4-0.5c-0.2,0.1-0.4,0.4-0.1,0.5c0.3-0.1,0.6-0.5,0.9-0.2c0.4,0.5,0,1.6-0.8,1.5
	c-0.5-0.1-0.6-0.6-0.6-1C533.5,95.9,534.8,93.5,534.2,91.1z"/>
<g transform="translate(0.000000,485.000000) scale(0.100000,-0.100000)">
	<path class="st10" d="M2966,4442.9c-11.5-25.7-21.6-53.2-24.2-65.9c-2.4-12.2-2.4-15.3-0.2-22.1c3.1-10.3,9.7-15.1,20.9-15.1
		c17.9,0,32,14.1,34.8,34.8c2.3,16.7-3.3,27.5-21.9,41.4l-6.4,4.9l2.4,12.5c1.7,8.4,1.9,13.4,0.5,15.7
		C2970.3,4451.8,2969.3,4450.7,2966,4442.9z M2968.4,4386.5c3.3-1.4,8.2-4.9,10.4-8c4-5,4-5.6,0.9-7.8c-4.2-3-20-3.1-23.1-0.2
		c-2.4,2.4-3,10.6-1.2,15.5C2957.1,4390,2960.3,4390,2968.4,4386.5z"/>
	<path class="st10" d="M2819.3,4430c-6.3-2.6-33.7-11.5-61.4-19.8c-200.4-60.7-644.9-221.5-700.9-253.5
		c-24.7-14.1-41.8-32.5-50.3-54.3l-3.1-8.2l5.2,1.2c5.9,1.6,8.9,2.8,98.8,40.9c219,92.4,430.7,168.7,675.7,243.7l19,5.9l13.2,15.1
		c13.7,16,19.7,25.1,19.8,30.8C2835.3,4436,2833.1,4435.8,2819.3,4430z"/>
	<path class="st10" d="M3451.5,4416.8c-3.1-2.8-7.3-8.2-9.2-12c-4.7-9.2-12.5-34.3-15.3-49.9l-2.4-13l-8.5,15.8
		c-15.5,28.4-37.8,45.4-47.8,36.4c-5-4.5-7.3-10.4-9-23l-1.6-9.7l6.8-2.6c3.8-1.6,12-4,17.9-5.2c10.6-2.3,11.5-3,18.3-13.4
		c7.1-11.3,15.1-29.9,18.6-44.7l2.1-8.2l4.7,4.3c6.8,6.4,9.7,19.8,12,51.1c2.1,29.7,4.9,40.4,13.4,47.8l4.2,3.8l5-6.1
		c6.6-8,9-7.8,12.7,0.3c5.2,12.9,2.4,27-6.3,31C3460.6,4422.6,3458.1,4422.2,3451.5,4416.8z"/>
	<path class="st10" d="M1885.7,4411.2c-6.6-7.1-12.2-22.4-17.6-49.2c-2.4-12.5-4.7-23.5-4.9-24.2c-0.3-0.9-3.8,4.9-8,13.2
		c-9.7,19.3-28.2,38.4-41.4,42.8c-5,1.9-10.4,3.1-11.7,3.1c-2.8,0-5.9-9.7-7.3-24.5l-1.2-10.4l12-7c6.6-4,15.3-7.8,19.5-8.5
		c6.6-1.4,8.7-3.1,15.5-13.6c4.3-6.4,10.6-19.5,14.1-28.7c3.3-9.2,7.1-16.5,8.2-16.2c3.3,1.2,8.7,14.4,10.4,26.3
		c0.9,6.6,2.6,22.3,3.7,35c1.4,16.7,3,25.1,5.7,30.6c5,9.7,6.8,10.6,12.7,6.1c2.8-2.3,5.9-4,6.8-4c2.3,0,8.9,15,9,20
		c0,5-7.1,11.7-14.6,13.2C1891.6,4416.1,1889.7,4415.4,1885.7,4411.2z"/>
	<path class="st10" d="M3913.8,4403.8c-5.2-2.3-20.5-7.3-33.9-11.3c-13.6-3.8-39-11.5-56.7-17c-17.6-5.6-51.1-15.3-74.6-21.7
		c-94.3-25.7-193.5-55.3-299.6-89.8c-129.8-41.9-139-45.6-151.2-60c-11.7-13.6-16.2-37.1-8.5-44.7c8-8,36.4-17.6,43.7-14.8
		c1.6,0.5,4,5.7,5.2,11.1c2.4,9.4,2.4,10.1-1.6,13.2c-2.3,1.9-8.9,4.3-15,5.6c-12.4,2.6-21.7,7-20.2,9.4c1.4,2.3,30.4,15.8,52,24.5
		c27.7,11,64.5,22.4,140.7,44.2c38.6,10.8,89.1,26.1,112.4,33.7c46.3,15.5,74.3,23.8,135.2,40c21.9,5.9,54.3,15.5,72.2,21.7
		c17.9,6.1,43.8,13.6,57.6,16.9c46.3,10.4,56.4,16.5,56.4,34.4C3927.9,4409.9,3927.3,4410,3913.8,4403.8z"/>
	<path class="st10" d="M1660.4,4400.1c-12-5.6-20.9-16-24.5-29.1c-4.2-14.1-0.9-23.5,10.6-32c4.7-3.1,11-8.2,13.9-10.6l5.6-4.5
		l-19.7-19.7c-22.1-22.1-43-39.5-95.3-79.7c-19.7-15.1-39.7-30.6-44.4-34.6c-8.2-7-8.4-7.1-2.8-5.9c8,1.9,34.4,14.6,47.7,23
		c18.1,11.7,66.5,48.5,84.7,64.9c9.4,8.4,22.1,21.2,28.4,28.5s12,13.4,12.5,13.4c0.7,0,4-2.3,7.1-4.9s7-4.5,8.4-4
		c1.4,0.3,3.8,5.9,5.7,12c3,9.7,3,11.1,0.3,12.5c-6.4,3.7-8.5,12.2-8.5,33.9c-0.2,15-1.2,24.2-3.3,30.8c-3,8.7-3.8,9.4-9.7,10.1
		C1672.7,4404.5,1666.3,4403.1,1660.4,4400.1z M1671.7,4372.1c3-4.3,4.2-16.7,1.7-16.7c-3.1,0-13.9,7.8-15.1,10.8
		c-0.7,1.9,0.3,4.3,3,6.6C1667,4377.3,1668.4,4377.3,1671.7,4372.1z"/>
	<path class="st11" d="M3283.1,4332.8l-8.9,8v22.1c0,24.4-2.3,32.9-10.3,37.9c-12.2,8-34.3-7.8-42.6-30.3
		c-7.8-20.4-4.3-27.8,19.7-43.1c5-3.3,9.6-7.7,10.1-9.4c1.6-7.8-41.6-52.4-108.4-112.4l-39.7-35.7l-5,24.7
		c-12,57.1-15.7,84.4-11.5,84.4c0.5,0,5.7-4.2,11.1-9.4c12-11.3,16.9-12.5,15-3.1c-5.9,26.6-37.8,102.5-52.5,124.6
		c-6.1,9.2-8.9,11.1-8.9,6.4c0-1.4-3.3-10.1-7.8-19.1c-10.3-21.9-11.5-34.3-4.9-47.3c6.3-12.7,8.2-22.4,11.7-61.4
		c2.8-31.8,6.1-52.5,27.5-185.3c12.9-79.9,24.5-159.4,23.7-160.4c-1.6-1.6-88.2,3.7-112.6,6.6c-34.3,4.2-46.1,6.8-45.9,10.3
		c0.2,1.6,1.7,10.4,3.3,19.5c9.2,51.1,5.9,90.3-17.7,202.7c-13.4,64-20.4,110.6-16.7,110.6c1.2,0,6.3-3.3,11.3-7.7
		c16.5-13,18.1-9.6,8.9,17.4c-9.7,28.9-49.1,116.7-53.8,120.6c-1.9,0.3-4.3-3.5-10.3-17.6c-4.2-10.3-9-23.5-11-29.2l-3.1-10.8
		l4.9-11.1c4-8.7,5.6-16.2,7-34.6c2.4-28.7,9-67.2,28.4-165.8c12.7-64,24.9-133.8,29.1-163.4c0.7-6.8,0.5-7.1-6.1-9
		c-3.8-0.9-23.7-3.7-43.8-5.7c-71.5-7.3-79.2-9.2-91.2-21.2c-8.9-8.9-19.8-31-21.6-43.3l-1.2-8.7l11,1.7c16.5,2.4,76.4,2.3,98.1-0.2
		c10.4-1.4,26.1-4,35-6.1c8.9-2.3,29.2-5.2,45.4-7.1l29.2-3.1l-16-10.6c-28.4-18.6-62.5-33.4-96-41.6c-19.1-4.5-51.7-5.7-64-1.9
		c-20.5,6.1-36.2,24-40,46.1c-1.2,6.3-2.4,12-3,12.5c-2.6,2.6-15.3-13.4-22.1-28c-9.7-21.2-15.1-27.8-26.8-33.2
		c-11.3-5.2-28.5-6.1-37.1-1.7c-13.4,7-17,18.6-12.4,39.7c1.7,7.8,2.8,15.5,2.4,17.2c-0.9,5-15.3-7.3-33.9-29.9
		c-26.3-31.5-39.7-40.2-70.5-45.1c-22.6-3.7-41.9,0.5-49.9,10.6c-4.5,5.7-4.5,4.5-0.9,31c0.5,3.7,0,7.8-0.9,9.2
		c-3,4.5-14.6-0.3-29.2-12.2c-31.5-25.7-70.6-37.6-122.1-37.6c-35.1,0-48,2.6-72,15.1c-21.2,11-33.9,22.3-40.9,36.4
		c-4.5,9.2-5.2,13-5,26.4c0,8.5-0.3,15.5-0.7,15.5c-3.1,0-17.2-12.7-43.8-39.8c-27.5-28-32.9-32.5-44.4-37.9
		c-12.4-5.9-14.6-6.3-32.2-6.1c-21.4,0-25.9,1.7-46.8,17c-20.2,15-27.7,30.6-36.4,77.2c-6.1,32.5-15.3,69.6-25.7,103.2
		c-8,26.3-23.8,69.6-26.3,72.2c-2.1,2.3-11.1-9.4-16.9-21.4c-4.3-9-4.9-12.9-4.9-30.3c0-18.1,0.7-22.6,9.7-54.8
		c15.7-55.3,21.4-87,21.4-121.4v-20l-5.9-5c-9.4-7.8-26.6-15.7-39.7-18.1c-23.1-4.2-43.1,4-54.6,22.1c-6.6,10.4-9.4,21.9-11,44.4
		l-1.4,17.2l-11.7-8c-8-5.2-17.6-14.8-28.9-28.5c-9.4-11.3-21.9-24.4-27.7-28.7c-22.1-17.4-46.3-25.6-70.6-23.5
		c-23,1.9-36.9,11.5-65.1,44.2c-24.5,28.7-28.7,31.5-41.2,30.3c-15.7-1.9-32.4-11-48.2-26.3c-24-23.3-30.8-35.1-47.8-83.7
		c-13.7-39.5-23-57.6-36.5-72.2c-13-13.7-17-14.8-32.9-7.3c-12.5,5.9-24.9,19-32.5,33.7c-8.7,17.6-11,26.6-11.8,63.1
		c-2.4-3.7-4.7-7.3-7.1-11c-1-1.6-5.7-10.4-9.2-15.1c0.5-4,2.6-13.9,5.6-24.5c11.1-44.7,32.2-76,57.2-85.6c18.1-6.8,28.2-4.9,43,8.4
		c10.3,9.2,16.2,21.7,29.2,59.5c15.7,45.8,22.4,59,38.6,73.9c13.4,12.9,32.2,23.5,44.5,25.6c8.9,1.6,15.7-4,34.6-27.5
		c27.5-33.7,39.1-42.1,63.8-45.6c39.7-5.7,81.6,14.8,107,52.2c9.7,14.8,16,21.4,22.6,23.7c3.1,1.4,4.2,0.2,6.8-6.6
		c7.8-19.8,19.7-41.4,26.8-48.5c19.8-19.8,50.5-22.3,81.8-6.4c16.5,8.4,24.5,18.4,31.3,39c3.1,9.7,8,20.5,10.4,24l4.5,6.1l6.6-14.1
		c19-39.7,40.4-58.6,72.5-63.5c16.9-2.6,32.5-0.2,49.8,8c10.1,4.7,17,10.6,38.8,32.5c35.7,35.7,32.4,33.7,36.9,22.6
		c26.8-62.5,113.8-92.2,188.4-64.9c6.1,2.3,22.4,10.3,36.5,17.7c31.1,17,33.9,17.9,33.9,12c0-6.4,10.4-23.3,17.6-28.7
		c31-23.7,89.8-5,126.8,39.8l8.4,10.1l2.1-8.9c5.2-20.9,14.4-30.6,33.2-35.5c27.5-7,35.3-3,68.5,35.8l8,9.4l3.1-4.7
		c8.2-11.7,24.5-26.8,33.7-31.1c29.1-13.7,76-7,126.3,18.3c6.1,3,29.1,16.5,51.1,29.7c34.4,20.7,56.4,32,71.3,36.7
		c2.6,1.6,4.3,1.7,5.6,2.3c9.6,3.7,2.3,1.2,11.8,4.3c0.3,0.2-0.3,0,4.2,0.5l11.1,2.3c11,2.4,41.4,6.8,46.8,6.8
		c0.5,0,1.7-15.8,2.4-35.3c1.9-55.1,3.1-60.9,11.1-52c3.1,3.7,11.3,41.4,15,69.8c2.4,19.7,0.2,17.7,25.9,21.6
		c15.1,2.3,16,2.8,21.2,9.7c8.2,11.1,13.4,29.1,12.7,43.3l-0.5,12l-11.3-0.2c-6.3,0-19.5-0.7-29.4-1.7l-18.3-1.6l-1.2,7.3
		c-0.5,4-3.3,25.4-6.1,47.1c-2.6,21.9-9.4,71.7-15,110.6c-5.6,39-10.1,70.8-9.7,71c4.7,2.8,41.4,29.9,56.2,41.2
		c26.6,20.5,69.9,63.1,89.2,87.3c8.5,10.8,16.2,19.7,17,19.7c0.7,0,4.3-1.7,8-4l6.6-4l3.8,6.1c1.9,3.3,4.2,9,4.9,12.9
		C3291.7,4324.3,3291,4325.3,3283.1,4332.8z M3261.7,4346.7c-1.2-1.2-16.5,9.2-20,13.4c-2.1,2.6-2.1,4,0,7.8
		c3.7,6.6,10.6,6.1,15-1.2C3260.5,4360.6,3263.5,4348.4,3261.7,4346.7z"/>
	<path class="st12" d="M4070.3,3959.5c-2.6,43.3-13,112.4-23.8,159.2c-3.1,13.7-7.8,37.1-10.4,51.7c-2.4,14.6-6.6,37.6-9.2,51
		c-2.4,13.6-4.7,30.8-4.7,38.6v13.9l11.1-10.6c25.6-24.4,23.5-10.3-10.3,70.5c-13.9,33.7-23.5,52.7-31,62.1l-3.7,4.7l-2.6-6.6
		c-1.6-3.3-6.1-15.8-9.7-27.7l-7-21.2l3.8-12.2c2.1-6.8,5.6-26.3,7.7-43.5c4.9-38.3,18.3-115.3,36.2-207.4
		c16-83,23.5-125.8,28.4-163.5l3.7-28.4l-5-5.2c-11.5-12.4-40.2-28.7-59.8-34.4c-16-4.7-36.4-3.1-50.5,3.8
		c-6.1,2.8-12.4,6.8-13.9,8.7c-2.8,3.1-2.1,4.2,14.6,15.1c16.9,11,53.1,30.1,57.6,30.1c4.9,0,19.7,37.6,19.7,50.1
		c0,5.6-1.2,6.6-10.8,12c-65.1,33.9-177.4,32.5-252.9-3.3l-15.1-7.3l-8-17.6c-9.2-20.5-12.7-32.5-11.1-38.6c0.9-3.8,1.7-4.2,7.8-2.4
		c3.7,1.2,11.1,4,16.7,6.4c5.2,2.6,13.2,4.7,17.6,4.7c16.9,0,44.2-12.2,69.6-30.8c15.1-11.1,15.5-10.3-9.2-22.1
		c-33.7-15.8-63.8-23.3-96.4-23.3c-28.5,0-40.9,4-54.3,17.7c-10.4,10.6-14.8,22.6-14.8,40.9v12.2l-5.6-2.8
		c-7.3-4-13.6-11.7-26.1-32.9c-13-22.1-20.9-31-32.2-36.5c-17.7-8.5-44-4-58.6,10.1c-9,8.9-10.8,15.8-7.1,29.4
		c3.7,14.6,3.8,26.6,0,28c-6.4,2.6-22.4-12-42.3-38.6c-12.5-16.5-25.6-28-39.7-35.3c-30.8-15.5-66.1-17.4-91.9-4.7
		c-12.4,5.9-31.3,25.1-38.4,38.8c-10.1,19.5-28.9,33.1-45.6,33.1c-23.8,0-55.1-28.5-84.7-76.5c-7.3-12.2-10.6-20-15.5-38.8
		c-8-30.8-19.5-54.6-32.9-68.2c-5.6-5.9-13-11.5-16.5-13c-5.7-2.3-7-2.1-15,2.1c-20.5,11-39,37.9-46.3,68
		c-4.3,17.7-7.1,51.5-5.9,66.3l0.7,6.6c-4-1.2-7.8-2.1-8.5-2.4c-0.5-0.2-3-0.9-5.7-1.7c0.2-3.7,0-10.3-0.5-22.1
		c-1.4-32.9,1.2-51.8,10.1-78.8c12-35.5,29.9-59.5,53.9-71.7c14.6-7.1,21.2-7.3,32.2-0.3c16.2,10.3,24.7,24.4,37.8,61.9
		c4.2,12,10.3,27,13.4,33.4c22.1,43.7,62.5,78.8,84.9,73.9c8.9-2.1,16.7-10.1,31-32.2c7.3-11.3,16.9-23.7,20.9-27.3
		c23.5-20.4,63.2-26.3,99-14.1c24.5,8.4,40.7,20,53.6,39.3c9,13.6,13.7,19.1,20.9,24l5,3.8l2.3-8.2c3.1-12.7,8.9-22.1,19.1-32.9
		c11.1-12,21.2-17.2,35.7-19c23.8-2.8,41.1,8.2,63.2,39.7c13.7,19.8,19.3,25.7,20.5,21.7c0.3-1.6,1.7-6.1,2.8-10.3
		c7.7-28.5,37.1-47.1,73.8-46.6c28.9,0.2,55.5,9.4,100.9,35c13.7,8,32.4,17.7,41.1,21.9c18.3,8.9,15.3,9.7,39.7-12.5
		c17.9-16.5,24.7-20.5,39.8-24.4c19.7-5,46.3-1.2,68.9,10.3c27.7,13.7,49.4,31.3,54.6,43.8
		C4064.9,3865.2,4072.4,3928.3,4070.3,3959.5z M3894.3,3903.6c-4.3-3-8.7-5.6-9.6-5.6c-2.6,0-28.5,28.2-28.5,31
		c0,1.6,1.6,3.1,3.3,3.7c8.4,2.3,33.7,1,50.6-2.4c10.3-2.1,18.6-4.2,19.3-4.5c0.3-0.3-5.6-4.3-13.2-8.7
		C3908.5,3912.5,3898.8,3906.4,3894.3,3903.6z"/>
	<path class="st11" d="M1405.2,3755.4c2.6,4,5.4,8.2,8,12.2c1.2,1.7,6.4,11.7,9.9,16c-0.2,5-0.2,10.3-0.3,16.4
		c-0.7,49.4-0.7,50.3-5.6,59.5c-2.6,5-8.5,12.9-13,17.2c-6.6,6.4-10.3,8.4-20,10.3c-19,3.7-53.2-0.7-68.9-8.9c-5-2.6-5-2.6-7.3,5.2
		c-12.2,45.4-27.7,122.1-32.9,162.5l-3,24.2l26.1,26.1c14.4,14.1,31.5,32.5,38.4,40.7c6.6,8,13,14.6,14.4,14.6c1.2,0,3.7-1.7,5.7-4
		c8-8.9,14.1-8.7,18.6,0.3c5.2,10.3,3.8,15.1-7.8,25.6c-8.5,7.7-10.8,10.8-10.6,15.1c0,3,0.2,10.3,0.3,15.8c0.2,8-0.9,12.7-5,20.9
		c-6.1,11.5-9.4,13-20.4,9.4c-15-4.9-23.7-18.6-26.4-41.8c-1.4-10.3-1.2-10.6,5.2-16c3.7-3,11-7.8,16.2-10.8l9.7-5l-6.3-8.9
		c-14.1-20-58.3-62.6-62.1-60c-0.9,0.7-1.7,3.7-1.7,6.8c0,3-3,23.1-6.8,44.5c-11.3,67-12.2,71.3-12.2,80c0,14.4,2.4,15.5,11.7,5.2
		c4.5-5,10.6-9.4,13.6-10.3c6.6-1.6,7.3-4.9-9,39c-23.3,62.1-35.1,91.3-41.1,100.6l-6.1,9.4l-4.2-10.3c-2.4-5.6-7-15.5-10.3-22.3
		c-6.8-14.1-7.3-22.6-2.3-35.3c4-10.4,8.2-34.3,12.5-74.3c3.7-32,10.3-81.8,17.2-128.2l4.9-32.7l-5.2-5.9
		c-3-3.1-18.1-16.2-33.7-29.1c-40.2-33.1-41.8-34.4-40.2-35.8c2.8-2.6,29.7,12.7,55.7,31.5l26.1,19l1.4-5.2
		c0.7-2.8,3.7-19.7,6.3-37.4c2.8-17.6,9.6-55.1,15.3-83.3c5.7-28.2,10.3-52.9,10.3-54.8c0-6.1-35.7-26.1-77.4-43.8
		c-29.7-12.5-42.3-15.7-65.9-16.9c-20.5-1.2-21.6-0.9-20,2.4c4.5,11.1,10.4,30.4,12.5,40.9c3.1,17,2.8,49.1-0.9,64.9
		c-4,16.9-16.7,43-23.1,48c-7,5.6-12.5,4.9-25.9-2.1c-30.1-16-54.5-50.8-66.8-95.3c-4.7-17.2-5.7-46.4-1.9-60.9
		c1.7-6.6,3-12.4,3-12.7c0-1.9-23.8-5.2-36.9-5.2c-25.9,0-49.2,9-63.5,24.7C888,3823.8,880,3848,864,3928.5
		c-11.7,58.8-17.4,80.7-26.8,104c-3,7.8-9.4,25.1-13.9,38.4c-8.4,24.4-18.4,46.6-26.1,57.1c-2.1,3-6.1,9.7-8.7,15
		c-2.6,5.2-5.7,9.7-6.8,10.1c-2.6,0.9-13.6-27.7-15.7-41.1c-1.4-7.7-0.9-12.4,0.7-17c5.2-13.9,29.4-80.2,44-120
		c25.7-70.6,30.6-95.9,22.3-113.4c-4.3-9-52.4-57.2-74.5-74.6c-8.7-6.8-26.4-19-39.7-27c-45.1-27.7-68.2-37.6-94.5-40.2
		c-12.4-1.2-14.6-0.7-23.5,3.7c-11,5.6-16.7,12.5-22.3,27.5c-4.9,13-7.1,34.4-3.7,34.4c5.7,0,26.4,11.5,35,19.3
		c4.9,4.5,13.9,15,20.2,23.3c12.4,16.5,23.8,29.2,26.3,29.2c0.7,0,1.6-1.2,1.6-2.4c0-5.2,11.5-18.3,21-23.8
		c32-18.1,71.7-7.7,84.5,22.4c14.6,34.3,11.1,92.4-6.6,113.6c-4.5,5.2-4.9,5.6-7.1,2.3c-4.2-6.1-10.8-25.7-12.4-36.7
		c-1.7-11.5,0.2-25.6,4.7-34.4c1.6-3.1,2.8-6.3,2.8-7.1c0-2.8-12.4-5.6-25.4-5.6c-15.7,0-26.3,4.2-33.7,13c-7.1,8.5-8,15.8-3.3,33.2
		c4.7,17.6,4.9,21.7,1.2,21.7c-6.3,0-16-12.2-27.3-33.7c-16.5-31.5-35.8-52.7-58.5-63.8c-20-9.7-49.9-2.4-62.1,15.1
		c-4.3,6.4-5.2,10.1-6.3,23.8l-0.9,16.2l-5.9,0.5c-5,0.5-7.3-1.2-19-13.9c-23.7-26.4-51-45.2-77.2-52.7c-8-2.4-15.7-3-28.5-2.4
		c-15.8,0.5-18.6,1.4-33.2,8.7c-24,12-35.8,22.6-50.3,44.5c-23.1,35.8-34.4,46.4-49.4,46.4c-24.9,0-64.5-33.4-81.4-69.1
		c-4-8.4-12.4-30.8-18.4-50.1c-6.3-19.3-13.4-39.8-16.2-45.9c-10.3-23.5-28.2-43-39.1-43c-2.4,0-8.9,2.4-13.9,5.6
		c-31.3,17.9-45.8,56.7-49.4,132.2l-1.4,26.8h4.5c8,0,23,11.3,28.5,21.7c11.7,21.2,15.8,46.4,10.3,60.5c-1.6,3.7-3.1,6.6-3.8,6.6
		c-0.3,0-2.6-3.8-4.9-8.5c-5.2-10.8-12.5-16-22.3-16c-10.3,0-17.6,6.4-24.7,21.4c-14.4,29.2-12.5,60.9,8.5,139.5
		c14.4,54.6,19,79.2,13.9,79.2c-2.6,0-12.2-15-16.7-26.4c-5.6-13.9-25.7-91.7-31.5-121.6c-14.6-75-6.3-130.6,23.1-151.4
		c5.2-3.7,7.8-6.8,7.1-8.5c-5.9-19.8-5.9-76-0.2-105.3c6.1-30.3,18.4-58.3,33.7-75.5c16.9-19.1,48-24.4,67.3-11.5
		c8,5.2,21.6,32.9,33.4,67.5c12.2,34.8,16.9,45.9,26.6,61.8c15,24.2,43.3,45.9,59.5,45.9c10.1,0,16.9-6.6,29.4-28.2
		c13.6-23.3,37.9-48,55.7-56.7c31.8-15.5,66.3-15.5,99-0.3c8,3.8,19,12.2,35.7,27.5c31.1,28.5,30.4,28.2,32.9,16.2
		c1.2-5.2,4.2-13.6,6.6-18.6c5.6-10.6,23.1-27.3,32.4-30.6c3.7-1.4,6.6-3.1,6.6-4.3c0-0.9-1.4-9-3-17.9c-4.3-22.6-2.8-55.5,3-71
		c5.9-15.7,18.6-28,33.2-32.4c25.9-7.7,58.6,0,97.9,22.4c54.8,31.3,85.9,54.5,119.5,88.5c24.9,25.4,28.9,31.5,35,54.1
		c5.7,21.1,6.4,21.6,9,8c3.3-17.2,12.9-46.1,19.5-59.3c18.1-36.4,46.1-54.6,82.8-54.5c20,0,33.1,3.3,69.6,17.9l28.9,11.7l13.6-3.1
		c54.6-12.7,75.8-8.7,148.2,28.2c42.3,21.7,67.7,32.9,74.3,32.9c1.9,0,4-1.7,4.7-3.8c2.6-8.2,24-38.4,35-49.1
		c14.4-14.1,27.7-21.1,40.9-21.1c13.9,0,19.3,2.4,29.4,13.7C1401.7,3752.8,1403.9,3754.9,1405.2,3755.4z M1323.6,4199.7
		c-0.3,0.2,0.2,2.3,1.6,4.3c2.6,5.2,6.4,5.2,11.3-0.2c3.3-3.8,5.2-12.9,2.6-12.9C1338.2,4191,1326.5,4197.4,1323.6,4199.7z
		 M1086.6,3825.2c-16.9-15.8-33.7-16-51.5-0.7c-17.9,15.8-16.5,34.8,4,52.7c8,7,29.7,20.9,32.9,21.1c0.7-0.2,4.9-5.6,9.2-12.4
		c9.2-14.4,16.9-32,17-39.3C1098.3,3839.6,1094.5,3832.5,1086.6,3825.2z M1386.4,3796.1c-6.8,0-14.1,1.6-19.1,3.8
		c-7.8,3.3-25.1,19.3-25.1,23c0,2.6,26.8,1.7,37.2-1.4c10.8-3.1,15.1-8,16.9-18.6l1.2-6.8H1386.4L1386.4,3796.1z"/>
	<path class="st10" d="M2269.8,4392.5c-12-8.9-24.7-24.2-31.8-37.1c-3-5.9-5.7-11.3-5.7-12.2c0-0.9,16.9-0.7,37.6,0
		c35,1.4,49.4,0.5,49.4-2.4c0-0.7-18.6-10.6-41.6-21.7c-31.3-15.5-42.6-21.9-45.8-26.3l-4.2-5.9l6.6,1.4
		c27.5,5.6,58.1,10.6,63.8,10.6s10.6,2.6,25.7,13.4c35.1,24.9,52.7,46.8,55.1,68.4l0.9,8.5l-9,2.8c-15.5,5-32.5,7-63.3,7h-29.4
		L2269.8,4392.5z"/>
	<path class="st10" d="M4098,4394.7c-2.1-2.8-7-14.1-11-25.4c-6.4-18.4-6.8-21.2-4.9-28c5.2-18.1,9.7-44.2,14.1-81.2
		c2.6-21.7,7.8-56.4,11.3-76.5c20.4-115.2,46.4-319.1,46.4-364.1c0-19,3-42.3,5.6-42.3c3.7,0,10.3,10.3,13.4,20.2
		c13.4,43.3,9.2,133.4-12.4,271.9c-4.7,30.3-11.5,73.2-15.1,95.5c-8,50.8-15,107.7-13.4,109.3c0.7,0.5,4.7-2.4,9.2-6.6
		c8.9-8.5,15.7-12.7,17.2-10.4c1.4,2.3-9.6,33.7-24.9,72.2c-7.1,18.1-15.5,39.3-18.3,46.8c-2.8,7.8-7,16-9.2,18.6l-4.2,4.9
		L4098,4394.7z"/>
	<path class="st10" d="M2093.4,4362.4c-215.7-71.8-344.5-118.1-432.8-155.5c-20.9-8.9-45.1-19.1-53.9-22.6
		c-34.3-14.1-44.4-22.1-49.9-38.6c-4-12.7-3.8-20,0.7-28.9c5.6-10.8,16.9-17.7,29.7-17.9c4.9-0.2,6.3,0.7,8,5.7
		c2.8,8.2,2.6,17.7-0.2,20c-1.4,1.2-7,3.3-12.4,5c-5.6,1.9-10.6,4.2-11.1,5.2c-3.8,6.1,37.8,27.3,99.5,50.5
		c24.4,9.2,61.9,24,83.3,32.9c41.2,17,98.1,37.2,216.2,76.9c39.5,13.2,76.5,26.3,82.3,28.9c5.7,2.4,14.8,5.6,19.8,6.6
		c13,2.8,111.9,33.9,118.3,37.4c4.2,2.1,5.6,4.3,6.4,11c1.4,7.8-1.2,16.5-4.3,16C2192.4,4395.1,2147.5,4380.3,2093.4,4362.4z"/>
	<path class="st10" d="M878,4377c-24.9-7.8-108.4-32.2-185.3-54.5c-195.2-56.4-253.1-74.1-343.1-104.7
		c-42.3-14.4-44.7-15.5-51.8-23.3c-19.8-21.9-22.3-48.4-5.2-57.6c6.8-3.8,23.3-8.2,30.6-8.2c4.3,0,8.2,11,7.1,20.5
		c-0.5,6.4-0.9,6.6-13.4,9.6c-7,1.7-14.1,4.5-15.8,6.3c-2.6,2.6-2.1,3.3,6.3,8.7c10.8,6.6,14.8,8.2,100,35.8
		c95.2,31,138.3,44,274,82.6c135.7,38.8,156,44.7,206.3,61.6l34.4,11.5l4.2,10.1c4,10.3,3.8,16-0.5,15.7
		C924.5,4391.1,902.9,4384.6,878,4377z"/>
	<path class="st10" d="M345.9,4369.3c-20.9-39.5-21.7-42.1-21.7-57.2V4298l7.1-1.2c3.8-0.5,7.7-1.6,8.2-2.1
		c1.7-1.9-24.4-24.4-55-47.5c-26.1-19.5-113.8-78.8-136-92c-8.4-4.9-17.9-13-17.9-15.3c0-4.3,85.4,40,123.9,64
		c35.7,22.3,81.1,57.4,99,76.7l4.5,4.7l10.6-5.6c24.7-12.5,36.7-8.5,40.7,13.4c3,16.7-5.6,36.9-29.1,69.4
		c-13.4,18.3-16.2,21.2-21.1,21.2C354.4,4383.9,353,4382.2,345.9,4369.3z M360,4326.9c2.3-9,1.2-10.3-6.4-6.3
		c-7,3.7-8.9,7.7-5.6,11.5C352.1,4337.1,358.1,4334.5,360,4326.9z M382.2,4318.3c3.3-4,9.6-15.7,8.7-16.7c-0.3-0.3-4.3,1.4-9,3.7
		c-8.9,4.5-11.3,8.9-7.7,13.4C377.4,4322.2,378.8,4322.2,382.2,4318.3z"/>
	<path class="st10" d="M1123.9,4359.6c-19.7-8.2-56.4-22.1-81.2-31.3c-144.9-53.1-136.9-49.8-140-57.4c-1.7-3.8-3.3-10.1-4-13.9
		l-1.2-7l28.2,9.6c40.9,13.9,104.6,38.3,173.6,65.6c45.4,17.9,60.9,24.9,63.2,28.4c4,6.1,4.2,20,0.3,20.5
		C1160.9,4374,1143.7,4367.6,1123.9,4359.6z"/>
	<path class="st10" d="M196.1,4362.9c-6.6-7.7-13.4-25.9-18.3-49.1c-1.4-5.7-3-13.7-4.2-17.9l-1.9-7.7l-6.6,17
		c-10.3,25.7-18.4,36.5-33.7,43.7c-13.6,6.4-19.1,6.1-21.6-1.6c-3.3-10.8-4.3-21.2-2.3-26.4c2.3-6.1,12.9-12,26.6-15
		c8.7-1.9,9.7-2.8,13.9-10.8c2.4-4.9,6.8-16,9.6-24.7s7.7-18.3,10.4-21.6l5.2-5.9l3.7,7.3c4.9,9.6,5.6,12.2,9,40.7
		c3.1,26.1,8.9,41.1,17,45.4c4.2,2.3,5.2,2.1,9.2-1.7l4.5-4.2l4.2,5.2c5.7,7.1,4.7,23-1.9,29.9
		C212.3,4373.5,203.9,4372.5,196.1,4362.9z"/>
	<path class="st10" d="M1403.9,4365.5c-2.3-3.7-17.9-43.7-19.1-48.2c-0.7-3.7,0.3-8.9,3.7-16.9c3.1-7.7,6.3-21.1,8.7-38.4
		c2.1-14.6,11.3-64.5,20.5-110.8c18.3-91.5,45.9-252.1,53.9-313.8c2.6-21.4,5.9-52.4,7.1-69.1l2.3-30.1l5.2,5.6
		c2.8,3,6.8,10.8,8.9,17c16.5,50.8,6.6,157.1-33.7,362c-12.5,63.1-19.1,106.5-16.7,108.9c1.6,1.6,7.8-2.1,17.7-11
		c6.4-5.6,9.2-7,9.6-5c0.9,4.9-25.1,69.8-39.7,99c-7.8,15.7-16.2,33.7-18.6,40.2C1409.5,4365.7,1406.2,4369.3,1403.9,4365.5z"/>
	<path class="st10" d="M3919.3,4310.7c-45.9-16.7-119-40.4-207-67.5c-143.5-44-205.1-65.1-264.6-90.6c-25.9-11-27.5-12.5-29.4-28.5
		l-1.4-8.7l11.1,4.9c57.4,25.6,132.2,51,302.7,102.8c108.9,33.2,202.3,63.3,206,66.3c3,2.6,5,13.4,3.3,18.4
		C3937.9,4315.2,3933.6,4315.9,3919.3,4310.7z"/>
	<path class="st10" d="M2766.1,4293.3c-12-7.3-25.9-30.1-25.9-42.3c0-8.5,4.5-13.9,19.5-23.5c5.7-3.8,11-7.7,11.7-8.7
		c2.6-4.2-25.6-35-55.7-60.9c-11.1-9.6-32.7-27.3-48.2-39c-43.7-33.7-81.9-64.5-81.1-65.4c1.9-1.7,16.5,5.9,36.4,19.1
		c11.5,7.7,29.4,19.5,40,26.3c49.4,32.4,98.1,77.1,122.8,112.6c0.3,0.3,4-1.9,8.2-5.2c4.7-3.8,9.2-5.9,11.7-5.6
		c5.2,0.7,9,7.8,9,16.9c0,5.7-1.4,8.2-6.6,12.9c-3.8,3.1-7.7,5.9-8.5,5.9c-4.7,0-7.7,11.5-7.7,30.8c0,17-0.5,20.4-4,24.7
		C2783.2,4298,2774.6,4298.7,2766.1,4293.3z M2774.6,4263.7c3.7-4.5,5.6-13.9,3-13.9c-2.4,0-11.7,5.7-14.1,8.5
		c-2.1,2.4-1.9,3.7,0.9,6.6C2768.9,4269.8,2769.9,4269.6,2774.6,4263.7z"/>
	<path class="st10" d="M786.4,4280.6c-3.3-8.5-2.1-21.1,3.8-36.7c7.1-19.5,7.7-30.8,0.9-35.1c-2.4-1.7-8-3.3-12.2-4
		c-6.4-0.9-7.8-0.3-10.8,4.2s-3,6.4-1.2,18.1c4.2,24.2,1.7,37.6-6.8,37.6c-8.9,0-14.6-10.1-18.1-32.4c-1.2-6.3-0.7-7,3.7-8.2
		c4.5-1.2,4.7-1.9,4.7-13.9c0.2-16.9,4.7-26.8,14.1-31.3c12-5.7,29.4-0.5,41.4,12l5.6,5.7l6.3-5.6c24-21,51.5-1.9,44.2,30.8
		c-2.1,9.7-27.8,63.7-30.3,63.7c-2.8,0-6.1-16.9-4.7-24.9c0.7-4.3,5-16,9.6-25.9c4.5-9.6,8.4-18.4,8.4-19.3c0-3-10.3-1.7-16.5,2.1
		c-8.5,5-11.3,10.3-19.7,35.3c-4.7,14.4-9,23.8-12.5,27.5C790.2,4286.9,788.6,4286.9,786.4,4280.6z"/>
	<path class="st10" d="M2472.8,4213.4c-8.2-12-14.1-24.5-22.6-47.8c-4.2-11.3-12.4-32.4-17.9-46.3c-12.5-31-15.8-43.8-18.4-71.3
		c-3.7-33.7,2.4-67.3,14.6-81.6c5.7-6.8,15.5-11.5,23.8-11.5c9.2,0,24.5,8,31.5,16.2c12.7,15.3,24.7,49.2,24.7,69.4v9.4l-4.7-4.3
		c-2.6-2.4-7.1-8.9-10.3-14.4c-7.7-13.2-13.7-17.7-24.4-17.7c-10.8,0-19.1,6.1-25.1,18.3c-4,8-4.5,11.7-4.5,30.8
		c0.2,27,3.1,39.3,23.7,92.6c13.7,36.5,21.7,62.8,19.3,65.1C2479.9,4222.5,2478,4221.1,2472.8,4213.4z"/>
	<path class="st10" d="M691.9,4207.7c-30.6-12.4-76.2-27.5-151.2-49.9c-119.3-35.8-196.9-63.3-212.6-75.3
		c-7.3-5.7-12.4-15.5-12.4-24.5v-6.6l14.8,6.8c45.9,21.6,101.4,41.1,231.9,81.8c64.9,20.2,121.8,40,130.6,45.6s19,24.2,14.6,26.8
		C706.7,4212.9,699.6,4210.8,691.9,4207.7z"/>
	<path class="st10" d="M1872.1,4147.2c-11.1-17-14.4-23.5-16.7-33.7c-0.9-4.3,0.2-5.7,8.9-11.1c25.9-16.5,40-24.5,43.1-24.5
		c6.6,0,20.9,28.2,23.3,46.3l1.4,9.4l-23.1,15.1c-12.7,8.4-23.7,15.3-24.2,15.7C1883.9,4164.4,1878.4,4156.7,1872.1,4147.2z"/>
	<path class="st10" d="M225.5,4116.5c-3-3.3-9-12.7-13.4-20.5c-4.3-7.8-8.7-15-9.7-15.5c-1.2-0.7-13.6,6.4-28,15.8
		c-29.9,19.7-26.6,19.8-41.6-2.6c-10.4-15.5-17.9-35.1-13.9-36.5c1.4-0.3,10.6-7.7,20.4-15.7c10.1-8.4,20.5-16.2,23.5-17.7
		c12.7-6.6,19.7-2.1,29.1,18.6c7.7,16.2,12,20.9,19,19c2.8-0.5,13.2-7,23.3-14.1s19.7-13,21.6-13c5.2,0,30.1,42.1,30.1,51.5
		c0,3.3-25.9,23.8-37.9,30.1C232.1,4123.5,231.4,4123.5,225.5,4116.5z"/>
	<path class="st10" d="M1061.1,4090.3c-3.1-3.3-9-11.1-13.4-17.4c-4.2-6.3-9.4-13.2-12.2-15.5l-4.3-4.2l-17.6,14.8
		c-23.8,19.8-25.7,21.1-30.4,15.1c-14.4-17-30.8-47.8-27.3-50.8c20.4-17.7,45.9-35.8,50.5-35.8c3.7,0,10.6,8.7,21.4,26.4
		c4.9,8.4,9.6,15.1,10.4,15.1c0.9,0,8.7-5.6,17.6-12.4c18.1-13.7,27.5-19.1,29.1-16.7c0.5,0.9,5,7.1,10.1,13.9
		c9,12.7,18.4,30.6,18.4,35.7c0,3-4,6.6-25.4,23C1067,4097.8,1067.7,4097.6,1061.1,4090.3z"/>
	<path class="st10" d="M3211.5,4091.1c0-1.2-6.6-9-15-17.7c-22.3-23.8-23.8-33.9-6.4-44c4.9-2.8,14.4-10.3,20.9-16.2
		c9.4-8.9,12.9-11,17.9-11c9.4,0,13.9,4.3,22.3,21.1c4.2,8.2,8.5,15,9.6,15c3.3,0,13.6-5.9,32.7-18.4l18.4-12.7l9.2,10.4
		c5,5.7,12,15.5,15,21.7c6.1,12.4,9,25.6,6.1,25.6c-0.9,0-11.3,6.4-23,14.1c-11.7,7.8-23.3,14.1-25.7,14.1c-3.3,0-7.1-4.2-17.9-19.8
		l-13.4-19.8l-14.1,11.7C3228.5,4081.4,3211.5,4093.6,3211.5,4091.1z"/>
	<path class="st10" d="M1619.7,4068c-6.6-9.4-13-18.3-13.9-19.8c-1.7-2.4-6.4,0.2-27.8,14.1c-14.1,9.4-26.4,17.2-27.5,17.2
		c-4.2,0-20.2-25.1-27-41.9c-3.8-9.4-4-11.1-1.7-13.9c4.9-5.9,52.9-37.1,55.5-35.8c3.3,1.4,13.2,14.8,19.1,26.1
		c2.4,4.9,5.2,9.4,6.4,10.1c3,1.9,21.2-7.7,35-17.9c6.4-4.9,12.7-9.4,13.6-10.1c1.2-0.7,6.8,6.1,12.9,15
		c15.8,24,19.5,36.4,12.9,44.4c-3.3,4.2-28.5,21.2-39.7,26.8l-5.9,3L1619.7,4068z"/>
	<path class="st10" d="M3603.9,4080c-1.6-1.9-8.4-11.7-15-21.7l-12.2-18.4l-25.4,18.1c-19.8,14.1-25.7,17.6-27.5,15.7
		c-5.6-5.9-27.5-40-28.4-44.4c-1.9-7.3,2.4-13.4,14.8-21.2c5.9-3.8,14.8-10.3,19.5-14.1c9.4-8.2,18.4-9.7,24.4-5
		c1.7,1.6,7,10.3,11.7,19.3c4.7,9.2,9.4,16.9,10.4,16.9s10.6-5.9,21.6-13c26.6-17.6,26.4-17.6,35.3-7.7
		c8.7,10.1,20.4,32.5,21.1,40.4c0.3,5-0.9,6.6-14.8,15.7c-8.4,5.6-19.1,12.9-23.8,16.5C3607.4,4082.8,3606.7,4083,3603.9,4080z"/>
	<path class="st10" d="M1758.1,3997.6c-1.4-1.7-3-6.8-3.3-11.5c-0.9-7,0.2-11,5.9-23c9-19.1,9.2-28.5,0.7-35.7
		c-4.9-4.2-7.3-4.9-13.4-4.2c-8,1.2-14.1,5.6-16.7,12.4c-1.4,3.1-0.7,6.8,2.3,13.2c5,11.5,5.6,28.9,0.7,38.8c-1.9,4-4,6.6-4.7,5.7
		c-4.2-4.2-9.7-29.7-10.8-47.3c-1.7-30.1,4.5-46.6,19.3-51.7c10.4-3.3,17.6-0.7,30.6,12l12,11.3l7.1-6.6c9-8.2,18.3-10.3,27.8-6.4
		c16,6.8,16.5,33.4,1.2,70.6c-3.1,7.7-7.7,16.5-9.7,19.7l-4.2,5.7l-2.8-5.2c-1.7-3-2.8-10.3-2.8-15.8c0-9.7,1.6-14.4,12.7-40.2
		l3-7.1l-5,1.4c-15.5,3.8-20.2,9.4-29.1,36.5C1771.5,3990.6,1762.5,4002.8,1758.1,3997.6z"/>
	<path class="st10" d="M491.7,3767.9c-2.1-5-4-12.5-4-16c0-6.3-0.5-6.8-5.2-6.8c-7.1,0-9.7,3.1-9.7,12.4c-0.2,4.2-1.2,9.4-2.4,12
		c-2.4,4.3-2.4,4.3-11-4.9c-4.5-4.9-11.5-13-15.5-17.9s-10.8-10.8-15.1-12.9c-7-3.8-9.4-4-24.9-2.6c-28.9,2.6-32.9,2.1-48.4-5.2
		c-17-8.2-28.9-16.7-60.2-43.7c-26.8-23.1-54.5-42.1-78.8-54.8c-15.3-8-28.9-18.1-28.9-21.9c0-1.7,27.3,5.9,47.8,13.2
		c20.4,7.7,37.6,17.9,58.5,35.5c40.7,34.6,53.6,43.3,72.2,48.5c9.2,2.8,13.2,2.8,25.1,1.2c28.9-4.3,37.1-2.4,53.2,12
		c5.2,4.7,10.6,8.7,11.7,8.7c0.9,0,5-2.1,8.9-4.7c19.3-13.2,41.9,4,41.9,31.5c0,10.8-5.6,26.1-9.2,26.1
		C496.4,3777.1,493.9,3773,491.7,3767.9z"/>
	<path class="st10" d="M4058.7,3733.6c-20.2-30.1-26.4-50.8-21.2-70.1c5.7-20.5,27.7-21.1,39.1-0.5c4.3,7.3,6.1,23.5,2.6,23.5
		c-1.2,0-4.9-3.1-8.5-7c-7.8-8.4-11.1-7.7-16.9,3.3c-4.5,8.7-3,18.3,5.9,33.7c11.3,20.2,13.7,26.4,13.2,32.2
		C4072.4,3753.7,4071.2,3752.4,4058.7,3733.6z"/>
	<path class="st10" d="M1264.9,3743.9c-4.3-3.8-15-16.5-23.5-28.4c-8.5-11.8-19-24.2-23.1-27.5c-11-8-61.4-33.2-92.4-45.9
		c-14.4-6.1-53.6-21.4-86.8-34.3c-43.3-16.9-62.1-24.9-65.8-28.5l-1.2-2.8l4,0.3c3.1,0.5,9.7,2.4,17.2,5.6
		c9.2,3.7,23.7,6.8,46.6,10.3c40.4,6.1,59.5,11.3,80.7,22.4c8.9,4.7,26.6,13,39.7,18.3c46.3,19.3,68.4,32.9,81.1,49.9l6.6,8.7
		l5.7-3.8c19.3-12.5,31.5-14.6,39-6.6c9.7,10.6,6.1,48.7-6.3,62.6C1279.7,3752.4,1275.2,3752.4,1264.9,3743.9z M1273.1,3718.5
		c1.9-2.1,2.8-4.3,2.3-4.9c-1.2-1.2-14.6,6.3-14.6,8C1260.8,3724.1,1270.2,3721.8,1273.1,3718.5z"/>
	<path class="st10" d="M3835.8,3741.1c-5.2-3-12-8.4-14.6-11.7c-6.8-9-14.1-25.7-13-30.1c0.5-1.9,5.6-7.8,11-12.7l9.7-9l-8-9
		c-16.2-18.3-24.4-43.8-16.9-52.5c9.6-10.8,34.3-14.1,58.3-8c35.3,8.9,71,37.6,71,57.1c0,3.7-1.6,2.8-12.7-5.7
		c-35.8-27-80.7-35.8-98.8-19.5c-3.1,3-3.3,3.8-0.9,8.5c4,7.8,15.5,16.9,33.2,26.3c23.8,12.7,35.7,25.1,35.7,36.9v4.7l-13.6-6.4
		c-17.6-8.4-28.5-9.7-37.2-5.2c-3.7,1.9-7.8,5.2-9.2,7.7c-2.4,4-2.3,4.3,3.8,8.2c8.5,5,10.4,4.7,13.6-2.8c1.6-3.7,3.7-6.6,4.5-6.6
		c1.2,0,4.5,3,7.8,6.6c4.3,4.9,5.9,8.7,5.9,13.7C3865.6,3747.6,3853.7,3751.4,3835.8,3741.1z"/>
	<path class="st10" d="M3385.1,3711.2c-12.5-18.6-18.4-29.9-18.4-34.4c0-3.8,48.5-35.7,54.3-35.7c2.3,0,26.6,38.3,29.2,45.6
		c1.7,4.7,1.4,6.1-2.4,9.2c-3.7,3-46.4,29.2-50.8,31.1C3396.2,3727.2,3390.8,3720.1,3385.1,3711.2z"/>
	<path class="st10" d="M498.3,3691.9c-12.2-13.4-26.3-40.9-29.2-56.5c-3.3-17.7,2.1-32,14.4-37.2c6.1-2.4,7.7-2.4,15,0.3
		c11.1,4.2,16.5,12.2,17.4,25.9c1.2,14.1-0.9,14.4-11.3,1.7c-4.5-5.6-8.4-4.9-15,1.6c-9.6,9.6-7.7,19.7,8.7,42.8
		c4.3,6.3,9.4,13.9,11.1,17.4c3.1,6.6,4.2,15.7,1.4,15.7C509.6,3703.4,504.2,3698.2,498.3,3691.9z"/>
	<path class="st10" d="M2901.1,3695c-17.4-4.7-29.4-16.2-32.7-31c-1.4-6.1-1.2-6.4,3-5c2.4,0.7,7.8,3,11.7,5
		c4.2,2.1,13.2,4,22.1,4.7c15.7,1.2,19.5-0.5,10.4-4.7c-7.8-3.7-23.7-19.5-27.8-27.8c-5.6-10.4-9-24.5-9-35.3v-8.9l12.5-6.1
		c21.9-10.8,49.8-9.4,76.2,4c23.3,11.7,44.7,32.4,52.2,49.8c1.6,3.8,2.6,7,2.3,7s-8-4.7-16.7-10.6c-31.8-21.4-63.5-32.9-83-30.1
		c-8.5,1.4-26.4,9.2-26.4,12c0,4.5,10.6,15.5,20.5,21.2c33.2,19,36.5,22.4,35.7,40.7l-0.5,11.1l-10.4,3.3
		C2928.9,3698.2,2913.5,3698.5,2901.1,3695z"/>
	<path class="st10" d="M1771,3679.4c-5.7-7-13-15.8-16.5-19.8l-6.4-7l-6.8,3.3c-4,2.1-11.1,8.2-16.5,13.4
		c-5,5.6-12.9,12.4-16.9,15.3l-7.3,5.6l-14.4-15.3c-28-30.1-28-31.8-0.3-55c10.8-9,22.6-17.9,26.3-19.7c6.3-2.8,6.8-2.8,11.3,0.5
		c2.8,2.1,7.8,9.2,11.1,15.8c6.3,12.2,13.7,20.5,18.3,20.5c1.4,0,12.5-7.7,24.5-17c12.4-9.2,23.5-17,24.7-17c1.6,0,3,1.7,3.8,3.8
		c0.5,2.1,6.3,9.7,12.5,17.4c13.4,16.7,17,25.6,12.4,32.5c-1.7,2.6-8,8.2-13.7,12.4c-6.1,4.2-15.1,11-20.4,15.1
		c-5,4.3-10.8,7.8-12.5,7.8C1782.7,3692.1,1776.6,3686.3,1771,3679.4z"/>
	<path class="st10" d="M2830.1,3683.4c-0.9-1.9-3.3-8.5-5-14.4c-2.3-8.2-4-11-6.4-11c-4.7,0-7,3.3-8.5,12.4
		c-2.4,14.6-2.6,14.6-8.4,11.1c-2.8-1.7-9.2-8.5-14.1-15.1c-9.7-13.2-18.3-19.7-26.1-19.7c-2.8,0-9.6,2.1-15.1,4.7
		c-10.1,4.5-10.6,4.5-21.6,1.7c-17.7-4.5-47.5-20-68-35.8c-24.2-18.3-48.4-34.4-68.9-45.6c-14.8-8.2-15.7-8.9-11.7-10.8
		c6.8-3,29.4,1.7,44.5,9.2c7.3,3.7,24.2,14.6,37.4,24.5c30.4,22.3,44.2,29.2,60.7,30.6c10.1,0.9,14.1,0.3,22.1-3.1
		c14.4-6.1,23-4.3,39.7,8.4l13.4,10.3l4.3-4.5c9.4-9.4,20.4-8.2,32.4,3.7c13,13,15.3,31,5.7,42.3
		C2832.4,3687,2832,3687,2830.1,3683.4z"/>
	<path class="st10" d="M2103.5,3656.4c-25.7-25.1-25.9-30.6-1.2-49.9c36.2-28.2,40.2-28.5,52.7-4.9c7,13.2,12.7,17.7,19.1,15.7
		c2.4-0.5,11-8,19.1-16c15.3-15.5,21.2-18.1,28.2-12.7c4.9,4,22.6,30.3,25.9,38.3l2.8,7.3l-12.2,11.1
		c-15.3,13.9-30.8,26.1-33.4,26.1c-2.4,0-16.7-14.6-26.3-26.8c-3.8-5-7.3-9-8.2-9c-0.5,0-11.7,8.5-24.7,19
		c-13,10.4-24,18.6-24.5,18.4C2120.3,3672.8,2112.5,3665.3,2103.5,3656.4z"/>
</g>
</svg>
