<?xml version="1.0" encoding="utf-8"?>
<!-- Generator: Adobe Illustrator 27.2.0, SVG Export Plug-In . SVG Version: 6.00 Build 0)  -->
<svg version="1.1" id="Layer_1" xmlns="http://www.w3.org/2000/svg" xmlns:xlink="http://www.w3.org/1999/xlink" x="0px" y="0px"
	 viewBox="0 0 845 1092" style="enable-background:new 0 0 845 1092;" xml:space="preserve">
<style type="text/css">
	.st0{opacity:0.93;fill:#25343F;}
	.st1{fill:#006654;}
</style>
<g>
	<g>
		<path class="st1" d="M423.64,17c3.58,2.33,7.26,4.76,10.96,7.14c36.09,23.26,70.98,48.16,103.87,75.8
			c18.51,15.56,36.42,31.79,52.04,50.3c19.57,23.2,31.15,50.04,34.94,80.17c0.71,5.63,1.02,11.34,1.03,17.01
			c0.06,122.49,0.05,244.97,0.06,367.46c0,1.78,0,3.56,0,5.95c2.68-0.18,5.01-0.07,7.21-0.51c13.96-2.84,28.08-3.36,42.26-3.05
			c0.67,0.02,1.35-0.12,1.97-0.18c0.87-2.78,1.23-295.63,0.37-303.05c-10.88-4.62-22.53-7.08-34.35-9.51c0-17.95,0-35.64,0-53.95
			c28.78,4.11,56.61,10.94,84.35,17.32c0.92,3.49,1.07,381.39,0.27,385.41c-52.34-4.03-101.62,6.54-148.5,30.53
			c-0.1-0.65-0.32-1.64-0.4-2.64c-0.08-1.11-0.02-2.22-0.02-3.33c0-142.76-0.05-285.52,0.04-428.28
			c0.02-28.75-9.55-53.86-27.69-75.81c-9.92-12.01-21.39-22.56-33.14-32.76c-28.69-24.9-59.56-46.83-91.51-67.3
			c-2.59-1.66-4.51-1.65-7.11,0.01c-34.51,22.15-67.91,45.8-98.31,73.42c-8.62,7.83-17,16.02-24.69,24.75
			c-18.33,20.81-28.4,45.19-29.4,73.06c-0.4,10.94-0.63,21.9-0.63,32.85c-0.04,133.32-0.03,266.64-0.03,399.95c0,1.77,0,3.53,0,5.78
			c-1.52-0.63-2.52-1-3.48-1.45c-23.56-11.02-47.72-20.41-73.2-26.02c-21.44-4.72-43.16-5.58-65.01-4.26
			c-2.59,0.16-5.18,0.31-8.05,0.49c0-128.09,0-255.77,0-383.31c8.5-3.75,78.34-18.18,85.65-17.78c0.87,2.9,1.07,48.5,0.16,53.4
			c-1.3,0.3-2.77,0.59-4.21,0.97c-8.7,2.34-17.43,4.6-26.09,7.09c-3.73,1.07-3.69,1.29-3.69,5.3c0,41.8,0,83.6,0,125.4
			c0,52.21,0,104.43,0,156.64c0,5.52,0,11.05,0,16.87c1.24,0.15,2.3,0.4,3.35,0.38c13.49-0.31,26.92,0.18,40.16,3.05
			c0.54,0.12,1.1,0.15,1.65,0.16c1.79,0.02,3.57,0.01,5.86,0.01c0.13-1.88,0.38-3.77,0.39-5.66c0.16-21.79,0.37-43.59,0.41-65.38
			c0.07-31.24,0.04-62.48,0.01-93.73c-0.02-17.77-0.18-35.55-0.17-53.32c0.03-51.24,0.15-102.48,0.17-153.73
			c0.01-33.96,10.59-64.38,30.6-91.6c9.33-12.69,20.59-23.65,32.01-34.42c29.36-27.69,61.34-52.11,94.46-75.06
			c13.69-9.48,27.73-18.46,41.59-27.69C421.18,19,422.42,17.93,423.64,17z"/>
	</g>
	<g>
		<g>
			<path class="st1" d="M530.86,268.78c0-20.91-7.03-39.23-21-54.7c-6.14-6.8-12.75-13.13-19.59-19.22
				c-19.88-17.67-41.58-32.86-63.84-47.3c-2.16-1.41-3.7-1.12-5.62,0.23c-10.27,7.08-20.77,13.88-30.94,21.14
				c-17.63,12.61-34.41,26.25-49.45,42c-15,15.7-23.67,34.31-23.72,56.11c-0.14,148.03-0.05,296.06-0.14,444.1
				c0,3.19,0.94,5.02,3.61,6.8c31.36,20.77,62.06,42.42,92.39,64.73c3.89,2.91,7.78,5.77,11.95,8.81c1.22-1.03,2.11-1.69,2.91-2.44
				c31.41-27.23,64.31-52.45,99.42-74.77c2.91-1.83,4.12-3.75,4.12-7.27C530.86,560.95,530.86,414.84,530.86,268.78z M482.21,638.11
				c1.45,1.27,1.87,2.48,0.75,4.31c-2.95,5.02-5.67,10.17-8.77,15.09c-0.8,1.22-2.44,2.2-3.89,2.72c-2.3,0.84-4.83,1.03-7.17,1.83
				c-1.87,0.61-3.19,0.19-4.5-1.12c-1.64-1.69-3.37-3.28-5.06-4.92c-1.41-1.45-2.11-3.09-2.11-5.2c0.05-12.23,0-24.42,0.05-36.61
				c0-1.31,0.23-3,0.98-3.94c2.25-2.62,4.73-5.06,7.31-7.31c0.66-0.56,2.11-0.52,3.09-0.33c1.59,0.33,3.14,1.27,4.73,1.45
				c4.69,0.47,7.13,3.42,9.05,7.36c1.78,3.61,3.94,7.03,6.05,10.41c1.27,1.97,1.27,3.52-0.61,5.06c-1.88,1.59-3.61,3.33-5.95,5.53
				C478.6,634.73,480.38,636.47,482.21,638.11z M464.58,345c-4.31-0.56-6.52,2.02-8.25,5.44c-1.03,2.02-2.34,3.89-3.89,6.37
				c-0.51-1.27-0.89-1.83-0.94-2.44c-0.09-1.22,0.05-2.48,0.05-3.7c0.09-4.13,0.14-8.2-4.08-9.94c1.83-2.91,3.42-5.48,5.16-8.2
				c1.59,1.03,3.33,2.81,5.39,3.37c1.92,0.47,4.17-0.37,6.37-0.61C463.04,340.59,463.04,340.59,464.58,345z M453.33,376.78
				c3.23-5.48,6.47-10.97,9.7-16.41c1.83-3,2.34-3.28,5.72-2.48c3.98,0.94,7.97,1.97,11.91,3.14c1.12,0.33,2.2,1.27,3.05,2.11
				c3.09,2.95,6.09,6.05,9.14,9.05c1.45,1.41,1.41,2.77,0.42,4.45c-3.66,6.33-7.22,12.75-10.92,19.08c-0.7,1.12-1.73,2.2-2.86,2.86
				c-8.48,5.02-17.02,9.94-25.5,14.81c-0.47,0.28-0.98,0.42-2.11,0.84c-0.19-1.5-0.38-2.39-0.38-3.33c0-9,0.05-18-0.05-27
				C451.41,381.28,452.07,378.98,453.33,376.78z M476.72,480.37c-1.78,0-3.61,0.05-5.39,0.05c-6.42,0-6.42,0-9.33-6.98
				c1.83-1.03,3.66-2.2,5.62-3.14c0.61-0.28,1.69-0.14,2.34,0.23c4.83,2.67,9.61,5.48,14.39,8.3c0.14,0.09,0.19,0.47,0.56,1.55
				H476.72z M494.02,491.9v31.36c-2.95-0.56-4.88-1.92-6.19-4.17c-4.69-8.11-9.42-16.27-14.06-24.42c-0.38-0.66-0.47-1.45-0.8-2.77
				L494.02,491.9z M462.15,452.81c0.05-0.28,0-0.61,0.14-0.8c3-5.91,3-5.91,9.66-5.91c4.27-0.05,8.53,0,12.75,0
				c0.14,0.33,0.23,0.66,0.37,1.03c-0.7,0.56-1.31,1.27-2.06,1.73c-3.33,1.92-6.75,3.8-10.08,5.72
				C468.29,457.26,466.32,456.93,462.15,452.81z M451.6,428.76c0.09-0.84,0.75-1.87,1.5-2.3c4.59-2.77,9.28-5.34,14.02-7.97
				c0.23-0.14,0.75,0.09,1.83,0.23c-3.05,5.3-5.81,10.17-8.77,14.95c-0.47,0.75-1.73,1.27-2.72,1.36c-1.78,0.23-3.56,0.09-5.91,0.09
				C451.55,432.75,451.36,430.73,451.6,428.76z M462.52,496.69c1.64,3.75,4.08,7.17,6.33,11.11c-0.94,0.09-1.69,0.42-2.11,0.19
				c-4.5-2.39-8.95-4.83-13.31-7.5c-0.94-0.52-1.64-1.88-1.83-2.95c-0.33-1.73-0.09-3.52-0.09-5.53c1.27-0.19,1.83-0.23,2.34-0.33
				C458.16,490.92,460.79,492.61,462.52,496.69z M465.47,591c-1.78,0.19-2.63,0.56-3.14,0.28c-3.52-1.83-6.09-0.42-8.39,2.2
				c-0.38,0.38-0.84,0.7-1.27,1.03c-1.64-2.77-3.28-5.44-5.11-8.48c0.14-0.09,0.7-0.56,1.27-1.08c2.06-1.73,2.77-3.98,2.77-6.61
				c-0.05-2.53,0.05-5.06,0.09-7.59c0.38-0.14,0.75-0.23,1.08-0.33c0.7,1.08,1.36,2.16,2.02,3.23c0.75,1.22,1.45,2.39,2.11,3.61
				c1.64,3.05,3.98,4.73,8.16,3.94C463.41,584.67,461.3,587.67,465.47,591z M468.47,568.87c-2.72,0.75-3.61,0.38-5.06-2.11
				c-3.42-5.86-6.89-11.72-10.22-17.58c-0.7-1.31-1.45-2.81-1.45-4.22c-0.19-10.27-0.23-20.53-0.23-30.75
				c0-0.52,0.38-0.98,0.75-1.83c3.42,1.87,6.66,3.61,9.84,5.44c5.53,3.19,10.97,6.42,16.5,9.61c1.87,1.03,3.23,2.39,4.27,4.31
				c3.14,5.86,6.52,11.58,9.84,17.34c1.92,3.28,1.92,3.47-0.84,6.38c-1.55,1.59-3.28,3-4.69,4.73c-3,3.75-6.89,5.77-11.53,6.7
				C473.21,567.42,470.86,568.26,468.47,568.87z M493.74,471.56c-4.59-2.67-8.86-5.16-13.73-8.02c4.55-3.56,9.14-5.63,13.45-8.34
				C494.49,458.06,494.68,466.5,493.74,471.56z M493.74,434.86h-20.72c0.33-1.17,0.42-2.25,0.89-3.09
				c4.55-7.97,9.14-15.89,13.69-23.86c1.36-2.44,3.37-3.8,6.05-4.45C494.54,406.87,494.63,430.78,493.74,434.86z M494.3,352.73
				c-3.33,0.33-5.81-0.33-7.83-2.16c-3.19-3.05-6.33-6.23-9.38-9.42c-0.61-0.61-1.31-1.97-1.03-2.48c1.5-2.77,2.63-6.42,5.06-7.78
				c3.66-2.11,8.25-2.58,12.94-3.89C494.54,335.95,494.3,344.29,494.3,352.73z M488.63,315.89c1.69-2.77,3.09-5.11,4.78-7.83
				C495.57,314.25,493.74,317.11,488.63,315.89z M494.07,298.97h-5.11c-0.89-2.44,1.83-3,2.2-5.02c-0.84-1.08-1.83-2.34-2.95-3.75
				c1.97-1.45,3.75-0.75,5.86-0.52V298.97z M494.02,279.79c-0.28,0.09-0.52,0.19-0.8,0.28c-1.36-2.39-2.76-4.78-4.12-7.17l0.8-0.8
				c1.31,0.23,2.63,0.52,4.13,0.8V279.79z M477.52,246.79c1.5-1.27,2.86-2.58,4.69-4.27c4.5,5.48,7.5,11.16,9.7,17.81
				c-1.17,0-1.92,0.09-2.63-0.05c-1.22-0.23-2.39-0.98-3.56-0.94c-5.11,0-6.94-3.8-9-7.41
				C475.55,250.03,475.79,248.29,477.52,246.79z M474.15,269.11c3,4.83,5.67,9.84,8.62,14.67c1.27,2.06,1.03,3.52-0.8,5.02
				c-1.78,1.5-3.37,3.23-5.53,5.34c2.02,2.06,3.66,3.94,5.53,5.53c1.83,1.55,2.11,3,0.84,5.02c-3.05,4.97-5.91,9.98-8.91,15
				c-0.33,0.56-0.8,1.36-1.31,1.5c-3.56,1.08-7.17,2.06-10.78,2.86c-0.8,0.19-1.78-0.47-2.62-0.84c-0.38-0.14-0.56-0.61-0.89-0.84
				c-5.81-4.03-7.36-9.52-6.94-16.5c0.56-9.52,0.23-19.13,0.05-28.69c-0.09-3.19,0.89-5.58,3.33-7.59c1.27-1.03,2.48-2.2,3.52-3.47
				c1.45-1.78,3.19-2.02,5.25-1.45c2.53,0.66,5.11,1.13,7.55,2.02C472.27,267.09,473.49,268.03,474.15,269.11z M469.41,229.59
				c-1.5,0.75-2.53,1.31-4.17,2.11c-1.87-3.23-3.56-6.05-5.2-8.81C463.88,224.06,466.27,226.92,469.41,229.59z M451.65,238.54
				c-0.09-2.02,0-4.03,0-6.05c0.37-0.09,0.8-0.23,1.17-0.33c1.12,1.83,2.25,3.66,3.33,5.48c2.91,4.92,3.09,5.11,8.63,5.91
				c-1.97,2.86-2.11,5.95-0.84,9.14c-2.48,0-4.64-0.47-6.52,0.09c-1.83,0.61-3.33,2.2-4.88,3.28c-1.69-2.72-3.23-5.25-5.11-8.39
				C451.04,245.67,451.83,242.34,451.65,238.54z M411.1,204.09c3.33-2.48,6.99-4.5,10.41-6.84c1.64-1.13,3-1.03,4.55,0.05
				c3,2.02,6.23,3.7,9.05,5.95c3.14,2.58,5.3,5.77,5.2,10.27c-0.19,8.06-0.05,16.08-0.05,24.47c-5.49,1.55-10.45,3.09-15.56,4.22
				c-1.59,0.38-3.52-0.33-5.2-0.75c-4.27-1.03-8.53-2.25-12.84-3.38c-0.09-1.36-0.23-2.44-0.23-3.52c0-7.08,0.05-14.16-0.05-21.23
				C406.32,209.39,408.19,206.34,411.1,204.09z M406.41,258.65c5.39-1.5,10.41-3.09,15.52-4.22c1.59-0.33,3.52,0.33,5.25,0.75
				c4.27,1.03,8.48,2.16,13.12,3.33c0,3.14,0.05,6-0.05,8.91c-0.05,0.75-0.28,1.73-0.8,2.25c-5.16,5.2-10.36,10.36-15.8,15.75
				c-1.08-0.89-1.97-1.45-2.72-2.2c-3.94-3.89-7.78-7.92-11.86-11.72c-2.02-1.83-2.95-3.8-2.72-6.52
				C406.55,263.06,406.41,261.09,406.41,258.65z M440.16,285.98v16.78c-2.25-0.75-7.69-5.39-8.11-7.12
				c-0.28-0.98-0.47-2.48,0.09-3.14c2.2-2.53,4.69-4.83,7.03-7.17C439.51,285.56,439.83,285.79,440.16,285.98z M414.19,296.25
				c-2.06,2.53-4.5,4.69-6.75,6.98c-0.23-0.19-0.52-0.42-0.75-0.61v-17.16c0.98,0.38,1.73,0.47,2.16,0.84
				c1.69,1.59,3.33,3.28,4.92,5.02C415.18,292.82,415.36,294.79,414.19,296.25z M409.83,316.17c4.03-3.61,7.69-7.59,11.49-11.39
				c1.73-1.73,2.25-1.73,4.03,0.05c3.84,3.75,7.59,7.69,11.49,11.39c2.44,2.3,4.41,4.59,3.37,7.59c0,6.19,0.05,6.23-5.16,7.69
				c-3.05,0.89-6.14,2.06-9.23,2.2c-3.52,0.14-7.08-0.66-10.55-1.27c-1.87-0.28-3.66-1.08-5.48-1.69c-3.33-1.03-3.33-1.03-3.38-4.59
				c0-0.56,0.05-1.13,0-1.69C405.85,321,407.26,318.51,409.83,316.17z M440.16,375.09c-0.05,1.87-0.47,3.94-1.36,5.58
				c-4.64,8.34-9.52,16.59-14.34,24.84c-0.09,0.23-0.42,0.33-1.17,0.75c-0.61-0.7-1.22-1.22-1.64-1.87
				c-4.59-7.92-9.23-15.8-13.73-23.81c-0.89-1.59-1.41-3.66-1.45-5.48c-0.14-7.08-0.09-14.16-0.05-21.23
				c0.05-3.37,0.09-3.37,3.56-4.36c3.19-0.94,6.33-2.11,9.56-2.67c2.58-0.42,5.3-0.52,7.83-0.05c4.17,0.84,8.2,2.3,12.52,3.56
				c0.09,0.7,0.38,1.5,0.38,2.3C440.26,360.14,440.35,367.64,440.16,375.09z M440.26,404.72c0,4.55-0.05,9.14-0.09,13.69
				c0,2.81-3.05,5.86-5.72,5.77c-0.42,0-0.84-0.09-1.17-0.33c-1.87-1.12-3.47-5.86-2.39-7.78c2.48-4.45,5.16-8.81,7.78-13.17
				c0.19-0.28,0.66-0.33,1.41-0.66C440.11,403.22,440.26,403.97,440.26,404.72z M406.41,404.25c0-0.61,0.19-1.22,0.42-2.34
				c0.89,0.8,1.45,1.17,1.73,1.64c2.58,4.27,5.11,8.53,7.59,12.8c1.08,1.87,0.19,4.59-2.11,6.94c-1.78,1.78-3.23,0.47-4.83-0.38
				c-1.97-1.08-2.95-2.53-2.86-4.97C406.55,413.39,406.41,408.84,406.41,404.25z M395.54,409.45v4.97c-1.88-0.75-2.91-1.03-3.8-1.59
				c-7.92-4.55-15.84-9.14-23.67-13.88c-1.55-0.94-3-2.44-3.98-4.03c-3.38-5.53-6.52-11.25-9.75-16.92
				c-1.73-3.14-1.64-4.27,0.8-6.94c0.66-0.7,1.41-1.36,1.97-2.16c5.16-7.55,13.41-9.09,21.47-11.06c2.81-0.66,3.84,0,5.58,3
				c2.11,3.75,3.8,7.73,6.33,11.16c4.27,5.81,5.58,12.09,5.16,19.13C395.25,397.22,395.54,403.36,395.54,409.45z M395.54,434.62
				c-1.12,0.28-1.55,0.42-1.92,0.47c-4.59,0.84-7.55-0.8-9.47-5.2c-1.64-3.75-4.03-7.17-6.37-11.25c1.31,0.09,2.16-0.09,2.72,0.23
				c4.36,2.44,8.67,4.97,12.98,7.45c1.36,0.75,2.16,1.64,2.06,3.28C395.49,431.25,395.54,432.84,395.54,434.62z M353.4,435.04
				l0-31.03c2.76,0,4.31,1.45,5.53,3.61c3.84,6.7,7.73,13.41,11.58,20.16c1.22,2.11,2.34,4.22,3.98,7.22
				C366.94,435.23,360.43,435.14,353.4,435.04z M379.41,446.15c0.8,0,1.87,0.61,2.34,1.27c1.17,1.64,2.06,3.52,3.37,5.86
				c-2.3,1.22-3.89,2.2-5.67,2.91c-0.8,0.33-2.02,0.28-2.72-0.09c-4.64-2.48-9.14-5.11-13.69-7.73c-0.37-0.23-0.51-0.84-0.75-1.22
				c0.28-0.38,0.42-0.75,0.61-0.75C368.4,446.25,373.88,446.11,379.41,446.15z M366.24,462.89c-2.02,2.48-8.48,6.37-12.84,7.73
				v-14.67C358.32,457.54,362.11,460.45,366.24,462.89z M363.29,480.65c-0.19,0-0.42-0.28-0.66-0.42c-0.61-1.45,0.47-1.97,1.41-2.48
				c3.7-2.11,7.55-4.03,11.11-6.33c2.34-1.5,4.31-1.5,6.47,0.05c0.94,0.75,2.02,1.36,3.28,2.2c-1.08,2.02-1.87,3.89-3.05,5.53
				c-0.42,0.66-1.59,1.12-2.44,1.17C374.02,480.56,368.68,480.61,363.29,480.65z M374.07,491.67c-0.75,1.87-1.12,3.14-1.78,4.27
				c-4.22,7.5-8.58,14.91-12.84,22.36c-1.26,2.25-2.86,4.03-6.05,4.64l0-31.13C360.15,491.58,366.71,491.76,374.07,491.67z
				 M386.02,493.69c0.75-1.27,1.78-2.06,3.37-2.02c1.87,0.09,3.8,0.05,6.14,0.05c0,2.25,0.14,4.03-0.05,5.77
				c-0.09,0.84-0.61,1.97-1.31,2.39c-4.88,2.86-9.8,5.58-14.77,8.3c-0.19,0.09-0.52-0.14-0.75-0.19c-0.14-0.23-0.42-0.56-0.33-0.66
				C380.86,502.78,383.44,498.23,386.02,493.69z M395.49,349.45c0.19,2.16,0.05,4.31,0.05,7.22c-1.31-0.8-2.16-0.98-2.48-1.55
				c-1.12-1.73-2.16-3.52-3.09-5.39c-1.55-3.05-3.75-5.02-7.74-4.87c0.98-3.14,3.56-6.05-0.61-8.95c0.33-0.09,0.66-0.23,1.03-0.33
				c2.2,0.09,4.55,0.75,6.61,0.19c1.92-0.56,3.52-2.34,5.72-3.94c0.47,3.7,1.36,6.7,5.06,8.16
				C395.77,342.23,395.21,345.61,395.49,349.45z M389.86,239.29c1.08-1.78,2.02-3.66,3.09-5.39c0.38-0.61,1.08-0.98,2.44-2.16
				c0.05,2.77,0.14,4.64,0.14,6.47c0.05,6.19,0,6.19,3.8,9.66c-1.64,2.63-3.24,5.16-5.02,8.02c-1.41-0.94-3.05-2.53-4.97-3.14
				c-1.87-0.56-4.03-0.14-6.8-0.14c1.45-2.91,1.59-5.77-0.28-8.72c0.98-0.33,1.55-0.75,2.16-0.7
				C387.19,243.18,388.65,241.36,389.86,239.29z M385.13,223.4c0.28,0.23,0.56,0.42,0.84,0.66c-1.08,1.88-2.06,3.8-3.23,5.58
				c-1.31,2.06-1.41,2.02-4.64-0.05C380.54,227.48,382.83,225.42,385.13,223.4z M375.19,266.76c2.91-0.89,5.86-1.64,8.81-2.3
				c1.5-0.33,3.05-0.19,4.12,1.27c0.28,0.33,0.56,0.61,0.89,0.84c5.3,3.8,7.08,8.77,6.66,15.37c-0.61,9.94-0.19,19.97-0.09,29.95
				c0.05,2.44-0.66,4.27-2.44,5.86c-1.36,1.17-2.86,2.3-3.89,3.75c-1.92,2.81-4.31,2.81-7.27,1.97c-8.16-2.25-8.16-2.2-12.52-9.7
				c-1.69-2.86-3.52-5.63-5.16-8.53c-1.59-2.86-1.5-3.33,0.8-5.81c1.55-1.69,3.23-3.33,5.3-5.48c-2.2-2.11-3.98-3.89-5.86-5.53
				c-1.36-1.22-1.5-2.58-0.66-4.08c3-5.3,6-10.59,9.09-15.84C373.46,267.75,374.35,267,375.19,266.76z M364.74,243.23
				c0.7,0.19,0.89,0.23,0.98,0.28c6.05,4.78,6.33,7.88,1.22,13.5c-0.42,0.47-1.08,0.94-1.69,1.12c-2.95,0.8-6,1.55-9.61,2.44
				C357.61,253.82,360.71,248.34,364.74,243.23z M353.44,272.95c1.08-0.23,2.2-0.52,3.33-0.8c0.23,0.28,0.51,0.52,0.8,0.8
				c-1.12,2.06-2.25,4.08-3.33,6.14c-0.28-0.09-0.52-0.19-0.8-0.28V272.95z M353.44,289.73h5.34c-1.31,1.78-2.2,3.05-3.23,4.5
				c0.89,1.31,1.78,2.72,3.05,4.64h-5.16V289.73z M353.82,308.86c1.64,2.62,2.86,4.73,4.17,6.94
				C353.4,316.64,352.55,315.37,353.82,308.86z M353.21,327c4.73,1.36,8.81,2.39,12.8,3.75c0.98,0.38,1.59,1.83,2.25,2.86
				c1.08,1.78,2.06,3.56,3.23,5.58c-4.12,4.13-7.97,8.3-12.14,12.05c-1.31,1.17-3.47,1.36-5.91,2.2
				C352.93,344.39,353.21,336.04,353.21,327z M353.77,549.79c3.61-6.52,7.31-12.98,11.11-19.45c0.51-0.89,1.5-1.64,2.39-2.2
				c8.58-5.06,17.2-10.08,25.83-15.05c0.47-0.28,1.03-0.28,2.16-0.56c0.14,1.55,0.28,2.62,0.28,3.7c0,8.86,0.09,17.72-0.05,26.58
				c-0.05,1.83-0.52,3.89-1.36,5.48c-3.28,6.09-6.75,12.05-10.27,18.05c-1.69,2.95-2.72,3.23-6.14,2.3
				c-3.33-0.94-6.7-1.59-9.94-2.67c-1.92-0.66-3.84-1.64-5.34-3c-2.81-2.44-5.2-5.34-7.92-7.88
				C352.79,553.45,352.79,551.58,353.77,549.79z M353.54,637.26v-9.66c1.5-0.09,2.91-0.19,4.22-0.33c1.87,2.58-1.27,3.09-1.5,5.02
				c0.84,1.55,1.64,3,2.72,4.97H353.54z M357.33,654.7c-1.36-0.09-2.53-0.19-3.89-0.33v-7.12
				C356.11,649.03,357.38,651.28,357.33,654.7z M353.54,617.62v-6.7c1.45-0.75,2.86-1.55,4.92-0.19c-1.41,2.44-2.76,4.78-4.12,7.13
				C354.05,617.76,353.82,617.67,353.54,617.62z M353.44,599.25v-25.03c2.81-0.56,4.88,0.19,6.52,1.73
				c3.8,3.61,7.45,7.41,11.58,11.48c-1.64,2.72-3.19,5.39-4.88,8.06c-0.28,0.42-0.84,0.75-1.36,0.84
				C361.46,597.33,357.61,598.26,353.44,599.25z M366.8,682.22c-2.53,2.48-5.06,5.02-7.69,7.64c-1.41-0.94-3.05-1.5-3.52-2.53
				c-0.56-1.22-1.08-2.16-2.06-3.19c-0.7-0.75-0.33-2.62-0.33-3.98c-0.05-4.78-0.05-9.56-0.05-14.91c2.02,0.52,3.47,0.89,4.88,1.27
				c2.25,0.56,4.55,1.08,6.75,1.78c0.94,0.33,1.78,1.12,2.48,1.83c0.47,0.47,0.61,1.22,0.98,1.83
				C371.54,677.58,371.54,677.58,366.8,682.22z M364.32,643.36c-1.55-2.67-1.36-3.38,0.94-5.77c1.59-1.55,3.14-3.14,5.48-5.48
				c-2.25-1.92-3.98-3.52-5.77-4.97c-1.87-1.5-2.06-3.28-0.98-5.16c3-5.16,6.09-10.27,9.14-15.42c0.05-0.09,0.09-0.28,0.19-0.33
				c4.17-1.31,8.34-2.62,12.52-3.94c0.23-0.05,0.61,0.09,0.8,0.28c2.86,2.95,5.81,5.91,8.58,9c0.52,0.56,0.33,1.83,0.33,2.81
				c0,12.23,0,24.42,0.05,36.66c0,1.64-0.38,2.91-1.59,4.03c-2.06,1.87-3.98,3.89-5.91,5.91c-1.27,1.36-2.67,1.73-4.45,1.03
				c-1.41-0.56-2.91-1.12-4.36-1.22c-4.5-0.23-6.84-2.95-8.72-6.61C368.63,650.48,366.38,646.97,364.32,643.36z M370.6,698.3
				c3.7-1.03,6.38-1.97,9.14-2.48c0.84-0.19,2.34,0.38,2.77,1.08c3.05,4.87,5.91,9.84,8.44,15.19
				C384.05,708.05,377.77,703.31,370.6,698.3z M399.52,678.75c-3.56,2.11-4.41,5.34-4.03,9.23c0.19,2.02,0.05,4.08,0.05,6.8
				c-1.27-0.8-2.02-1.08-2.48-1.59c-0.47-0.47-0.66-1.22-0.98-1.78c-3.61-6.33-3.61-6.33-9.8-8.48c0.56-1.59,1.45-3.23,1.55-4.88
				c0.09-1.45-0.75-2.95-1.12-4.36c2.67,0.14,4.92,0.7,6.89,0.19c1.83-0.52,3.33-2.2,5.34-3.66c0.7,3.47,1.55,6.38,4.69,7.5
				C399.57,678.23,399.66,678.65,399.52,678.75z M395.02,595.03c-2.25-1.73-3.75-3.56-5.67-4.13c-1.87-0.56-4.17,0.19-6.8,0.42
				c1.36-3.28,2.06-6.33-0.42-9.42c4.5,0.14,6.75-2.25,8.34-5.67c0.7-1.5,1.59-2.95,2.48-4.31c0.42-0.56,1.12-0.94,2.44-1.97
				c0.05,2.81,0.23,4.83,0.09,6.84c-0.19,3.89,0.05,7.5,4.92,9.66C396.61,588.23,395.3,591.05,395.02,595.03z M440.26,705.84
				c0,11.02,0,11.02-5.81,20.53c-3.66,5.95-4.17,6.47-10.36,9.98c-5.3-3.37-10.36-6.8-13.64-12.75c-2.67-4.92-4.5-9.56-4.13-15.28
				c0.42-6.33,0.09-12.75,0.09-19.03c11.25-5.72,22.31-5.63,33.84-0.14V705.84z M440.3,666.23c-0.09,0.56-0.14,1.08-0.19,1.87
				c-5.3,1.5-10.55,3.14-15.89,4.31c-1.59,0.37-3.52-0.38-5.25-0.84c-3.98-1.08-7.92-2.25-12.14-3.47
				c-0.84-3.05-0.37-6.19-0.33-9.33c0.05-0.7,0.61-1.59,1.13-2.11c4.92-4.92,9.84-9.75,14.81-14.63c0.19-0.14,0.47-0.19,1.36-0.52
				c3.56,3.47,6.84,7.31,10.73,10.31C439.46,655.64,441.15,660.33,440.3,666.23z M406.41,596.72c5.67-1.5,10.83-2.91,16.03-4.27
				c0.66-0.19,1.36-0.14,2.02,0c5.06,1.36,10.08,2.77,15.61,4.27c0.05,3.23,0.19,6.37,0.09,9.52c-0.05,0.8-0.8,1.69-1.45,2.34
				c-4.36,4.5-8.77,8.91-13.17,13.27c-1.78,1.78-2.25,1.78-4.08-0.05c-4.17-4.03-8.25-8.2-12.52-12.19
				c-1.87-1.78-2.72-3.66-2.58-6.23C406.5,601.22,406.41,599.01,406.41,596.72z M406.46,551.11c0.05-1.45,0.42-3.09,1.12-4.36
				c4.92-8.67,9.99-17.25,15-25.88c0.14-0.23,0.42-0.33,1.22-0.8c1.87,3.28,3.7,6.38,5.48,9.42c3.14,5.39,6.38,10.73,9.42,16.17
				c0.8,1.55,1.41,3.38,1.45,5.06c0.19,7.64,0,15.28,0.14,22.92c0.05,2.06-0.7,3.05-2.62,3.52c-3.61,0.94-7.17,2.16-10.78,2.81
				c-2.3,0.42-4.73,0.42-6.98,0c-3.52-0.66-6.94-1.78-10.41-2.72c-2.67-0.75-3.05-1.12-3.09-4.08
				C406.36,565.83,406.36,558.47,406.46,551.11z M406.5,506.81c0-0.8,0.75-1.83,1.5-2.3c1.45-0.94,3.09-1.59,4.78-2.44
				c0.8,0.98,1.41,1.73,2.02,2.48c2.16,2.53,2.34,4.83,0.19,7.73c-2.34,3.19-4.08,6.84-6.14,10.31c-0.37,0.66-0.94,1.22-1.45,1.88
				c-0.33-0.14-0.66-0.23-0.94-0.33C406.46,518.39,406.36,512.58,406.5,506.81z M432.29,503.95c0.42-0.52,0.84-1.03,1.55-1.92
				c1.73,0.84,3.47,1.55,5.06,2.58c0.66,0.47,1.31,1.55,1.31,2.34c0.09,5.39,0.05,10.83,0,16.22c0,0.38-0.28,0.7-0.66,1.45
				c-0.7-0.89-1.41-1.5-1.83-2.25c-1.88-3.23-3.47-6.7-5.63-9.7C429.85,509.53,430.08,506.81,432.29,503.95z M440.02,623.9v17.53
				c-1.08-0.66-1.92-0.98-2.58-1.59c-1.5-1.41-2.91-2.91-4.36-4.41c-1.73-1.88-1.92-3.52-0.28-5.48c1.92-2.3,4.03-4.45,6.05-6.66
				C439.27,623.48,439.65,623.67,440.02,623.9z M413.96,634.87c-1.78,2.34-4.13,4.31-6.38,6.52c-1.41-2.81-1.64-13.31-0.47-17.86
				c3.05,1.83,5.34,4.36,7.17,7.17C414.94,631.69,414.71,633.94,413.96,634.87z M441.71,482.95c-0.7,1.27-1.17,2.77-1.41,4.17
				c-0.23,1.45-0.05,2.95-0.05,5.34c-2.11-1.03-3.38-1.69-4.64-2.39c-4.08-2.16-7.03-1.36-9.47,2.67c-0.75,1.27-1.41,2.53-2.58,4.59
				c-1.22-1.92-2.02-3.14-2.81-4.36c-2.91-4.59-5.34-5.2-10.08-2.58c-1.03,0.56-2.11,1.12-3.84,2.06c-0.19-1.92-0.56-3.23-0.37-4.45
				c0.75-4.64-2.34-7.83-7.97-7.55c-1.03,0.05-2.11,0.09-3.19,0.19c-1.22-2.3,0.42-3.66,1.22-5.11c2.67-4.83,2.25-6.47-2.53-9.42
				c-1.17-0.7-2.25-1.5-3.33-2.25c0.19-2.16,2.06-2.3,3.14-3.19c1.17-0.94,2.44-1.78,3.42-2.91c1.36-1.5,1.41-3.19,0.33-4.97
				c-1.12-1.87-2.06-3.8-3.66-6.7c2.63,0,4.13,0,5.62-0.05c4.83-0.05,6.84-1.97,6.89-6.7v-4.97c2.11,0.98,3.52,1.59,4.92,2.3
				c4.36,2.11,6.42,1.59,9.09-2.48c0.89-1.36,1.64-2.81,2.53-4.27c2.06,0.56,2.2,2.3,2.95,3.52c2.86,4.92,5.2,5.63,10.17,2.81
				c0.84-0.47,1.69-0.89,2.58-1.31c0.19-0.09,0.52,0.05,1.31,0.14c0.09,1.36,0.19,2.81,0.23,4.27c0.19,4.73,2.2,6.7,6.98,6.75
				c1.41,0,2.76,0,4.17,0.05c0.23,0,0.42,0.28,1.08,0.75c-0.8,1.59-1.69,3.23-2.58,4.88c-1.92,3.7-1.31,6.14,2.25,8.39
				c1.27,0.8,2.58,1.55,3.89,2.34c0.19,0.14,0.23,0.47,0.56,1.17c-1.12,0.75-2.3,1.55-3.52,2.3c-5.06,3.05-5.53,4.73-2.67,9.66
				c0.75,1.27,1.36,2.58,1.92,3.66c-1.08,1.92-2.34,1.22-3.56,1.22C446.16,480.51,443.3,480.19,441.71,482.95z M451.46,692.25
				c-0.09-1.12,0-2.2,0.09-3.33c0.33-4.22-0.23-8.06-4.22-9.98c1.78-2.77,3.47-5.34,5.3-8.2c1.41,0.94,3,2.58,4.92,3.23
				c1.83,0.61,3.98,0.14,6.33,0.14c-0.7,3.05-1.73,6.09,1.73,8.91c-1.69,0.47-2.2,0.75-2.67,0.7c-3.14-0.33-4.83,1.5-6.19,3.94
				c-1.22,2.25-2.53,4.5-4.27,7.45C451.93,693.56,451.51,692.91,451.46,692.25z M454.69,715.03c-0.23-0.23-0.47-0.47-0.66-0.75
				c3.23-5.63,6.42-11.25,9.7-16.83c0.52-0.8,1.78-1.87,2.44-1.73c3.47,0.89,7.31,0.94,10.92,3.47
				C469.36,704.62,462.05,709.83,454.69,715.03z M494.3,684.14c0,2.72-1.45,4.73-3.98,5.62c-2.25,0.8-3.61-0.75-4.97-2.11
				c-2.44-2.48-4.92-4.92-7.36-7.41c-2.3-2.3-2.44-3.33-0.75-6.19c0.05-0.09,0.19-0.19,0.23-0.33c1.45-3.8,4.17-5.81,8.2-6.42
				c2.72-0.38,5.3-1.31,8.2-2.06c0.19,1.08,0.42,1.88,0.42,2.67C494.35,673.31,494.35,678.75,494.3,684.14z M488.54,636.94
				c-0.37-2.2,2.16-2.67,2.72-4.73c-1.08-1.27-2.11-2.44-3.66-4.22h6.47l0,8.95H488.54z M493.93,646.97v6.98
				c-1.41,0.23-2.81,0.42-4.5,0.7C489.57,651.09,491.96,649.26,493.93,646.97z M493.65,618.05c-2.39-1.92-3.37-4.5-4.78-7.45
				C494.44,610.5,495.19,611.86,493.65,618.05z M493.55,599.53c-3.89-1.03-7.87-2.02-11.81-3.14c-0.75-0.19-1.55-0.7-1.97-1.31
				c-1.27-1.83-2.34-3.75-3.37-5.72c-0.7-1.36-0.56-2.62,0.61-3.8c3.19-3.09,6.23-6.23,9.42-9.33c2.02-1.92,4.5-2.58,7.5-2.34
				C494.68,579.28,494.49,596.3,493.55,599.53z"/>
		</g>
	</g>
	<g>
		<path class="st1" d="M247.89,923.51c2.84-11.11,6-21.34,8.02-31.8c7.23-37.44,3.91-74.06-9.45-109.78
			c-0.71-1.9-1.58-3.22-3.78-3.92c-28.49-9.09-57.46-16.03-87.11-20.1c-26.11-3.58-52.3-3.75-78.53-1.96
			c-19.26,1.32-38.41,3.57-57.42,6.94c-1.06,0.19-2.16,0.19-3.52,0.31c0-137.27,0-274.29,0-411.32
			c6.41-3.11,74.24-17.18,82.84-17.18c0.97,2.7,1.32,46.64,0.37,53.4c-1.15,0.28-2.45,0.65-3.77,0.91
			c-9.96,1.93-19.72,4.59-29.25,8.1c-2.59,0.95-4.15,1.96-4.02,5.22c0.2,5.1-0.45,10.23-0.45,15.35
			c-0.05,90.96-0.05,181.92-0.07,272.89c0,0.56-0.02,1.11-0.01,1.67c0.1,3.26,0.35,3.46,3.59,3.71c12.72,0.98,25.5,1.56,38.16,3.08
			c46.78,5.63,92.32,16.31,136.02,34.31c34.51,14.22,65.13,34.51,93.28,58.81c31.33,27.05,59.29,57.27,84.85,89.75
			c28.57,36.29,53.67,74.91,76.62,114.95c0.61,1.07,1.22,2.14,1.98,3.47c-25.36,25.93-45.43,55.49-60.67,89.67
			c-18.29-40.83-43.4-75.35-76.08-104.21C326.78,956.89,289.41,936.2,247.89,923.51z"/>
	</g>
	<g>
		<path class="st1" d="M831.9,765.37c-7.47-1.2-14.68-2.46-21.92-3.49c-32.07-4.57-64.25-7.43-96.68-5.33
			c-31.42,2.04-62.17,7.92-92.44,16.48c-2.3,0.65-3.37,1.82-3.98,4.11c-12.65,47.71-10.78,94.82,5.63,141.36
			c0.49,1.4,0.97,2.81,1.61,4.67c-37.13,11.58-71.1,28.4-100.93,54.08c-1.07-1.7-1.86-2.91-2.61-4.15
			c-12.64-21.07-25.11-42.23-37.97-63.17c-9.6-15.64-20.77-30.18-32.18-44.53c-0.85-1.07-1.65-2.18-2.61-3.45
			c1.49-1.88,2.84-3.62,4.24-5.32c32.42-39.14,68.89-73.87,111.39-101.98c12.52-8.28,25.58-15.6,39.37-21.58
			c9.52-4.13,18.95-8.54,28.7-12.07c18.55-6.71,37.61-11.68,56.99-15.4c31.29-5.99,62.84-9.37,94.71-9.56
			c1.08-0.01,2.15-0.19,3.67-0.33c0-1.55,0-2.9,0-4.25c0-96.51,0-193.01,0-289.52c0-4.09-0.02-4.09-3.92-5.6
			c-9.48-3.65-19.26-6.23-29.2-8.23c-1.61-0.33-3.22-0.69-4.71-1c-0.93-3.3-1.09-49.06-0.2-53.59c3.11-0.45,6.23,0.33,9.26,0.95
			c22.41,4.62,44.8,9.38,67.19,14.11c2.15,0.45,4.26,1.05,6.59,1.62C831.9,488.64,831.9,626.87,831.9,765.37z"/>
	</g>
</g>
</svg>
