<?xml version="1.0" encoding="utf-8"?>
<!-- Generator: Adobe Illustrator 27.2.0, SVG Export Plug-In . SVG Version: 6.00 Build 0)  -->
<svg version="1.1" id="Layer_1" xmlns="http://www.w3.org/2000/svg" xmlns:xlink="http://www.w3.org/1999/xlink" x="0px" y="0px"
	 viewBox="0 0 424 168" style="enable-background:new 0 0 424 168;" xml:space="preserve">
<style type="text/css">
	.st0{opacity:0.93;fill:#25343F;}
	.st1{fill:#006654;}
</style>
<g>
	<path class="st1" d="M292.13,63.14c-0.04,0.51-0.01,1.03-0.12,1.53c-0.35,1.65-0.97,3.18-2.01,4.54c-0.52,0.68-1.13,1.2-1.97,1.41
		c-0.51,0.13-0.73,0.42-0.64,0.95c0.3,1.74,0.81,3.39,1.91,4.82c1.71,2.22,4.39,2.18,6.04-0.08c1.32-1.81,1.88-3.92,2.43-6.03
		c0.89-3.4,1.97-6.71,4.15-9.54c0.94-1.21,1.96-2.32,3.37-3.01c1.98-0.96,3.04-0.67,4.23,1.15c0.93,1.42,1.89,2.82,2.81,4.26
		c1.43,2.25,3.55,2.98,6.09,2.91c1.94-0.05,3.46-0.88,4.6-2.43c0.72-0.98,1.41-1.97,2.12-2.95c0.28-0.39,0.57-0.78,0.86-1.17
		c0.14,0.08,0.29,0.16,0.43,0.25c-0.07,0.44-0.06,0.92-0.22,1.32c-1.1,2.65,1.22,4.86,3.75,4.93c1.31,0.04,2.56-0.12,3.74-0.74
		c0.94-0.5,1.65-1.2,2.18-2.13c0.61-1.08,1.24-2.14,1.91-3.17c0.23-0.35,0.63-0.6,0.96-0.89c0.09,0.05,0.18,0.09,0.28,0.14
		c-0.07,0.56-0.04,1.16-0.22,1.68c-0.66,1.84-0.53,2.73,0.61,3.38c1.49,0.86,3.41,0.57,4.36-0.81c0.67-0.99,1.13-2.13,1.7-3.19
		c0.34-0.63,0.67-1.27,1.04-1.88c0.1-0.16,0.31-0.26,0.48-0.38c0.08,0.04,0.15,0.07,0.23,0.11c-0.07,0.57-0.05,1.16-0.21,1.69
		c-0.26,0.86-0.09,1.57,0.47,2.22c1.31,1.52,2.97,2.49,4.96,2.69c5.5,0.57,9.91-1.65,13.63-5.52c0.78-0.81,1.51-1.68,2.76-2.11
		c-0.13,0.7-0.23,1.32-0.36,1.92c-0.38,1.83,0.41,3.26,2.16,3.93c2.81,1.07,5.44,0.23,7.02-2.35c0.88-1.45,1.6-2.99,2.42-4.48
		c0.26-0.48,0.61-0.92,0.92-1.38c0.09,0.03,0.18,0.06,0.27,0.09c-0.03,0.32-0.03,0.65-0.11,0.96c-0.2,0.84-0.5,1.67-0.65,2.52
		c-0.16,0.92,0.32,1.57,1.08,2.05c2.04,1.27,4,0.49,5.63-0.92c0.5-0.43,0.4-1.08,0-1.54c-1.15-1.29-1.04-2.77-0.77-4.3
		c0.1-0.6,0.14-1.21,0.21-1.81c0.07-0.05,0.15-0.1,0.22-0.15c0.43,0.47,0.98,0.88,1.26,1.43c1.76,3.4,1.97,6.9,0.26,10.37
		c-1.88,3.84-6.65,4.28-9.27,0.91c-0.58-0.75-0.61-0.75-1.11,0.02c-2.07,3.18-2.84,6.65-2.06,10.38c0.48,2.28,2.15,3.41,4.29,3.95
		c2.94,0.73,5.76,0.16,8.53-0.85c5.43-1.97,9.91-5.31,13.69-9.63c0.44-0.5,0.85-1.04,1.32-1.52c0.48-0.48,0.53-1.04,0.42-1.64
		c-0.17-0.97-0.58-1.23-1.5-0.92c-1.85,0.64-3.75,0.85-5.7,0.76c-2.22-0.09-4.01-1.74-4.26-3.95c-0.38-3.29,0.22-6.29,2.77-8.6
		c0.79-0.72,1.79-1.32,2.8-1.67c1.42-0.5,2.67,0.19,3.72,1.13c1.44,1.29,2.51,2.86,3.26,4.64c0.53,1.24,0.85,1.31,1.93,0.49
		c1.19-0.9,2.15-1.99,2.73-3.39c0.27-0.66,0.62-1.3,0.91-1.96c0.37-0.82,0.78-1.46,1.84-1.64c0.52-0.08,1.02-0.74,1.4-1.24
		c0.93-1.21,1.95-2.24,3.52-2.61c1.27-0.3,2.35-0.03,3.27,0.85c1.47,1.4,2.24,3.19,2.62,5.14c0.21,1.08,0.21,2.2,0.35,3.29
		c0.17,1.38-0.35,2.57-1.01,3.72c-0.28,0.49-0.61,0.96-0.85,1.47c-0.37,0.81-1.02,1.02-1.83,0.99c-2.79-0.12-5.18-1.19-7.23-3.06
		c-0.59-0.54-1.17-1.09-1.78-1.62c-0.53-0.46-0.93-0.38-1.18,0.27c-0.62,1.59-1.63,2.91-2.76,4.16c-0.27,0.3-0.52,0.76-0.53,1.15
		c-0.11,4.68-2.17,8.49-5.32,11.74c-4.15,4.28-8.88,7.75-14.63,9.62c-2.29,0.74-4.61,1.23-7.04,0.59c-3.2-0.84-4.95-2.98-5.53-6.14
		c-0.5-2.69-0.03-5.32,0.54-7.95c0.13-0.61,0.2-1.23,0.33-2.06c-0.56,0.17-0.9,0.25-1.22,0.38c-1.22,0.52-2.48,0.66-3.77,0.35
		c-1.88-0.46-3.05-1.93-3.31-4.09c-0.05-0.41-0.13-0.81-0.22-1.37c-0.53,0.38-1.01,0.66-1.42,1.02c-2.42,2.14-4.89,4.19-8.04,5.21
		c-2.25,0.73-4.51,0.98-6.83,0.39c-2.45-0.63-3.83-2.26-4.42-4.65c-0.08-0.33-0.2-0.65-0.38-1.21c-0.32,0.5-0.51,0.79-0.69,1.08
		c-0.72,1.19-1.31,2.47-2.17,3.55c-1.66,2.07-4.77,1.75-6.14-0.52c-0.14-0.24-0.3-0.46-0.48-0.73c-0.84,0.79-1.61,1.59-2.47,2.29
		c-1.62,1.33-3.45,2.02-5.58,1.58c-2.03-0.42-3.26-1.71-3.62-3.8c-0.07-0.37-0.19-0.73-0.35-1.35c-0.42,0.5-0.72,0.83-0.98,1.18
		c-0.64,0.84-1.15,1.81-1.91,2.51c-2.95,2.71-7.5,2.11-9.84-1.26c-0.73-1.05-1.3-2.22-1.97-3.32c-0.33-0.55-0.66-1.11-1.05-1.62
		c-0.79-1.01-1.55-1.16-2.72-0.63c-1.35,0.61-2.35,1.64-3.27,2.77c-1.67,2.08-2.39,4.57-3.17,7.05c-0.86,2.71-1.73,5.42-2.66,8.11
		c-0.39,1.13-1.1,2.05-2.32,2.41c-1.46,0.44-2.69-0.09-3.74-1.07c-1.71-1.59-2.56-3.67-3.01-5.88c-0.41-2.03-0.62-4.11-0.93-6.16
		c-0.04-0.24-0.12-0.51-0.26-0.7c-1.13-1.55-1.13-3.3-0.96-5.1c0.44-4.84,2.68-9,4.88-13.19c0.08-0.16,0.21-0.3,0.32-0.44
		c0.08,0.03,0.15,0.05,0.23,0.08c-0.05,0.32-0.05,0.66-0.17,0.95c-0.86,2.14-1.78,4.26-2.6,6.42c-0.49,1.29-0.93,2.61-1.21,3.96
		c-0.22,1.09,0.15,2.15,0.85,3.03c0.9,1.13,2.39,1.06,3.18-0.14c0.47-0.73,0.9-1.49,1.34-2.24C292,63.12,292.06,63.13,292.13,63.14z
		 M419.74,55.23c0.13-1.35-1.16-3.28-2.42-3.77c-1.01-0.39-2.54-0.35-3.2,0.82C415.63,53.94,417.48,54.91,419.74,55.23z
		 M401.27,58.84c-0.42-0.96-1.08-1.6-1.91-2.06c-1.22-0.67-2.5-0.39-3.37,0.7c-0.44,0.55-0.39,0.87,0.28,1.09
		c0.9,0.3,1.81,0.56,2.74,0.76C399.78,59.49,400.56,59.4,401.27,58.84z"/>
	<path class="st1" d="M284.28,140.99c-0.08,0.38-0.15,0.76-0.26,1.29c1.7-2.35,3.31-4.56,4.91-6.78c0.38-0.53,0.15-0.94-0.44-0.98
		c-0.68-0.04-1.43-0.06-2.05,0.17c-3.14,1.17-6.26,2.38-9.36,3.65c-5.64,2.32-11.42,4.06-17.57,4.22c-2.57,0.07-5.11-0.15-7.55-1.03
		c-3.47-1.26-5.88-3.55-6.47-7.32c-0.46-2.92,0.52-5.6,1.71-8.21c0.05-0.11,0.15-0.21,0.24-0.3c0.05-0.05,0.14-0.05,0.45-0.16
		c-0.1,0.56-0.19,1-0.24,1.44c-0.16,1.27-0.5,2.55-0.43,3.81c0.11,2.02,1.24,3.58,2.91,4.7c2.52,1.69,5.37,2.33,8.34,2.54
		c5.62,0.39,10.99-0.84,16.22-2.7c3.08-1.1,6.08-2.43,9.13-3.62c1.17-0.46,2.38-0.84,3.59-1.2c0.51-0.15,1.06-0.22,1.6-0.24
		c1.77-0.07,2.56,0.86,2.12,2.57c-0.8,3.02-2.46,5.6-4.26,8.1c-0.9,1.25-1.74,2.56-2.69,3.78c-0.99,1.29-0.9,2.68-0.56,4.12
		c0.88,3.78,3.88,5.78,7.82,5.22c2.13-0.3,4.07-1.15,5.9-2.21c2.91-1.69,5.58-3.72,8.02-6.05c0.43-0.41,0.81-0.87,1.16-1.34
		c0.71-0.97,0.69-1.81,0-2.83c-1.02,0.27-2.03,0.61-3.06,0.78c-0.88,0.15-1.8,0.19-2.69,0.13c-2.73-0.19-3.93-1.76-3.4-4.45
		c0.35-1.77,1.24-3.28,2.59-4.48c1.26-1.13,2.7-1.25,4.13-0.35c1.49,0.93,2.7,2.15,3.4,3.88c4.19-1.43,8.34-2.84,12.49-4.26
		c0-0.05,0-0.1-0.01-0.15c-1.79-0.36-3.57-0.71-5.36-1.07c-0.94-0.19-1.87-0.37-2.81-0.56c-0.63-0.12-1.25-0.3-1.84,0.18
		c-0.13,0.11-0.4,0.08-0.6,0.05c-2.4-0.3-4.81-0.63-7.21-0.93c-0.58-0.07-0.85-0.39-0.54-0.88c0.71-1.12,1.44-2.24,2.29-3.26
		c0.3-0.36,0.95-0.52,1.46-0.59c1.74-0.24,3.43-0.01,5.11,0.53c7.12,2.29,14.42,3.54,21.92,3.41c0.46-0.01,0.93-0.02,1.39-0.02
		c0.09,0,0.18,0.09,0.38,0.2c-0.64,1.2-1.24,2.38-1.92,3.53c-0.11,0.18-0.52,0.25-0.8,0.26c-0.94,0.03-1.88,0.01-2.82,0.01
		c-0.1,3.8,2.93,6.22,6.64,5.44c1.79-0.37,3.29-1.15,4.19-2.86c0.43-0.82,1-1.57,1.55-2.32c0.22-0.3,0.56-0.5,0.84-0.74
		c0.06,0.05,0.12,0.1,0.18,0.15c-0.02,0.16,0.01,0.35-0.06,0.49c-0.83,1.56,0.78,3.87,2.64,4.12c1.96,0.26,3.74-0.26,5.31-1.45
		c0.85-0.64,1.22-1.5,1.07-2.58c-0.61-4.21-1.17-8.43-1.85-12.63c-1.27-7.79-2.62-15.57-3.92-23.35c-0.07-0.44-0.07-0.94,0.05-1.37
		c0.37-1.4,0.81-2.79,1.23-4.18c0.09,0.01,0.19,0.02,0.28,0.03c0.24,1.12,0.5,2.24,0.7,3.36c1.7,9.68,3.39,19.36,5.07,29.05
		c0.59,3.4,1.12,6.82,1.77,10.21c0.19,0.97,0.6,1.92,1.03,2.82c1.04,2.17,3.38,3.03,5.61,2.13c0.19-0.08,0.38-0.16,0.56-0.25
		c1.61-0.78,1.82-1.05,1.57-2.8c-0.9-6.38-1.83-12.77-2.79-19.14c-0.99-6.56-2.03-13.1-3.05-19.65c-0.04-0.27-0.11-0.62-0.3-0.75
		c-0.57-0.41-0.52-0.85-0.27-1.41c0.39-0.9,0.7-1.83,1.06-2.74c0.12-0.3,0.3-0.58,0.46-0.89c1.02,1,4.7,9.42,4.51,10.55
		c-0.87-0.77-1.66-1.47-2.56-2.27c0.36,2.07,0.7,3.99,1.02,5.92c1.25,7.4,2.51,14.8,3.73,22.21c0.56,3.44,0.64,6.89-0.38,10.28
		c-0.29,0.98-0.67,1.96-1.18,2.84c-1.7,2.97-7.4,4-9.67-0.2c-0.4-0.74-0.71-1.55-0.97-2.35c-0.26-0.78-0.4-1.6-0.62-2.51
		c-0.22,0.53-0.37,1-0.6,1.43c-1.35,2.56-4.76,4.3-7.64,3.87c-1.57-0.23-2.62-1.13-3.11-2.66c-0.12-0.38-0.21-0.78-0.34-1.24
		c-0.67,0.88-1.25,1.73-1.92,2.49c-1.42,1.61-3.13,2.68-5.36,2.69c-3.29,0.01-5.78-2.33-6.03-5.72c-0.05-0.61-0.04-1.24,0.03-1.85
		c0.06-0.58,0.23-1.16,0.38-1.89c-0.41,0.09-0.78,0.14-1.12,0.26c-3.85,1.38-7.71,2.76-11.55,4.18c-1.96,0.72-3.88,1.55-5.83,2.29
		c-0.49,0.19-0.69,0.43-0.68,0.95c0.08,3.3-1.25,5.99-3.54,8.29c-3.14,3.16-6.58,5.88-10.71,7.63c-1.73,0.73-3.53,1.2-5.43,0.91
		c-3.58-0.55-5.92-2.92-6.49-6.52c-0.55-3.49,0.02-6.84,1.31-10.08c0.13-0.32,0.37-0.6,0.56-0.89
		C284.11,140.92,284.19,140.95,284.28,140.99z M303.95,138.39c0.04-0.11,0.09-0.23,0.13-0.34c-0.7-0.43-1.38-0.9-2.11-1.28
		c-0.55-0.29-1.12-0.18-1.56,0.26c-0.22,0.21-0.48,0.56-0.44,0.79c0.05,0.23,0.45,0.53,0.71,0.55
		C301.77,138.43,302.86,138.39,303.95,138.39z"/>
	<path class="st1" d="M90.74,7.83c0.36,1.49,0.8,2.82,1,4.19c0.38,2.52,0.67,5.05,0.9,7.58c0.18,1.98,0.25,3.96,0.32,5.95
		c0.14,3.92,0.23,7.84,0.35,11.76c0.2,6.11,0.35,12.23,0.65,18.33c0.12,2.42,0.71,4.77,1.89,6.93c1.27,2.32,3.74,4.19,7.42,3.75
		c3.82-0.46,7.36-1.8,10.83-3.36c0.18-0.08,0.34-0.21,0.5-0.32c-2.36-3.01-5.32-4.57-9.57-3.16c0.59-1.5,1.1-2.87,1.69-4.21
		c0.12-0.28,0.54-0.45,0.85-0.63c1.71-0.95,3.6-1.19,5.49-1.35c5.18-0.44,10.2,0.32,15.06,2.13c1.05,0.39,1.03,0.39,0.8,1.51
		c-0.48,2.34-1.71,3.92-4.12,4.57c-1.17,0.32-2.24,1-3.46,1.56c0.2,0.26,0.31,0.49,0.49,0.64c2.84,2.47,6.08,3.08,9.64,1.94
		c1.63-0.52,2.57-1.85,2.56-3.56c-0.08-7.49-0.15-14.97-0.28-22.45c-0.12-6.66-0.32-13.31-0.49-19.97c-0.05-1.78-0.1-3.56-0.16-5.34
		c-0.01-0.18-0.01-0.39-0.1-0.52c-0.66-0.85-0.36-1.63,0.1-2.43c0.65-1.12,1.28-2.26,2.01-3.56c1.65,4.34,2.78,8.61,3.66,12.95
		c0.01,0.06-0.16,0.16-0.3,0.29c-0.77-1.03-1.52-2.02-2.4-3.2c0,1.18-0.03,2.12,0,3.06c0.13,3.82,0.3,7.63,0.43,11.45
		c0.2,5.78,0.43,11.55,0.57,17.33c0.1,3.81,0.31,7.63-0.57,11.39c-0.77,3.31-2.1,6.32-4.93,8.4c-3.26,2.39-7.3,2.06-10.47-0.76
		c-0.98-0.87-1.96-1.77-2.87-2.71c-0.6-0.61-1.13-0.7-1.9-0.29c-3.49,1.86-7.05,3.6-10.88,4.63c-1.57,0.43-3.21,0.76-4.83,0.84
		c-2.92,0.14-5.16-1.19-6.67-3.69c-1.31-2.16-2.1-4.56-2.3-7.05c-0.34-4.11-0.49-8.23-0.63-12.35c-0.21-5.98-0.28-11.97-0.51-17.95
		c-0.15-3.83-0.45-7.67-0.78-11.49c-0.18-2.1-0.56-4.17-0.85-6.26c-0.02-0.15-0.05-0.32,0-0.46c0.46-1.25,0.94-2.5,1.42-3.74
		C90.35,8.11,90.49,8.05,90.74,7.83z M122.36,58.74c-0.02-0.08-0.04-0.17-0.06-0.25c-2.08-0.28-4.17-0.56-6.25-0.83
		c-0.03,0.07-0.06,0.14-0.09,0.21c0.6,0.61,1.2,1.23,1.82,1.82c0.72,0.69,1.44,0.74,2.32,0.25c0.51-0.29,1.05-0.52,1.58-0.79
		C121.91,59.02,122.13,58.87,122.36,58.74z"/>
	<path class="st1" d="M68.03,30.71c0.13,0.17,0.27,0.32,0.39,0.5c4.03,5.84,6.9,12.19,8.27,19.18c0.61,3.12,1.05,6.27,1.61,9.41
		c0.19,1.08,0.42,2.17,0.77,3.21c1.04,3.11,4.86,4.32,7.53,2.43c0.76-0.54,0.91-1.09,0.5-1.94c-0.43-0.88-0.85-1.77-1.35-2.61
		c-0.5-0.85-0.61-1.68-0.36-2.64c0.29-1.14,0.43-2.32,0.66-3.64c0.28,0.31,0.5,0.48,0.63,0.71c1.31,2.25,2.27,4.62,2.4,7.24
		c0.12,2.29-0.3,4.49-1.85,6.28c-1.52,1.76-3.42,2.79-5.81,2.2c-2.33-0.57-3.66-2.25-4.18-4.51c-0.53-2.29-0.9-4.62-1.48-6.96
		c-0.05,0.38-0.1,0.77-0.15,1.15c-0.28,2.08-1.22,3.87-2.58,5.43c-4.38,5.05-9.52,9.11-15.57,11.99c-1.83,0.87-3.76,1.32-5.77,0.92
		c-3.62-0.72-4.94-3.36-4.75-6.62c0.11-1.79,0.29-3.58,0.45-5.49c-0.56,0.31-1.03,0.56-1.49,0.83c-4.06,2.34-8.27,4.35-12.88,5.39
		c-3.72,0.84-7.45,1.02-11.08-0.39c-4.01-1.56-6.22-4.63-6.82-8.82c-0.56-3.93-0.09-7.8,1.25-11.54c0.16-0.45,0.11-0.67-0.28-0.96
		c-1.08-0.81-1.57-1.95-1.61-3.27c-0.11-3.7,0.77-7.18,2.42-10.48c0.7-1.4,1.38-2.82,2.09-4.22c0.18-0.35,0.41-0.67,0.62-1.01
		c0.09,0.03,0.19,0.07,0.28,0.1c-0.13,0.51-0.19,1.04-0.39,1.52c-0.73,1.75-1.59,3.46-2.23,5.24c-0.57,1.58-0.95,3.24-1.34,4.88
		c-0.21,0.88,0.65,2.56,1.42,3.02c0.9,0.54,1.96,0.3,2.55-0.63c0.47-0.74,0.87-1.51,1.4-2.44c0.09,0.28,0.2,0.44,0.19,0.58
		c-0.33,2.68-1.22,5.08-3.37,6.88c-0.2,0.17-0.39,0.44-0.45,0.69c-0.36,1.76-0.94,3.52-0.97,5.28c-0.09,4.77,2.15,8.9,7.68,10.37
		c3.96,1.06,7.85,0.51,11.69-0.65c6.1-1.85,11.62-4.82,16.58-8.81c1.63-1.31,2.08-2.8,1.43-4.81c-0.67-2.1-1.36-4.19-2.07-6.28
		c-0.35-1.02-0.49-2.04-0.2-3.1c0.23-0.85,0.45-1.7,0.67-2.55c0.09-0.02,0.17-0.03,0.26-0.05c0.32,0.62,0.64,1.23,0.95,1.85
		c0.58,1.16,1.49,1.77,2.8,1.61c0.63-0.07,1.26-0.23,1.87-0.41c0.54-0.16,1.05-0.43,1.58-0.6c0.75-0.24,0.85-0.76,0.64-1.4
		c-0.11-0.34-0.25-0.69-0.45-0.97c-0.71-0.99-0.89-2.05-0.58-3.22c0.23-0.86,0.43-1.74,0.66-2.7c0.96,0.93,1.3,2.1,1.63,3.25
		c0.66,2.34,0.53,4.67-0.21,6.98c-0.7,2.17-2.25,3.31-4.41,3.71c-1.28,0.23-1.31,0.24-1.38,1.55c-0.1,1.8-0.24,3.6-0.3,5.4
		c-0.08,2.6-1.29,4.62-3.16,6.29c-0.92,0.82-1.89,1.6-2.88,2.35c-0.76,0.57-1.18,1.24-1.11,2.23c0.06,0.82,0.01,1.65,0.01,2.48
		c0.01,2.33,1.19,3.53,3.5,3.76c2.42,0.25,4.63-0.35,6.79-1.35c3.76-1.74,6.98-4.26,10.03-7.02c1.78-1.61,3.5-3.28,5.24-4.93
		c1.43-1.35,1.71-3,1.2-4.82c-1.68-5.91-3.79-11.68-6.51-17.18c-1.29-2.6-1.11-5.14-0.85-7.78C67.89,30.78,67.96,30.75,68.03,30.71z
		"/>
	<path class="st1" d="M210.56,31.95c0.37-1.38,0.67-2.78,1.12-4.14c0.44-1.33,0.96-2.65,1.59-3.9c0.49-0.96,1.08-1.12,1.82-0.78
		c1.04,0.48,1.69,1.52,1.42,2.38c-0.15,0.48-0.41,0.92-0.7,1.57c-0.45-0.5-0.76-0.9-1.13-1.25c-0.56-0.53-1.08-0.5-1.48,0.14
		c-0.38,0.6-0.72,1.25-0.93,1.93c-0.68,2.15-1.3,4.32-1.95,6.48c-0.17,0.55-0.07,0.89,0.53,1.13c1.22,0.51,2.14,1.4,2.93,2.45
		c0.54,0.72,0.37,1.37,0,2.08c-0.34,0.66-0.77,1.04-1.57,0.98c-1.23-0.08-2.39,0.24-3.47,0.83c-0.82,0.45-0.95,0.79-0.74,1.71
		c0.63,2.75,1.33,5.48,1.86,8.25c0.55,2.86,0.77,5.76,0.62,8.69c-0.06,1.23-0.01,2.47-0.01,3.84c2.84-1.2,5.66-2.39,8.49-3.59
		c-0.33-1.02-0.69-1.98-0.93-2.96c-0.47-1.87,0.16-3.46,1.45-4.79c0.86-0.89,1.78-1.78,3.14-1.76c0.52,0.01,1.1,0.13,1.53,0.4
		c2.24,1.39,4.32,2.99,5.95,5.11c0.46,0.6,0.74,1.21,0.47,1.99c-0.26,0.75-0.48,1.52-0.69,2.28c-0.26,0.93-0.86,1.46-1.8,1.7
		c-1.22,0.3-2.42,0.67-3.63,1c-1.13,0.3-1.13,0.3-1.16,1.48c0,0.15-0.02,0.31-0.05,0.61c-0.31-0.21-0.62-0.32-0.76-0.54
		c-0.43-0.64-1.02-0.67-1.64-0.49c-5.25,1.51-10.33,3.44-14.46,7.14c-2.71,2.42-5.17,5.12-7.72,7.71c-1.5,1.53-2.87,3.19-4.46,4.61
		c-1.63,1.45-3.64,1.99-5.83,1.54c-1.94-0.4-3.13-1.69-3.92-3.41c-0.32-0.7-0.58-1.42-0.89-2.2c-0.59,0.3-1.17,0.56-1.73,0.87
		c-3.12,1.75-6.5,2.6-10.02,3.06c-3.41,0.45-6.81,1-10.21,1.48c-0.97,0.14-1.96,0.19-2.94,0.27c-0.02-0.08-0.04-0.17-0.06-0.25
		c0.43-0.19,0.85-0.4,1.29-0.57c7.49-2.9,15.04-5.66,22.28-9.16c0.93-0.45,1.46-1,1.71-2.06c0.85-3.68,2.68-6.88,5.14-9.72
		c0.17-0.19,0.33-0.39,0.49-0.6c-0.05-0.08-0.08-0.16-0.13-0.2c-1.12-0.96-1.12-0.96-1.88,0.32c-0.47,0.79-0.96,1.58-1.48,2.42
		c-1.56-1.1-3.06-2.17-4.64-3.29c0.84-1.42,1.66-2.81,2.54-4.3c1.08,0.76,2.13,1.49,3.16,2.24c1.44,1.06,1.42,1.07,2.34-0.47
		c0.41-0.68,0.85-1.34,1.32-2.1c1.55,1.1,3.05,2.17,4.64,3.3c-0.83,1.41-1.65,2.79-2.51,4.25c-0.59-0.4-1.16-0.78-1.71-1.17
		c-0.55-0.39-0.93-0.33-1.32,0.27c-1.82,2.72-3.56,5.48-4.39,8.7c-0.04,0.15-0.08,0.3-0.1,0.45c-0.01,0.07,0.03,0.15,0.05,0.28
		c0.18-0.06,0.35-0.08,0.49-0.16c5.04-2.7,10-5.54,14.55-9.04c1.68-1.29,1.73-1.49,0.92-3.47c-1.25-3.04-2.44-6.1-3.74-9.12
		c-1.02-2.34-1.23-4.69-0.45-7.12c0.11-0.33,0.16-0.69,0.24-1.03c0.01-0.04,0.08-0.06,0.21-0.14c0.28,0.33,0.58,0.66,0.85,1.02
		c1.19,1.52,2.39,3.05,3.56,4.58c0.12,0.16,0.15,0.39,0.23,0.58c-0.23,0-0.47,0.05-0.68-0.01c-0.49-0.15-0.96-0.36-1.58-0.59
		c0.17,0.49,0.3,0.9,0.46,1.28c0.86,2.09,1.9,4.12,2.57,6.26c1.69,5.4-0.25,10.89-4.97,14.01c-3.8,2.52-7.71,4.87-11.57,7.28
		c-1.39,0.87-1.46,1.28-0.22,2.4c1.26,1.13,2.73,1.46,4.37,0.9c1.66-0.57,2.99-1.61,4.19-2.83c2.56-2.58,5.04-5.26,7.66-7.78
		c2.03-1.94,4.22-3.72,6.36-5.54c0.56-0.47,0.81-0.99,0.82-1.73c0.02-5.56-0.92-11-2.09-16.41c-0.28-1.3-0.48-2.63-0.53-3.96
		c-0.09-2.09,0.92-3.44,2.88-4.16c0.5-0.18,1.01-0.34,1.58-0.53c-0.43-0.64-0.87-1.26-1.63-1.16c-0.63,0.08-1.22,0.45-1.91,0.72
		c0.45-0.97,0.92-1.85,1.27-2.77c0.15-0.39,0.19-0.91,0.08-1.31c-0.46-1.63-1.01-3.23-1.51-4.84c-0.15-0.5-0.39-0.73-0.98-0.76
		c-2.07-0.1-3.35-2.73-2.21-4.45c0.39-0.58,0.96-0.75,1.51-0.31c0.55,0.44,1.08,0.97,1.48,1.55c1.12,1.62,1.81,3.45,2.34,5.34
		c0.1,0.36,0.24,0.71,0.36,1.06C210.4,31.95,210.48,31.95,210.56,31.95z M225.29,59.09c0.05-0.08,0.09-0.16,0.14-0.23
		c-0.82-0.71-1.59-1.5-2.49-2.09c-0.62-0.4-1.41-0.6-2.15-0.7c-0.74-0.1-1.04,0.41-0.69,1.08c0.42,0.82,0.9,1.62,1.4,2.39
		c0.11,0.16,0.43,0.31,0.62,0.28C223.18,59.62,224.23,59.35,225.29,59.09z"/>
	<path class="st1" d="M169.66,121.43c1.46,1.68,2.91,3.35,4.37,5.03c-0.07,0.1-0.14,0.2-0.2,0.29c-0.59-0.16-1.17-0.33-1.89-0.53
		c0.14,0.36,0.24,0.66,0.38,0.94c0.61,1.22,1.23,2.44,1.86,3.65c1.84,3.52,1.31,6.88-0.68,10.13c-0.72,1.18-0.66,3.85,0.32,4.81
		c0.49,0.48,1.27,0.79,1.96,0.92c1.76,0.33,3.49,0.06,5.17-0.56c2.91-1.08,5.5-2.73,7.91-4.64c2.16-1.71,4.2-3.58,6.31-5.36
		c1.43-1.21,1.72-2.61,1.13-4.42c-1.56-4.82-3.36-9.54-5.74-14.01c-1.11-2.09-0.77-4.17-0.44-6.38c0.18,0.18,0.4,0.35,0.55,0.56
		c3.48,4.83,6.04,10.08,7.25,15.94c0.6,2.93,1.05,5.89,1.66,8.82c0.63,3.06,2.61,4.37,5.69,3.84c0.6-0.1,1.2-0.33,1.75-0.59
		c1.74-0.85,2.33-1.89,2.07-3.8c-0.52-3.94-1.04-7.88-1.66-11.8c-1.35-8.56-2.76-17.11-4.17-25.66c-0.07-0.43-0.34-0.83-0.5-1.25
		c-0.08-0.21-0.24-0.46-0.18-0.63c0.51-1.37,1.06-2.72,1.74-4.09c1.96,3.25,3.37,6.69,4.57,10.26c-1.11-0.28-1.61-1.27-2.59-2.04
		c0.15,0.99,0.27,1.8,0.41,2.61c1.19,6.89,2.42,13.77,3.57,20.66c0.44,2.64,0.75,5.31,1.01,7.98c0.33,3.37-0.16,6.6-2.17,9.45
		c-1.66,2.37-3.97,3.4-6.83,3.07c-2.2-0.25-3.52-1.69-4.12-3.7c-0.45-1.5-0.62-3.08-0.92-4.62c-0.05-0.24-0.09-0.48-0.21-0.73
		c-0.24,2.52-1.71,4.35-3.38,6.01c-3.75,3.72-7.97,6.79-12.85,8.88c-1.61,0.69-3.29,1.04-5.06,0.7c-2.3-0.43-3.94-2.17-4.09-4.51
		c-0.08-1.18-0.01-2.36-0.01-3.57c-0.23,0.17-0.51,0.41-0.82,0.62c-5.56,3.82-11.3,7.33-17.54,9.93c-1.8,0.75-3.83,0.98-5.78,1.32
		c-3.45,0.61-6.92,1.13-10.39,1.68c-0.39,0.06-0.79,0.06-1.19,0.09c-0.02-0.06-0.05-0.13-0.07-0.19c0.29-0.17,0.57-0.37,0.88-0.49
		c3.36-1.31,6.73-2.61,10.09-3.92c8.34-3.25,16.31-7.22,23.75-12.23c0.92-0.62,1.76-1.34,2.63-2.04c0.48-0.38,0.57-0.83,0.27-1.42
		c-0.99-1.93-1.96-3.87-2.86-5.84c-0.6-1.31-0.93-2.75-1.61-4.01c-1.01-1.85,0.19-3.39,0.26-5.07
		C169.41,121.48,169.54,121.46,169.66,121.43z"/>
	<path class="st1" d="M177.54,47.82c0.18,0.36,0.38,0.7,0.53,1.07c1.02,2.56,1.72,2.92,4.92,2.3c0.57-0.11,1.11-0.39,1.66-0.6
		c0.62-0.23,0.8-0.7,0.64-1.3c-0.08-0.29-0.17-0.61-0.35-0.85c-0.86-1.2-0.84-2.5-0.5-3.84c0.18-0.72,0.41-1.43,0.68-2.32
		c0.27,0.39,0.51,0.67,0.66,0.98c1.51,3.17,1.55,6.4,0.29,9.64c-0.8,2.07-2.52,2.95-4.6,3.28c-0.98,0.15-1.05,0.26-1.11,1.28
		c-0.12,1.8-0.27,3.59-0.44,5.39c-0.28,2.93-1.74,5.18-4.05,6.91c-5.16,3.86-10.76,6.82-17.05,8.34c-2.81,0.68-5.64,1.19-8.55,0.86
		c-5.44-0.63-10.13-3.29-11.04-10.14c-0.67-5.07,0.5-9.86,2.89-14.36c0.19-0.36,0.52-0.65,0.79-0.97c0.09,0.05,0.19,0.11,0.28,0.16
		c-0.18,0.7-0.36,1.4-0.54,2.11c-0.5,1.93-1.13,3.84-1.47,5.8c-0.98,5.62,2.15,10.31,7.68,11.69c3.72,0.93,7.39,0.57,11.05-0.36
		c6-1.53,11.44-4.26,16.47-7.82c2.19-1.55,2.75-3.18,1.99-5.76c-0.6-2.04-1.22-4.08-1.85-6.11c-0.31-0.98-0.23-1.92,0.04-2.88
		c0.24-0.83,0.48-1.65,0.72-2.48C177.37,47.83,177.45,47.83,177.54,47.82z"/>
	<path class="st1" d="M245.5,74.14c-0.13-0.43-0.19-0.9-0.41-1.28c-0.14-0.25-0.55-0.55-0.78-0.51c-5.07,1.01-8.21-2.4-9.53-5.87
		c-0.9-2.35-1.38-4.79-1.43-7.3c-0.13-7.85-0.15-15.69-0.35-23.54c-0.1-3.89-0.4-7.77-0.74-11.65c-0.31-3.45-0.78-6.89-1.23-10.33
		c-0.27-2.04,0.57-3.77,1.37-5.52c0.03-0.07,0.16-0.08,0.36-0.17c0.35,1.41,0.81,2.75,1,4.12c0.54,3.97,1.05,7.95,1.41,11.94
		c0.68,7.54,0.6,15.11,0.64,22.67c0.02,3.1,0,6.2,0.19,9.29c0.15,2.45,0.39,4.93,1.37,7.23c0.8,1.89,1.9,3.6,4.04,4.17
		c0.85,0.23,1.77,0.26,2.66,0.27c0.75,0.01,0.89-0.56,0.89-1.19c-0.02-2.48,0.24-4.93,0.95-7.32c0.52-1.73,1.24-3.38,2.35-4.83
		c1.3-1.69,2.92-1.57,4.01,0.28c1.32,2.25,1.59,4.72,1.28,7.24c-0.17,1.41-0.51,2.83-0.98,4.18c-0.91,2.57-2.75,4.34-5.28,5.3
		c-1.03,0.39-1.65,0.88-1.44,2.07c0.04,0.23-0.07,0.5-0.12,0.74C245.65,74.13,245.57,74.13,245.5,74.14z M246.04,67.05
		c1.71-0.24,5.1-2.31,5.89-3.61c0.2-0.33,0.33-0.79,0.28-1.16c-0.21-1.48-0.93-2.71-2.05-3.69c-0.65-0.57-1.11-0.54-1.62,0.16
		C246.72,61.2,246.15,64.02,246.04,67.05z"/>
	<path class="st1" d="M153.06,40.28c0.3-0.94,0.56-1.9,0.92-2.83c0.4-1.03,1.18-1.7,2.16-2.21c6.6-3.43,13.5-6.13,20.47-8.69
		c15.33-5.64,30.66-11.27,46-16.89c1.54-0.56,3.12-1.02,4.68-1.51c0.23-0.07,0.48-0.1,0.84-0.17c-0.73,2.4-1.81,4.25-4.23,5.14
		c-16.5,6.02-32.99,12.07-49.48,18.13c-6.9,2.54-13.59,5.55-20.22,8.72c-0.32,0.15-0.65,0.3-0.97,0.45
		C153.17,40.38,153.11,40.33,153.06,40.28z"/>
	<path class="st1" d="M107.75,97.57c-0.14,0.26-0.25,0.56-0.43,0.78c-0.19,0.23-0.46,0.4-0.7,0.6c-0.06-0.31-0.19-0.62-0.17-0.92
		c0.01-0.38,0.09-0.78,0.23-1.13c0.45-1.15,0.88-2.31,1.42-3.42c0.39-0.79,0.93-0.82,1.37-0.05c0.49,0.86,0.97,1.79,1.17,2.75
		c0.84,3.91,1.74,7.81,2.3,11.76c1.1,7.79,1.97,15.61,3,23.41c0.3,2.29,1.01,4.47,2.35,6.4c1.95,2.81,6.34,4.01,9.45,1.29
		c1-0.88,1.87-1.92,2.77-2.9c0.45-0.49,0.85-1.04,1.31-1.53c0.21-0.22,0.52-0.35,0.94-0.63c-0.02,0.37,0.01,0.54-0.04,0.68
		c-0.11,0.34-0.27,0.67-0.37,1.01c-0.57,1.94,0.24,3.24,2.23,3.62c2.51,0.48,4.59-0.47,5.84-2.76c0.49-0.9,0.82-1.89,1.25-2.83
		c0.25-0.55,0.54-1.1,1.38-1.28c-0.06,0.37-0.07,0.66-0.15,0.93c-0.5,1.76,0.16,3.24,1.89,3.81c0.77,0.26,1.67,0.28,2.5,0.2
		c0.92-0.08,1.25-0.79,0.66-1.49c-0.74-0.88-0.59-1.67-0.18-2.56c0.34-0.74,0.65-1.5,0.97-2.25c0.1-0.01,0.2-0.02,0.31-0.03
		c0.2,0.74,0.5,1.46,0.59,2.21c0.23,1.94,0.16,3.87-0.47,5.74c-0.85,2.53-3.3,3.57-5.75,2.47c-1.13-0.5-1.74-1.37-2.18-3.21
		c-0.44,0.83-0.79,1.55-1.2,2.25c-1.05,1.8-2.61,2.93-4.67,3.22c-2.3,0.32-4.41-1.38-4.82-3.75c-0.03-0.17-0.04-0.34-0.08-0.62
		c-0.69,0.87-1.3,1.66-1.93,2.43c-3.17,3.94-8.91,3.86-11.96-0.15c-1.6-2.11-2.41-4.57-2.76-7.14c-0.55-4.04-0.94-8.1-1.42-12.14
		c-0.87-7.38-1.79-14.75-3.47-22c-0.22-0.96-0.6-1.88-0.91-2.81C107.93,97.54,107.84,97.56,107.75,97.57z"/>
	<path class="st1" d="M244.62,77.41c0.97-0.46,1.94-0.92,2.92-1.37c5.2-2.4,10.18-5.19,14.7-8.74c1.95-1.53,3.69-3.24,4.33-5.76
		c0.12-0.49,0.25-1.01,0.24-1.51c-0.07-3.77-0.14-7.53-0.27-11.3c-0.07-2.22-0.21-4.43-0.36-6.64c-0.17-2.52-0.38-5.03-0.56-7.55
		c-0.13-1.77-0.24-3.55-0.36-5.32c-0.19-2.85-0.4-5.71-0.56-8.56c-0.11-2.11-0.14-4.23-0.22-6.34c-0.01-0.33,0-0.71-0.16-0.97
		c-0.49-0.82-0.33-1.56,0.11-2.33c0.55-0.95,1.08-1.93,1.7-3.05c1.74,3.96,3.03,7.87,3.88,12.08c-1.22-0.63-1.58-1.81-2.44-2.85
		c0,0.6-0.03,1.04,0,1.47c0.24,3.06,0.5,6.11,0.73,9.17c0.19,2.54,0.33,5.09,0.5,7.64c0.18,2.75,0.41,5.5,0.54,8.25
		c0.12,2.5,0.19,5.01,0.16,7.51c-0.04,3.32-0.2,6.64-1.01,9.88c-1.12,4.47-3.06,8.45-6.59,11.54c-2.58,2.25-5.61,3.49-8.95,4
		c-2.41,0.37-4.83,0.67-7.25,0.98c-0.34,0.04-0.7,0.01-1.04,0.01C244.64,77.55,244.63,77.48,244.62,77.41z"/>
	<path class="st1" d="M203.71,154.45c0.55-0.26,1.08-0.54,1.64-0.76c4.13-1.62,8.29-3.14,12.38-4.85
		c6.84-2.85,13.47-6.14,19.66-10.24c1.29-0.85,2.5-1.82,3.68-2.81c0.75-0.63,0.67-0.99-0.1-1.61c-1.01-0.8-2.23-0.89-3.44-0.97
		c-0.92-0.06-1.86,0.01-2.78-0.03c-2.6-0.13-3.98-1.73-3.79-4.34c0.13-1.8,0.78-3.35,2.07-4.63c1.58-1.56,3.36-1.78,5.17-0.48
		c2.62,1.88,4.17,4.48,4.56,7.69c0.33,2.68,0.01,5.28-1.53,7.57c-0.58,0.86-1.28,1.73-2.11,2.33c-5.6,4.04-11.48,7.62-17.87,10.25
		c-1.87,0.77-3.98,1.03-6,1.39c-3.55,0.62-7.13,1.14-10.69,1.7c-0.24,0.04-0.49,0.04-0.74,0.06
		C203.77,154.62,203.74,154.54,203.71,154.45z M237.91,128.85c-1.13-1.52-2.45-1.93-3.66-1.27c-0.26,0.14-0.43,0.45-0.64,0.69
		c0.28,0.19,0.54,0.54,0.83,0.55C235.53,128.89,236.63,128.85,237.91,128.85z"/>
	<path class="st1" d="M99.17,148.17c0.08-0.43,0.13-0.88,0.26-1.3c0.78-2.53,2.19-4.71,3.82-6.77c0.78-0.99,1.53-2.02,2.24-3.06
		c0.53-0.78,0.3-1.28-0.64-1.21c-1.04,0.07-2.11,0.24-3.08,0.61c-2.87,1.09-5.69,2.3-8.53,3.46c-5.77,2.35-11.7,4.06-18,4.01
		c-2.89-0.02-5.72-0.39-8.31-1.79c-3.87-2.1-5.61-5.98-4.58-10.25c0.33-1.35,0.81-2.66,1.27-3.97c0.12-0.36,0.39-0.66,0.59-0.99
		c0.11,0.04,0.23,0.08,0.34,0.12c-0.08,0.47-0.12,0.95-0.26,1.4c-0.52,1.61-0.66,3.24-0.17,4.87c0.74,2.44,2.61,3.77,4.82,4.69
		c3.49,1.45,7.16,1.67,10.88,1.34c5.61-0.49,10.88-2.25,16.06-4.35c2.7-1.09,5.42-2.13,8.16-3.1c0.7-0.25,1.53-0.27,2.29-0.23
		c1.15,0.07,1.78,0.81,1.55,1.93c-0.24,1.15-0.55,2.33-1.12,3.35c-1.12,2.02-2.42,3.95-3.67,5.9c-0.93,1.45-1.9,2.88-2.85,4.32
		c-0.25,0.38-0.5,0.75-0.76,1.13C99.37,148.25,99.27,148.21,99.17,148.17z"/>
	<path class="st1" d="M339.59,45.85c-0.09-0.32-0.27-0.65-0.24-0.96c0.32-2.91,1.64-5.3,4.16-6.78c3.43-2.02,6.93-3.94,10.47-5.75
		c13.44-6.85,27.38-12.6,41.33-18.3c4.18-1.71,8.3-3.56,12.45-5.35c0.23-0.1,0.47-0.17,0.74-0.27c-0.59,2.49-1.04,3.65-3.96,4.84
		c-9.57,3.91-19.19,7.73-28.69,11.8c-9.07,3.89-17.96,8.16-26.64,12.87c-2.46,1.34-4.8,2.9-7.2,4.36c-1.1,0.67-1.78,1.62-1.97,2.9
		c-0.03,0.21-0.1,0.42-0.16,0.62C339.8,45.84,339.69,45.85,339.59,45.85z"/>
	<path class="st1" d="M102.74,33.77c9.63-3.84,19.01-7.58,28.38-11.31c0.04,0.08,0.09,0.15,0.13,0.23c-0.51,1.71-1.2,3.2-3.1,3.95
		c-6.97,2.75-13.9,5.6-20.85,8.38c-0.92,0.37-1.45,0.92-1.69,1.9c-0.62,2.56-1.38,5.09-1.97,7.67c-0.3,1.35,0.29,2.56,1.27,3.47
		c0.26,0.24,1.04,0.24,1.38,0.02c0.51-0.32,0.91-0.89,1.24-1.42c0.35-0.56,0.57-1.19,0.85-1.8c0.08,0.01,0.16,0.02,0.23,0.03
		c-0.04,0.66-0.04,1.32-0.14,1.98c-0.26,1.73-0.96,3.26-2.22,4.48c-0.99,0.97-1.92,0.82-2.67-0.35c-1.51-2.33-1.6-4.79-0.78-7.39
		c0.69-2.17,1.26-4.38,1.88-6.57c0.08-0.28,0.1-0.59,0.19-1.07c-3.21,1.67-6.25,3.26-9.43,4.91c0.59-1.8,0.98-3.52,2.84-4.37
		c1.02-0.47,1.97-1.12,2.96-1.66c0.7-0.38,1.1-0.9,1.3-1.7c0.63-2.65,1.02-5.32,0.82-8.03c-0.33-4.45-1.76-8.54-4.45-12.13
		c-0.52-0.69-0.63-1.34-0.34-2.15c0.33-0.9,0.56-1.84,0.86-2.84C105.5,15.95,106.37,24.53,102.74,33.77z"/>
	<path class="st1" d="M279.14,8.22c0.83,2.58,1.71,5.14,2.49,7.74c0.46,1.52,0.78,3.08,1.14,4.62c0.04,0.18-0.04,0.4-0.07,0.6
		c-0.07,0-0.13,0.01-0.2,0.01c-0.75-0.97-1.5-1.94-2.36-3.06c0,1.28-0.05,2.37,0.01,3.46c0.11,2.21,0.3,4.42,0.42,6.63
		c0.21,3.81,0.39,7.62,0.58,11.43c0.07,1.55,0.13,3.09,0.17,4.64c0.12,4.88,0.21,9.75,0.35,14.63c0.11,4.03-0.89,7.84-2.37,11.54
		c-0.13,0.32-0.38,0.59-0.57,0.88c-0.1-0.03-0.2-0.06-0.29-0.09c0-0.42-0.01-0.84,0-1.25c0.11-2.96,0.32-5.92,0.31-8.89
		c-0.01-4.41-0.16-8.82-0.29-13.23c-0.09-3.12-0.22-6.24-0.35-9.36c-0.18-4.12-0.39-8.24-0.57-12.36c-0.13-3.07-0.24-6.13-0.36-9.2
		c-0.05-1.25,0.05-2.52-0.53-3.7c-0.12-0.25-0.03-0.68,0.1-0.95c0.69-1.38,1.43-2.73,2.15-4.09C278.97,8.21,279.06,8.21,279.14,8.22
		z"/>
	<path class="st1" d="M146.95,68.77c0-1.15-0.02-2.3,0-3.45c0.06-3.3,0.2-6.6,0.2-9.9c-0.01-3.2-0.12-6.4-0.25-9.6
		c-0.17-4.38-0.38-8.76-0.58-13.14c-0.12-2.73-0.22-5.46-0.35-8.19c-0.15-3.25-0.31-6.49-0.48-9.74c-0.02-0.3-0.06-0.66-0.23-0.88
		c-0.5-0.67-0.35-1.29-0.01-1.94c0.57-1.09,1.13-2.2,1.7-3.29c0.09-0.17,0.22-0.33,0.48-0.7c1.54,4.35,2.87,8.54,3.78,12.86
		c0.02,0.11-0.16,0.26-0.29,0.44c-0.82-1.06-1.57-2.04-2.43-3.15c-0.02,0.35-0.06,0.56-0.05,0.76c0.19,2.98,0.39,5.96,0.58,8.95
		c0.12,1.96,0.25,3.91,0.34,5.87c0.2,4.04,0.49,8.09,0.56,12.13c0.08,4.28-0.05,8.57-0.07,12.85c-0.01,3.25-0.96,6.27-2.17,9.24
		c-0.14,0.34-0.35,0.64-0.52,0.96C147.1,68.81,147.03,68.79,146.95,68.77z"/>
	<path class="st1" d="M263.19,63.35c-0.11-0.47-0.26-0.93-0.32-1.41c-0.64-5.19-2.88-9.73-5.78-13.96
		c-4.12-6.02-8.28-12-12.48-17.96c-2.49-3.53-4.36-7.39-6.3-11.22c-0.16-0.32-0.32-0.69-0.59-0.88c-0.71-0.51-0.88-1.12-0.68-1.95
		c0.28-1.19,0.48-2.39,0.75-3.77c2.53,2.45,4.88,4.86,6.97,7.51c-0.04,0.09-0.09,0.18-0.13,0.27c-0.94-0.28-1.88-0.56-3-0.9
		c0.35,0.66,0.6,1.16,0.89,1.63c4.85,7.94,10.34,15.45,15.65,23.09c2.24,3.23,4.22,6.63,4.93,10.53c0.47,2.54,0.53,5.16,0.73,7.75
		c0.03,0.41-0.18,0.83-0.27,1.25C263.43,63.33,263.31,63.34,263.19,63.35z"/>
	<path class="st1" d="M377.42,8.42c-0.58,1.87-1.46,3.16-3.27,3.96c-12.1,5.35-24.18,10.74-36.19,16.27
		c-4.59,2.12-8.99,4.66-13.47,7.01c-0.36,0.19-0.71,0.37-1.23,0.65c0.77-2.31,1.7-4.2,3.87-5.31c12.31-6.31,25.01-11.74,37.69-17.23
		c3.72-1.61,7.44-3.24,11.16-4.84C376.41,8.73,376.87,8.61,377.42,8.42z"/>
	<path class="st1" d="M215.73,92.68c1.66,3.32,3.41,6.61,4.54,10.17c-0.11,0.08-0.22,0.16-0.32,0.23c-0.77-0.73-1.53-1.45-2.42-2.29
		c0.25,1.42,0.5,2.69,0.71,3.96c1.36,8.16,2.73,16.33,4.06,24.49c0.28,1.73,0.43,3.48,0.6,5.23c0.26,2.76-0.16,5.45-0.94,8.1
		c-0.11,0.37-0.31,0.72-0.47,1.07c-0.08-0.01-0.16-0.02-0.25-0.03c-0.08-0.3-0.23-0.6-0.24-0.91c-0.5-9.58-2.41-18.97-3.92-28.42
		c-0.84-5.24-1.67-10.49-2.52-15.73c-0.07-0.41-0.32-0.78-0.48-1.18c-0.08-0.21-0.26-0.46-0.2-0.63c0.5-1.37,1.04-2.72,1.57-4.08
		C215.54,92.67,215.64,92.67,215.73,92.68z"/>
	<path class="st1" d="M152.37,92.66c1.69,3.32,3.39,6.64,4.58,10.18c-0.11,0.08-0.22,0.16-0.34,0.25c-0.77-0.72-1.54-1.43-2.43-2.27
		c0.3,1.68,0.59,3.21,0.84,4.74c1.31,7.83,2.63,15.66,3.9,23.51c0.32,1.98,0.47,3.99,0.64,6c0.22,2.64-0.3,5.19-1.03,7.7
		c-0.09,0.3-0.28,0.57-0.43,0.85c-0.08,0-0.16,0-0.24,0c-0.08-0.37-0.22-0.74-0.24-1.12c-0.63-10.74-2.82-21.26-4.53-31.85
		c-0.64-3.95-1.21-7.9-1.85-11.85c-0.08-0.51-0.37-0.98-0.56-1.46c-0.07-0.19-0.23-0.41-0.17-0.56c0.5-1.37,1.04-2.73,1.57-4.09
		C152.17,92.67,152.27,92.67,152.37,92.66z"/>
	<path class="st1" d="M38.96,25.23c-0.31-0.53-0.08-0.77,0.39-1.09c1.19-0.79,2.37-1.63,3.45-2.56c1.09-0.94,1.44-2.14,1.11-3.62
		c-0.53-2.43-0.93-4.89-1.36-7.34c-0.11-0.62-0.08-1.26-0.11-1.89c0.1-0.01,0.21-0.02,0.31-0.04c0.28,1.15,0.57,2.3,0.83,3.45
		c0.44,1.95,0.83,3.91,1.29,5.86c0.57,2.4,2.32,3.81,4.79,4.14c2.71,0.36,5.25-0.33,7.8-1.03c0.55-0.15,0.71-0.55,0.61-1.07
		c-0.52-2.82-1.06-5.65-1.54-8.48c-0.1-0.59-0.01-1.22-0.01-1.83c0.13-0.01,0.26-0.03,0.39-0.04c0.15,0.65,0.33,1.29,0.45,1.94
		c0.52,2.72,1.04,5.44,1.53,8.17c0.11,0.64,0.37,0.7,0.89,0.42c0.97-0.52,1.97-1.01,2.94-1.53c0.9-0.48,1.1-0.95,0.89-1.96
		c-0.41-1.96-0.85-3.91-1.18-5.88c-0.1-0.61,0.08-1.26,0.26-1.9c2.38,2.31,4.86,4.51,5.01,8.08c0.07,1.64-0.32,3.22-1.23,4.62
		c-0.69,1.06-1.77,1.44-2.97,1.53c-0.56,0.05-1.13,0.09-1.69,0.16c-0.49,0.06-0.63,0.31-0.45,0.81c0.66,1.84,2.31,2.51,4.01,1.56
		c0.74-0.41,1.42-0.92,2.13-1.4c0.01,1.15-0.96,2.13-3.05,3.08c-2,0.92-3.12,0.7-5.06-1c-0.43,1.03-0.92,2.06-2.22,2.04
		c-1.09-0.02-1.33-0.97-1.6-1.93c-0.4,0.21-0.74,0.36-1.05,0.55c-1.64,0.98-3.31,1.85-5.25,2.09c-2,0.25-3.67-0.19-4.91-1.87
		c-0.69-0.94-1.12-0.95-1.69,0.08c-0.56,1-0.92,2.11-1.42,3.15c-0.14,0.29-0.44,0.67-0.7,0.69c-0.31,0.03-0.83-0.19-0.95-0.45
		c-0.83-1.77-1.36-3.6-0.63-5.56c0.04,0.64,0.07,1.29,0.13,1.92c0.06,0.58,0.08,1.2,0.29,1.73c0.16,0.4,0.56,0.85,0.94,0.94
		c0.22,0.06,0.71-0.47,0.91-0.83c0.47-0.88,0.78-1.85,1.26-2.72c0.74-1.33,1.33-1.36,2.31-0.2c1.07,1.26,2.38,1.93,4.06,1.81
		c1.68-0.12,3.19-0.74,4.64-1.52c0.8-0.43,1.59-0.89,2.48-1.38c0.06,0.37,0.09,0.65,0.16,0.92c0.2,0.81,0.7,1.19,1.42,1.11
		c0.91-0.1,1.41-0.57,1.34-1.45c-0.09-1.09-0.3-2.17-0.48-3.35c-0.45,0.1-0.81,0.13-1.13,0.25c-2.45,0.88-4.99,1.24-7.58,1.06
		c-2.31-0.16-4.09-1.14-4.91-3.45c-0.05-0.15-0.14-0.28-0.22-0.44c-0.09,0.12-0.15,0.18-0.17,0.25c-0.09,0.24-0.16,0.49-0.25,0.73
		c-0.68,1.83-1.8,3.25-3.76,3.78C39.84,24.52,39.32,24.71,38.96,25.23z M63.22,11.35c0.29,1.61,0.57,3.22,0.86,4.82
		c0.32,1.72-0.19,2.96-1.68,3.87c-0.79,0.48-1.61,0.9-2.42,1.35c-0.41,0.23-0.72,0.54-0.58,1.05c0.27,0.99,0.55,1.97,0.87,2.94
		c0.08,0.26,0.34,0.46,0.51,0.68c0.03-0.5-0.09-0.9-0.18-1.32c-0.35-1.57,0.86-3.04,2.43-2.87c3.11,0.32,4.67-2.54,4.2-4.87
		C66.74,14.55,65.12,12.91,63.22,11.35z"/>
	<path class="st1" d="M80.73,24.77c-1.38-1.38-1.69-1.39-3.96-0.11c0.35-0.76,0.58-1.39,0.9-1.96c0.68-1.22,0.83-2.48,0.32-3.78
		c-0.53-1.36-1.09-2.71-1.67-4.05c-0.17-0.4-0.4-0.82-0.99-0.53c-0.08,0.04-0.26-0.02-0.35-0.08c-0.73-0.52-1.52-0.99-2.17-1.6
		c-0.81-0.75-0.5-2.96,0.48-3.49c0.26-0.14,0.76-0.06,1.04,0.1c1.23,0.73,2.11,1.83,2.7,3.11c0.69,1.48,1.26,3.03,1.87,4.55
		c0.1,0.25,0.17,0.52,0.45,0.79c0.27-1.19,0.55-2.39,0.83-3.58c0.4-1.72,0.72-3.47,1.65-5.02c0.74-1.22,1.25-1.51,2.11-1.1
		c1.3,0.61,1.84,1.68,1.41,2.86c-0.15,0.4-0.37,0.78-0.6,1.26c-0.36-0.39-0.64-0.72-0.94-1.03c-0.87-0.89-1.48-0.86-2.02,0.28
		c-0.49,1.06-0.83,2.2-1.16,3.33c-0.5,1.75-0.9,3.52-1.4,5.27c-0.19,0.68-0.07,1.01,0.62,1.27c1.33,0.51,2.35,1.44,3.22,2.57
		c0.69,0.89,0.17,1.65-0.15,2.45c-0.26,0.65-0.83,0.78-1.46,0.78c-1.37-0.01-2.64,0.37-3.8,1.09c-0.57,0.36-0.83,0.79-0.63,1.55
		c0.85,3.17,1.72,6.33,2.42,9.53c0.89,4.07,1.23,8.19,0.84,12.36c-0.06,0.63-0.22,1.25-0.5,1.88c-0.07-0.68-0.16-1.36-0.22-2.05
		c-0.21-2.15-0.29-4.32-0.64-6.45c-0.49-2.98-1.17-5.93-1.76-8.9c-0.35-1.76-0.76-3.51-1.04-5.28c-0.44-2.85,0.63-4.58,3.31-5.57
		C79.83,25.1,80.23,24.95,80.73,24.77z"/>
	<path class="st1" d="M379.55,39.19c0.25-2.31,1.13-4.42,3.44-5.8c6.93-4.11,14.02-7.93,21.28-11.41c3.96-1.9,7.89-3.86,11.84-5.79
		c0.28-0.13,0.56-0.25,0.85-0.38c0.05,1.5-0.99,3.04-2.45,3.73c-8.49,4.04-16.99,8.08-25.18,12.69c-2.58,1.45-5.09,3.03-7.55,4.67
		C380.88,37.51,380.23,38.47,379.55,39.19z"/>
	<path class="st1" d="M293.68,48.72c0.13-0.39,0.18-0.62,0.27-0.82c0.5-1.07,1-2.14,1.51-3.21c0.27-0.58,0.62-0.81,1.26-0.41
		c1.39,0.89,2.8,1.74,4.2,2.6c0.8,0.49,1,0.43,1.41-0.41c0.5-1.01,1.01-2.03,1.48-3.05c0.3-0.64,0.68-0.75,1.28-0.38
		c1.49,0.92,3,1.81,4.5,2.7c0.55,0.33,0.73,0.78,0.45,1.37c-0.57,1.21-1.15,2.41-1.71,3.62c-0.27,0.58-0.62,0.58-1.11,0.27
		c-1.43-0.92-2.86-1.83-4.31-2.73c-0.8-0.5-1.04-0.43-1.4,0.42c-0.45,1.04-0.86,2.09-1.29,3.13c-0.36,0.87-0.59,0.96-1.37,0.49
		c-1.48-0.89-2.95-1.78-4.4-2.72C294.12,49.37,293.9,48.98,293.68,48.72z"/>
	<path class="st1" d="M298.96,84.8c0.33-0.13,0.64-0.3,0.98-0.38c4.07-0.94,8.14-1.86,12.21-2.79c1.98-0.45,3.71-1.46,5.48-2.4
		c1.94-1.04,3.9-2.07,5.92-2.95c1.82-0.79,3.51-0.41,4.97,0.99c1.62,1.55,3.7,1.15,4.7-0.86c0.29-0.58,0.56-1.16,0.85-1.73
		c0.08-0.15,0.24-0.26,0.36-0.39c0.07,0.03,0.14,0.06,0.21,0.09c-0.04,0.34-0.12,0.67-0.12,1.01c0,0.31-0.01,0.77,0.17,0.9
		c0.33,0.24,0.79,0.31,1.22,0.37c0.07,0.01,0.22-0.34,0.29-0.55c0.27-0.83,0.51-1.67,0.77-2.51c0.15,0.02,0.3,0.03,0.44,0.05
		c0.05,0.68,0.23,1.39,0.11,2.03c-0.15,0.82-0.52,1.6-0.85,2.37c-0.32,0.77-0.98,1.04-1.71,0.72c-1.11-0.48-1.9-0.25-2.58,0.73
		c-0.26,0.37-0.66,0.65-1.03,0.93c-1.11,0.82-2.41,0.82-3.38-0.14c-2.06-2.06-4.33-2.09-6.78-0.87c-1.93,0.96-3.83,2.01-5.8,2.87
		c-3.15,1.38-6.47,2.14-9.89,2.42c-1.95,0.16-3.9,0.29-5.85,0.42c-0.19,0.01-0.39-0.02-0.58-0.03C299.03,85,299,84.9,298.96,84.8z"
		/>
	<path class="st1" d="M285.13,39.68c-0.35-0.65,0.08-0.93,0.48-1.21c2.16-1.5,4.37-2.93,6.45-4.53c1.92-1.47,3.72-3.1,5.54-4.7
		c0.93-0.83,0.85-1.33-0.18-1.99c-0.95-0.62-1.34-1.47-1.08-2.58c0.37-1.6,0.75-3.19,1.18-4.77c0.33-1.24,0.96-1.5,2.06-0.82
		c2.42,1.48,4.25,3.48,4.86,6.3c0.27,1.26,0.15,2.61,0.12,3.92c-0.02,0.71-0.65,1-1.39,0.67c-0.8-0.36-1.55-0.8-2.32-1.21
		c-1-0.53-1.28-0.47-1.89,0.48c-1.86,2.93-4.49,5.03-7.38,6.82c-1.92,1.19-3.91,2.27-5.88,3.4
		C285.53,39.55,285.33,39.6,285.13,39.68z M301.54,24c-1.11,1.78-1.07,1.95,0.74,2.88c0.16,0.08,0.32,0.19,0.49,0.22
		c0.23,0.04,0.57,0.12,0.68,0c0.12-0.13,0.12-0.48,0.05-0.69C303.14,25.39,302.55,24.54,301.54,24z M297.45,24.2
		c0.02,0.52,1.07,1.43,1.63,1.28c0.31-0.08,0.71-0.5,0.74-0.79c0.07-0.75-0.75-1.65-1.35-1.64
		C297.95,23.05,297.43,23.64,297.45,24.2z"/>
	<path class="st1" d="M226.47,74.81c-2.59,4.86-7.38,6.81-12.22,8.63c-2.67,1-5.49,1.44-8.33,1.76c-1.32,0.15-2.61,0.53-3.91,0.8
		c-0.36,0.07-0.73,0.09-1.09,0.14c-0.02-0.08-0.04-0.16-0.07-0.24c0.48-0.19,0.95-0.39,1.44-0.56c4.18-1.45,8.4-2.81,12.55-4.38
		c2.59-0.98,5.07-2.24,7.57-3.43c1.57-0.74,2.55-2.14,3.6-3.44c1.09-1.34,2.18-2.68,3.3-3.99c0.24-0.29,0.56-0.53,0.89-0.73
		c0.65-0.38,1.22-0.26,1.72,0.31c1.3,1.5,1.73,4.81,0.85,6.57c-0.44,0.88-0.76,1.08-1.65,0.7C229.57,76.3,228.06,75.55,226.47,74.81
		z M231.12,74.15c0-1.68-0.82-2.57-1.99-2.3c-0.2,0.05-0.52,0.18-0.54,0.32c-0.04,0.21,0.07,0.55,0.24,0.66
		C229.54,73.28,230.3,73.68,231.12,74.15z"/>
	<path class="st1" d="M367.15,74.56c0,0.26,0,0.53,0,0.79c0.01,0.8,0.54,1.37,1.34,1.28c0.2-0.02,0.44-0.46,0.51-0.75
		c0.14-0.52,0.13-1.07,0.26-1.59c0.09-0.35,0.32-0.67,0.52-1.05c1.17,1.5,0.58,3.82-0.42,4.92c-0.25,0.28-0.97,0.41-1.33,0.27
		c-1.47-0.61-2.42-0.27-3.17,1.17c-0.54,1.03-1.53,1.63-2.78,1.39c-0.5-0.1-1.12-0.29-1.41-0.66c-1.42-1.82-3.23-2.05-5.26-1.44
		c-1.78,0.53-3.46,1.28-4.96,2.41c-2.85,2.15-6.1,3.21-9.65,3.43c-1.51,0.1-3.02,0.27-4.54,0.38c-0.24,0.02-0.49-0.08-0.74-0.12
		c0-0.07,0-0.13,0-0.2c1.88-0.53,3.77-1.06,5.65-1.6c1.3-0.37,2.6-0.76,3.91-1.12c1.97-0.54,3.66-1.57,5.28-2.78
		c1.8-1.34,3.68-2.51,5.89-3.13c1.33-0.37,2.59-0.2,3.87,0.11c0.29,0.07,0.57,0.35,0.77,0.6c1.74,2.15,4.04,1.82,5.2-0.76
		c0.24-0.54,0.52-1.07,0.78-1.61C366.98,74.52,367.06,74.54,367.15,74.56z"/>
	<path class="st1" d="M357.18,53.97c0-1.38-0.01-2.76,0-4.14c0.01-1.62-0.11-3.26,0.13-4.85c0.13-0.9,0.76-1.8,1.37-2.52
		c1.1-1.28,3.54-0.6,3.92,1.07c0.22,0.95,0.17,1.93-0.32,2.88c-0.56-0.37-1.08-0.75-1.64-1.06c-1.5-0.84-2.64-0.19-2.62,1.52
		c0.03,2.37,0.15,4.75,0.13,7.12c-0.02,1.69-0.55,3.26-1.6,4.84c-0.37-1.16-0.7-2.17-1-3.18c-0.58-1.96-1.61-3.67-2.91-5.22
		c-0.4-0.48-0.74-0.63-1.07,0.07c-0.24,0.52-0.64,0.52-1.08,0.23c-0.67-0.44-1.31-0.92-2.01-1.3c-1.05-0.58-1.29-1.48-1.11-2.56
		c0.1-0.61,0.25-1.2,0.41-1.8c0.21-0.79,0.44-0.91,1.22-0.68c2.35,0.7,4.07,2.19,5.27,4.27c0.77,1.33,1.36,2.77,2.04,4.15
		c0.21,0.42,0.46,0.82,0.7,1.24C357.07,54.02,357.13,53.99,357.18,53.97z"/>
	<path class="st1" d="M340.92,12.55c-0.49-0.36-0.96-0.76-1.48-1.08c-1.01-0.63-1.69-0.36-1.87,0.81c-0.22,1.45-0.23,2.93-0.48,4.36
		c-0.36,2.04-0.85,4.06-1.31,6.08c-0.05,0.23-0.25,0.43-0.49,0.84c-0.21-0.53-0.4-0.88-0.48-1.25c-0.53-2.33-1.63-4.37-3.14-6.2
		c-0.64-0.78-0.69-0.75-1.47-0.12c-0.24,0.19-0.74,0.26-1.04,0.16c-0.7-0.24-1.37-0.59-2.02-0.94c-0.94-0.51-1.29-1.34-1.06-2.4
		c0.13-0.63,0.26-1.26,0.43-1.87c0.31-1.06,0.7-1.21,1.7-0.74c3.26,1.54,5.51,3.99,6.74,7.38c0.13,0.37,0.34,0.7,0.51,1.06
		c0.09-0.01,0.17-0.01,0.26-0.02c0.1-0.35,0.26-0.69,0.29-1.04c0.18-2.18,0.26-4.37,0.52-6.54c0.09-0.81,0.48-1.61,0.87-2.34
		c0.31-0.57,0.96-0.77,1.62-0.64C341.26,8.49,342.14,10.54,340.92,12.55z"/>
	<path class="st1" d="M128.81,77.94c-0.66,0.96-1.2,2.03-1.99,2.87c-2.49,2.64-5.39,4.65-9.06,5.21c-1.01,0.15-2.12,0.04-3.12-0.2
		c-1.39-0.33-2-1.67-1.57-3.21c0.33-1.18,0.75-2.34,1.21-3.48c0.28-0.69,0.21-1.07-0.53-1.37c-1.66-0.67-1.8-0.98-1.35-2.69
		c0.38-1.44,0.97-2.76,2.24-3.68c0.48-0.35,1.04-0.72,1.54-0.33c0.33,0.26,0.46,0.87,0.51,1.34c0.06,0.62-0.04,1.25-0.09,2.09
		c-0.49-0.37-0.76-0.7-1.1-0.8c-0.45-0.14-0.97-0.19-1.42-0.1c-0.24,0.05-0.56,0.46-0.57,0.72c-0.01,0.23,0.31,0.57,0.56,0.71
		c1.53,0.85,3.33,0.92,4.69-0.45c0.27-0.27,0.61-0.46,0.93-0.69c0.47,0.92,0.07,2.19-0.96,2.77c-1.79,1.02-3.16,2.46-4.41,4.06
		c-0.71,0.91-0.6,1.59,0.37,2.23c1.22,0.82,2.57,0.63,3.89,0.48c3.36-0.4,5.91-2.36,8.42-4.4c0.52-0.42,1.05-0.83,1.57-1.24
		C128.65,77.83,128.73,77.88,128.81,77.94z"/>
	<path class="st1" d="M91.15,104.75c-2.77-0.77-5.63-0.8-8.62-0.74c0.15-0.29,0.22-0.5,0.35-0.67c0.65-0.9,1.34-1.77,1.95-2.69
		c0.49-0.73,1.15-1.01,2.01-1.05c2.54-0.13,4.97,0.37,7.37,1.11c0.82,0.25,1.14,0.84,0.97,1.69c-0.1,0.47-0.29,0.94-0.55,1.34
		c-1.79,2.82-4.19,4.72-7.66,4.98c-0.9,0.07-1.79,0.23-2.69,0.29c-0.23,0.02-0.48-0.16-0.72-0.25c0.17-0.17,0.31-0.4,0.51-0.49
		c2.19-1.03,4.39-2.04,6.59-3.05c0.16-0.07,0.32-0.16,0.48-0.23C91.15,104.9,91.15,104.83,91.15,104.75z"/>
	<path class="st1" d="M281.59,102.21c-2.78-0.78-5.65-0.8-8.76-0.75c0.86-1.18,1.64-2.15,2.32-3.19c0.59-0.89,1.37-1.19,2.41-1.21
		c2.41-0.06,4.72,0.4,7,1.08c0.98,0.29,1.35,1.02,1.03,1.99c-0.16,0.48-0.42,0.94-0.7,1.37c-1.83,2.85-4.41,4.48-7.81,4.75
		c-0.77,0.06-1.54,0.19-2.31,0.24c-0.26,0.02-0.54-0.08-0.81-0.13c-0.01-0.1-0.03-0.2-0.04-0.3c2.58-1.21,5.16-2.41,7.73-3.62
		C281.63,102.36,281.61,102.29,281.59,102.21z"/>
	<path class="st1" d="M419.77,34.28c-0.16-0.25-0.24-0.38-0.32-0.51c-0.75-1.28-0.82-1.29-1.66-0.1c-2.44,3.43-5.7,5.92-9.23,8.12
		c-1.75,1.09-3.53,2.12-5.3,3.17c-0.22,0.13-0.47,0.21-0.71,0.31c-0.05-0.07-0.1-0.15-0.15-0.22c0.38-0.36,0.72-0.77,1.14-1.06
		c4.81-3.33,9.16-7.19,13.4-11.2c0.97-0.91,0.98-1.27-0.02-2.18c-0.79-0.72-1.5-1.46-1.66-2.6c-0.26-1.8,1.16-4.82,2.75-5.71
		c1.36-0.76,2.5-0.2,2.75,1.35c0.28,1.75-0.06,3.43-0.59,5.08c-0.27,0.82-0.33,1.55,0.05,2.37
		C420.72,32.16,420.32,33.18,419.77,34.28z M418.37,24.75c-0.5,0.27-1.05,0.48-1.5,0.82c-0.46,0.34-0.46,0.88-0.09,1.3
		c0.58,0.66,1.19,1.29,1.83,1.88c0.44,0.41,0.82,0.25,0.99-0.29c0.17-0.51,0.31-1.04,0.38-1.56
		C420.09,26.12,419.13,24.9,418.37,24.75z"/>
	<path class="st1" d="M312.81,33.92c1.47,1.72,2.97,3.29,4.25,5.02c1.12,1.52,1.29,3.39,1.19,5.24c-0.07,1.41-0.23,2.82-0.38,4.22
		c-0.08,0.75,0.2,1.31,0.78,1.73c0.58,0.42,1.15,0.86,1.76,1.24c1.07,0.67,1.52,1.59,1.27,2.81c-0.15,0.73-0.3,1.47-0.57,2.15
		c-0.5,1.26-1.43,2.11-2.75,2.51c-1.18,0.36-2.07-0.04-2.55-1.21c-0.6-1.47-0.51-2.98-0.13-4.47c0.5-1.96,1.11-3.89,1.64-5.84
		c0.68-2.5,0.06-4.73-1.58-6.69c-0.84-1.01-1.79-1.93-2.65-2.93C312.13,36.6,312.03,35.44,312.81,33.92z M316.8,51.92
		c-0.16,0.66-0.36,1.33-0.48,2c-0.17,0.9,0.21,1.59,1,2.05c0.89,0.52,1.61,0.04,2.37-0.34c0.89-0.45,0.93-0.78,0.12-1.41
		C318.84,53.48,317.86,52.74,316.8,51.92z"/>
	<path class="st1" d="M59.96,54.33c1.23,0.88,2.42,1.72,3.61,2.57c0.97,0.69,0.97,0.7,1.59-0.3c0.53-0.85,1.05-1.7,1.61-2.61
		c1.54,1.1,3.05,2.17,4.64,3.3c-0.83,1.4-1.64,2.78-2.52,4.26c-0.68-0.46-1.33-0.9-1.96-1.35c-0.63-0.45-1.26-0.89-1.87-1.37
		c-0.56-0.45-0.94-0.36-1.29,0.25c-0.53,0.93-1.1,1.84-1.7,2.85c-1.57-1.12-3.07-2.19-4.65-3.32C58.27,57.19,59.1,55.79,59.96,54.33
		z"/>
	<path class="st1" d="M259.28,12.54c-0.22,1.88-0.93,3.19-2.58,3.97c-1.42,0.67-2.75,1.51-4.12,2.28c-1.36,0.77-2.71,1.56-4.13,2.37
		c-0.04-1.99,1.25-3.16,2.56-4.36c-0.14-0.18-0.24-0.36-0.39-0.48c-0.96-0.85-1.08-1.88-0.69-3.02c0.66-1.89,1.65-3.54,3.33-4.71
		c0.67-0.46,1.34-0.8,2.14-0.35c0.82,0.47,0.97,1.24,0.82,2.08c-0.13,0.77-0.36,1.53-0.59,2.47c-0.38-0.46-0.66-0.78-0.92-1.12
		c-0.42-0.53-0.92-0.71-1.56-0.38c-0.16,0.08-0.32,0.16-0.49,0.23c-1.22,0.54-1.32,1.05-0.37,1.96c1.44,1.37,2.83,1.52,4.53,0.5
		C257.62,13.52,258.39,13.07,259.28,12.54z"/>
	<path class="st1" d="M118.64,22.73c-0.49-1.69-1.02-3.37-1.46-5.08c-0.34-1.34-1.02-2.37-2.16-3.16c-1.98-1.37-2.01-1.56-1.17-3.81
		c0.1-0.26,0.18-0.53,0.28-0.8c0.35-0.97,1.16-1.18,1.91-0.46c0.25,0.24,0.47,0.56,0.62,0.88c1.2,2.54,2.1,5.17,2.53,7.96
		c0.04,0.26,0.14,0.52,0.21,0.78c0.07,0,0.15,0,0.22,0.01c0.17-0.86,0.38-1.71,0.49-2.57c0.31-2.55,1.02-4.96,2.18-7.25
		c0.1-0.21,0.2-0.42,0.33-0.61c0.7-1.01,1.89-1.01,2.53,0.05c0.62,1.05,0.92,2.19,0.53,3.4c-0.23,0.72-0.56,1.41-0.92,2.31
		c-0.31-0.82-0.45-1.48-0.79-2.01c-0.31-0.48-0.83-0.82-1.26-1.22c-0.35,0.47-0.89,0.9-1.03,1.43c-0.73,2.8-1.35,5.62-2.04,8.43
		c-0.15,0.6-0.43,1.17-0.65,1.76C118.87,22.74,118.76,22.73,118.64,22.73z"/>
	<path class="st1" d="M178.58,14.23c-0.38-0.84-0.65-1.58-1.05-2.26c-0.2-0.35-0.74-0.86-0.92-0.78c-0.42,0.17-0.93,0.59-1.03,1.01
		c-0.49,1.88-0.85,3.79-1.25,5.69c-0.31,1.5-0.58,3.01-0.89,4.51c-0.03,0.16-0.16,0.31-0.34,0.61c-0.2-0.35-0.38-0.58-0.47-0.84
		c-0.57-1.57-1.16-3.13-1.66-4.71c-0.32-1.02-0.89-1.78-1.79-2.31c-0.07-0.04-0.12-0.09-0.19-0.13c-2.15-1.38-2.2-1.53-1.43-3.93
		c0.07-0.22,0.17-0.43,0.24-0.65c0.32-1.06,1.15-1.31,1.95-0.55c0.25,0.24,0.46,0.56,0.59,0.88c0.84,2.04,1.68,4.08,2.48,6.14
		c0.2,0.52,0.27,1.09,0.42,1.63c0.07,0.25,0.18,0.49,0.28,0.73c0.07-0.01,0.14-0.02,0.21-0.03c0.15-1.11,0.35-2.21,0.44-3.33
		c0.18-2.36,0.88-4.58,1.76-6.74c0.17-0.41,0.53-0.76,0.88-1.05c0.63-0.52,1.4-0.36,1.86,0.36c0.87,1.37,1.27,2.8,0.47,4.37
		C178.92,13.26,178.79,13.7,178.58,14.23z"/>
	<path class="st1" d="M185.34,17.8c2.7-1.6,5.4-3.21,8.1-4.81c-0.03-0.11-0.06-0.22-0.09-0.33c-0.56-0.1-1.12-0.29-1.68-0.28
		c-1.57,0-3.14,0.09-4.71,0.13c-0.3,0.01-0.6-0.05-1.12-0.1c1.01-1.46,1.85-2.83,2.86-4.06c0.29-0.35,1.09-0.43,1.64-0.41
		c1.67,0.08,3.33,0.26,4.99,0.41c1.27,0.11,1.72,0.7,1.16,1.84c-0.54,1.08-1.32,2.07-2.08,3.02c-0.79,0.99-1.64,1.92-2.54,2.8
		c-0.4,0.39-0.95,0.7-1.49,0.84c-1.65,0.43-3.33,0.75-5,1.12C185.36,17.91,185.35,17.86,185.34,17.8z"/>
	<path class="st1" d="M144.43,120.57c0.38,0.73-0.34,1.61,0.65,1.93c0.46,0.15,1,0.03,1.6,0.03c-0.62-1.26-0.56-1.66,0.34-2.63
		c0.17,0.26,0.44,0.5,0.45,0.73c0.02,0.94,0.1,1.92-0.12,2.82c-0.32,1.29-1.8,1.73-2.94,1.02c-0.19-0.12-0.38-0.25-0.63-0.42
		c-0.2,0.23-0.37,0.45-0.55,0.66c-1.04,1.2-2.57,1.47-3.99,0.77c-1.55-0.77-3.08-0.51-4.38,0.45c-1.8,1.33-3.51,2.8-5.19,4.28
		c-2.69,2.37-5.82,3.87-9.2,4.92c-0.4,0.12-0.83,0.16-1.24,0.24c-0.03-0.08-0.07-0.16-0.1-0.24c0.28-0.16,0.55-0.38,0.85-0.49
		c4.29-1.54,7.88-4.12,11-7.4c1.49-1.57,3.18-2.86,5.13-3.81c1.17-0.57,2.28-0.64,3.44,0.1c1.25,0.8,2.94,0.3,3.68-1
		c0.2-0.36,0.31-0.77,0.52-1.12C143.94,121.1,144.21,120.85,144.43,120.57z"/>
	<path class="st1" d="M240.29,28.72c5.79,5.81,7.24,18.71,2.94,26.68c0.24-1.41,0.44-2.66,0.67-3.91c1.13-6.21-0.17-11.92-3.7-17.09
		c-0.81-1.18-1.14-2.2-0.55-3.53C239.95,30.21,240.08,29.47,240.29,28.72z"/>
	<path class="st1" d="M81.51,75.38c0.18,1.61-0.45,2.69-1.9,3.3c-4.1,1.71-8.21,3.39-12.3,5.1c-1.82,0.76-3.61,1.56-5.53,2.39
		c0.24-1.89,0.92-3.21,2.69-3.91c5.43-2.17,10.84-4.42,16.25-6.63C80.97,75.53,81.24,75.47,81.51,75.38z"/>
	<path class="st1" d="M131.9,101.5c0.11-0.7,0.21-1.41,0.34-2.11c0.19-1.06,0.39-2.13,0.61-3.19c0.07-0.33,0.17-0.65,0.3-0.96
		c0.28-0.67,0.59-1.42,1.42-1.47c0.87-0.04,1.58,0.44,2.09,1.14c0.41,0.57,0.24,1.62-0.39,2.42c-0.25-0.3-0.47-0.6-0.73-0.87
		c-0.71-0.75-1.39-0.68-1.68,0.29c-0.38,1.25-0.6,2.55-0.85,3.83c-0.16,0.86-0.22,1.74-0.37,2.6c-0.3,1.72-1.4,2.9-2.71,3.91
		c-2.14,1.65-5.02,2.99-7.91,3.72c0.18-0.2,0.26-0.34,0.39-0.42c1.23-0.84,2.49-1.66,3.71-2.52c1.62-1.13,3.23-2.29,4.83-3.46
		c0.18-0.13,0.38-0.46,0.33-0.62c-0.49-1.51-0.86-3.1-2.05-4.28c-0.23-0.23-0.53-0.21-0.79-0.29c-0.85-0.24-1.72-0.65-2.39-1.23
		c-0.59-0.5-0.45-1.39-0.09-2.02c0.17-0.31,0.81-0.65,1.11-0.55c0.68,0.22,1.47,0.55,1.86,1.09c0.92,1.28,1.65,2.71,2.44,4.09
		c0.16,0.28,0.27,0.59,0.4,0.89C131.81,101.52,131.85,101.51,131.9,101.5z"/>
	<path class="st1" d="M267,97.61c-0.38-0.45-0.62-0.78-0.9-1.06c-0.64-0.63-1.28-0.55-1.55,0.29c-0.36,1.12-0.61,2.28-0.83,3.44
		c-0.19,0.99-0.23,2-0.4,2.99c-0.27,1.59-1.2,2.78-2.43,3.75c-2.4,1.89-5.12,3.15-8.22,3.98c0.19-0.21,0.27-0.35,0.39-0.44
		c1.19-0.82,2.39-1.61,3.58-2.44c1.63-1.13,3.24-2.29,4.86-3.42c0.46-0.32,0.52-0.66,0.27-1.18c-0.47-0.99-0.83-2.04-1.31-3.03
		c-0.22-0.45-0.63-0.81-0.94-1.19c-0.72,0.29-2.1-0.21-2.76-0.95c-0.43-0.48-0.52-1.57-0.19-2.2c0.26-0.51,0.75-0.75,1.22-0.54
		c0.66,0.29,1.44,0.62,1.83,1.17c0.91,1.29,1.63,2.73,2.41,4.11c0.15,0.26,0.25,0.54,0.53,0.79c0.13-0.87,0.23-1.75,0.4-2.61
		c0.22-1.16,0.44-2.33,0.77-3.47c0.21-0.73,0.55-1.57,1.46-1.62c0.93-0.06,1.72,0.44,2.17,1.26C267.8,95.99,267.39,96.73,267,97.61z
		"/>
	<path class="st1" d="M224.75,21.1c-0.06,0.42-0.09,0.85-0.2,1.26c-0.81,2.97-1.72,5.91-2.43,8.9c-0.55,2.33-0.84,4.73-0.38,7.11
		c0.14,0.72,0.56,1.45,1.03,2.03c1.05,1.34,2.44,1.13,3.14-0.41c0.34-0.75,0.6-1.53,0.91-2.29c0.09-0.23,0.2-0.45,0.3-0.67
		c0.1,0.02,0.19,0.04,0.29,0.07c-0.14,0.83-0.25,1.66-0.42,2.47c-0.34,1.6-0.7,3.2-1.1,4.79c-0.25,0.99-0.73,1.91-1.87,2
		c-1.08,0.09-1.71-0.69-2.22-1.54c-1.03-1.73-1.31-3.65-1.45-5.61c-0.26-3.5,0.63-6.83,1.58-10.15c0.65-2.29,1.31-4.58,1.99-6.87
		c0.12-0.4,0.32-0.78,0.49-1.17C224.51,21.05,224.63,21.08,224.75,21.1z"/>
	<path class="st1" d="M373.56,30.22c0.79,1.99,1.68,3.96,2.35,5.99c0.36,1.11,0.01,2.31-0.47,3.38c-0.46,1.03-2.11,1.23-3,0.44
		c-0.36-0.32-0.72-0.63-1.17-1.02c-0.22,0.59-0.38,1.04-0.56,1.48c-0.43,1.11-1.17,1.88-2.37,2.09c-1.15,0.2-2.09-0.3-2.36-1.46
		c-0.26-1.09-0.3-2.23-0.35-3.36c-0.06-1.38-0.02-1.38-1.58-1.13c0.39-0.91,0.7-1.76,1.11-2.55c0.1-0.19,0.54-0.33,0.78-0.28
		c0.18,0.03,0.4,0.4,0.42,0.63c0.09,1.16,0.09,2.32,0.16,3.47c0.08,1.36,0.72,2.07,1.8,2.05c1.18-0.03,2.49-1.17,2.38-2.28
		c-0.1-1.06-0.43-2.1-0.69-3.14c-0.22-0.88-0.36-1.75,0.03-2.88c0.38,0.89,0.69,1.58,0.96,2.29c0.34,0.89,0.6,1.8,0.96,2.68
		c0.39,0.96,1.06,1.36,2.04,1.33c0.86-0.03,1.07-0.33,0.77-1.12c-0.48-1.24-1.1-2.45-1.42-3.73c-0.22-0.89-0.04-1.88-0.04-2.82
		C373.39,30.25,373.47,30.23,373.56,30.22z"/>
	<path class="st1" d="M158.22,103.58c0.59-1.21,1.36-2.33,2.54-2.99c2.07-1.15,4.16-2.3,6.34-3.19c4.32-1.76,8.7-3.34,13.06-4.99
		c0.09-0.03,0.19-0.05,0.35,0c-0.89,1.16-1.38,2.59-2.97,3.19c-6.36,2.41-12.71,4.86-18.78,7.94c-0.13,0.07-0.27,0.12-0.41,0.18
		C158.31,103.68,158.26,103.63,158.22,103.58z"/>
	<path class="st1" d="M122.59,120.85c0.19-0.4,0.28-0.63,0.4-0.83c0.74-1.25,1.74-2.23,3.01-2.93c3.93-2.18,8.11-3.8,12.3-5.39
		c2-0.76,4.02-1.44,6.04-2.15c0.19-0.07,0.38-0.11,0.62-0.1c-0.93,1.27-1.56,2.69-3.28,3.33c-6.23,2.32-12.42,4.74-18.36,7.74
		C123.16,120.61,122.97,120.68,122.59,120.85z"/>
	<path class="st1" d="M245.73,93.71c-0.66,0.86-1.3,1.72-1.98,2.56c-0.15,0.18-0.42,0.29-0.66,0.38
		c-6.54,2.51-13.08,5.01-19.34,8.18c-0.08,0.04-0.18,0.06-0.45,0.14c0.21-0.42,0.33-0.72,0.49-0.99c0.94-1.52,2.34-2.51,3.91-3.29
		c5.05-2.53,10.32-4.53,15.65-6.4c0.75-0.26,1.5-0.51,2.25-0.76C245.64,93.59,245.69,93.65,245.73,93.71z"/>
	<path class="st1" d="M192.43,152.92c-0.66,0.86-1.3,1.72-1.98,2.56c-0.15,0.18-0.42,0.29-0.66,0.38
		c-6.54,2.51-13.08,5.01-19.34,8.18c-0.08,0.04-0.18,0.06-0.45,0.14c0.21-0.42,0.33-0.72,0.49-0.99c0.94-1.52,2.34-2.51,3.91-3.29
		c5.05-2.53,10.32-4.53,15.65-6.4c0.75-0.26,1.5-0.51,2.25-0.76C192.35,152.8,192.39,152.86,192.43,152.92z"/>
	<path class="st1" d="M254,156.68c0.55-1.61,1.57-2.8,2.99-3.53c2.5-1.27,5.02-2.53,7.61-3.59c3.57-1.46,7.23-2.72,10.85-4.06
		c0.21-0.08,0.43-0.13,0.7-0.12c-0.92,1.24-1.51,2.67-3.19,3.3c-6.3,2.35-12.56,4.79-18.57,7.84
		C254.28,156.58,254.14,156.63,254,156.68z"/>
	<path class="st1" d="M401.17,38.6c-0.13,1.47-0.84,2.34-1.89,3.04c-2.41,1.63-4.78,3.32-7.18,4.98c-0.37,0.26-0.77,0.48-1.2,0.74
		c-0.35-1.98,1.58-2.38,2.37-3.7c-0.4-0.18-0.74-0.36-1.11-0.49c-1.38-0.52-1.6-0.75-1.44-2.21c0.22-2.17,1.03-4.07,2.73-5.53
		c0.53-0.46,1.11-0.62,1.78-0.43c1.17,0.34,1.58,1.12,1.2,2.31c-0.13,0.41-0.27,0.81-0.44,1.29c-0.48-0.32-0.9-0.61-1.33-0.86
		c-0.76-0.45-1.3-0.39-1.84,0.28c-1.37,1.72-1.1,2.25,0.78,2.77c1.5,0.42,2.91,0.18,4.26-0.45c0.86-0.4,1.67-0.92,2.5-1.37
		C400.59,38.84,400.84,38.75,401.17,38.6z"/>
	<path class="st1" d="M125.73,41.76c-0.35-0.81-0.59-1.54-0.97-2.19c-0.55-0.96-1.26-0.92-1.71,0.13c-0.39,0.89-0.69,1.82-0.9,2.77
		c-0.37,1.65-0.61,3.33-0.96,4.98c-0.15,0.71-0.46,1.38-0.7,2.07c-0.08,0.01-0.15,0.01-0.23,0.02c-0.14-0.24-0.32-0.47-0.4-0.73
		c-0.39-1.3-0.79-2.6-1.12-3.91c-0.31-1.24-0.97-2.19-2.03-2.89c-0.24-0.16-0.46-0.33-0.69-0.5c-0.72-0.52-1.04-1.18-0.7-2.07
		c0.22-0.57,0.38-1.17,0.63-1.73c0.44-1.01,1.12-1.09,1.79-0.21c1.02,1.34,1.48,2.92,1.9,4.51c0.33,1.24,0.63,2.48,0.95,3.72
		c0.04,0.16,0.14,0.31,0.38,0.48c0.24-1.04,0.47-2.07,0.71-3.11c0.32-1.4,0.56-2.82,0.98-4.19c0.25-0.82,0.68-1.61,1.17-2.32
		c0.71-1.04,1.84-0.92,2.37,0.21c0.6,1.28,0.85,2.59,0.03,3.9C126.03,40.98,125.92,41.33,125.73,41.76z"/>
	<path class="st1" d="M78.96,122.51c0.72-1.29,1.39-2.48,2.07-3.71c1.41,0.83,2.76,1.61,4.16,2.43c0.59-1.04,1.15-2.01,1.74-3.04
		c1.43,0.84,2.81,1.64,4.28,2.5c-0.68,1.23-1.35,2.43-2.06,3.72c-1.38-0.81-2.73-1.6-4.17-2.44c-0.57,1.01-1.14,2-1.73,3.05
		C81.8,124.18,80.41,123.36,78.96,122.51z"/>
	<path class="st1" d="M264.81,127.27c-1.46-0.86-2.83-1.66-4.28-2.51c0.69-1.25,1.36-2.45,2.06-3.72c1.4,0.81,2.73,1.58,4.12,2.39
		c0.59-1.03,1.15-2.03,1.75-3.08c1.44,0.85,2.83,1.67,4.27,2.51c-0.69,1.25-1.35,2.44-2.06,3.71c-1.39-0.8-2.73-1.58-4.12-2.39
		C265.96,125.23,265.41,126.21,264.81,127.27z"/>
	<path class="st1" d="M27.59,14.3c-0.37-0.28-0.69-0.54-1.04-0.76c-0.81-0.52-1.41-0.26-1.53,0.68c-0.13,0.97-0.15,1.95-0.32,2.91
		c-0.33,1.91-0.74,3.81-1.11,5.72c-0.1,0-0.2,0-0.3,0.01c-0.14-0.36-0.32-0.71-0.41-1.09c-0.42-1.83-1.34-3.38-2.52-4.81
		c-0.3-0.36-0.58-0.66-1.02-0.05c-0.15,0.2-0.69,0.2-1.03,0.16c-0.32-0.04-0.61-0.25-0.91-0.41c-1.79-0.96-1.62-2.4-0.71-3.92
		c0.12-0.2,0.7-0.29,0.98-0.19c2.23,0.81,3.69,2.46,4.74,4.52c0.33,0.65,0.65,1.31,0.98,1.96c0.09-0.01,0.18-0.02,0.27-0.03
		c0.09-0.53,0.21-1.06,0.26-1.6c0.12-1.38,0.2-2.77,0.33-4.16c0.03-0.38,0.14-0.76,0.26-1.12c0.46-1.31,1.4-1.58,2.52-0.74
		C28.29,12.32,28.43,13.01,27.59,14.3z"/>
	<path class="st1" d="M163.03,20.02c0.46,2.03,0.01,3.88-0.98,5.61c-0.33,0.58-0.78,1.09-1.2,1.6c-0.9,1.11-1.85,1.1-2.72-0.06
		c-1.7-2.27-2.15-4.76-1.39-7.51c0.9-3.28,1.72-6.59,2.6-9.88c0.14-0.52,0.38-1.02,0.57-1.53c0.11,0.02,0.23,0.05,0.34,0.07
		c-0.08,0.73-0.09,1.48-0.25,2.19c-0.68,2.99-1.42,5.98-2.12,8.97c-0.42,1.77,0.35,3.16,1.51,4.38c0.16,0.17,0.69,0.18,0.95,0.06
		c1.09-0.5,1.73-1.41,2.12-2.52C162.61,20.93,162.83,20.48,163.03,20.02z"/>
	<path class="st1" d="M221.16,70.27c0.21,1.43-0.35,2.6-1.63,3.28c-3.66,1.93-7.34,3.83-11.01,5.74c-0.89,0.46-1.78,0.9-2.78,1.4
		c0.06-1.67,0.6-2.99,1.99-3.71c4.29-2.23,8.61-4.38,12.93-6.56C220.79,70.36,220.95,70.33,221.16,70.27z"/>
	<path class="st1" d="M292.82,30.91c-0.59-0.28-1.19-0.81-1.65-0.71c-0.49,0.11-0.86,0.81-1.27,1.27c-2.05,2.3-4.72,3.6-7.52,4.71
		c-0.21,0.08-0.47,0.03-0.75-0.05c2.74-2.28,6.17-3.64,8.41-6.63c-0.46-0.19-0.9-0.37-1.34-0.56c-1.74-0.73-2.25-1.98-1.22-3.56
		c0.67-1.04,1.61-1.92,2.49-2.82c0.38-0.4,0.99-0.67,1.46-0.26c0.41,0.35,0.84,0.91,0.87,1.41c0.07,1.04-0.06,2.11-0.2,3.15
		c-0.11,0.78-0.06,1.38,0.65,1.89C293.48,29.26,293.45,29.67,292.82,30.91z M290.8,27.74c0.11-0.59,0.21-1.06,0.29-1.54
		c0.22-1.32-0.43-2.01-1.73-1.75c-0.38,0.08-0.87,0.46-0.96,0.81c-0.09,0.34,0.14,0.92,0.42,1.18
		C289.36,26.93,290.05,27.26,290.8,27.74z"/>
	<path class="st1" d="M326.44,150.47c-0.1,0.17-0.17,0.36-0.29,0.5c-2.07,2.32-4.64,3.18-7.67,2.57c-1.47-0.29-2.01-1.14-1.85-2.64
		c0.16-1.54,0.9-2.78,2.05-3.78c0.77-0.67,1.56-1.3,2.46-2.04c-1.71-0.37-3.2-0.43-4.61,0.51c-0.07-0.13-0.17-0.22-0.16-0.3
		c0.18-1.2,1.26-2.35,2.46-2.43c1.02-0.07,2.06-0.03,3.07,0.1c0.77,0.1,1.06,0.58,0.77,1.29c-0.35,0.84-0.84,1.64-1.41,2.35
		c-0.46,0.57-1.14,0.95-1.71,1.45c-0.54,0.47-1.11,0.94-1.56,1.49c-0.59,0.72-0.44,1.23,0.36,1.7c1.48,0.88,3.05,0.63,4.59,0.28
		c0.92-0.21,1.78-0.65,2.67-0.98c0.24-0.09,0.48-0.17,0.72-0.25C326.37,150.37,326.4,150.42,326.44,150.47z"/>
	<path class="st1" d="M184.13,38.43c-0.33-0.68-0.57-1.31-0.92-1.87c-0.17-0.28-0.53-0.61-0.79-0.6c-0.25,0.01-0.61,0.41-0.68,0.7
		c-0.44,1.89-0.82,3.79-1.22,5.69c-0.21,1-0.41,2-0.63,3c-0.04,0.17-0.18,0.32-0.37,0.64c-0.22-0.48-0.39-0.78-0.5-1.11
		c-0.33-0.94-0.69-1.88-0.94-2.84c-0.35-1.35-1.14-2.32-2.32-3.04c-1.33-0.81-1.38-1.01-0.98-2.52c0.11-0.4,0.19-0.8,0.35-1.18
		c0.35-0.87,1.15-1.04,1.62-0.25c0.68,1.13,1.25,2.34,1.73,3.57c0.52,1.32,0.89,2.71,1.32,4.07c0.08,0,0.16,0,0.25,0
		c0.11-0.7,0.19-1.4,0.33-2.1c0.35-1.75,0.69-3.51,1.12-5.25c0.14-0.55,0.48-1.09,0.83-1.55c0.63-0.82,1.46-0.74,2.01,0.13
		C185.31,35.46,185.05,36.92,184.13,38.43z"/>
	<path class="st1" d="M261.86,30.2c0.19,1.37,0,2.5-0.29,3.61c-0.35,1.35-1.07,2.5-2.06,3.47c-1.07,1.05-1.96,0.93-2.77-0.31
		c-1.57-2.39-1.74-4.91-0.91-7.59c0.92-2.98,1.75-6,2.64-8.99c0.13-0.44,0.36-0.86,0.54-1.29c0.1,0.03,0.21,0.05,0.31,0.08
		c-0.28,1.57-0.47,3.16-0.85,4.71c-0.44,1.81-1.02,3.6-1.55,5.39c-0.46,1.57-0.19,3,0.76,4.31c0.65,0.88,1.66,0.95,2.32,0.05
		c0.6-0.82,1.02-1.77,1.51-2.67C261.61,30.78,261.68,30.59,261.86,30.2z"/>
	<path class="st1" d="M47.9,52.72c-0.3-0.64-0.54-1.29-0.89-1.88c-0.44-0.75-1.06-0.74-1.43,0.07c-0.4,0.88-0.67,1.83-0.89,2.77
		c-0.31,1.37-0.5,2.77-0.8,4.15c-0.14,0.65-0.43,1.28-0.65,1.92c-0.08,0-0.16,0-0.24,0c-0.11-0.24-0.24-0.46-0.32-0.71
		c-0.35-1.15-0.73-2.29-1.02-3.46c-0.27-1.12-0.89-1.93-1.82-2.57c-1.52-1.06-1.56-1.24-0.91-3c0.09-0.24,0.16-0.49,0.25-0.72
		c0.3-0.78,0.97-0.94,1.56-0.35c0.23,0.23,0.4,0.53,0.54,0.83c0.96,2.03,1.68,4.12,2.01,6.35c0.03,0.23,0.15,0.46,0.38,0.68
		c0.29-1.26,0.57-2.51,0.86-3.77c0.22-0.95,0.39-1.91,0.7-2.83c0.24-0.69,0.6-1.37,1.03-1.96c0.68-0.94,1.58-0.79,2.09,0.26
		C49.1,49.98,48.83,51.36,47.9,52.72z"/>
	<path class="st1" d="M29.84,85.63c1.41-0.4,2.82-0.82,4.24-1.21c1.18-0.33,2.4-0.54,3.55-0.95c1.35-0.48,2.42-1.37,2.94-2.77
		c0.42-1.14-0.23-2.11-1.32-2.01c-0.51,0.04-1.02,0.15-1.52,0.23c-0.23,0.03-0.45,0.05-0.82-0.08c0.38-0.44,0.72-0.94,1.16-1.32
		c1.11-0.96,2.41-1.48,3.9-1.36c1.28,0.11,1.99,1.02,1.73,2.29c-0.15,0.74-0.42,1.49-0.82,2.13c-1.85,2.91-4.65,4.33-7.95,4.9
		c-1.44,0.25-2.89,0.43-4.34,0.63c-0.22,0.03-0.46-0.05-0.69-0.08C29.86,85.89,29.85,85.76,29.84,85.63z"/>
	<path class="st1" d="M157.57,50.72c-0.32,1.63-0.58,3.27-0.98,4.88c-0.4,1.61-0.9,3.2-1.41,4.79c-0.55,1.72-0.09,3.19,1.03,4.51
		c0.45,0.53,1.3,0.5,1.8-0.19c0.67-0.93,1.21-1.95,1.94-3.15c-0.08,1.05-0.07,1.94-0.24,2.8c-0.28,1.45-0.99,2.7-2.04,3.74
		c-1.03,1.02-1.97,0.91-2.71-0.33c-1.28-2.15-1.71-4.41-0.95-6.87c0.91-2.96,1.76-5.94,2.65-8.91c0.14-0.47,0.36-0.91,0.55-1.37
		C157.33,50.66,157.45,50.69,157.57,50.72z"/>
	<path class="st1" d="M138.71,78.98c0.32,2.68-0.43,4.98-2.43,6.79c-0.72,0.65-1.51,0.51-2.12-0.32c-1.47-1.98-1.97-4.18-1.31-6.56
		c0.97-3.48,2.03-6.93,3.06-10.39c0.06-0.2,0.18-0.39,0.28-0.58c0.09,0.03,0.18,0.06,0.27,0.09c-0.16,0.99-0.24,1.99-0.49,2.96
		c-0.62,2.46-1.34,4.89-1.97,7.34c-0.42,1.64,0.23,2.98,1.36,4.12c0.51,0.52,1.07,0.24,1.4-0.2c0.61-0.82,1.11-1.71,1.64-2.58
		C138.54,79.44,138.61,79.2,138.71,78.98z"/>
	<path class="st1" d="M308.38,110.76c1.38,0.93,1.4,0.99,0.6,2.55c-0.49-0.33-0.97-0.65-1.53-1.02c-2.02,2.83-4.95,4.22-8.07,5.33
		c-0.19,0.07-0.42,0.01-0.72-0.16c0.26-0.22,0.5-0.47,0.78-0.64c1.21-0.73,2.45-1.42,3.66-2.16c1.19-0.73,2.28-1.58,3.17-2.8
		c-0.5-0.18-0.94-0.31-1.35-0.51c-1.13-0.53-1.47-1.27-1.08-2.46c0.43-1.31,1.3-2.28,2.49-2.94c1.12-0.62,2.16-0.14,2.24,1.14
		C308.66,108.25,308.46,109.42,308.38,110.76z M307.08,110.26c0.08-0.54,0.21-0.92,0.17-1.28c-0.04-0.4-0.15-1.01-0.4-1.11
		c-0.41-0.17-1.01-0.12-1.45,0.05c-0.6,0.24-0.61,0.98-0.07,1.35C305.84,109.6,306.39,109.87,307.08,110.26z"/>
	<path class="st1" d="M336.82,105.25c-2.94,3.07-7.25,5.62-8.91,5.16c0.39-0.3,0.67-0.56,1-0.76c1.17-0.7,2.37-1.37,3.53-2.08
		c1.19-0.73,2.27-1.59,3.16-2.79c-0.5-0.19-0.94-0.33-1.35-0.52c-1.11-0.51-1.44-1.23-1.09-2.38c0.42-1.38,1.33-2.38,2.59-3.04
		c1.04-0.55,2.02-0.12,2.13,1.04c0.11,1.2-0.07,2.43-0.13,3.81c1.25,1.01,1.25,1.01,0.57,2.56c-0.25-0.18-0.5-0.36-0.74-0.52
		C337.32,105.56,337.06,105.41,336.82,105.25z M336.43,103.19c0.09-0.65,0.18-1.09,0.2-1.54c0.02-0.5-0.16-0.93-0.72-1.02
		c-0.58-0.09-1.19-0.06-1.47,0.53c-0.12,0.25-0.01,0.79,0.2,0.96C335.11,102.52,335.71,102.78,336.43,103.19z"/>
	<path class="st1" d="M100.76,83.25c0.36-1.66,0.67-3.34,1.11-4.99c0.29-1.08,0.72-2.13,1.22-3.12c0.18-0.36,0.77-0.76,1.14-0.72
		c0.37,0.04,0.78,0.53,1,0.92c0.74,1.37,0.4,2.66-0.46,3.98c-0.23-0.57-0.39-1.11-0.66-1.58c-0.21-0.35-0.57-0.61-0.87-0.91
		c-0.26,0.32-0.66,0.61-0.76,0.97c-0.57,2.07-1.06,4.17-1.58,6.25c-0.18,0.7-0.38,1.4-0.57,2.1c-0.1,0-0.19,0-0.29,0
		c-0.32-1.02-0.73-2.03-0.94-3.07c-0.34-1.66-1.1-2.96-2.61-3.8c-0.73-0.41-0.84-1.05-0.59-1.8c0.17-0.51,0.3-1.04,0.52-1.52
		c0.36-0.79,1.02-0.9,1.45-0.16c0.58,0.99,1.06,2.05,1.45,3.13c0.41,1.13,0.65,2.32,0.97,3.48c0.08,0.29,0.19,0.56,0.29,0.84
		C100.64,83.25,100.7,83.25,100.76,83.25z"/>
	<path class="st1" d="M169.05,63.56c0.6-2.46,1.11-4.76,1.75-7.02c0.17-0.6,0.66-1.14,1.1-1.61c0.42-0.44,0.92-0.35,1.35,0.11
		c0.69,0.74,0.9,1.63,0.72,2.58c-0.11,0.61-0.42,1.19-0.72,2.01c-0.34-0.79-0.55-1.38-0.85-1.9c-0.16-0.29-0.49-0.49-0.75-0.72
		c-0.23,0.25-0.6,0.47-0.68,0.76c-0.52,1.9-0.98,3.81-1.45,5.72c-0.23,0.93-0.45,1.86-0.68,2.78c-0.1,0-0.21,0-0.31,0
		c-0.12-0.26-0.28-0.5-0.37-0.77c-0.33-1.05-0.67-2.1-0.94-3.17c-0.27-1.09-0.85-1.89-1.78-2.5c-1.42-0.93-1.59-2.69-0.44-3.99
		c0.4-0.45,0.94-0.46,1.28,0.12c0.53,0.9,1.01,1.85,1.36,2.83c0.45,1.28,0.74,2.61,1.11,3.92
		C168.82,62.97,168.93,63.21,169.05,63.56z"/>
	<path class="st1" d="M196.58,93.74c0.27,0.37,0.52,0.66,0.71,0.99c1.96,3.34,2.56,6.95,1.91,10.74c-0.21,1.23-0.82,2.39-1.08,3.62
		c-0.22,1.05-0.27,2.14-0.27,3.22c0,0.83,0.46,1.25,1.09,1.25c0.67,0,1.04-0.45,1.12-1.32c0.03-0.3,0.1-0.59,0.16-0.89
		c0.07,0,0.14,0,0.2,0c0.07,0.09,0.19,0.19,0.19,0.28c-0.04,0.92-0.02,1.85-0.18,2.76c-0.11,0.66-0.61,1.12-1.34,1.22
		c-0.71,0.1-1.09-0.33-1.45-0.83c-0.82-1.17-1.03-2.49-0.8-3.84c0.26-1.52,0.64-3.02,1.05-4.5c0.91-3.37,0.64-6.54-1.51-9.4
		C195.62,95.99,195.63,94.92,196.58,93.74z"/>
	<path class="st1" d="M180.88,115.97c0.27,0.37,0.52,0.66,0.71,0.99c1.96,3.34,2.56,6.95,1.91,10.74c-0.21,1.23-0.82,2.39-1.08,3.62
		c-0.22,1.05-0.27,2.14-0.27,3.22c0,0.83,0.46,1.25,1.09,1.25c0.67,0,1.04-0.45,1.12-1.32c0.03-0.3,0.1-0.59,0.16-0.89
		c0.07,0,0.14,0,0.2,0c0.07,0.09,0.19,0.19,0.19,0.28c-0.04,0.92-0.02,1.85-0.18,2.76c-0.11,0.66-0.61,1.12-1.34,1.22
		c-0.71,0.1-1.09-0.33-1.45-0.83c-0.82-1.17-1.03-2.49-0.8-3.84c0.26-1.52,0.64-3.02,1.05-4.5c0.91-3.37,0.64-6.54-1.51-9.4
		C179.92,118.22,179.92,117.16,180.88,115.97z"/>
	<path class="st1" d="M106.4,120.96c0.16,1.23,0.29,2.48-0.47,3.6c-0.57,0.84-1.63,0.81-2.29,0.01c-1.11-1.33-1.18-2.9-0.94-4.48
		c0.19-1.29,0.54-2.57,0.91-3.83c1.1-3.65,0.76-7.02-1.7-10.07c-0.23-0.29-0.32-0.8-0.27-1.18c0.08-0.56,0.34-1.1,0.59-1.82
		c0.32,0.37,0.53,0.55,0.67,0.78c2.17,3.58,2.88,7.43,2,11.52c-0.27,1.25-0.84,2.45-1.09,3.7c-0.19,0.94-0.15,1.94-0.11,2.91
		c0.02,0.6,0.41,1.01,1.06,1.01c0.7-0.01,0.98-0.47,1.07-1.1c0.05-0.37,0.12-0.75,0.19-1.12
		C106.15,120.92,106.27,120.94,106.4,120.96z"/>
	<path class="st1" d="M334.23,36.62c-0.1,0.39-0.16,0.79-0.31,1.15c-0.81,1.94-1.67,3.87-2.46,5.82c-0.52,1.29-0.92,2.62-0.57,4.05
		c0.24,0.99,0.97,1.8,1.79,1.91c0.73,0.1,1.56-0.48,2.02-1.43c0.2-0.42,0.39-0.86,0.58-1.28c0.09,0.01,0.17,0.03,0.26,0.04
		c0,0.34,0.07,0.69-0.01,1c-0.4,1.66-0.95,3.26-2.13,4.56c-1.16,1.28-2.54,1.09-3.38-0.42c-0.73-1.33-0.58-2.76-0.46-4.16
		c0.37-4.1,2.35-7.61,4.23-11.15c0.04-0.07,0.14-0.12,0.21-0.17C334.09,36.55,334.16,36.59,334.23,36.62z"/>
	<path class="st1" d="M236.03,78.58c0.69-1.88,2.62-3.31,4.32-3.31c1,0,1.55,0.54,1.66,1.54c0.25,2.18-0.95,3.73-2.24,5.22
		c-1.21,1.39-2.73,2.33-4.51,2.85c-1.25,0.37-2.5,0.76-3.76,1.1c-0.38,0.1-0.78,0.1-1.17,0.15c-0.03-0.07-0.06-0.14-0.09-0.22
		c0.18-0.13,0.35-0.31,0.55-0.4c1.63-0.69,3.25-1.38,4.9-2.03c1.3-0.51,2.48-1.16,3.22-2.39c0.26-0.43,0.45-0.92,0.55-1.41
		c0.26-1.19-0.45-1.86-1.62-1.58C237.28,78.24,236.72,78.4,236.03,78.58z"/>
	<path class="st1" d="M30.74,46.32c-0.36-1.2-0.76-2.38-1.06-3.59c-0.28-1.13-0.84-2-1.79-2.69c-0.47-0.35-1.12-0.92-1.1-1.35
		c0.06-0.91,0.41-1.84,0.83-2.67c0.29-0.57,0.83-0.16,1.06,0.19c0.43,0.66,0.86,1.36,1.11,2.1c0.49,1.48,0.85,3.01,1.26,4.51
		c0.08,0.28,0.19,0.56,0.36,1.04c0.44-1.77,0.81-3.3,1.19-4.83c0.19-0.77,0.39-1.54,0.63-2.3c0.33-1.06,1.17-1.84,1.82-1.73
		c0.58,0.09,1.32,1.24,1.24,2.21c-0.07,0.86-0.38,1.7-0.58,2.55c-0.09-0.01-0.18-0.02-0.26-0.03c-0.19-0.49-0.32-1-0.59-1.44
		c-0.21-0.34-0.58-0.59-0.88-0.88c-0.26,0.31-0.68,0.58-0.77,0.94c-0.55,2.08-1.02,4.18-1.54,6.26c-0.15,0.6-0.38,1.17-0.57,1.76
		C30.98,46.35,30.86,46.34,30.74,46.32z"/>
	<path class="st1" d="M291.73,110.95c0,2.43-1.41,4.25-3.57,4.55c-1.65,0.23-2.67-0.58-2.72-2.24c-0.07-2.06,0.63-3.86,2.13-5.28
		c1.51-1.43,3.3-0.92,3.84,1.08C291.58,109.66,291.63,110.31,291.73,110.95z M288.11,113.4c0.56-0.23,1.14-0.42,1.67-0.7
		c0.19-0.1,0.41-0.43,0.37-0.6c-0.16-0.72-0.31-1.47-0.65-2.12c-0.38-0.72-1.18-0.79-1.74-0.17c-0.42,0.46-0.78,1.03-1,1.61
		C286.29,112.65,286.77,113.27,288.11,113.4z"/>
	<path class="st1" d="M79.01,97.48c-0.06,2.57-1.5,4.36-3.75,4.56c-1.59,0.14-2.51-0.67-2.55-2.26c-0.06-2.07,0.63-3.85,2.13-5.28
		c1.45-1.39,3.19-0.96,3.79,0.95C78.83,96.09,78.89,96.8,79.01,97.48z M75.38,99.9c0.48-0.17,0.98-0.29,1.43-0.52
		c0.25-0.12,0.61-0.46,0.57-0.63c-0.18-0.81-0.36-1.66-0.75-2.37c-0.33-0.61-1.03-0.63-1.51-0.11c-0.44,0.48-0.83,1.05-1.08,1.65
		C73.54,99.16,74.04,99.83,75.38,99.9z"/>
	<path class="st1" d="M330.22,17.77c-0.21,0.62-0.38,1.25-0.64,1.85c-1.51,3.54-4,6.27-7.3,8.15c-2.87,1.64-5.89,3.03-8.85,4.51
		c-0.26,0.13-0.57,0.15-0.86,0.22c-0.04-0.06-0.08-0.12-0.11-0.18c0.2-0.18,0.39-0.39,0.61-0.54c4.33-3.02,8.68-6.02,13.01-9.05
		c1.67-1.17,2.88-2.71,3.6-4.62c0.06-0.17,0.18-0.32,0.27-0.48C330.04,17.68,330.13,17.73,330.22,17.77z"/>
	<path class="st1" d="M263.32,78.37c0.1-1.77,0.9-2.97,2.42-3.8c3.11-1.7,6.18-3.49,9.26-5.24c0.31-0.18,0.63-0.33,0.96-0.5
		c0.25,1.16-0.22,2.46-1.27,3.07c-3.68,2.17-7.38,4.28-11.08,6.42C263.55,78.35,263.47,78.34,263.32,78.37z"/>
	<path class="st1" d="M408.85,84.52c-0.27-1.64-0.52-3.28-0.8-4.91c-0.19-1.08-0.43-2.16-0.66-3.23c-0.43-2.04,0.24-3.44,2.1-4.37
		c0.24-0.12,0.46-0.31,0.88-0.59c-0.69-0.1-1.17-0.18-1.73-0.26c0.19-0.47,0.36-0.97,0.6-1.44c0.57-1.13,1.41-1.27,2.36-0.42
		c1.15,1.03,1.41,2.41,0.74,3.6c-0.53,0.94-1.49,0.88-2.34,1.1c-0.25,0.07-0.5,0.09-0.75,0.16c-0.8,0.22-1.01,0.55-0.87,1.35
		c0.34,1.97,0.76,3.93,0.98,5.91c0.11,1.01-0.14,2.06-0.22,3.09C409.04,84.52,408.95,84.52,408.85,84.52z"/>
	<path class="st1" d="M89.27,83.87c-1.65-1.04-3.19-2.01-4.77-3c0.77-1.47,1.51-2.9,2.27-4.37c1.6,1,3.14,1.97,4.76,2.98
		C90.79,80.94,90.05,82.36,89.27,83.87z"/>
	<path class="st1" d="M47.88,39.1c-0.76,1.48-1.5,2.91-2.26,4.4c-1.47-0.93-2.88-1.81-4.26-2.74c-0.18-0.12-0.28-0.61-0.19-0.82
		c0.59-1.25,1.25-2.47,1.94-3.81C44.71,37.12,46.26,38.09,47.88,39.1z"/>
	<path class="st1" d="M196.99,39.21c-1.51-1.15-2.98-2.26-4.52-3.43c0.79-1.24,1.53-2.44,2.33-3.6c0.11-0.16,0.65-0.22,0.83-0.09
		c1.32,0.93,2.61,1.92,3.98,2.95C198.74,36.44,197.89,37.8,196.99,39.21z"/>
	<path class="st1" d="M164.06,42.07c1.6,1,3.14,1.96,4.77,2.99c-0.69,1.31-1.35,2.6-2.07,3.86c-0.08,0.14-0.53,0.25-0.69,0.16
		c-1.44-0.84-2.85-1.73-4.3-2.63C162.55,44.96,163.29,43.54,164.06,42.07z"/>
	<path class="st1" d="M420.83,76.92c-0.32,1.99-0.97,3.86-2.63,5.18c-0.99,0.79-2.02,0.49-2.63-0.64c-0.77-1.43-0.64-2.94-0.37-4.45
		c0.62-3.47,2.25-6.53,4.05-9.5c0.09,0.01,0.17,0.01,0.26,0.02c-0.02,0.24,0.02,0.51-0.07,0.72c-0.83,1.94-1.69,3.86-2.53,5.79
		c-0.49,1.13-0.77,2.3-0.33,3.52c0.27,0.73,0.7,1.33,1.56,1.42c0.87,0.09,1.38-0.43,1.78-1.11c0.22-0.37,0.44-0.73,0.66-1.1
		C420.67,76.83,420.75,76.88,420.83,76.92z"/>
	<path class="st1" d="M30.74,15.57c-0.12,1.02-0.26,2.03-0.36,3.05c-0.04,0.4-0.01,0.83,0.07,1.22c0.2,0.94,0.86,1.17,1.7,0.56
		c-0.01,0.92-0.01,1.72-1.03,2.17c-0.73,0.33-1.54,3.62-1.18,4.36c0.29,0.6,1.26,0.75,1.86,0.18c0.55-0.53,1.05-1.15,1.42-1.81
		c1-1.84,2.44-3.18,4.37-3.97c0.49-0.2,0.76-0.48,0.76-1.02c0-0.23,0.11-0.45,0.14-0.68c0.16-1.27,0.3-1.64,1.81-0.88
		c0.59,0.3,1.17,0.74,1.11,1.53c-0.06,0.77-0.59,1.13-1.27,1.38c-1.06,0.39-2.09,0.84-3.15,1.24c-1.41,0.53-2.45,1.48-3.24,2.73
		c-0.58,0.91-1.16,1.83-1.79,2.71c-0.53,0.74-1.21,0.93-1.87,0.62c-0.73-0.34-1.02-1.04-0.78-1.95c0.37-1.39,0.78-2.76,1.15-4.15
		c0.06-0.24,0.16-0.56,0.06-0.73c-0.92-1.54-0.49-3.16-0.33-4.75c0.06-0.62,0.24-1.23,0.36-1.85
		C30.62,15.55,30.68,15.56,30.74,15.57z"/>
	<path class="st1" d="M276.38,59.6c0.04,2.18-0.42,4.02-1.84,5.55c-1.08,1.17-1.97,1.07-2.72-0.32c-1.01-1.86-1.31-3.81-0.69-5.87
		c0.78-2.57,1.53-5.15,2.31-7.72c0.12-0.39,0.34-0.76,0.51-1.14c0.11,0.04,0.22,0.09,0.33,0.13c-0.21,0.9-0.4,1.81-0.63,2.71
		c-0.54,2.13-1.13,4.25-1.64,6.39c-0.24,1,0.06,1.94,0.63,2.77c0.6,0.87,1.49,0.91,2.11,0.06C275.33,61.4,275.79,60.55,276.38,59.6z
		"/>
	<path class="st1" d="M275.59,27.56c0.19,2.1-0.24,4.01-1.69,5.59c-1.03,1.13-1.92,1.05-2.69-0.28c-1.04-1.8-1.33-3.73-0.76-5.73
		c0.8-2.83,1.68-5.65,2.54-8.47c0.07-0.22,0.23-0.42,0.35-0.63c0.09,0.03,0.18,0.07,0.27,0.1c-0.13,0.65-0.24,1.31-0.4,1.96
		c-0.6,2.36-1.24,4.71-1.83,7.06c-0.31,1.22,0.09,2.29,0.87,3.22c0.54,0.64,1.28,0.65,1.77-0.05c0.54-0.77,0.96-1.64,1.42-2.46
		C275.51,27.78,275.55,27.67,275.59,27.56z"/>
	<path class="st1" d="M183.75,105c0.15,0.18,0.36,0.34,0.43,0.55c0.45,1.24,0.58,2.52,0.26,3.8c-0.38,1.52-1.62,1.91-3.24,1.04
		c-0.44,0.83-1.2,1.19-2.12,1.27c-0.95,0.08-1.66-0.3-1.91-1.2c-0.42-1.48-0.04-2.85,0.76-4.12c0.03-0.05,0.13-0.05,0.35-0.13
		c0,0.32,0.02,0.59,0,0.85c-0.02,0.31-0.13,0.61-0.11,0.92c0.03,0.56,0,1.2,0.76,1.32c0.77,0.12,1.49-0.46,1.63-1.19
		c0.15-0.76,0.34-1.52,0.51-2.28c0.1,0,0.2,0.01,0.3,0.01c0.12,0.54,0.26,1.07,0.37,1.61c0.09,0.46,0.21,0.89,0.78,0.86
		c0.56-0.03,0.92-0.38,0.97-0.93c0.04-0.48-0.02-0.98-0.02-1.46c0-0.28,0.05-0.56,0.08-0.85C183.61,105.04,183.68,105.02,183.75,105
		z"/>
	<path class="st1" d="M142.1,30.56c0,0.23,0.05,0.47-0.01,0.69c-0.64,2.53-1.27,5.07-1.97,7.59c-0.38,1.37-0.26,2.58,0.63,3.71
		c0.65,0.82,1.31,0.87,1.93-0.01c0.5-0.71,0.86-1.52,1.27-2.28c0.05-0.1,0.1-0.21,0.18-0.38c0.41,2.07-0.63,4.75-2.14,5.95
		c-0.75,0.59-1.52,0.43-2.08-0.47c-0.81-1.3-1.31-2.75-1.07-4.26c0.28-1.74,0.78-3.44,1.25-5.14c0.49-1.75,1.05-3.48,1.59-5.22
		c0.02-0.07,0.09-0.12,0.14-0.18C141.93,30.56,142.02,30.56,142.1,30.56z"/>
	<path class="st1" d="M288.37,16.02c-0.28-0.16-0.53-0.29-0.78-0.43c-1.46-0.83-1.49-1.1-1.08-2.92c0.04-0.16,0.53-0.37,0.76-0.32
		c1.2,0.3,2.13,1.06,2.77,2.08c0.59,0.93,1.02,1.95,1.51,2.93c0.11,0.22,0.2,0.46,0.3,0.69c0.09,0,0.18-0.01,0.27-0.01
		c0-0.44,0.02-0.89,0-1.33c-0.08-1.59-0.33-3.18,0.31-4.72c0.49-1.17,0.95-1.53,1.76-1.28c0.94,0.29,1.3,1.11,0.98,2.26
		c-0.03,0.11-0.07,0.23-0.1,0.32c-0.35-0.17-0.65-0.37-0.98-0.48c-1.1-0.34-1.53-0.05-1.59,1.11c-0.03,0.54,0,1.09,0.07,1.62
		c0.21,1.62-0.08,3.17-0.52,4.72c-0.03,0.11-0.09,0.21-0.22,0.47c-0.17-0.29-0.28-0.43-0.35-0.6c-0.61-1.3-1.18-2.62-1.82-3.91
		C289.28,15.44,289.1,15.43,288.37,16.02z"/>
	<path class="st1" d="M285.29,46.25c-0.33-0.2-0.66-0.39-0.98-0.6c-1.42-0.93-1.21-1.33-0.87-2.75c0.14-0.57,0.76-0.46,1.1-0.26
		c0.76,0.46,1.61,0.92,2.13,1.6c0.74,0.96,1.22,2.13,1.8,3.21c0.15,0.28,0.25,0.59,0.38,0.88c0.06-0.01,0.13-0.02,0.19-0.04
		c0-0.77,0.08-1.55-0.02-2.31c-0.19-1.47-0.08-2.86,0.54-4.22c0.29-0.64,0.72-1,1.45-0.87c0.73,0.13,1.2,0.71,1.19,1.47
		c0,0.36-0.03,0.71-0.05,1.14c-0.54-0.21-1.02-0.44-1.52-0.59c-0.72-0.21-1.09,0.04-1.18,0.79c-0.05,0.38,0,0.77,0.02,1.16
		c0.12,1.8,0.21,3.6-0.39,5.35c-0.06,0.19-0.14,0.37-0.29,0.74c-0.16-0.29-0.25-0.44-0.32-0.59c-0.69-1.4-1.36-2.81-2.07-4.2
		C286.03,45.42,285.66,46.02,285.29,46.25z"/>
	<path class="st1" d="M268.19,117.18c-0.69,1.24-1.35,2.43-2.06,3.71c-1.43-0.84-2.82-1.65-4.29-2.51c0.69-1.25,1.36-2.45,2.06-3.73
		C265.36,115.52,266.75,116.33,268.19,117.18z"/>
	<path class="st1" d="M336.74,151.31c0.71-1.27,1.37-2.46,2.07-3.72c1.44,0.84,2.83,1.66,4.29,2.52c-0.7,1.27-1.37,2.47-2.07,3.72
		C339.58,152.98,338.2,152.17,336.74,151.31z"/>
	<path class="st1" d="M31.26,58.06c0.25,1.57-0.97,4.26-2.17,4.98c-0.79,0.48-1.7,0.28-2.02-0.66c-0.34-1-0.57-2.09-0.54-3.14
		c0.07-2.81,1.19-5.33,2.51-7.76c0.35-0.64,0.67-1.3,1.01-1.94c0.09,0.03,0.17,0.06,0.26,0.1c-0.12,0.41-0.21,0.83-0.37,1.23
		c-0.61,1.52-1.24,3.04-1.88,4.55c-0.43,1.02-0.55,2.07-0.42,3.17c0.1,0.83,0.58,1.47,1.33,1.6c0.76,0.13,1.27-0.3,1.63-0.92
		C30.81,58.91,31,58.54,31.26,58.06z"/>
	<path class="st1" d="M279.53,74.26c-0.34,0.58-0.66,1.17-1.01,1.75c-0.91,1.49-1.46,3.1-1.7,4.83c-0.14,1.01,0.24,1.87,0.79,2.67
		c0.31,0.46,0.81,0.41,1.23-0.08c0.15-0.17,0.27-0.38,0.41-0.56c0.13-0.17,0.26-0.34,0.45-0.58c0.12,1.35-1.05,3.44-2.1,3.88
		c-0.49,0.2-0.95,0.14-1.34-0.28c-0.79-0.87-1.09-1.93-1.04-3.06c0.1-1.99,0.73-3.82,1.85-5.48c0.56-0.83,1.08-1.69,1.64-2.52
		c0.17-0.26,0.41-0.48,0.62-0.71C279.4,74.16,279.46,74.21,279.53,74.26z"/>
	<path class="st1" d="M312.86,17.34c-0.33,1.41-0.7,2.79-2.05,3.65c-0.56,0.35-1.16,0.31-1.51-0.23c-0.41-0.63-0.86-1.35-0.94-2.07
		c-0.18-1.62,0-3.24,0.86-4.7c0.9-1.53,1.79-3.07,2.7-4.59c0.1-0.17,0.31-0.27,0.47-0.41c-0.02,0.22,0.02,0.48-0.08,0.65
		c-1.11,1.81-2.06,3.66-2.41,5.8c-0.19,1.17,0.18,2.13,0.8,3.04c0.3,0.43,0.74,0.34,1.06-0.01c0.34-0.38,0.62-0.81,0.92-1.22
		C312.74,17.27,312.8,17.31,312.86,17.34z"/>
	<path class="st1" d="M13.52,18.02c-0.65,2.28-1.88,4.16-3.69,5.65c-2.7,2.24-5.85,3.68-9.04,5.06c-0.18,0.08-0.41,0.06-0.67-0.08
		c0.25-0.16,0.49-0.33,0.74-0.49c2.96-2.01,5.92-4.01,8.87-6.02C11.31,21.06,12.48,19.61,13.52,18.02z"/>
	<path class="st1" d="M408.78,25.41c-0.45,1.2-0.91,2.36-1.32,3.53c-0.3,0.88-0.58,1.81-0.13,2.69c0.25,0.5,0.64,1.09,1.1,1.25
		c0.31,0.11,0.87-0.45,1.3-0.73c0.13-0.09,0.21-0.26,0.35-0.45c0.12,1.23-1.12,3.46-2.13,3.91c-0.61,0.28-1.17,0.04-1.55-0.72
		c-0.58-1.15-0.61-2.35-0.38-3.61C406.34,29.56,407.57,26.81,408.78,25.41z"/>
	<path class="st1" d="M74.47,108.87c-0.05,0.29-0.09,0.58-0.14,0.87c-0.39,2.07-0.8,4.14-1.14,6.22c-0.09,0.57-0.03,1.2,0.13,1.76
		c0.1,0.36,0.52,0.88,0.78,0.87c0.35-0.01,0.73-0.42,1.03-0.73c0.19-0.2,0.26-0.51,0.42-0.85c0.59,1.09-0.06,3.08-1.05,3.5
		c-0.67,0.29-1.21,0.14-1.59-0.5c-0.77-1.28-0.93-2.69-0.68-4.11c0.33-1.9,0.77-3.79,1.22-5.66c0.13-0.52,0.48-0.99,0.72-1.48
		C74.26,108.81,74.36,108.84,74.47,108.87z"/>
	<path class="st1" d="M233.69,114.06c0.4,1.13,0.03,2.7-0.62,3.29c-0.8,0.72-1.67,0.58-2.16-0.37c-0.77-1.49-0.79-3.08-0.46-4.68
		c0.32-1.59,0.66-3.18,1.07-4.75c0.15-0.58,0.51-1.1,0.77-1.65c0.1,0.04,0.2,0.07,0.31,0.11c-0.06,0.33-0.1,0.67-0.18,0.99
		c-0.57,2.22-1.17,4.44-1.13,6.76c0.01,0.43,0.04,0.89,0.2,1.29c0.12,0.29,0.45,0.67,0.71,0.68c0.31,0.01,0.7-0.26,0.93-0.51
		C233.37,114.96,233.46,114.57,233.69,114.06z"/>
	<path class="st1" d="M169.76,112.94c0.68,1.21-0.12,3.24-1.27,3.57c-0.67,0.19-1.09-0.11-1.4-0.65c-0.78-1.37-0.83-2.88-0.58-4.36
		c0.3-1.77,0.73-3.53,1.17-5.28c0.14-0.55,0.49-1.04,0.75-1.56c0.1,0.04,0.2,0.08,0.3,0.12c-0.05,0.31-0.1,0.62-0.17,0.92
		c-0.38,1.92-0.81,3.83-1.12,5.76c-0.11,0.69-0.04,1.45,0.1,2.14c0.07,0.35,0.49,0.88,0.76,0.88c0.35,0.01,0.74-0.39,1.05-0.69
		C169.54,113.6,169.6,113.28,169.76,112.94z"/>
	<path class="st1" d="M352.51,13.99c-0.19,1.28-0.62,2.43-1.56,3.33c-0.45,0.43-1.04,0.68-1.53,0.36c-0.44-0.29-0.88-0.86-0.95-1.36
		c-0.18-1.25-0.05-2.51,0.59-3.66c0.69-1.23,1.37-2.47,2.06-3.7c0.08-0.14,0.23-0.23,0.35-0.35c0.08,0.06,0.15,0.11,0.23,0.17
		c-0.39,0.72-0.77,1.45-1.19,2.16c-0.49,0.84-0.88,1.73-0.55,2.7c0.17,0.49,0.49,1.13,0.89,1.27c0.35,0.12,0.92-0.34,1.38-0.58
		C352.35,14.27,352.42,14.11,352.51,13.99z"/>
	<path class="st1" d="M295.39,115.9c-0.05,0.31-0.09,0.61-0.15,0.92c-0.37,1.84-0.81,3.67-1.11,5.53c-0.12,0.77-0.06,1.6,0.09,2.37
		c0.07,0.36,0.53,0.87,0.83,0.89c0.33,0.01,0.71-0.44,1-0.75c0.17-0.18,0.23-0.48,0.36-0.79c0.7,1.12-0.09,3.25-1.22,3.56
		c-0.68,0.19-1.14-0.07-1.47-0.67c-0.76-1.41-0.8-2.94-0.53-4.45c0.31-1.75,0.73-3.48,1.17-5.2c0.13-0.53,0.49-1.01,0.74-1.51
		C295.19,115.82,295.29,115.86,295.39,115.9z"/>
	<path class="st1" d="M339.62,122.09c0.06,1.04,0.01,2.09-0.73,2.93c-0.75,0.85-1.74,0.7-2.25-0.3c-0.78-1.52-0.75-3.14-0.43-4.76
		c0.32-1.59,0.67-3.18,1.07-4.75c0.14-0.54,0.49-1.03,0.75-1.55c0.1,0.03,0.2,0.06,0.3,0.09c-0.05,0.32-0.1,0.65-0.16,0.97
		c-0.38,2.02-0.8,4.04-1.12,6.07c-0.1,0.64,0.01,1.34,0.17,1.98c0.07,0.31,0.48,0.74,0.73,0.74c0.33,0,0.71-0.32,0.97-0.6
		c0.22-0.23,0.3-0.6,0.44-0.91C339.44,122.03,339.53,122.06,339.62,122.09z"/>
	<path class="st1" d="M43.27,20.32c-1.83-2.14-3.71-4.29-5.52-6.49c-0.67-0.81-1.26-1.7-1.78-2.62c-0.24-0.44-0.22-1.02-0.31-1.54
		c0.1-0.04,0.19-0.07,0.29-0.11c0.79,0.68,1.58,1.35,2.48,2.13c-0.4,0.03-0.64,0.05-1.05,0.08c1.1,1.27,2.13,2.45,3.14,3.64
		c0.72,0.85,1.44,1.69,2.1,2.58C43.15,18.7,43.44,19.52,43.27,20.32z"/>
	<path class="st1" d="M117.03,103.01c-0.02-0.16-0.08-0.33-0.05-0.49c0.46-2.57-0.46-4.64-2.25-6.42c-0.51-0.5-0.27-1.96,0.4-2.19
		c0.18-0.06,0.53,0.12,0.71,0.29c1.25,1.19,1.83,2.72,2.12,4.36c0.23,1.29,0.18,2.57-0.31,3.8c-0.1,0.24-0.25,0.47-0.38,0.7
		C117.18,103.05,117.1,103.03,117.03,103.01z"/>
	<path class="st1" d="M373.89,44.79c-0.41,1.05-0.85,2.08-1.24,3.14c-0.39,1.06-0.36,2.12,0.23,3.12c0.52,0.88,0.91,0.92,1.57,0.14
		c0.18-0.21,0.35-0.43,0.53-0.64c0.07,0.05,0.15,0.08,0.15,0.1c-0.23,1.36-0.83,2.51-1.94,3.36c-0.48,0.37-0.86,0.13-1.17-0.3
		c-0.89-1.21-0.79-2.58-0.59-3.94C371.72,47.86,372.94,46.38,373.89,44.79z"/>
	<path class="st1" d="M385.31,45.5c-0.54,0.92-1.02,1.88-1.64,2.74c-0.58,0.8-1.42,0.71-1.94-0.13c-0.69-1.12-0.77-2.38-0.35-3.56
		c0.61-1.68,1.41-3.29,2.14-4.92c0.03-0.07,0.13-0.12,0.35-0.09c-0.24,0.56-0.49,1.12-0.73,1.68c-0.53,1.18-0.95,2.39-0.65,3.71
		c0.08,0.35,0.17,0.71,0.35,1.01c0.43,0.7,1.23,0.68,1.7,0.01c0.15-0.22,0.33-0.43,0.49-0.64C385.12,45.37,385.21,45.43,385.31,45.5
		z"/>
	<path class="st1" d="M390.18,65.63c-0.32,0.63-0.65,1.25-0.97,1.88c-0.56,1.13-0.88,2.29-0.5,3.56c0.34,1.13,0.88,1.29,1.75,0.49
		c0.13-0.12,0.26-0.24,0.42-0.38c-0.07,1.04-0.84,2.42-1.61,2.93c-0.62,0.41-1.52,0-1.62-0.91c-0.12-1.05-0.23-2.21,0.08-3.17
		c0.52-1.58,1.39-3.04,2.11-4.56C389.95,65.52,390.07,65.58,390.18,65.63z"/>
	<path class="st1" d="M306.75,69.02c-0.21,0.42-0.43,0.83-0.64,1.25c-0.49,0.93-0.97,1.87-1.46,2.8c-0.43,0.82-0.31,1.59,0.2,2.32
		c0.52,0.75,1.2,0.76,1.77,0.05c0.16-0.2,0.3-0.4,0.51-0.56c-0.15,1.4-0.91,2.4-2.09,3.07c-0.52,0.29-1,0.15-1.28-0.44
		c-0.5-1.07-0.67-2.19-0.13-3.27c0.84-1.68,1.75-3.32,2.63-4.98c0.08-0.15,0.14-0.31,0.2-0.47
		C306.56,68.87,306.65,68.95,306.75,69.02z"/>
	<path class="st1" d="M345.5,76.36c-0.27,1.11-0.74,1.97-1.6,2.57c-0.75,0.52-1.53,0.32-1.64-0.57c-0.13-1.04-0.22-2.23,0.17-3.15
		c0.72-1.69,1.8-3.23,2.72-4.84c0.09,0.05,0.19,0.1,0.28,0.15c-0.05,0.13-0.09,0.28-0.16,0.4c-0.52,0.88-1.1,1.74-1.57,2.65
		c-0.41,0.79-0.58,1.64-0.28,2.53c0.35,1.03,0.72,1.16,1.62,0.57C345.17,76.57,345.29,76.5,345.5,76.36z"/>
	<path class="st1" d="M55.27,12.04c-2.83,1.36-5.66,2.71-8.48,4.07c-0.06-0.07-0.12-0.14-0.18-0.21c0.2-0.22,0.36-0.52,0.61-0.63
		c2.45-1.17,4.92-2.31,7.39-3.45c0.17-0.08,0.38-0.05,0.58-0.08C55.21,11.84,55.24,11.94,55.27,12.04z"/>
	<path class="st1" d="M52.32,18.23c0.24,0.41,0.49,0.82,0.73,1.23c0.11-0.02,0.23-0.04,0.34-0.06c0.03-0.56,0.06-1.13,0.09-1.65
		c0.33,0.43,0.68,0.9,1.04,1.37c0.08-0.05,0.16-0.09,0.24-0.14c-0.05-0.47-0.1-0.94-0.15-1.41c0.08-0.03,0.16-0.05,0.25-0.08
		c0.18,0.62,0.42,1.23,0.51,1.86c0.02,0.17-0.38,0.48-0.65,0.59c-0.35,0.14-0.76,0.1-1.13,0.19c-0.99,0.24-1.08,0.21-1.34-0.77
		c-0.09-0.35-0.09-0.72-0.13-1.09C52.19,18.25,52.26,18.24,52.32,18.23z"/>
	<path class="st1" d="M53.41,32.59c-0.38-0.33-0.75-0.57-0.98-0.91c-0.12-0.17-0.1-0.62,0.03-0.75c0.17-0.16,0.57-0.25,0.79-0.16
		c0.56,0.23,0.93,0.26,1.27-0.37c0.08-0.15,0.67-0.13,0.98-0.04c0.41,0.11,0.63,0.41,0.36,0.88c-0.18,0.31-0.26,0.76-0.75,0.52
		C54.28,31.36,53.76,31.66,53.41,32.59z"/>
	<path class="st1" d="M33.06,15.63c0.28-0.29,0.56-0.59,0.85-0.9c-0.21-0.14-0.42-0.27-0.63-0.41c0.24-1.32,0.21-1.39-1.06-1.98
		c-0.47-0.22-0.69-0.51-0.47-1.08c0.94-0.13,1.18,0.73,1.72,1.22c0.1-0.12,0.21-0.24,0.39-0.45c-0.12,0.98-0.03,1.8,0.66,2.5
		c0.3,0.3,0.1,0.7-0.29,0.87c-0.34,0.15-0.71,0.24-1.07,0.36C33.13,15.73,33.1,15.68,33.06,15.63z"/>
	<path class="st1" d="M52.27,7.87c0.46,0.59,0.85,0.98,1.08,1.45c0.16,0.33,0.2,0.8,0.11,1.16c-0.12,0.49-0.51,0.97-1.06,0.74
		c-0.33-0.14-0.72-0.67-0.7-1.01C51.75,9.49,52.04,8.77,52.27,7.87z M53.29,10.04c-0.35-0.18-0.62-0.35-0.91-0.44
		c-0.05-0.02-0.32,0.3-0.28,0.39c0.12,0.3,0.32,0.57,0.53,0.92C52.87,10.58,53.02,10.38,53.29,10.04z"/>
	<path class="st1" d="M48.46,12.89c-0.58-0.82-1.11-1.53-2.07-1.84c-0.42-0.13-0.37-0.47,0.11-1.24c0.54,0.64,1.07,1.26,1.67,1.98
		c0.11-0.71,0.17-1.34,0.33-1.93c0.08-0.28,0.33-0.62,0.58-0.71c0.17-0.06,0.48,0.25,0.74,0.41c-0.1,0.13-0.13,0.2-0.17,0.2
		c-0.95,0.06-1.03,0.14-1.09,1.24C48.53,11.64,48.5,12.27,48.46,12.89z"/>
	<path class="st1" d="M32.64,30.2c0.88-0.41,1.83-0.72,2.61-1.26c0.76-0.53,1.34-1.32,2.08-2.07c0.15,0.42,0.29,0.8,0.45,1.26
		C35.93,28.64,34.64,30.26,32.64,30.2z"/>
	<path class="st1" d="M41.03,12.81c-0.42-1.55-1.14-2.94-2.31-4.08C40.16,8.84,41.39,11.11,41.03,12.81z"/>
	<path class="st1" d="M36.89,18.32c0.19,0.57-0.03,0.98-0.49,1.3c-0.43,0.31-0.79,0.16-1.06-0.21c-0.3-0.41-0.27-1.93,0.12-2.68
		c-0.03,0.53-0.13,0.87-0.06,1.18c0.1,0.42,0.33,0.8,0.5,1.2c0.27-0.24,0.54-0.49,0.82-0.73C36.77,18.35,36.82,18.34,36.89,18.32z"
		/>
	<path class="st1" d="M60.41,31.38c-0.41-0.94-0.82-1.88-1.27-2.9C60.37,28.94,60.83,29.92,60.41,31.38z"/>
	<path class="st1" d="M59.08,16.53c0.41-1.13,1.69-1.96,2.84-1.85C60.87,15.36,59.97,15.94,59.08,16.53z"/>
	<path class="st1" d="M49.8,19.01c-0.25,0.29-0.47,0.53-0.68,0.77c-1.03-0.74-1.11-1.75-0.15-3.18c-0.11,0.57-0.2,0.93-0.25,1.31
		C48.58,18.91,48.74,19.09,49.8,19.01z"/>
	<path class="st1" d="M59.85,9.27c0.05,0.89-0.69,1.69,0.04,2.45c0.26-0.04,0.5-0.08,0.97-0.16c-0.39,0.41-0.64,0.67-0.89,0.94
		C59.03,11.51,58.99,10.65,59.85,9.27z"/>
	<path class="st1" d="M44.83,30.27c-0.82,0.48-1.63,0.96-2.45,1.45c-0.04-0.06-0.07-0.12-0.11-0.18c0.55-0.91,1.54-1.12,2.39-1.55
		C44.72,30.08,44.77,30.18,44.83,30.27z"/>
	<path class="st1" d="M35.02,10.89c-0.34,0.24-0.69,0.48-1.03,0.72c-0.07-0.03-0.13-0.07-0.2-0.1c0.11-0.29,0.15-0.68,0.36-0.84
		c0.18-0.13,0.56,0,0.85,0.02C35.01,10.76,35.01,10.82,35.02,10.89z"/>
	<path class="st1" d="M32.99,19.19c-0.17-0.8-0.35-1.6-0.52-2.41c0.09-0.02,0.18-0.04,0.26-0.06c0.16,0.8,0.32,1.61,0.49,2.41
		C33.14,19.16,33.07,19.17,32.99,19.19z"/>
	<path class="st1" d="M46.86,24.37c0.5,0.52,0.99,1.03,1.42,1.48c0.22-0.58,0.45-1.22,0.73-1.97c0.42,0.39,0.69,0.64,1.12,1.04
		c-2.09-0.3-1.11,1.41-1.63,2.04c-0.54-0.49-1.07-0.99-1.61-1.48C46.59,25.19,46.33,24.91,46.86,24.37z"/>
	<path class="st1" d="M66.76,18.2c-0.41,0.45-0.65,0.71-0.87,0.95c-1-0.68-0.75-1.57-0.51-2.49C65.92,17.1,65.01,18.54,66.76,18.2z"
		/>
</g>
</svg>
