<?xml version="1.0" encoding="UTF-8"?>
<svg id="Layer_1" xmlns="http://www.w3.org/2000/svg" version="1.1" xmlns:xlink="http://www.w3.org/1999/xlink" viewBox="0 0 1920 4657">
  <!-- Generator: Adobe Illustrator 29.3.0, SVG Export Plug-In . SVG Version: 2.1.0 Build 91)  -->
  <defs>
    <style>
      .st0 {
        fill: none;
      }

      .st1 {
        fill: #006654;
      }

      .st2 {
        clip-path: url(#clippath);
      }
    </style>
    <clipPath id="clippath">
      <path class="st0" d="M.1,4296.6c0,28.5,11.1,55.9,31.2,76,30.9,30.9,83.1,59.4,157.6,86,119.6,42.7,258.2,79,365.1,105.9,124.5,31.5,257.2,61.6,406,92.5,0,0,193.5-42.7,262.5-58.5,148.8-34.3,276.7-67.7,389.5-102.1,61.7-18.8,121.1-37.5,169.2-58.8,72.4-32.1,117.7-68.8,134.7-109.2,2.3-6.1,3.6-13.1,4-20.3L1920.3-.1H0v4296.7Z"/>
    </clipPath>
  </defs>
  <g class="st2">
    <rect class="st1" x="-586.3" y="-899" width="2577.5" height="5608"/>
  </g>
</svg>