<?xml version="1.0" encoding="UTF-8"?>
<svg id="Layer_1" xmlns="http://www.w3.org/2000/svg" version="1.1" viewBox="0 0 1233 1080">
    <!-- Generator: Adobe Illustrator 29.3.0, SVG Export Plug-In . SVG Version: 2.1.0 Build 91)  -->
    <defs>
        <style>
            .st0 {
            fill: #231F20;
            }
        </style>
    </defs>
    <path class="st0" d="M2749-552.3c0,0,0,.1,0,.2,73.9,0,2.1,1.6,76-.4,83.4-2.3,150.5,53.1,199.6,146,49.4,93.4,87.7,200,132.1,299.5,25.5,57.2,23.8,110.4-1.3,166.7-50.6,113.9-97.4,232-150.7,343-38.5,80.1-97.2,120.8-162.1,122.4-156.4,3.8-589.3.4-745.7,1.7-43.5.4-67.8-26.4-78.6-91.5-15.1-91.3-37.8-179.8-51.4-271.5-11-74.2-25.2-154.2-17-226.3,15.2-134.3,47.7-263.9,68.9-397,11.7-73.4,40.1-95,85.9-93.4,73.9,2.5,570.1.7,644.1.7Z"/>
    <path class="st0" d="M1237.2,508c0,0-.2,0-.2,0,0,99.2-1.8,2.8.5,102,2.6,111.9-61.1,201.8-168,267.7-107.5,66.2-230.1,117.7-344.7,177.2-65.9,34.3-127.1,31.9-191.8-1.7-131.1-67.9-267-130.6-394.7-202.1C45.9,799.5-.9,720.8-2.7,633.6c-4.4-209.7-.5-224-2-433.8-.4-58.4,30.3-90.9,105.3-105.4,105-20.2,206.9-50.6,312.4-68.9,85.3-14.8,177.5-33.8,260.4-22.9,154.6,20.4,303.7,64,456.8,92.5,84.5,15.7,109.3,53.8,107.5,115.3-2.9,99.1-.8,198.3-.8,297.5Z"/>
</svg>