<?xml version="1.0" encoding="utf-8"?>
<!-- Generator: Adobe Illustrator 27.2.0, SVG Export Plug-In . SVG Version: 6.00 Build 0)  -->
<svg version="1.1" id="Layer_1" xmlns="http://www.w3.org/2000/svg" xmlns:xlink="http://www.w3.org/1999/xlink" x="0px" y="0px"
	 viewBox="0 0 595.28 687.57" style="enable-background:new 0 0 595.28 687.57;" xml:space="preserve">
<style type="text/css">
	.st0{fill:#006654;}
	.st1{fill:#BB9661;}
</style>
<path class="st0" d="M49.62,622.69h496.07c25.94,0,46.97-21.03,46.97-46.97V46.97C592.66,21.03,571.63,0,545.69,0H49.62
	C23.68,0,2.65,21.03,2.65,46.97v528.74C2.65,601.66,23.68,622.69,49.62,622.69z"/>
<path class="st1" d="M1.55,516.96C0.3,456.11,30.68,407.24,81.7,371.41c51.28-36.01,109.77-63.96,164.4-96.36
	c31.42-18.63,60.6-17.32,91.49,0.91c62.54,36.91,127.34,71,188.24,109.87c43.98,28.08,66.31,70.86,67.17,118.24
	c2.08,114.03,0.24-39.48,0.93,74.58c0.19,31.74-14.47,49.43-50.24,57.28c-50.1,10.99-98.69,27.53-149.01,37.45
	c-40.7,8.02-84.66,18.38-124.22,12.43c-73.71-11.09-144.87-34.79-217.89-50.27c-40.3-8.55-52.13-29.25-51.28-62.67
	C2.67,518.98,2.67,570.86,1.55,516.96z"/>
</svg>
