<?xml version="1.0" encoding="UTF-8"?>
<svg id="Layer_1" xmlns="http://www.w3.org/2000/svg" version="1.1" viewBox="0 0 252.27 42.14">
  <!-- Generator: Adobe Illustrator 29.2.0, SVG Export Plug-In . SVG Version: 2.1.0 Build 22)  -->
  <defs>
    <style>
      .st0 {
        fill: #006654;
      }
    </style>
  </defs>
  <path class="st0" d="M231.55,42.14H20.73c-2,0-3.69-1.48-3.95-3.47,0-.02,0-.05,0-.07-.13-1.02-1-1.79-2.03-1.79h-.05c-1.01,0-1.86-.74-2.01-1.73-.18-1.16-.34-2.52-.47-3.56h-.28c-.29,0-.59-.01-.88-.05-1.56-.2-2.94-.79-4.14-1.8-.96-.8-1.79-1.73-2.6-2.68-1.42-1.7-2.72-3.5-3.91-5.37-.12-.18-.25-.38-.37-.57.04-.07.1-.13.15-.2.48-.72.93-1.45,1.42-2.15,1.18-1.71,2.46-3.36,3.88-4.88.55-.59,1.12-1.16,1.78-1.65,1.4-1.03,2.98-1.58,4.73-1.58h.25c.12-1.04.32-2.52.49-3.67.15-.97.99-1.69,1.97-1.69h0c.98,0,1.82-.72,1.97-1.69v-.07C17,1.48,18.72,0,20.75,0h210.79c2.03,0,3.75,1.48,4.06,3.48v.07c.16.97,1,1.69,1.98,1.69h0c.99,0,1.83.72,1.97,1.69.17,1.15.37,2.63.49,3.67h.25c1.75,0,3.33.54,4.73,1.58.66.49,1.23,1.06,1.78,1.65,1.42,1.52,2.7,3.17,3.88,4.88.49.71.95,1.43,1.42,2.15.05.07.11.13.15.2-.12.18-.25.38-.37.57-1.2,1.87-2.49,3.67-3.91,5.37-.8.96-1.64,1.88-2.6,2.68-1.21,1.01-2.59,1.61-4.14,1.8-.29.04-.59.05-.88.05h-.28c-.13,1.04-.3,2.4-.47,3.56-.15.99-1.01,1.73-2.01,1.73h-.05c-1.03,0-1.9.77-2.03,1.79v.07c-.27,1.98-1.96,3.47-3.96,3.47Z"/>
</svg>