<?xml version="1.0" encoding="UTF-8"?>
<svg id="Layer_1" xmlns="http://www.w3.org/2000/svg" version="1.1" viewBox="0 0 595.28 110.71">
  <!-- Generator: Adobe Illustrator 29.2.0, SVG Export Plug-In . SVG Version: 2.1.0 Build 22)  -->
  <defs>
    <style>
      .st0 {
        fill: #006654;
      }
    </style>
  </defs>
  <path class="st0"
    d="M595.28,0c-13.82,31.96-71.58,45.89-102.52,56.13-59.41,18.64-132.81,40.82-194.06,54.58-79.8-17.06-160.28-35.16-237.39-62.15-12.8-4.67-25.48-10.01-37.07-17.27-5.76-3.66-11.27-7.84-15.8-12.99C3.93,13.19.59,6.86,0,0c.4,3.38,1.44,6.65,2.99,9.68,10.56,19.43,38.93,30.1,58.93,37.15,76.13,25.69,160.89,43.51,236.36,60.17,75.38-16.81,158.9-40.65,231.9-64.87C552.71,34.41,584.67,22.76,595.28,0h0Z" />
</svg>