<?xml version="1.0" encoding="UTF-8"?>
<svg id="Layer_1" xmlns="http://www.w3.org/2000/svg" version="1.1" viewBox="0 0 595.28 523.77">
  <!-- Generator: Adobe Illustrator 29.2.0, SVG Export Plug-In . SVG Version: 2.1.0 Build 22)  -->
  <defs>
    <style>
      .st0 {
        fill: #a53232;
      }
    </style>
  </defs>
  <path class="st0"
    d="M388.64.36v.1c35.86,0,1.02.78,36.86-.21,40.46-1.11,72.97,25.74,96.79,70.82,23.95,45.31,42.54,96.99,64.08,145.26,12.39,27.76,11.52,53.54-.61,80.84-24.55,55.26-47.22,112.52-73.07,166.32-18.67,38.86-47.12,58.59-78.63,59.35-75.83,1.84-285.78.22-361.63.83-21.11.17-32.88-12.78-38.09-44.39-7.31-44.27-18.31-87.2-24.9-131.66-5.33-35.96-12.22-74.81-8.27-109.76C8.55,172.74,24.31,109.87,34.61,45.35,40.29,9.74,54.06-.71,76.29.04c35.84,1.21,276.49.32,312.35.32Z" />
</svg>