<?xml version="1.0" encoding="UTF-8"?>
<svg id="Layer_1" xmlns="http://www.w3.org/2000/svg" version="1.1" viewBox="0 0 321.27 426.98">
    <!-- Generator: Adobe Illustrator 29.2.0, SVG Export Plug-In . SVG Version: 2.1.0 Build 22)  -->
    <defs>
        <style>
            .st0 {
            fill: #bb9661; /* Updated color */
            }
        </style>
    </defs>
    <path class="st0"
          d="M321.2,170.21h-.06c0,33.2-.48,66.4.13,99.59.68,37.46-15.79,67.55-43.46,89.61-27.8,22.17-59.52,39.38-89.15,59.33-17.04,11.47-32.86,10.66-49.61-.56-33.91-22.73-69.05-43.71-102.07-67.65C13.13,333.24,1.02,306.9.56,277.73-.57,207.52.43,137.29.05,67.06c-.1-19.54,7.84-30.43,27.24-35.27,27.17-6.77,53.52-16.95,80.8-23.05,22.07-4.94,45.91-11.32,67.36-7.65,39.97,6.83,78.55,21.42,118.15,30.95,21.85,5.26,28.27,18.01,27.81,38.59-.74,33.18-.2,66.39-.2,99.58h-.01Z" />
</svg>
