<?xml version="1.0" encoding="UTF-8"?>
<svg id="Layer_1" xmlns="http://www.w3.org/2000/svg" version="1.1" viewBox="0 0 480.36 841.89">
  <!-- Generator: Adobe Illustrator 29.2.0, SVG Export Plug-In . SVG Version: 2.1.0 Build 22)  -->
  <defs>
    <style>
      .st0 {
        fill: #006654;
      }
    </style>
  </defs>
  <path class="st0" d="M.33,587.46h.1c0-49.62.71-302.9-.19-352.51-1.02-56,23.61-100.98,64.97-133.95,41.56-33.14,88.98-58.87,133.26-88.68,25.47-17.15,49.12-15.94,74.16.84,50.69,33.97,103.22,65.34,152.58,101.12,35.65,25.84,53.75,65.21,54.45,108.82,1.69,104.95.2,413.58.76,518.55.16,29.21-11.73,45.5-40.72,52.72-40.61,10.12-80,25.34-120.78,34.46-32.99,7.38-68.62,16.92-100.69,11.44-59.75-10.21-117.42-32.02-176.62-46.27C8.93,786.13-.65,767.07.03,736.32c1.11-49.6.3-99.24.3-148.86Z"/>
</svg>