<?xml version="1.0" encoding="UTF-8"?>
<svg id="Layer_1" xmlns="http://www.w3.org/2000/svg" version="1.1" viewBox="0 0 296 214">
  <!-- Generator: Adobe Illustrator 29.0.1, SVG Export Plug-In . SVG Version: 2.1.0 Build 192)  -->
  <defs>
    <style>
      .st0 {
        fill: #a53232;
      }
    </style>
  </defs>
  <path class="st0" d="M-.23,128.37c-.63-30.45,14.58-54.9,40.11-72.83,25.66-18.02,54.93-32.01,82.27-48.22,15.72-9.32,30.32-8.67,45.78.46,31.3,18.47,63.73,35.53,94.2,54.98,22.01,14.05,33.18,35.46,33.62,59.17,1.04,57.06.12-19.76.47,37.32.1,15.88-7.24,24.74-25.14,28.66-25.07,5.5-49.39,13.78-74.57,18.74-20.37,4.01-42.37,9.2-62.16,6.22-36.89-5.55-72.49-17.41-109.04-25.16C5.14,183.43-.78,173.07-.36,156.34c.68-26.97.68-1.01.13-27.98Z"/>
</svg>