<?xml version="1.0" encoding="UTF-8"?>
<svg class="transform transition-transform duration-300 group-hover:scale-x-110" id="Layer_1"
  xmlns="http://www.w3.org/2000/svg" version="1.1" viewBox="0 0 360.27 631.43" width="360" height="631">
  <!-- Generator: Adobe Illustrator 29.2.0, SVG Export Plug-In . SVG Version: 2.1.0 Build 22)  -->
  <defs>
    <style>
      .st0 {
        fill: #006654;
      }
    </style>
  </defs>
  <path class="st0"
    d="M.25,440.59h.08c0-37.21.53-227.18-.14-264.39-.77-42,17.7-75.73,48.74-100.47,31.17-24.86,66.74-44.15,99.95-66.51,19.11-12.86,36.84-11.95,55.62,.63,38.02,25.48,77.41,49.01,114.44,75.83,26.74,19.38,40.32,48.91,40.82,81.62,1.27,78.7,.15,310.18,.57,388.92,.12,21.92-8.8,34.12-30.54,39.54-30.45,7.59-60,19.01-90.59,25.85-24.76,5.54-51.46,12.7-75.51,8.58-44.82-7.66-88.07-24.02-132.47-34.71C6.69,589.6-.48,575.32,.01,552.24,.83,515.96,.23,479.43,.23,442.85Z" />
</svg>