<?xml version="1.0" encoding="UTF-8"?>
<svg id="Layer_1" xmlns="http://www.w3.org/2000/svg" version="1.1" viewBox="0 0 384.4 454.8">
  <!-- Generator: Adobe Illustrator 29.2.0, SVG Export Plug-In . SVG Version: 2.1.0 Build 22)  -->
  <defs>
    <style>
      .st0 {
        fill: #bb9661;
      }
    </style>
  </defs>
  <path class="st0" d="M267,454.7c-1,0-1.9,0-2.9,0-17.5-.4-27-.5-32.1-.4h-.3c0,.1-7.6.3-7.6.3-53.6.9-100.3-21.5-135-65.1-18.5-23.2-34-48-49-72-8.1-13-15.8-25.2-23.9-37.3-21.3-31.6-21.1-65.4.6-97.8,9.9-14.8,19.8-30.1,29.3-45,16.7-26,34-52.9,52.7-78.7C125.4,22.1,166.1,1.6,213.5.8c8.1-.1,14.2-.2,18.7-.3,1-.1,2.1-.2,3.2-.2.4,0,.9,0,1.6,0,1,0,2.4,0,3.8,0,1.6,0,3.2,0,4.4,0,.7,0,1.4,0,1.8,0,1,0,2,0,2.9.1,4.6,0,10.7,0,19.1,0,19.5-.1,35.9,4.8,48.8,14.6,13.1,10,22.2,24.9,27,44.1,3.5,13.9,7.8,27.7,12.3,42.3,5.5,17.9,11.3,36.3,15.6,55.5.6,2.6,1.2,5.1,1.8,7.7,6,26.5,12.9,56.4,7.8,86.4-5.3,31-14.1,60.8-22.6,89.7-5.5,18.7-10.7,36.4-15.1,54.4-6.6,27.4-25.4,59.7-77.5,59.7ZM234,385.7c7.5,0,18.2.2,31.7.5,6.2.1,9-.5,10-.8.4-.7,1.3-2.6,2.2-6.3,4.7-19.7,10.4-39,15.9-57.7,8.3-28.2,16.2-54.9,20.8-81.9,2.8-16.5-2.2-38.4-7-59.6-.6-2.7-1.2-5.4-1.8-8-3.7-16.5-8.8-32.8-14.1-50.1-4.6-14.9-9.4-30.3-13.4-46.1-.9-3.6-1.8-5.4-2.2-6.1-.8-.2-2.9-.7-6.7-.6-13.1,0-21.4,0-26.5.1,0,0-.1,0-.2,0-.5,0-1.1,0-1.7,0-5.1.1-13.4.3-26.5.5-17.9.3-42.9,5.7-60.2,29.6-17.6,24.2-34.3,50.3-50.5,75.5-9.7,15.1-19.8,30.7-30,46.1-6.5,9.7-5.9,13.6-.7,21.4,8.8,13,17.1,26.4,25.2,39.2,14.6,23.4,28.5,45.5,44.5,65.6,20.8,26.1,47.1,39.3,78.2,39.3s.4,0,.6,0c2.4-.2,4.9-.2,7.3-.3,1.5,0,3.2,0,5.1,0ZM237,.3h0,0Z"/>
</svg>