<?xml version="1.0" encoding="UTF-8"?>
<svg id="Layer_1" xmlns="http://www.w3.org/2000/svg" version="1.1" viewBox="0 0 595.28 595.47">
  <!-- Generator: Adobe Illustrator 29.2.0, SVG Export Plug-In . SVG Version: 2.1.0 Build 22)  -->
  <defs>
    <style>
      .st0 {
        fill: #006654;
      }

      .st1 {
        fill: none;
        stroke: #bb9661;
        stroke-miterlimit: 10;
        stroke-width: 3.9px;
      }
    </style>
  </defs>
  <path class="st0" d="M17.65,408.86h.11c0-33.12.83-202.18-.22-235.3-1.19-37.38,27.55-67.4,75.82-89.41,48.51-22.12,103.84-39.3,155.52-59.2,29.72-11.44,57.32-10.64,86.55.56,59.16,22.68,120.46,43.62,178.07,67.5,41.61,17.25,62.73,43.53,63.54,72.64,1.97,70.05.23,276.06.88,346.13.18,19.5-13.69,30.37-47.52,35.19-47.39,6.75-93.36,16.91-140.96,23-38.5,4.93-80.09,11.29-117.51,7.64-69.73-6.81-137.04-21.37-206.12-30.88-38.12-5.25-49.31-17.97-48.51-38.5,1.29-33.11.35-66.24.35-99.37Z"/>
  <path class="st1" d="M295.63,593.32c-8.83,0-17.28-.39-25.11-1.15-42.63-4.16-84.83-11.27-125.65-18.14-26.5-4.46-53.91-9.07-81.05-12.81-27-3.72-62.7-13.31-61.13-53.56.9-22.93.7-46.43.5-69.15-.08-9.71-.17-19.74-.17-29.64v-14.63h.14c.02-7.07.04-15.7.07-25.42.19-63.35.5-169.39-.31-194.79-.92-29.1,12.96-70.62,84.37-103.19,31.94-14.57,67.06-27.12,101.02-39.26,18.3-6.54,37.23-13.31,55.31-20.27,16.07-6.19,31.58-9.2,47.43-9.2s32.5,3.19,49.61,9.75c21.77,8.35,44.26,16.61,66,24.6,37.29,13.7,75.85,27.88,112.43,43.04,45.77,18.98,71.54,49.42,72.56,85.74,1.23,43.6,1.02,138.59.85,222.4-.11,50.09-.21,97.41.04,124.01.38,41.19-45.13,47.68-60.09,49.81-21.39,3.05-42.95,6.88-63.81,10.59-25.14,4.47-51.14,9.09-77.36,12.45-3.78.48-7.58.98-11.41,1.48-27.69,3.62-56.33,7.36-84.26,7.36Z"/>
</svg>